<svg width="200" height="112" viewBox="0 0 200 112" fill="none" xmlns="http://www.w3.org/2000/svg">
<g clip-path="url(#clip0_1998_8744)">
<path d="M143.189 0.695605L141.031 6.80528H140.987L140.377 0.695605H135.573L132.07 10.6073H136.088L138.258 4.48499H138.302L138.994 10.6073H143.704L147.214 0.695605H143.189ZM127.328 6.93138H124.932L127.592 2.72586H127.629L127.328 6.93138ZM125.623 0.695605L118.114 10.6073H122.68L123.73 8.87336H127.145L126.969 10.6073H131.541L131.026 0.695605H125.623ZM119.391 7.74474C120.668 4.1256 113.309 5.08398 114.001 3.12308C114.165 2.68172 114.731 2.25297 115.649 2.25297C116.479 2.25297 116.699 2.73847 116.492 3.31854L116.41 3.55814H120.435C121.177 1.43331 119.919 0.500146 116.177 0.500146C112.548 0.500146 110.385 1.59724 109.687 3.59597C108.448 7.10793 115.529 6.13694 114.831 8.09783C114.636 8.63377 113.982 9.05621 113.114 9.05621C112.278 9.05621 111.813 8.74726 112.114 7.90237L112.19 7.66278H108.033L107.92 8.00956C107.184 10.065 108.92 10.8027 112.467 10.8027C116.259 10.8027 118.642 9.85696 119.391 7.74474ZM104.008 5.65144C103.058 8.33112 102.668 9.05621 101.354 9.05621C100.04 9.05621 100.146 8.33112 101.102 5.65144C102.039 2.97176 102.442 2.25297 103.75 2.25297C105.064 2.25297 104.945 2.97176 104.008 5.65144ZM104.366 0.500146C99.9829 0.500146 97.9767 1.94402 96.6686 5.65144C95.3605 9.35886 96.3479 10.8027 100.731 10.8027C105.115 10.8027 107.127 9.35886 108.442 5.65144C109.75 1.94402 108.75 0.500146 104.366 0.500146ZM91.5934 5.65144C90.65 8.33112 90.2475 9.05621 88.9331 9.05621C87.6187 9.05621 87.7445 8.33112 88.6815 5.65144C89.6312 2.97176 90.0211 2.25297 91.3355 2.25297C92.6625 2.25297 92.5367 2.97176 91.5934 5.65144ZM91.9581 0.500146C87.5684 0.500146 85.5622 1.94402 84.2478 5.65144C82.9397 9.35886 83.9333 10.8027 88.3168 10.8027C92.7002 10.8027 94.7127 9.35886 96.0208 5.65144C97.329 1.94402 96.3479 0.500146 91.9581 0.500146ZM79.204 5.65144C78.2606 8.33112 77.9021 8.74726 76.2356 8.74726H75.3928L77.5751 2.55562H78.4241C80.097 2.55562 80.1536 2.97176 79.204 5.65144ZM80.1662 0.695605H73.9338L70.4434 10.6073H76.6695C81.6253 10.6073 82.7195 8.24916 83.6315 5.65144C84.5559 3.05373 85.1345 0.695605 80.1662 0.695605Z" fill="#272A3C"/>
<path d="M196.516 46.7493C194.598 41.1755 190.057 37.2096 183.875 35.627C182.7 29.1658 179.751 23.1611 175.36 18.2879L172.989 15.6713L149.128 19.158L151.008 14.6435L127.827 17.3737L121.739 23.042L114.891 24.0445C112.676 23.6324 110.398 23.712 108.218 24.2778H108.161L107.765 24.3976C102.976 25.8443 98.5932 28.4018 94.9732 31.8629C91.313 28.7418 86.2755 27.4114 80.5965 28.0987L80.5651 28.105C79.4875 28.2444 78.4218 28.4636 77.3765 28.7607L77.169 28.8238C75.8544 29.3015 74.556 29.823 73.2761 30.3875L73.2824 30.0785C73.3075 20.5451 66.0437 9.30309 50.0192 7.14673C42.3907 6.119 34.5545 8.12403 27.9511 12.7898C15.3793 21.2261 9.54306 31.6106 8.35444 37.9473C5.31684 54.2019 15.8195 64.9081 15.8195 64.9081L20.4734 61.0808L18.6496 86.8121L7.35449 97.3291C7.35449 97.3291 34.4413 91.7112 54.6228 105.992L58.1321 108.47L61.8238 106.27C86.6906 91.4401 116.909 87.884 141.179 85.0277C159.712 82.8462 174.353 81.1249 182.29 74.8323C186.63 71.396 191.428 67.2977 194.208 63.0039C197.497 57.9787 198.346 52.0519 196.516 46.7493Z" fill="#242843"/>
<path d="M58.0163 111.5L53.1612 108.064C32.9985 93.7574 0 100.706 0 100.706C0 100.706 11.0624 89.968 16.188 85.63L17.5275 66.7903L15.2823 68.6377C15.2823 68.6377 2.14456 56.4121 5.86138 37.4777C6.59719 33.5749 8.71031 29.0289 11.8234 24.6783C15.5842 19.4261 20.5274 14.7162 26.5145 10.6935C33.64 5.67464 42.105 3.51828 50.3562 4.62798C66.06 6.7402 74.0785 16.9734 75.5627 26.7086L76.3174 26.4311L76.6884 26.3113C77.8498 25.9877 79.03 25.746 80.2291 25.5863L80.2669 25.5799C85.7698 24.9116 90.845 25.9772 94.826 28.5875C98.4065 25.5505 102.576 23.2899 107.071 21.9482L107.8 21.7338H107.926C108.425 21.6203 108.924 21.5278 109.423 21.4564C111.318 21.179 113.152 21.1832 114.926 21.469L120.592 20.643L126.711 14.9432L155.012 11.6141L153.188 15.9961L173.955 12.9634L177.231 16.5762C181.588 21.4011 184.629 27.2712 186.061 33.619C192.268 35.6682 196.903 40.0818 198.916 45.9203C200.997 51.9732 200.054 58.7134 196.325 64.4007C193.356 68.9971 188.363 73.2594 183.866 76.8281C175.363 83.5683 160.408 85.3274 141.478 87.5531C117.441 90.3841 87.5181 93.9024 63.123 108.455L58.0163 111.5Z" fill="white"/>
<path d="M196.516 46.7493C194.598 41.1755 190.057 37.2096 183.875 35.627C182.7 29.1658 179.751 23.1611 175.36 18.2879L172.989 15.6713L149.128 19.158L151.008 14.6435L127.827 17.3737L121.739 23.042L114.891 24.0445C112.676 23.6324 110.398 23.712 108.218 24.2778H108.161L107.765 24.3976C102.976 25.8443 98.5932 28.4018 94.9732 31.8629C91.313 28.7418 86.2755 27.4114 80.5965 28.0987L80.5651 28.105C79.4875 28.2444 78.4218 28.4636 77.3765 28.7607L77.169 28.8238C75.8544 29.3015 74.556 29.823 73.2761 30.3875L73.2824 30.0785C73.3075 20.5451 66.0437 9.30309 50.0192 7.14673C42.3907 6.119 34.5545 8.12403 27.9511 12.7898C15.3793 21.2261 9.54306 31.6106 8.35444 37.9473C5.31684 54.2019 15.8195 64.9081 15.8195 64.9081L20.4734 61.0808L18.6496 86.8121L7.35449 97.1084C7.35449 97.1084 35.5545 92.7704 54.6228 105.992L58.1321 108.47L61.8238 106.27C86.6906 91.4401 116.909 87.884 141.179 85.0277C159.712 82.8462 174.353 81.1249 182.29 74.8323C186.63 71.396 191.428 67.2977 194.208 63.0039C197.497 57.9787 198.346 52.0519 196.516 46.7493Z" fill="#1B2142"/>
<path d="M132.883 60.092C135.122 58.0786 137.109 55.2244 138.845 51.5296C139.486 53.9003 140.486 55.5586 141.524 56.7124C142.322 57.6078 143.448 58.5472 144.983 59.1904C141.058 59.4552 137.002 59.7578 132.883 60.092ZM59.9802 71.5295C61.2255 70.8696 62.3533 70.1298 63.3637 69.3101C65.6026 67.5026 67.2839 65.3274 68.4075 62.7843C70.1392 65.0409 72.4193 66.8146 75.0299 67.9356C69.9816 68.9958 64.9632 70.1943 59.9802 71.5295ZM193.723 47.715C191.93 42.5133 187.377 39.0644 181.226 38.106C180.616 31.7693 177.73 25.3129 173.164 20.2814L171.849 18.8375L159.139 20.6912L158.567 23.125C158.248 24.4827 157.909 25.8299 157.548 27.1666L152.737 21.6244L144.385 22.8413L146.329 18.1818L129.134 20.2057C129.134 20.2057 128.028 21.9585 127.48 25.2057L114.795 27.0531C113.291 26.7221 111.74 26.6708 110.217 26.9018C104.551 27.734 99.4439 32.0846 96.2931 38.4591C95.7019 37.1161 94.8592 35.874 93.7901 34.8021C90.7462 31.7441 86.1929 30.4074 80.9793 31.0442H80.9416C78.4406 31.3405 76.028 32.1529 73.8556 33.4301C71.6833 34.7073 69.7983 36.4218 68.3195 38.4654C69.4955 36.2018 70.2942 33.4339 70.332 30.0669C70.3508 21.7883 63.8794 12.0027 49.6348 10.086C42.7357 9.15912 35.6291 10.9876 29.6294 15.231C23.7806 19.3671 19.7619 25.3633 18.567 31.6874C16.8186 41.0568 19.1959 47.0593 21.4914 50.4451L23.7429 53.7553L31.2205 47.6141L29.0822 77.6581L48.2512 75.0289C31.4595 80.5521 23.2397 86.5799 23.2397 86.5799C23.2397 86.5799 45.6413 84.02 63.6342 96.7563L65.5838 98.1309L67.6277 96.914C93.0291 81.7627 123.587 78.1625 148.146 75.2748C166.215 73.1499 180.484 71.4728 187.767 65.6973C193.477 61.1702 195.874 53.9445 193.723 47.715Z" fill="white"/>
<path d="M36.1463 29.8844L33.0647 73.4087L48.0703 71.3469C59.9817 69.6508 64.8243 64.4239 66.0569 58.0872C68.1763 46.6938 57.3466 43.8124 57.3466 43.8124C57.3466 43.8124 66.5537 40.395 66.667 30.0609C66.6795 23.1316 61.0446 15.3258 49.1394 13.7243C36.6054 12.0408 24.2537 21.2211 22.1721 32.3623C20.6627 40.4202 22.5431 45.477 24.5179 48.3773L31.9955 42.2298C27.6813 29.8907 37.5613 21.5931 47.215 22.7596C53.9442 23.6044 56.3907 27.9424 56.5039 31.7948C56.6485 36.1643 53.9757 40.5274 48.957 41.1579L48.586 47.5198C52.6173 47.3433 56.7429 50.7922 55.6926 56.4101C54.9316 60.4706 52.328 63.0935 47.6112 63.5601C46.2716 63.6925 43.7686 64.0582 43.7686 64.0582L46.3031 27.9045L36.1463 29.8844Z" fill="#E6232A"/>
<path d="M177.674 41.5028C177.919 35.4751 175.504 28.3251 170.461 22.7514L162.128 23.9682C162.128 23.9682 156.839 46.5469 152.644 47.0072C147.933 47.6755 149.751 36.5092 152.864 27.3604L151.292 25.5508L139.877 27.2154C139.877 27.2154 139.305 25.513 140.519 22.6126C140.519 22.6126 131.72 23.716 131.62 23.7034C130.563 26.9001 130.349 31.4335 133.5 34.46C132.462 39.7626 129.651 51.2632 125.62 51.9063C120.74 52.5999 124.331 39.4032 127.412 28.9241L118.551 30.2229L117.903 33.2998C116.463 31.3326 114.124 30.0464 110.74 30.5382C104.495 31.4524 99.6902 37.8017 97.728 44.9833C95.2376 51.0173 91.2943 56.6414 85.1814 57.4296C74.3328 58.5393 75.8988 43.2556 82.6784 42.0829C86.8732 41.61 86.5776 47.9971 81.2508 48.016L81.5715 52.871C89.3259 54.5607 93.0301 48.9429 93.5773 44.4788C94.2376 39.1195 90.024 33.6403 81.4206 34.687C62.6667 37.1523 63.4214 68.5518 85.7348 65.6073C91.156 64.8949 95.0803 61.4333 97.8664 57.4296C99.3569 60.9542 102.514 63.1168 107.772 62.3539C111.532 61.8053 112.935 59.0122 112.935 59.0122L111.948 52.8331C108.828 54.8067 104.765 53.1232 106.507 45.5885C107.092 42.871 108.816 39.3339 111.771 38.9114C116.444 38.4511 114.627 45.8723 114.627 45.8723C113.086 54.3212 115.979 61.2631 125.312 59.9012C136.267 58.2997 139.902 35.7084 139.902 35.7084L143.355 35.2103C140.122 47.7323 141.789 57.4926 150.688 56.1938C161.14 54.6679 166.832 31.3705 166.832 31.3705C169.165 35.1031 169.863 39.5671 170.046 42.3918C167.322 43.0539 164.794 44.0627 162.863 45.3742C162.863 45.3742 161.864 55.1534 169.951 54.3148C173.561 53.7852 175.14 50.702 176.058 48.1106C184.152 46.1875 191.252 60.2038 163.109 61.7801C115.469 64.3337 70.9305 68.8167 35.5547 83.6716C35.5547 83.6716 51.3967 83.6022 65.7483 93.7598C110.199 67.2467 169.844 75.229 185.491 62.8205C194.378 55.7713 192.441 41.5659 177.674 41.5028Z" fill="#E6232A"/>
</g>
<defs>
<clipPath id="clip0_1998_8744">
<rect width="200" height="111" fill="white" transform="translate(0 0.5)"/>
</clipPath>
</defs>
</svg>
