<svg width="200" height="118" viewBox="0 0 200 118" fill="none" xmlns="http://www.w3.org/2000/svg">
<g clip-path="url(#clip0_1998_8760)">
<path d="M188.981 65.6897C190 64.2545 190.741 62.5878 191.204 60.8748L192.222 57.0322C192.593 55.6434 192.778 54.2082 192.778 52.8193C192.778 51.8934 192.685 50.9674 192.5 50.0878L194.12 49.9489L198.333 34.2082L190.741 25.1804L161.667 27.7267C160 25.6897 158.148 23.6989 156.157 21.8471C155.37 13.2822 148.148 6.52299 139.352 6.52299C137.269 6.52299 135.324 6.89336 133.472 7.5878C121.944 2.77299 108.611 0.0415039 94.3519 0.0415039C69.4445 0.0415039 47.2222 8.42113 33.0556 21.4304L5.13889 23.9304L18.6574 36.1526L0 105.782L8.24074 114.764L62.6852 104.995C72.3611 108.097 83.0556 109.81 94.3519 109.81C113.889 109.81 131.759 104.671 145.417 96.1526L149.259 117.958L164.398 83.8841L199.954 68.1897L188.981 65.6897Z" fill="#D5D5D6"/>
<path d="M195.602 34.8563L189.676 27.773L160.556 30.3193C158.565 27.7267 156.25 25.2267 153.704 22.9119C153.472 15.1804 147.13 8.97669 139.306 8.97669C137.222 8.97669 135.231 9.43965 133.426 10.2267C122.037 5.36558 108.657 2.5415 94.3518 2.5415C69.6296 2.5415 47.6852 10.9211 34.0277 23.8378L10.9722 25.9211L21.3889 35.3656L2.73145 105.088L9.16663 112.079L62.8703 102.449C72.4537 105.551 83.1481 107.31 94.3981 107.31C115 107.31 133.704 101.477 147.268 92.0322L150.37 109.532L162.593 81.986L192.13 68.9304L184.306 67.1711C186.435 65.4119 188.102 62.9582 188.796 60.2267L189.815 56.3841C190.139 55.1804 190.278 53.9767 190.278 52.8193C190.278 51.5693 190.046 50.3656 189.676 49.2545C189.537 48.7915 189.306 48.3285 189.12 47.9119L192.176 47.6341L195.602 34.8563Z" fill="#CF0022"/>
<path d="M142.361 85.9211C133.009 92.31 121.342 96.5692 108.611 98.4211C115.046 96.06 121.018 93.0507 126.342 89.4396C126.666 89.2081 127.037 88.9766 127.361 88.7452L116.62 90.6433C104.722 96.7544 89.9534 100.366 73.8886 100.366C72.3608 100.366 70.833 100.319 69.3516 100.273C77.1293 102.264 85.5553 103.375 94.3053 103.375C114.907 103.375 133.426 97.4026 146.389 87.8655L145.602 83.5137C144.629 84.3007 143.518 85.134 142.361 85.9211Z" fill="white"/>
<path d="M9.35156 103.375L11.3423 105.597L149.027 81.1062L148.611 78.6525L9.35156 103.375ZM158.055 77.4488L151.157 92.958L153.055 94.8562L159.953 79.3469L175.046 72.6803L173.148 70.7821L158.055 77.4488ZM187.083 33.9766L185.509 39.7636L175.463 40.6432C175.046 40.6895 174.629 41.0599 174.537 41.4766L173.426 45.5506C173.333 45.9673 173.565 46.2914 173.935 46.2451L175.833 46.0599L176.481 43.6525C176.574 43.2358 176.898 43.0506 177.222 43.0043L187.407 42.1247L188.981 36.3377L187.083 33.9766ZM124.444 60.5506L126.342 60.3655L127.129 57.3562L140.602 56.1988L142.963 47.3562C143.148 46.6617 143.24 46.0136 143.24 45.4117C143.24 44.8099 143.148 44.208 142.963 43.6988C142.777 43.1895 142.546 42.7266 142.176 42.3099C141.852 41.9395 140.648 40.5043 140.277 40.0877C141.203 41.2914 141.527 43.0506 140.972 45.0414L138.611 53.884L125.139 55.0414L123.842 59.8562C123.796 60.2729 124.027 60.5969 124.444 60.5506Z" fill="#970022"/>
<path d="M156.991 44.7638L165.834 43.9768L167.176 38.8842C167.223 38.6527 167.315 38.4675 167.408 38.236L165.371 35.8286L163.843 41.6157L155.232 42.3564C154.815 42.4027 154.399 42.7731 154.306 43.1897L148.704 64.0694L140.51 64.8101L141.25 62.0786L138.889 64.9953L120.926 66.5694C118.195 66.8008 116.25 65.4119 115.741 63.1434L112.315 67.3564L107.362 67.7731C106.112 67.8657 105.093 67.5416 104.491 66.8471C103.936 67.5879 103.056 68.1434 102.223 68.1897L94.3523 68.8842C91.6208 69.1156 89.6764 67.7268 89.1671 65.4582L85.7412 69.6712L81.2505 70.0879C79.3986 70.2268 77.9171 69.6712 76.9912 68.5601C77.3616 69.0231 78.5653 70.4582 78.8894 70.8286C79.2134 71.199 79.5838 71.5231 80.0005 71.8008C80.4171 72.0323 80.9264 72.2638 81.4357 72.3564C81.9912 72.449 82.5468 72.4953 83.1949 72.449L86.9912 72.1249L90.4634 67.8657C90.9727 68.4675 91.7597 69.3934 91.9912 69.6712C92.3153 70.0416 92.6857 70.3657 93.1023 70.6434C93.519 70.8749 94.0282 71.1064 94.5375 71.199C95.0931 71.2916 95.6486 71.3379 96.2968 71.2916L104.167 70.5971C105 70.5045 105.88 69.9953 106.436 69.2545C107.038 69.9027 108.01 70.2731 109.306 70.1805L113.565 69.8101L117.038 65.5508C117.547 66.1527 118.334 67.0786 118.565 67.3564C118.889 67.7268 119.26 68.0508 119.676 68.3286C120.093 68.5601 120.602 68.7916 121.112 68.8842C121.667 68.9768 122.223 69.0231 122.871 68.9768L140.834 67.4027L141.621 66.4305L142.454 67.2638L150.649 66.5231L156.297 45.4582C156.389 45.0416 156.713 44.8101 156.991 44.7638ZM183.287 49.8101C182.963 49.4397 181.76 48.0045 181.389 47.5879C182.315 48.7916 182.639 50.5508 182.084 52.5416L180.602 58.0971C180.139 59.9027 178.38 61.5231 176.76 61.6619L158.658 63.236L159.445 67.7268L162.084 68.3286L161.575 65.5045L176.945 64.1619C179.63 63.9305 182.223 61.5694 182.963 58.7453L183.982 54.9027C184.167 54.2082 184.26 53.5601 184.26 52.9582C184.26 52.3564 184.167 51.7545 183.982 51.2453C183.843 50.6897 183.612 50.2268 183.287 49.8101Z" fill="#970022"/>
<path d="M157.685 57.6341L160.185 57.4489L160 56.4767L156.944 53.4211L157.685 57.6341ZM166.481 49.5322C166.805 49.9489 168.102 51.4304 168.426 51.847C168.75 52.2174 169.12 52.5415 169.537 52.8193C169.953 53.0507 170.463 53.2822 170.972 53.3748C171.527 53.4674 172.083 53.5137 172.731 53.4674L173.889 53.3748L174.398 51.5693C174.49 51.1526 174.259 50.8285 173.889 50.8748L170.833 51.1526C168.889 51.2452 167.407 50.6433 166.481 49.5322ZM111.296 61.7081L113.194 61.523L123.148 24.347L121.203 22.0322L110.74 61.0137C110.648 61.4304 110.879 61.7544 111.296 61.7081ZM129.676 47.8656C129.768 47.4489 130.185 47.0785 130.602 47.0322L132.453 46.847L132.963 45.0415C133.055 44.6248 132.824 44.3007 132.453 44.347L128.657 44.6711C128.24 44.7174 127.824 45.0878 127.731 45.5044L126.435 50.3193L129.074 50.0878L129.676 47.8656ZM40.6478 31.7544L38.7034 29.3933L24.583 82.0785L27.2219 81.847L40.6478 31.7544ZM51.3423 71.4767C50.7867 72.2174 49.9071 72.773 49.0737 72.8193L41.2034 73.5137C39.4441 73.6526 37.9626 73.1433 37.0367 72.0785L38.8423 74.2544C39.1663 74.6248 39.5367 74.9489 39.9534 75.2267C40.37 75.4581 40.8793 75.6896 41.3886 75.7822C41.9441 75.8748 42.4997 75.9211 43.1478 75.8748L51.0182 75.1804C51.8515 75.0878 52.7312 74.5785 53.2867 73.8378C53.8886 74.4859 54.8608 74.8563 56.1571 74.7637L61.1108 74.347L61.9904 73.2822L62.7312 74.2081L70.9256 73.4674L76.7126 51.847L79.3052 51.6156L79.8145 49.81C79.9071 49.3933 79.6756 49.0693 79.3052 49.1156L74.8145 49.5322L68.9812 71.06L60.7867 71.8007L61.5275 69.0693L59.1663 71.9396L54.2126 72.3563C52.9163 72.4952 51.8978 72.1248 51.3423 71.4767ZM52.7775 53.8841L53.2867 52.0785C53.3793 51.6619 53.1478 51.3378 52.7775 51.3841L40.046 52.4952L41.9904 54.81L52.7775 53.8841Z" fill="#970022"/>
<path d="M44.7225 67.5414L46.6206 67.3562L47.3151 64.8562C47.4077 64.4395 47.8243 64.0691 48.241 64.0228L50.0929 63.8377L50.7873 61.2914L46.2966 61.708C45.8799 61.7543 45.4632 62.1247 45.3706 62.5414L44.2132 66.8932C44.0743 67.2636 44.3058 67.5877 44.7225 67.5414ZM97.8706 62.8654L99.7688 62.6803L103.102 50.1802C103.195 49.7636 103.611 49.3932 104.028 49.3469L105.88 49.1617L106.574 46.6154L102.084 47.0321C101.667 47.0784 101.25 47.4488 101.158 47.8654L97.3151 62.171C97.2225 62.5877 97.454 62.9117 97.8706 62.8654ZM58.1484 66.3377L60.0466 66.1525L63.241 54.3006C63.4262 53.6062 63.5188 52.958 63.5188 52.3562C63.5188 51.7543 63.4262 51.1525 63.241 50.6432C63.0558 50.134 62.8243 49.671 62.454 49.2543C62.1299 48.884 60.9262 47.4488 60.5558 47.0321C61.4817 48.2358 61.8058 49.9951 61.2503 51.9858L57.5929 65.6432C57.5003 66.0599 57.7317 66.384 58.1484 66.3377ZM84.7225 64.0228L86.6206 63.8377L89.8151 51.9858C90.0003 51.2914 90.0929 50.6432 90.0929 50.0414C90.0929 49.4395 90.0003 48.8377 89.8151 48.3284C89.6299 47.8191 89.3984 47.3562 89.028 46.9395C88.704 46.5691 87.5003 45.134 87.1299 44.7173C88.0558 45.921 88.3799 47.6802 87.8243 49.671L84.1669 63.3284C84.0743 63.7451 84.3058 64.0691 84.7225 64.0228Z" fill="#970022"/>
<path d="M174.537 41.4769C174.629 41.0602 175.046 40.6898 175.463 40.6436L185.509 39.7639L187.083 33.9769L171.065 35.3658C169.398 35.5047 167.685 37.125 167.222 38.9306L165.74 44.4861C164.676 48.4676 166.944 51.4306 170.787 51.0602L173.842 50.7824C174.259 50.7361 174.49 51.0602 174.352 51.4769L173.24 55.551C173.148 55.9676 172.731 56.338 172.315 56.3843L157.639 57.6806L156.898 53.4213L150 68.9306L143.842 71.6621L24.583 82.0787L38.7034 29.3936L23.7034 30.7361L27.8238 34.4861L9.35156 103.375L148.611 78.6528L151.157 92.9584L158.055 77.4491L173.194 70.7824L159.49 67.7269L158.703 63.2361L176.805 61.6621C178.472 61.5232 180.185 59.9028 180.648 58.0973L182.129 52.5417C183.194 48.5602 180.926 45.5973 177.083 45.9213L174.027 46.1991C173.611 46.2454 173.379 45.9213 173.518 45.5047L174.537 41.4769Z" fill="white"/>
<path d="M139.305 35.2729C145.877 35.2729 151.204 29.9459 151.204 23.3747C151.204 16.8035 145.877 11.4766 139.305 11.4766C132.734 11.4766 127.407 16.8035 127.407 23.3747C127.407 29.9459 132.734 35.2729 139.305 35.2729Z" fill="white"/>
<path d="M132.083 13.884C121.157 9.20804 108.241 6.47656 94.3517 6.47656C89.3517 6.47656 84.4906 6.84693 79.8147 7.49508C98.611 8.32841 115.417 14.1617 127.407 23.0969C127.5 19.3469 129.305 16.0136 132.083 13.884ZM163.842 41.6617L165.37 35.8747L150.833 37.171C149.167 37.3099 147.454 38.9303 146.991 40.7358L142.083 59.0691L124.444 60.5969C124.028 60.6432 123.796 60.3192 123.935 59.9025L125.231 55.0877L138.704 53.9303L141.065 45.0877C142.13 41.1062 139.861 38.1432 136.018 38.4673L124.305 39.4858C122.639 39.6247 120.926 41.2451 120.463 43.0506L115.926 59.9951C115.787 60.458 115.741 60.921 115.694 61.384L111.389 61.7543C110.972 61.8006 110.741 61.4766 110.879 61.0599L121.342 22.0784L107.87 23.2821L111.991 27.0321L108.287 40.921L97.8239 41.8469C96.1573 41.9858 94.4443 43.6062 93.9813 45.4117L89.4443 62.3562C89.3054 62.8192 89.2591 63.2821 89.2128 63.7451L84.9073 64.1154C84.4906 64.1617 84.2591 63.8377 84.398 63.421L88.0554 49.7636C89.1202 45.7821 86.8517 42.8191 83.0091 43.1432L68.3332 44.4395L62.5462 66.0599L58.3332 66.4303C57.9165 66.4766 57.6851 66.1525 57.8239 65.7358L61.4813 52.0784C62.5462 48.0969 60.2776 45.134 56.4351 45.458L41.7591 46.7543L40.1851 52.5414L52.9165 51.4303C53.3332 51.384 53.5647 51.708 53.4258 52.1247L52.2221 56.6617L41.8517 57.5877C40.1851 57.7266 38.4258 59.2543 37.9628 61.0136L36.3888 66.9858C35.3239 70.9673 37.5925 73.9303 41.4351 73.6062L49.3054 72.9117C50.1388 72.8192 51.0184 72.3099 51.5739 71.5692C52.1758 72.2173 53.148 72.5877 54.4443 72.4951L59.398 72.0784L61.7591 69.208L61.0184 71.9395L69.2128 71.1988L74.9999 49.5784L79.4906 49.1617C79.9073 49.1154 80.1388 49.4395 79.9999 49.8562L76.3425 63.5136C75.2776 67.4951 77.5462 70.458 81.3888 70.134L85.8795 69.7173L89.3054 65.5043C89.8147 67.7729 91.7591 69.1617 94.4906 68.9303L102.361 68.2358C103.194 68.1432 104.074 67.634 104.629 66.8932C105.231 67.5414 106.204 67.9117 107.5 67.8191L112.454 67.4025L115.879 63.1895C116.389 65.458 118.333 66.8469 121.065 66.6155L139.028 65.0414L141.389 62.1247L140.648 64.8562L148.842 64.1154L154.444 43.2358C154.537 42.8192 154.954 42.4488 155.37 42.4025L163.842 41.6617ZM127.731 45.5506C127.824 45.134 128.241 44.7636 128.657 44.7173L132.454 44.3932C132.87 44.3469 133.102 44.671 132.963 45.0877L131.667 49.9025L126.435 50.3654L127.731 45.5506ZM49.398 66.384C49.3054 66.8006 48.8888 67.171 48.4721 67.2173L44.6758 67.5414C44.2591 67.5877 44.0276 67.2636 44.1665 66.8469L45.3239 62.4951C45.4165 62.0784 45.8332 61.708 46.2499 61.6617L50.7406 61.2451L49.398 66.384ZM102.546 61.7543C102.454 62.171 102.037 62.5414 101.62 62.5877L97.8239 62.9117C97.4073 62.958 97.1758 62.634 97.3147 62.2173L101.157 47.9117C101.25 47.4951 101.667 47.1247 102.083 47.0784L106.574 46.6617L102.546 61.7543Z" fill="white"/>
<path d="M42.9634 70.5044C40.8338 70.6895 39.5838 69.0692 40.1857 66.847L41.5746 61.7081C41.7134 61.1525 42.0838 60.6432 42.5005 60.2729L39.2597 58.6062C38.5653 59.2081 38.0097 60.0414 37.7783 60.921L36.2042 66.8932C35.1394 70.8747 37.4079 73.8377 41.2505 73.5136L49.1208 72.8192C49.9542 72.7266 50.8338 72.2173 51.3894 71.4766C51.9912 72.1247 52.9634 72.4951 54.2597 72.4025L59.1208 71.9858L58.0097 69.2544L42.9634 70.5044ZM71.482 46.8932L68.1486 44.347L60.7875 71.8007L68.982 71.0599L65.6486 68.5136L71.482 46.8932ZM107.778 23.2358L111.899 26.9395L108.149 40.8747L111.482 43.421L116.297 25.4581L107.778 23.2358ZM135.139 51.8932L121.713 53.0507L125.186 55.0414L138.658 53.884L135.139 51.8932ZM148.473 38.2821C147.778 38.9303 147.223 39.7636 146.991 40.6895L140.51 64.8099L148.704 64.0692L145.371 61.5229L150.602 41.9395C150.741 41.384 151.112 40.8747 151.528 40.4581L148.473 38.2821ZM153.056 39.7636C152.547 39.8099 152.038 40.0877 151.575 40.4581L154.676 42.634C154.862 42.4951 155.047 42.4025 155.232 42.3562L163.843 41.6155L161.25 39.0229L153.056 39.7636ZM84.5838 66.8932L82.9634 67.0321C80.8338 67.2173 79.5838 65.597 80.1857 63.3747L83.8431 49.7173C84.4449 47.5414 83.1949 45.8747 81.0653 46.0599L71.482 46.8932L74.8153 49.4395L79.306 49.0229C79.7227 48.9766 79.9542 49.3007 79.8153 49.7173L76.1579 63.3747C75.0931 67.3562 77.3616 70.3192 81.2042 69.9951L85.6949 69.5784L84.5838 66.8932Z" fill="#D5D5D6"/>
<path d="M55.5093 58.6061L43.9352 59.6246C43.4259 59.6709 42.8704 59.9487 42.4537 60.319L45.6944 61.9857C45.8796 61.8468 46.0648 61.7542 46.25 61.7079L50.7407 61.2913L49.3981 66.3839C49.3518 66.5691 49.213 66.8005 49.0278 66.9394L51.4352 69.7635C52.037 69.7172 52.6389 69.1616 52.7778 68.5598L55.5093 58.6061ZM54.4907 48.3746L44.1667 49.2542L41.5741 46.6616L40 52.4487L52.7315 51.3376C53.1481 51.2913 53.3796 51.6153 53.2407 52.032L52.037 56.569L55.5093 58.5598L57.2685 51.9857C57.8704 49.8561 56.6204 48.1894 54.4907 48.3746ZM134.213 41.4302L126.481 42.1246C125.972 42.1709 125.463 42.4487 125 42.819L128.102 44.995C128.287 44.8561 128.472 44.7635 128.657 44.7172L132.454 44.3931C132.87 44.3468 133.102 44.6709 132.963 45.0876L131.667 49.9024L135.139 51.8931L136.991 45.0413C137.593 42.8653 136.343 41.245 134.213 41.4302ZM182.917 37.1709L173.241 38.0042C172.731 38.0505 172.222 38.3283 171.759 38.6987L174.861 40.8746C175.046 40.7357 175.231 40.6431 175.417 40.5968L185.463 39.7172L182.917 37.1709Z" fill="#D5D5D6"/>
<path d="M168.703 36.5229L171.805 38.6989C171.388 39.1155 171.018 39.6248 170.879 40.1804L169.583 44.9952C168.981 47.1711 170.231 48.8378 172.361 48.6526L175.416 48.3748C177.546 48.1896 178.796 49.81 178.194 52.0322L176.898 56.847C176.759 57.4026 176.388 57.9118 175.972 58.3285L172.87 56.1526C173.055 56.0137 173.148 55.8285 173.24 55.597L174.351 51.5229C174.444 51.1063 174.213 50.7822 173.842 50.8285L170.787 51.1063C166.944 51.4304 164.676 48.5137 165.74 44.5322L167.222 38.9304" fill="#D5D5D6"/>
<path d="M176.019 58.2824C175.602 58.699 175.046 58.9305 174.537 58.9768L160.787 60.1805L157.639 57.6342L158.611 63.2361L176.713 61.662C177.546 61.5694 178.38 61.1527 179.074 60.5046L176.019 58.2824ZM111.158 64.5324L96.1113 65.8287C93.9817 66.0138 92.7317 64.3935 93.3335 62.1712L97.5002 46.5694C97.6391 46.0138 98.0095 45.5046 98.4261 45.0879L95.3243 42.912C94.6298 43.5601 94.0743 44.3935 93.8428 45.3194L89.3057 62.2638C88.2409 66.2453 90.5095 69.2083 94.352 68.8842L102.222 68.1898C103.056 68.0972 103.935 67.5879 104.491 66.8472C105.093 67.4953 106.065 67.8657 107.361 67.7731L112.315 67.3564L111.158 64.5324ZM137.732 62.2175L122.685 63.5138C120.556 63.699 119.306 62.0786 119.908 59.8564L124.074 44.2546C124.213 43.699 124.584 43.1898 125 42.7731L121.898 40.5972C121.204 41.2453 120.648 42.0787 120.417 43.0046L115.88 59.949C114.815 63.9305 117.084 66.8935 120.926 66.5694L138.889 64.9953L137.732 62.2175Z" fill="#D5D5D6"/>
<path d="M148.611 78.6525L141.99 77.171L15.6942 97.5414L32.9164 33.1895L23.7034 30.7358L27.8238 34.4858L9.35156 103.375L148.611 78.6525Z" fill="#D5D5D6"/>
<path d="M99.9073 44.4397C99.398 44.486 98.8887 44.7638 98.4258 45.1342L101.528 47.3101C101.713 47.1712 101.898 47.0786 102.083 47.0323L106.574 46.6156L102.546 61.6619C102.5 61.8471 102.361 62.0786 102.176 62.2175L104.583 65.0416C105.185 64.9953 105.787 64.4397 105.926 63.8379L111.435 43.3286L99.9073 44.4397Z" fill="#D5D5D6"/>
<path d="M157.732 69.4859L156.019 59.7637L151.343 70.2729L144.121 73.4674L21.667 87.2174L26.204 91.3377L143.241 75.3192L150.371 76.8933L152.084 86.6155L156.76 76.1063L167.037 71.5692L157.732 69.4859Z" fill="#FAC109"/>
<path d="M154.954 66.8936L156.157 71.0602L160.139 72.4028L155.602 74.8565L153.148 79.4862L151.944 75.2732L147.963 73.9306L152.5 71.5232L154.954 66.8936Z" fill="#004537"/>
<path d="M129.815 16.1528C124.074 13.7917 117.871 11.9861 111.343 10.875C117.408 13.2361 123.009 16.1991 127.963 19.7176C128.38 18.4213 129.028 17.2176 129.815 16.1528Z" fill="#FAC109"/>
<path d="M141.898 31.662C135.879 31.662 131.018 26.8009 131.018 20.7824C131.018 17.2639 132.685 14.1157 135.278 12.125C130.694 13.7917 127.407 18.1898 127.407 23.3287C127.407 29.9028 132.731 35.2269 139.305 35.2269C144.444 35.2269 148.842 31.9398 150.509 27.3565C148.518 29.9954 145.416 31.662 141.898 31.662Z" fill="#D5D5D6"/>
<path d="M142.314 27.4489L141.62 25.8748L141.111 26.4767L141.713 27.8655L141.25 28.3748L143.009 29.0692L143.472 28.5137L141.944 27.8655L142.314 27.4489ZM143.981 25.8285L143.657 24.1618L143.009 24.6711L143.333 26.1063L142.777 26.5692L144.351 27.5878L144.953 27.1248L143.564 26.1989L143.981 25.8285ZM145.972 24.6248L145.926 22.9118L145.277 23.2359V24.7637L144.629 25.0878L145.972 26.3841L146.666 26.0137L145.463 24.8563L145.972 24.6248ZM148.148 23.7915L148.472 22.1248L147.731 22.31L147.453 23.7915L146.759 23.9767L147.777 25.5044L148.518 25.3192L147.592 23.9304L148.148 23.7915ZM150.463 23.4211L151.064 21.847L150.324 21.8933L149.768 23.2822L149.027 23.3285L149.768 25.0415L150.509 24.9952L149.907 23.4674L150.463 23.4211ZM140.972 29.347L140 27.9581L139.629 28.6526L140.463 29.8563L140.138 30.5044L141.944 30.8285L142.314 30.1341L140.694 29.8563L140.972 29.347ZM140.046 31.4767L138.796 30.3192L138.564 31.06L139.676 32.0785L139.444 32.7729L141.296 32.7267L141.527 31.9859L139.861 32.0322L140.046 31.4767ZM139.537 33.7452L138.101 32.8655L138.009 33.6063L139.259 34.3933L139.213 35.1341L141.018 34.7174L141.111 33.9767L139.49 34.3007L139.537 33.7452ZM137.222 17.9581L135.509 17.2637L135.046 17.8655L136.574 18.5137L136.203 18.9304L136.898 20.4581L137.407 19.9026L136.759 18.5137L137.222 17.9581ZM134.166 18.7915L133.564 19.2544L134.953 20.1804L134.49 20.5044L134.861 22.1711L135.463 21.7081L135.138 20.2267L135.74 19.81L134.166 18.7915ZM132.546 19.9952L131.851 20.3192L133.055 21.523L132.546 21.7544V23.4674L133.24 23.097V21.6155L133.888 21.2915L132.546 19.9952ZM130.74 20.8285L129.953 21.06L130.879 22.4489L130.37 22.5878L130.046 24.2544L130.787 24.0692L131.064 22.5878L131.759 22.4026L130.74 20.8285ZM128.888 21.3378L128.101 21.3841L128.75 22.9118L128.194 22.9581L127.546 24.5322L128.333 24.4859L128.888 23.097L129.583 23.0507L128.888 21.3378ZM138.518 18.4211L138.888 17.7267L138.009 16.5229L138.379 15.8748L136.574 15.5507L136.157 16.1989L137.824 16.5229L137.546 17.0322L138.518 18.4211ZM138.426 15.0415L139.676 16.2452L139.907 15.5044L138.796 14.4396L139.027 13.7915H137.176L136.944 14.5322H138.611L138.426 15.0415ZM138.981 12.9118L140.416 13.7915L140.509 13.0507L139.213 12.2637L139.305 11.5229L137.5 11.9396L137.407 12.6804L139.027 12.3563L138.981 12.9118Z" fill="#CF0022"/>
<path d="M46.1572 34.8103L48.1017 32.4491C49.4443 33.5603 50.8794 34.301 52.5924 34.301C53.935 34.301 54.7683 33.7454 54.7683 32.8658V32.8195C54.7683 31.9862 54.2591 31.5695 51.7128 30.9214C48.6572 30.1343 46.7128 29.301 46.7128 26.2917V26.2454C46.7128 23.514 48.8887 21.7084 51.9906 21.7084C54.1665 21.7084 56.0646 22.4029 57.5924 23.6066L55.8794 26.1066C54.5369 25.1806 53.2406 24.6251 51.9443 24.6251C50.6943 24.6251 49.9998 25.2269 49.9998 25.9214V25.9677C49.9998 26.9399 50.648 27.264 53.2406 27.9584C56.2961 28.7454 58.0091 29.8566 58.0091 32.4954V32.5417C58.0091 35.551 55.7406 37.2177 52.4535 37.2177C50.2776 37.2177 47.9628 36.4306 46.1572 34.8103ZM59.0276 34.8103L60.972 32.4491C62.3146 33.5603 63.7498 34.301 65.4628 34.301C66.8054 34.301 67.6387 33.7454 67.6387 32.8658V32.8195C67.6387 31.9862 67.1294 31.5695 64.5832 30.9214C61.5276 30.1343 59.5832 29.301 59.5832 26.2917V26.2454C59.5832 23.514 61.7591 21.7084 64.8609 21.7084C67.0369 21.7084 68.935 22.4029 70.4628 23.6066L68.7498 26.1066C67.4072 25.1806 66.1109 24.6251 64.8146 24.6251C63.5183 24.6251 62.8702 25.2269 62.8702 25.9214V25.9677C62.8702 26.9399 63.5183 27.264 66.1109 27.9584C69.1665 28.7454 70.8795 29.8566 70.8795 32.4954V32.5417C70.8795 35.551 68.6109 37.2177 65.3239 37.2177C63.148 37.2177 60.8332 36.4306 59.0276 34.8103ZM72.2683 29.4862C72.2683 25.1806 75.6017 21.6621 80.185 21.6621C82.9165 21.6621 84.5369 22.4029 86.1109 23.7454L84.0276 26.2454C82.8702 25.2732 81.8517 24.7177 80.0924 24.7177C77.685 24.7177 75.7869 26.8473 75.7869 29.3936V29.4399C75.7869 32.2177 77.685 34.2084 80.3702 34.2084C81.5739 34.2084 82.6387 33.8843 83.472 33.2825V31.1066H80.0924V28.2362H86.6202V34.764C85.0924 36.0603 82.9165 37.1714 80.185 37.1714C75.5091 37.264 72.2683 33.9769 72.2683 29.4862Z" fill="white"/>
</g>
<defs>
<clipPath id="clip0_1998_8760">
<rect width="200" height="117.917" fill="white" transform="translate(0 0.0415039)"/>
</clipPath>
</defs>
</svg>
