<svg width="453" height="259" viewBox="0 0 453 259" fill="none" xmlns="http://www.w3.org/2000/svg">
<g filter="url(#filter0_d_2026_5377)">
<mask id="path-1-outside-1_2026_5377" maskUnits="userSpaceOnUse" x="16.1561" y="6.89434" width="427.365" height="236.446" fill="black">
<rect fill="white" x="16.1561" y="6.89434" width="427.365" height="236.446"/>
<path d="M27.7995 118.09L56.1049 110.505L79.4579 162.778C83.4991 172.523 86.0211 179.457 87.0238 183.581L87.5957 183.428L85.5032 163.61L82.6949 103.38L107.427 96.7537L135.109 150.318L143.206 168.527L143.778 168.374C142.584 164.301 141.301 157.035 139.929 146.575L134.017 89.6289L162.322 82.0445L173.511 198.712L141.203 207.369L115.731 161.486C114.349 158.996 112.677 155.614 110.714 151.339C108.847 147.038 107.323 143.258 106.144 139.999L105.429 140.191C106.037 143.603 106.56 147.651 106.997 152.335C107.53 156.993 107.821 160.745 107.869 163.593L108.751 216.064L76.4432 224.721L27.7995 118.09ZM171.409 79.6097L201.287 71.6039L231.203 183.253L200.896 191.374L171.409 79.6097ZM215.39 67.8249L240.122 61.1981L282.464 96.2784L299.804 111.244L300.519 111.053C295.751 99.3577 292.039 88.5543 289.383 78.6426L281.722 50.0512L312.029 41.9305L341.946 153.58L316.928 160.283L274.862 124.516L257.912 109.292L257.197 109.484C260.562 117.469 263.816 127.323 266.957 139.045L275.614 171.354L245.307 179.474L215.39 67.8249ZM326.376 38.2397L356.254 30.2339L374.934 105.669L347.915 112.909L326.376 38.2397ZM372.25 148.831C368.247 149.903 364.493 149.428 360.989 147.405C357.51 145.477 355.247 142.559 354.2 138.652C353.153 134.744 353.654 131.086 355.703 127.677C357.752 124.268 360.777 122.027 364.78 120.954C368.688 119.907 372.333 120.36 375.717 122.314C379.1 124.267 381.316 127.198 382.363 131.105C383.41 135.013 382.956 138.658 381.003 142.042C379.075 145.521 376.157 147.784 372.25 148.831ZM372.362 25.9177L402.24 17.9119L420.921 93.3474L393.902 100.587L372.362 25.9177ZM418.236 136.509C414.233 137.581 410.48 137.106 406.975 135.083C403.497 133.155 401.234 130.237 400.187 126.33C399.14 122.422 399.64 118.764 401.689 115.355C403.738 111.946 406.764 109.705 410.767 108.632C414.674 107.585 418.32 108.038 421.703 109.992C425.087 111.945 427.302 114.876 428.349 118.783C429.396 122.691 428.943 126.336 426.989 129.72C425.061 133.199 422.144 135.462 418.236 136.509Z"/>
</mask>
<path d="M27.7995 118.09L56.1049 110.505L79.4579 162.778C83.4991 172.523 86.0211 179.457 87.0238 183.581L87.5957 183.428L85.5032 163.61L82.6949 103.38L107.427 96.7537L135.109 150.318L143.206 168.527L143.778 168.374C142.584 164.301 141.301 157.035 139.929 146.575L134.017 89.6289L162.322 82.0445L173.511 198.712L141.203 207.369L115.731 161.486C114.349 158.996 112.677 155.614 110.714 151.339C108.847 147.038 107.323 143.258 106.144 139.999L105.429 140.191C106.037 143.603 106.56 147.651 106.997 152.335C107.53 156.993 107.821 160.745 107.869 163.593L108.751 216.064L76.4432 224.721L27.7995 118.09ZM171.409 79.6097L201.287 71.6039L231.203 183.253L200.896 191.374L171.409 79.6097ZM215.39 67.8249L240.122 61.1981L282.464 96.2784L299.804 111.244L300.519 111.053C295.751 99.3577 292.039 88.5543 289.383 78.6426L281.722 50.0512L312.029 41.9305L341.946 153.58L316.928 160.283L274.862 124.516L257.912 109.292L257.197 109.484C260.562 117.469 263.816 127.323 266.957 139.045L275.614 171.354L245.307 179.474L215.39 67.8249ZM326.376 38.2397L356.254 30.2339L374.934 105.669L347.915 112.909L326.376 38.2397ZM372.25 148.831C368.247 149.903 364.493 149.428 360.989 147.405C357.51 145.477 355.247 142.559 354.2 138.652C353.153 134.744 353.654 131.086 355.703 127.677C357.752 124.268 360.777 122.027 364.78 120.954C368.688 119.907 372.333 120.36 375.717 122.314C379.1 124.267 381.316 127.198 382.363 131.105C383.41 135.013 382.956 138.658 381.003 142.042C379.075 145.521 376.157 147.784 372.25 148.831ZM372.362 25.9177L402.24 17.9119L420.921 93.3474L393.902 100.587L372.362 25.9177ZM418.236 136.509C414.233 137.581 410.48 137.106 406.975 135.083C403.497 133.155 401.234 130.237 400.187 126.33C399.14 122.422 399.64 118.764 401.689 115.355C403.738 111.946 406.764 109.705 410.767 108.632C414.674 107.585 418.32 108.038 421.703 109.992C425.087 111.945 427.302 114.876 428.349 118.783C429.396 122.691 428.943 126.336 426.989 129.72C425.061 133.199 422.144 135.462 418.236 136.509Z" fill="url(#paint0_linear_2026_5377)"/>
<path d="M27.7995 118.09L25.7289 110.362L16.5974 112.809L20.521 121.41L27.7995 118.09ZM56.1049 110.505L63.4092 107.242L60.6257 101.012L54.0344 102.778L56.1049 110.505ZM79.4579 162.778L86.8477 159.714L86.8063 159.614L86.7621 159.515L79.4579 162.778ZM87.0238 183.581L79.2504 185.471L81.1852 193.428L89.0944 191.308L87.0238 183.581ZM87.5957 183.428L89.6662 191.155L96.2692 189.386L95.5514 182.588L87.5957 183.428ZM85.5032 163.61L77.5118 163.983L77.5228 164.217L77.5474 164.45L85.5032 163.61ZM82.695 103.38L80.6244 95.6531L74.4037 97.3199L74.7036 103.753L82.695 103.38ZM107.427 96.7537L114.534 93.0807L111.577 87.3594L105.356 89.0263L107.427 96.7537ZM135.109 150.318L142.419 147.068L142.324 146.853L142.216 146.645L135.109 150.318ZM143.206 168.527L135.896 171.777L138.673 178.024L145.277 176.254L143.206 168.527ZM143.778 168.374L145.848 176.101L153.758 173.982L151.455 166.124L143.778 168.374ZM139.929 146.575L131.972 147.401L131.983 147.509L131.997 147.616L139.929 146.575ZM134.017 89.6289L131.946 81.9015L125.355 83.6677L126.059 90.455L134.017 89.6289ZM162.322 82.0445L170.285 81.2807L169.383 71.8703L160.251 74.3171L162.322 82.0445ZM173.511 198.712L175.582 206.439L182.121 204.687L181.474 197.948L173.511 198.712ZM141.203 207.369L134.208 211.252L137.24 216.713L143.273 215.096L141.203 207.369ZM115.731 161.486L122.726 157.603L122.726 157.603L115.731 161.486ZM110.714 151.339L103.376 154.525L103.409 154.601L103.444 154.677L110.714 151.339ZM106.144 139.999L113.666 137.276L111.166 130.371L104.073 132.272L106.144 139.999ZM105.429 140.191L103.358 132.463L96.2649 134.364L97.5528 141.594L105.429 140.191ZM106.997 152.335L99.032 153.079L99.0398 153.162L99.0492 153.244L106.997 152.335ZM107.869 163.593L115.868 163.458L107.869 163.593ZM108.751 216.064L110.822 223.792L116.855 222.175L116.75 215.93L108.751 216.064ZM76.4432 224.721L69.1648 228.041L71.9745 234.201L78.5138 232.449L76.4432 224.721ZM27.7995 118.09L29.87 125.817L58.1755 118.233L56.1049 110.505L54.0344 102.778L25.7289 110.362L27.7995 118.09ZM56.1049 110.505L48.8007 113.768L72.1537 166.041L79.4579 162.778L86.7621 159.515L63.4092 107.242L56.1049 110.505ZM79.4579 162.778L72.0682 165.843C76.1154 175.602 78.4107 182.018 79.2504 185.471L87.0238 183.581L94.7973 181.691C93.6314 176.896 90.8828 169.444 86.8477 159.714L79.4579 162.778ZM87.0238 183.581L89.0944 191.308L89.6662 191.155L87.5957 183.428L85.5251 175.7L84.9533 175.853L87.0238 183.581ZM87.5957 183.428L95.5514 182.588L93.4589 162.77L85.5032 163.61L77.5474 164.45L79.6399 184.268L87.5957 183.428ZM85.5032 163.61L93.4945 163.237L90.6863 103.008L82.695 103.38L74.7036 103.753L77.5118 163.983L85.5032 163.61ZM82.695 103.38L84.7655 111.108L109.497 104.481L107.427 96.7537L105.356 89.0263L80.6244 95.6531L82.695 103.38ZM107.427 96.7537L100.32 100.427L128.002 153.991L135.109 150.318L142.216 146.645L114.534 93.0807L107.427 96.7537ZM135.109 150.318L127.799 153.568L135.896 171.777L143.206 168.527L150.516 165.277L142.419 147.068L135.109 150.318ZM143.206 168.527L145.277 176.254L145.848 176.101L143.778 168.374L141.707 160.646L141.135 160.799L143.206 168.527ZM143.778 168.374L151.455 166.124C150.456 162.714 149.235 156.01 147.861 145.534L139.929 146.575L131.997 147.616C133.367 158.06 134.713 165.888 136.101 170.623L143.778 168.374ZM139.929 146.575L147.886 145.749L141.974 88.8028L134.017 89.6289L126.059 90.455L131.972 147.401L139.929 146.575ZM134.017 89.6289L136.087 97.3563L164.393 89.7719L162.322 82.0445L160.251 74.3171L131.946 81.9015L134.017 89.6289ZM162.322 82.0445L154.359 82.8082L165.548 199.476L173.511 198.712L181.474 197.948L170.285 81.2807L162.322 82.0445ZM173.511 198.712L171.44 190.984L139.132 199.641L141.203 207.369L143.273 215.096L175.582 206.439L173.511 198.712ZM141.203 207.369L148.197 203.486L122.726 157.603L115.731 161.486L108.737 165.369L134.208 211.252L141.203 207.369ZM115.731 161.486L122.726 157.603C121.485 155.368 119.909 152.193 117.985 148.001L110.714 151.339L103.444 154.677C105.444 159.034 107.213 162.624 108.737 165.369L115.731 161.486ZM110.714 151.339L118.052 148.152C116.23 143.955 114.773 140.336 113.666 137.276L106.144 139.999L98.6212 142.722C99.8732 146.181 101.464 150.121 103.376 154.525L110.714 151.339ZM106.144 139.999L104.073 132.272L103.358 132.463L105.429 140.191L107.499 147.918L108.214 147.727L106.144 139.999ZM105.429 140.191L97.5528 141.594C98.1109 144.727 98.6081 148.544 99.032 153.079L106.997 152.335L114.963 151.59C114.511 146.758 113.962 142.479 113.305 138.788L105.429 140.191ZM106.997 152.335L99.0492 153.244C99.569 157.786 99.8283 161.25 99.8699 163.727L107.869 163.593L115.868 163.458C115.814 160.241 115.492 156.199 114.945 151.425L106.997 152.335ZM107.869 163.593L99.8699 163.727L100.753 216.199L108.751 216.064L116.75 215.93L115.868 163.458L107.869 163.593ZM108.751 216.064L106.681 208.337L74.3726 216.994L76.4432 224.721L78.5138 232.449L110.822 223.792L108.751 216.064ZM76.4432 224.721L83.7216 221.401L35.0779 114.769L27.7995 118.09L20.521 121.41L69.1648 228.041L76.4432 224.721ZM171.409 79.6097L169.338 71.8823L161.64 73.9449L163.673 81.6506L171.409 79.6097ZM201.287 71.6039L209.014 69.5334L206.944 61.806L199.216 63.8765L201.287 71.6039ZM231.203 183.253L233.274 190.981L241.001 188.91L238.931 181.183L231.203 183.253ZM200.896 191.374L193.161 193.415L195.21 201.18L202.967 199.101L200.896 191.374ZM171.409 79.6097L173.479 87.3371L203.357 79.3313L201.287 71.6039L199.216 63.8765L169.338 71.8823L171.409 79.6097ZM201.287 71.6039L193.559 73.6745L223.476 185.324L231.203 183.253L238.931 181.183L209.014 69.5334L201.287 71.6039ZM231.203 183.253L229.133 175.526L198.826 183.647L200.896 191.374L202.967 199.101L233.274 190.981L231.203 183.253ZM200.896 191.374L208.632 189.333L179.144 77.5689L171.409 79.6097L163.673 81.6506L193.161 193.415L200.896 191.374ZM215.39 67.8249L213.32 60.0975L205.592 62.168L207.663 69.8954L215.39 67.8249ZM240.122 61.1981L245.226 55.0377L242.043 52.401L238.051 53.4707L240.122 61.1981ZM282.464 96.2784L287.691 90.2221L287.63 90.1695L287.568 90.118L282.464 96.2784ZM299.804 111.244L294.577 117.301L297.784 120.068L301.875 118.972L299.804 111.244ZM300.519 111.053L302.59 118.78L311.352 116.432L307.927 108.033L300.519 111.053ZM281.722 50.0512L279.652 42.3238L271.924 44.3944L273.995 52.1218L281.722 50.0512ZM312.029 41.9305L319.757 39.86L317.686 32.1326L309.959 34.2031L312.029 41.9305ZM341.946 153.58L344.016 161.307L351.744 159.237L349.673 151.509L341.946 153.58ZM316.928 160.283L311.746 166.378L314.944 169.097L318.999 168.011L316.928 160.283ZM274.862 124.516L269.516 130.468L269.597 130.541L269.68 130.611L274.862 124.516ZM257.912 109.292L263.258 103.341L260.031 100.443L255.841 101.565L257.912 109.292ZM257.197 109.484L255.126 101.757L246.26 104.132L249.825 112.591L257.197 109.484ZM275.614 171.354L277.684 179.081L285.412 177.01L283.341 169.283L275.614 171.354ZM245.307 179.474L237.579 181.545L239.65 189.272L247.377 187.202L245.307 179.474ZM215.39 67.8249L217.461 75.5523L242.192 68.9255L240.122 61.1981L238.051 53.4707L213.32 60.0975L215.39 67.8249ZM240.122 61.1981L235.018 67.3585L277.36 102.439L282.464 96.2784L287.568 90.118L245.226 55.0377L240.122 61.1981ZM282.464 96.2784L277.237 102.335L294.577 117.301L299.804 111.244L305.031 105.188L287.691 90.2221L282.464 96.2784ZM299.804 111.244L301.875 118.972L302.59 118.78L300.519 111.053L298.449 103.325L297.734 103.517L299.804 111.244ZM300.519 111.053L307.927 108.033C303.258 96.5795 299.663 86.0973 297.111 76.5721L289.383 78.6427L281.656 80.7132C284.415 91.0114 288.245 102.136 293.111 114.073L300.519 111.053ZM289.383 78.6427L297.111 76.5721L289.45 47.9807L281.722 50.0512L273.995 52.1218L281.656 80.7132L289.383 78.6427ZM281.722 50.0512L283.793 57.7787L314.1 49.6579L312.029 41.9305L309.959 34.2031L279.652 42.3238L281.722 50.0512ZM312.029 41.9305L304.302 44.0011L334.218 155.651L341.946 153.58L349.673 151.509L319.757 39.86L312.029 41.9305ZM341.946 153.58L339.875 145.853L314.858 152.556L316.928 160.283L318.999 168.011L344.016 161.307L341.946 153.58ZM316.928 160.283L322.11 154.189L280.044 118.422L274.862 124.516L269.68 130.611L311.746 166.378L316.928 160.283ZM274.862 124.516L280.207 118.565L263.258 103.341L257.912 109.292L252.566 115.244L269.516 130.468L274.862 124.516ZM257.912 109.292L255.841 101.565L255.126 101.757L257.197 109.484L259.268 117.211L259.982 117.02L257.912 109.292ZM257.197 109.484L249.825 112.591C253.005 120.136 256.148 129.618 259.229 141.116L266.957 139.045L274.684 136.975C271.483 125.027 268.12 114.802 264.569 106.377L257.197 109.484ZM266.957 139.045L259.229 141.116L267.886 173.424L275.614 171.354L283.341 169.283L274.684 136.975L266.957 139.045ZM275.614 171.354L273.543 163.626L243.236 171.747L245.307 179.474L247.377 187.202L277.684 179.081L275.614 171.354ZM245.307 179.474L253.034 177.404L223.118 65.7543L215.39 67.8249L207.663 69.8954L237.579 181.545L245.307 179.474ZM326.376 38.2397L324.305 30.5123L316.429 32.6226L318.689 40.457L326.376 38.2397ZM356.254 30.2339L364.019 28.3109L362.059 20.3961L354.183 22.5065L356.254 30.2339ZM374.934 105.669L377.005 113.397L384.586 111.365L382.7 103.746L374.934 105.669ZM347.915 112.909L340.229 115.126L342.404 122.668L349.986 120.636L347.915 112.909ZM360.989 147.405L364.989 140.477L364.928 140.442L364.867 140.407L360.989 147.405ZM355.703 127.677L362.56 131.798L362.56 131.798L355.703 127.677ZM375.717 122.314L379.717 115.386L375.717 122.314ZM381.003 142.042L374.075 138.042L374.04 138.103L374.006 138.164L381.003 142.042ZM326.376 38.2397L328.446 45.9671L358.324 37.9613L356.254 30.2339L354.183 22.5065L324.305 30.5123L326.376 38.2397ZM356.254 30.2339L348.488 32.1569L367.169 107.592L374.934 105.669L382.7 103.746L364.019 28.3109L356.254 30.2339ZM374.934 105.669L372.864 97.942L345.845 105.182L347.915 112.909L349.986 120.636L377.005 113.397L374.934 105.669ZM347.915 112.909L355.602 110.692L334.062 36.0223L326.376 38.2397L318.689 40.457L340.229 115.126L347.915 112.909ZM372.25 148.831L370.179 141.103C368.171 141.642 366.607 141.411 364.989 140.477L360.989 147.405L356.989 154.333C362.38 157.445 368.323 158.165 374.32 156.558L372.25 148.831ZM360.989 147.405L364.867 140.407C363.323 139.552 362.424 138.433 361.928 136.581L354.2 138.652L346.473 140.722C348.071 146.686 351.698 151.402 357.111 154.402L360.989 147.405ZM354.2 138.652L361.928 136.581C361.432 134.73 361.65 133.311 362.56 131.798L355.703 127.677L348.846 123.556C345.658 128.861 344.875 134.759 346.473 140.722L354.2 138.652ZM355.703 127.677L362.56 131.798C363.492 130.246 364.757 129.243 366.851 128.682L364.78 120.954L362.71 113.227C356.797 114.811 352.011 118.289 348.846 123.556L355.703 127.677ZM364.78 120.954L366.851 128.682C368.79 128.162 370.242 128.391 371.717 129.242L375.717 122.314L379.717 115.386C374.424 112.33 368.586 111.652 362.71 113.227L364.78 120.954ZM375.717 122.314L371.717 129.242C373.192 130.094 374.116 131.237 374.635 133.176L382.363 131.105L390.09 129.035C388.516 123.159 385.009 118.441 379.717 115.386L375.717 122.314ZM382.363 131.105L374.635 133.176C375.155 135.115 374.926 136.567 374.075 138.042L381.003 142.042L387.931 146.042C390.987 140.75 391.665 134.911 390.09 129.035L382.363 131.105ZM381.003 142.042L374.006 138.164C373.15 139.708 372.031 140.607 370.179 141.103L372.25 148.831L374.32 156.558C380.284 154.96 385 151.333 388 145.92L381.003 142.042ZM372.362 25.9177L370.291 18.1903L362.415 20.3006L364.675 28.135L372.362 25.9177ZM402.24 17.9119L410.005 15.9889L408.045 8.0741L400.169 10.1845L402.24 17.9119ZM420.921 93.3474L422.991 101.075L430.573 99.0433L428.686 91.4244L420.921 93.3474ZM393.902 100.587L386.215 102.804L388.391 110.346L395.972 108.314L393.902 100.587ZM406.975 135.083L410.975 128.155L410.915 128.119L410.853 128.085L406.975 135.083ZM401.689 115.355L408.546 119.476L408.546 119.476L401.689 115.355ZM421.703 109.992L425.703 103.064L421.703 109.992ZM426.989 129.72L420.061 125.72L420.026 125.781L419.992 125.842L426.989 129.72ZM372.362 25.9177L374.433 33.6451L404.311 25.6393L402.24 17.9119L400.169 10.1845L370.291 18.1903L372.362 25.9177ZM402.24 17.9119L394.475 19.8349L413.155 95.2704L420.921 93.3474L428.686 91.4244L410.005 15.9889L402.24 17.9119ZM420.921 93.3474L418.85 85.62L391.831 92.8597L393.902 100.587L395.972 108.314L422.991 101.075L420.921 93.3474ZM393.902 100.587L401.588 98.3697L380.049 23.7003L372.362 25.9177L364.675 28.135L386.215 102.804L393.902 100.587ZM418.236 136.509L416.166 128.781C414.157 129.32 412.593 129.089 410.975 128.155L406.975 135.083L402.975 142.011C408.366 145.123 414.31 145.843 420.307 144.236L418.236 136.509ZM406.975 135.083L410.853 128.085C409.309 127.23 408.41 126.11 407.914 124.259L400.187 126.33L392.459 128.4C394.057 134.364 397.684 139.08 403.098 142.08L406.975 135.083ZM400.187 126.33L407.914 124.259C407.418 122.408 407.637 120.989 408.546 119.476L401.689 115.355L394.832 111.234C391.644 116.539 390.861 122.437 392.459 128.4L400.187 126.33ZM401.689 115.355L408.546 119.476C409.479 117.924 410.744 116.921 412.837 116.36L410.767 108.632L408.696 100.905C402.784 102.489 397.998 105.967 394.832 111.234L401.689 115.355ZM410.767 108.632L412.837 116.36C414.776 115.84 416.229 116.069 417.703 116.92L421.703 109.992L425.703 103.064C420.411 100.008 414.572 99.3304 408.696 100.905L410.767 108.632ZM421.703 109.992L417.703 116.92C419.178 117.772 420.102 118.915 420.622 120.854L428.349 118.783L436.077 116.713C434.502 110.837 430.996 106.119 425.703 103.064L421.703 109.992ZM428.349 118.783L420.622 120.854C421.141 122.793 420.913 124.245 420.061 125.72L426.989 129.72L433.918 133.72C436.973 128.428 437.651 122.589 436.077 116.713L428.349 118.783ZM426.989 129.72L419.992 125.842C419.136 127.386 418.017 128.285 416.166 128.781L418.236 136.509L420.307 144.236C426.27 142.638 430.987 139.011 433.987 133.598L426.989 129.72Z" fill="white" mask="url(#path-1-outside-1_2026_5377)"/>
</g>
<defs>
<filter id="filter0_d_2026_5377" x="0.597656" y="0.0742188" width="452.299" height="258.126" filterUnits="userSpaceOnUse" color-interpolation-filters="sRGB">
<feFlood flood-opacity="0" result="BackgroundImageFix"/>
<feColorMatrix in="SourceAlpha" type="matrix" values="0 0 0 0 0 0 0 0 0 0 0 0 0 0 0 0 0 0 127 0" result="hardAlpha"/>
<feOffset dy="8"/>
<feGaussianBlur stdDeviation="8"/>
<feComposite in2="hardAlpha" operator="out"/>
<feColorMatrix type="matrix" values="0 0 0 0 0 0 0 0 0 0 0 0 0 0 0 0 0 0 0.8 0"/>
<feBlend mode="color-burn" in2="BackgroundImageFix" result="effect1_dropShadow_2026_5377"/>
<feBlend mode="normal" in="SourceGraphic" in2="effect1_dropShadow_2026_5377" result="shape"/>
</filter>
<linearGradient id="paint0_linear_2026_5377" x1="211.668" y1="39.9173" x2="257.738" y2="211.852" gradientUnits="userSpaceOnUse">
<stop stop-color="#1C0000"/>
<stop offset="1" stop-color="#003EB9"/>
</linearGradient>
</defs>
</svg>
