<svg width="300" height="725" viewBox="0 0 300 725" fill="none" xmlns="http://www.w3.org/2000/svg">
<g filter="url(#filter0_i_2026_5175)">
<path d="M300 701V24C300 10.7452 289.255 0 276 0H148.332C135.078 0 124.339 11.1438 124.268 24.3984C121.74 494.993 45.9945 563.824 12.0644 582.334C4.67877 586.363 0 593.6 0 602.014V701C0 714.255 10.7451 725 24 725H276C289.255 725 300 714.255 300 701Z" fill="#2B2B2B"/>
<path d="M300 701V24C300 10.7452 289.255 0 276 0H148.332C135.078 0 124.339 11.1438 124.268 24.3984C121.74 494.993 45.9945 563.824 12.0644 582.334C4.67877 586.363 0 593.6 0 602.014V701C0 714.255 10.7451 725 24 725H276C289.255 725 300 714.255 300 701Z" fill="url(#paint0_linear_2026_5175)" fill-opacity="0.8"/>
</g>
<defs>
<filter id="filter0_i_2026_5175" x="0" y="0" width="300" height="725" filterUnits="userSpaceOnUse" color-interpolation-filters="sRGB">
<feFlood flood-opacity="0" result="BackgroundImageFix"/>
<feBlend mode="normal" in="SourceGraphic" in2="BackgroundImageFix" result="shape"/>
<feColorMatrix in="SourceAlpha" type="matrix" values="0 0 0 0 0 0 0 0 0 0 0 0 0 0 0 0 0 0 127 0" result="hardAlpha"/>
<feOffset/>
<feGaussianBlur stdDeviation="20"/>
<feComposite in2="hardAlpha" operator="arithmetic" k2="-1" k3="1"/>
<feColorMatrix type="matrix" values="0 0 0 0 0 0 0 0 0 0 0 0 0 0 0 0 0 0 1 0"/>
<feBlend mode="darken" in2="shape" result="effect1_innerShadow_2026_5175"/>
</filter>
<linearGradient id="paint0_linear_2026_5175" x1="150" y1="725" x2="150" y2="0" gradientUnits="userSpaceOnUse">
<stop/>
<stop offset="1" stop-opacity="0"/>
</linearGradient>
</defs>
</svg>
