<svg width="300" height="725" viewBox="0 0 300 725" fill="none" xmlns="http://www.w3.org/2000/svg">
<g filter="url(#filter0_i_2026_5120)">
<path d="M0 701V24C0 10.7452 10.7452 0 24 0H151.668C164.922 0 175.661 11.1438 175.732 24.3984C178.26 494.993 254.006 563.824 287.936 582.334C295.321 586.363 300 593.6 300 602.014V701C300 714.255 289.255 725 276 725H24C10.7452 725 0 714.255 0 701Z" fill="#2B2B2B"/>
<path d="M0 701V24C0 10.7452 10.7452 0 24 0H151.668C164.922 0 175.661 11.1438 175.732 24.3984C178.26 494.993 254.006 563.824 287.936 582.334C295.321 586.363 300 593.6 300 602.014V701C300 714.255 289.255 725 276 725H24C10.7452 725 0 714.255 0 701Z" fill="url(#paint0_linear_2026_5120)" fill-opacity="0.8"/>
</g>
<defs>
<filter id="filter0_i_2026_5120" x="0" y="0" width="300" height="725" filterUnits="userSpaceOnUse" color-interpolation-filters="sRGB">
<feFlood flood-opacity="0" result="BackgroundImageFix"/>
<feBlend mode="normal" in="SourceGraphic" in2="BackgroundImageFix" result="shape"/>
<feColorMatrix in="SourceAlpha" type="matrix" values="0 0 0 0 0 0 0 0 0 0 0 0 0 0 0 0 0 0 127 0" result="hardAlpha"/>
<feOffset/>
<feGaussianBlur stdDeviation="20"/>
<feComposite in2="hardAlpha" operator="arithmetic" k2="-1" k3="1"/>
<feColorMatrix type="matrix" values="0 0 0 0 0 0 0 0 0 0 0 0 0 0 0 0 0 0 1 0"/>
<feBlend mode="darken" in2="shape" result="effect1_innerShadow_2026_5120"/>
</filter>
<linearGradient id="paint0_linear_2026_5120" x1="150" y1="725" x2="150" y2="0" gradientUnits="userSpaceOnUse">
<stop/>
<stop offset="1" stop-opacity="0"/>
</linearGradient>
</defs>
</svg>
