<svg width="318" height="67" viewBox="0 0 318 67" fill="none" xmlns="http://www.w3.org/2000/svg">
<g filter="url(#filter0_d_1159_5706)">
<path d="M4.5 38H313.5V54C313.5 56.2091 311.709 58 309.5 58H8.5C6.29086 58 4.5 56.2091 4.5 54V38Z" fill="#2B2B2B"/>
<mask id="path-2-outside-1_1159_5706" maskUnits="userSpaceOnUse" x="11.5" y="28" width="182" height="31" fill="black">
<rect fill="white" x="11.5" y="28" width="182" height="31"/>
<path d="M16.109 48.288V45.888H35.021V48.288H27.029V54.528H24.101V48.288H16.109ZM17.429 33.744H33.365V36.144H20.357V40.632H33.605V43.032H17.429V33.744ZM36.515 43.488L41.867 37.248V33.456H44.795V37.248L50.147 43.488L48.107 45.216L43.331 39.552L38.555 45.216L36.515 43.488ZM39.755 46.632H42.683V51.936H55.211V54.288H39.755V46.632ZM51.947 33.144H54.875V37.704H57.419V40.104H54.875V48.36H51.947V33.144ZM67.745 42.984V50.52H58.985V34.152H61.649V39.384H65.081V34.152H67.745V40.584H70.001V33.144H72.665V54.528H70.001V42.984H67.745ZM65.081 48.12V41.784H61.649V48.12H65.081ZM74.321 33.144H76.985V54.528H74.321V33.144ZM91.679 42.744C91.631 45.416 91.119 47.44 90.143 48.816C89.167 50.176 87.743 50.856 85.871 50.856C83.951 50.856 82.503 50.136 81.527 48.696C80.551 47.256 80.063 45.128 80.063 42.312C80.063 39.496 80.551 37.368 81.527 35.928C82.503 34.488 83.951 33.768 85.871 33.768C87.551 33.768 88.871 34.32 89.831 35.424C90.791 36.528 91.375 38.168 91.583 40.344H94.727V33.144H97.655V54.528H94.727V42.744H91.679ZM85.871 48.456C86.799 48.456 87.519 47.936 88.031 46.896C88.511 45.856 88.751 44.328 88.751 42.312C88.751 40.264 88.511 38.728 88.031 37.704C87.535 36.68 86.815 36.168 85.871 36.168C84.927 36.168 84.215 36.68 83.735 37.704C83.239 38.696 82.991 40.232 82.991 42.312C82.991 44.376 83.239 45.904 83.735 46.896C84.215 47.936 84.927 48.456 85.871 48.456ZM101.069 43.896L108.701 37.512V33.744H111.629V37.512L119.261 43.896L117.461 45.888L110.165 39.744L102.869 45.888L101.069 43.896ZM100.709 49.368H119.621V51.768H100.709V49.368ZM136.129 41.4C133.441 41.4 131.377 41.032 129.937 40.296C128.513 39.56 127.801 38.512 127.801 37.152C127.801 35.792 128.513 34.744 129.937 34.008C131.377 33.272 133.441 32.904 136.129 32.904C138.817 32.904 140.873 33.272 142.297 34.008C143.737 34.744 144.457 35.792 144.457 37.152C144.457 38.512 143.737 39.56 142.297 40.296C140.873 41.032 138.817 41.4 136.129 41.4ZM136.129 54.672C133.505 54.672 131.457 54.312 129.985 53.592C128.529 52.888 127.801 51.904 127.801 50.64C127.801 49.376 128.529 48.392 129.985 47.688C131.457 46.968 133.505 46.608 136.129 46.608C138.753 46.608 140.793 46.968 142.249 47.688C143.721 48.392 144.457 49.376 144.457 50.64C144.457 51.904 143.721 52.888 142.249 53.592C140.793 54.312 138.753 54.672 136.129 54.672ZM136.129 52.368C137.873 52.368 139.201 52.216 140.113 51.912C141.057 51.592 141.529 51.168 141.529 50.64C141.529 50.112 141.057 49.688 140.113 49.368C139.201 49.064 137.873 48.912 136.129 48.912C134.385 48.912 133.065 49.064 132.169 49.368C131.209 49.672 130.729 50.096 130.729 50.64C130.729 51.184 131.209 51.608 132.169 51.912C133.065 52.216 134.385 52.368 136.129 52.368ZM145.585 42.792V45.096H126.673V42.792H145.585ZM136.129 39.096C137.905 39.096 139.241 38.92 140.137 38.568C141.065 38.232 141.529 37.76 141.529 37.152C141.529 36.544 141.065 36.064 140.137 35.712C139.209 35.376 137.873 35.208 136.129 35.208C134.417 35.208 133.089 35.376 132.145 35.712C131.201 36.08 130.729 36.56 130.729 37.152C130.729 37.76 131.201 38.232 132.145 38.568C133.041 38.92 134.369 39.096 136.129 39.096ZM160.111 39.192C159.711 40.088 158.999 40.8 157.975 41.328C156.951 41.84 155.727 42.096 154.303 42.096C153.055 42.096 151.959 41.896 151.015 41.496C150.087 41.096 149.375 40.552 148.879 39.864C148.383 39.176 148.135 38.4 148.135 37.536C148.135 36.672 148.383 35.896 148.879 35.208C149.375 34.52 150.087 33.976 151.015 33.576C151.959 33.176 153.055 32.976 154.303 32.976C155.983 32.976 157.375 33.336 158.479 34.056C159.599 34.76 160.247 35.704 160.423 36.888H163.111V33.144H166.039V49.056H163.111V39.192H160.111ZM152.863 48.36V45.456H147.343V43.2H161.863V45.456H155.791V48.864H153.007V51.936H166.255V54.288H150.079V48.36H152.863ZM154.303 39.768C155.279 39.768 156.063 39.568 156.655 39.168C157.247 38.752 157.543 38.208 157.543 37.536C157.543 36.864 157.247 36.328 156.655 35.928C156.063 35.512 155.279 35.304 154.303 35.304C153.327 35.304 152.543 35.512 151.951 35.928C151.359 36.328 151.063 36.864 151.063 37.536C151.063 38.208 151.359 38.752 151.951 39.168C152.543 39.568 153.327 39.768 154.303 39.768ZM180.805 33.624V35.976H172.693V41.808H181.285V44.16H169.765V33.624H180.805ZM171.469 46.632H174.397V51.936H186.925V54.288H171.469V46.632ZM183.661 33.144H186.589V37.704H189.133V40.104H186.589V48.36H183.661V33.144Z"/>
</mask>
<path d="M16.109 48.288V45.888H35.021V48.288H27.029V54.528H24.101V48.288H16.109ZM17.429 33.744H33.365V36.144H20.357V40.632H33.605V43.032H17.429V33.744ZM36.515 43.488L41.867 37.248V33.456H44.795V37.248L50.147 43.488L48.107 45.216L43.331 39.552L38.555 45.216L36.515 43.488ZM39.755 46.632H42.683V51.936H55.211V54.288H39.755V46.632ZM51.947 33.144H54.875V37.704H57.419V40.104H54.875V48.36H51.947V33.144ZM67.745 42.984V50.52H58.985V34.152H61.649V39.384H65.081V34.152H67.745V40.584H70.001V33.144H72.665V54.528H70.001V42.984H67.745ZM65.081 48.12V41.784H61.649V48.12H65.081ZM74.321 33.144H76.985V54.528H74.321V33.144ZM91.679 42.744C91.631 45.416 91.119 47.44 90.143 48.816C89.167 50.176 87.743 50.856 85.871 50.856C83.951 50.856 82.503 50.136 81.527 48.696C80.551 47.256 80.063 45.128 80.063 42.312C80.063 39.496 80.551 37.368 81.527 35.928C82.503 34.488 83.951 33.768 85.871 33.768C87.551 33.768 88.871 34.32 89.831 35.424C90.791 36.528 91.375 38.168 91.583 40.344H94.727V33.144H97.655V54.528H94.727V42.744H91.679ZM85.871 48.456C86.799 48.456 87.519 47.936 88.031 46.896C88.511 45.856 88.751 44.328 88.751 42.312C88.751 40.264 88.511 38.728 88.031 37.704C87.535 36.68 86.815 36.168 85.871 36.168C84.927 36.168 84.215 36.68 83.735 37.704C83.239 38.696 82.991 40.232 82.991 42.312C82.991 44.376 83.239 45.904 83.735 46.896C84.215 47.936 84.927 48.456 85.871 48.456ZM101.069 43.896L108.701 37.512V33.744H111.629V37.512L119.261 43.896L117.461 45.888L110.165 39.744L102.869 45.888L101.069 43.896ZM100.709 49.368H119.621V51.768H100.709V49.368ZM136.129 41.4C133.441 41.4 131.377 41.032 129.937 40.296C128.513 39.56 127.801 38.512 127.801 37.152C127.801 35.792 128.513 34.744 129.937 34.008C131.377 33.272 133.441 32.904 136.129 32.904C138.817 32.904 140.873 33.272 142.297 34.008C143.737 34.744 144.457 35.792 144.457 37.152C144.457 38.512 143.737 39.56 142.297 40.296C140.873 41.032 138.817 41.4 136.129 41.4ZM136.129 54.672C133.505 54.672 131.457 54.312 129.985 53.592C128.529 52.888 127.801 51.904 127.801 50.64C127.801 49.376 128.529 48.392 129.985 47.688C131.457 46.968 133.505 46.608 136.129 46.608C138.753 46.608 140.793 46.968 142.249 47.688C143.721 48.392 144.457 49.376 144.457 50.64C144.457 51.904 143.721 52.888 142.249 53.592C140.793 54.312 138.753 54.672 136.129 54.672ZM136.129 52.368C137.873 52.368 139.201 52.216 140.113 51.912C141.057 51.592 141.529 51.168 141.529 50.64C141.529 50.112 141.057 49.688 140.113 49.368C139.201 49.064 137.873 48.912 136.129 48.912C134.385 48.912 133.065 49.064 132.169 49.368C131.209 49.672 130.729 50.096 130.729 50.64C130.729 51.184 131.209 51.608 132.169 51.912C133.065 52.216 134.385 52.368 136.129 52.368ZM145.585 42.792V45.096H126.673V42.792H145.585ZM136.129 39.096C137.905 39.096 139.241 38.92 140.137 38.568C141.065 38.232 141.529 37.76 141.529 37.152C141.529 36.544 141.065 36.064 140.137 35.712C139.209 35.376 137.873 35.208 136.129 35.208C134.417 35.208 133.089 35.376 132.145 35.712C131.201 36.08 130.729 36.56 130.729 37.152C130.729 37.76 131.201 38.232 132.145 38.568C133.041 38.92 134.369 39.096 136.129 39.096ZM160.111 39.192C159.711 40.088 158.999 40.8 157.975 41.328C156.951 41.84 155.727 42.096 154.303 42.096C153.055 42.096 151.959 41.896 151.015 41.496C150.087 41.096 149.375 40.552 148.879 39.864C148.383 39.176 148.135 38.4 148.135 37.536C148.135 36.672 148.383 35.896 148.879 35.208C149.375 34.52 150.087 33.976 151.015 33.576C151.959 33.176 153.055 32.976 154.303 32.976C155.983 32.976 157.375 33.336 158.479 34.056C159.599 34.76 160.247 35.704 160.423 36.888H163.111V33.144H166.039V49.056H163.111V39.192H160.111ZM152.863 48.36V45.456H147.343V43.2H161.863V45.456H155.791V48.864H153.007V51.936H166.255V54.288H150.079V48.36H152.863ZM154.303 39.768C155.279 39.768 156.063 39.568 156.655 39.168C157.247 38.752 157.543 38.208 157.543 37.536C157.543 36.864 157.247 36.328 156.655 35.928C156.063 35.512 155.279 35.304 154.303 35.304C153.327 35.304 152.543 35.512 151.951 35.928C151.359 36.328 151.063 36.864 151.063 37.536C151.063 38.208 151.359 38.752 151.951 39.168C152.543 39.568 153.327 39.768 154.303 39.768ZM180.805 33.624V35.976H172.693V41.808H181.285V44.16H169.765V33.624H180.805ZM171.469 46.632H174.397V51.936H186.925V54.288H171.469V46.632ZM183.661 33.144H186.589V37.704H189.133V40.104H186.589V48.36H183.661V33.144Z" fill="white"/>
<path d="M16.109 48.288H12.109C12.109 50.4971 13.8998 52.288 16.109 52.288V48.288ZM16.109 45.888V41.888C13.8998 41.888 12.109 43.6789 12.109 45.888H16.109ZM35.021 45.888H39.021C39.021 43.6789 37.2301 41.888 35.021 41.888V45.888ZM35.021 48.288V52.288C37.2301 52.288 39.021 50.4971 39.021 48.288H35.021ZM27.029 48.288V44.288C24.8198 44.288 23.029 46.0789 23.029 48.288H27.029ZM27.029 54.528V58.528C29.2381 58.528 31.029 56.7371 31.029 54.528H27.029ZM24.101 54.528H20.101C20.101 56.7371 21.8918 58.528 24.101 58.528V54.528ZM24.101 48.288H28.101C28.101 46.0789 26.3101 44.288 24.101 44.288V48.288ZM17.429 33.744V29.744C15.2198 29.744 13.429 31.5349 13.429 33.744H17.429ZM33.365 33.744H37.365C37.365 31.5349 35.5741 29.744 33.365 29.744V33.744ZM33.365 36.144V40.144C35.5741 40.144 37.365 38.3531 37.365 36.144H33.365ZM20.357 36.144V32.144C18.1478 32.144 16.357 33.9349 16.357 36.144H20.357ZM20.357 40.632H16.357C16.357 42.8411 18.1478 44.632 20.357 44.632V40.632ZM33.605 40.632H37.605C37.605 38.4229 35.8141 36.632 33.605 36.632V40.632ZM33.605 43.032V47.032C35.8141 47.032 37.605 45.2411 37.605 43.032H33.605ZM17.429 43.032H13.429C13.429 45.2411 15.2198 47.032 17.429 47.032L17.429 43.032ZM16.109 48.288H20.109V45.888H16.109H12.109V48.288H16.109ZM16.109 45.888V49.888H35.021V45.888V41.888H16.109V45.888ZM35.021 45.888H31.021V48.288H35.021H39.021V45.888H35.021ZM35.021 48.288V44.288H27.029V48.288V52.288H35.021V48.288ZM27.029 48.288H23.029V54.528H27.029H31.029V48.288H27.029ZM27.029 54.528V50.528H24.101V54.528V58.528H27.029V54.528ZM24.101 54.528H28.101V48.288H24.101H20.101V54.528H24.101ZM24.101 48.288V44.288H16.109V48.288V52.288H24.101V48.288ZM17.429 33.744V37.744H33.365V33.744V29.744H17.429V33.744ZM33.365 33.744H29.365V36.144H33.365H37.365V33.744H33.365ZM33.365 36.144V32.144H20.357V36.144V40.144H33.365V36.144ZM20.357 36.144H16.357V40.632H20.357H24.357V36.144H20.357ZM20.357 40.632V44.632H33.605V40.632V36.632H20.357V40.632ZM33.605 40.632H29.605V43.032H33.605H37.605V40.632H33.605ZM33.605 43.032V39.032H17.429V43.032V47.032H33.605V43.032ZM17.429 43.032H21.429V33.744H17.429H13.429V43.032H17.429ZM36.515 43.488L33.4788 40.8839C32.7853 41.6924 32.443 42.744 32.5276 43.8058C32.6122 44.8676 33.1168 45.8517 33.9296 46.5402L36.515 43.488ZM41.867 37.248L44.9032 39.8521C45.5251 39.127 45.867 38.2033 45.867 37.248H41.867ZM41.867 33.456V29.456C39.6578 29.456 37.867 31.2469 37.867 33.456H41.867ZM44.795 33.456H48.795C48.795 31.2469 47.0041 29.456 44.795 29.456V33.456ZM44.795 37.248H40.795C40.795 38.2033 41.1369 39.127 41.7588 39.8521L44.795 37.248ZM50.147 43.488L52.7323 46.5402C53.5451 45.8517 54.0497 44.8676 54.1343 43.8058C54.219 42.744 53.8766 41.6924 53.1832 40.8839L50.147 43.488ZM48.107 45.216L45.049 47.7945C45.7339 48.6067 46.7137 49.1131 47.7724 49.202C48.8311 49.2908 49.8817 48.9549 50.6923 48.2682L48.107 45.216ZM43.331 39.552L46.3889 36.9735C45.6289 36.0721 44.51 35.552 43.331 35.552C42.152 35.552 41.033 36.0721 40.273 36.9735L43.331 39.552ZM38.555 45.216L35.9696 48.2682C36.7803 48.9549 37.8308 49.2908 38.8895 49.202C39.9482 49.1131 40.9281 48.6067 41.6129 47.7945L38.555 45.216ZM39.755 46.632V42.632C37.5458 42.632 35.755 44.4229 35.755 46.632H39.755ZM42.683 46.632H46.683C46.683 44.4229 44.8921 42.632 42.683 42.632V46.632ZM42.683 51.936H38.683C38.683 54.1451 40.4738 55.936 42.683 55.936V51.936ZM55.211 51.936H59.211C59.211 49.7269 57.4201 47.936 55.211 47.936V51.936ZM55.211 54.288V58.288C57.4201 58.288 59.211 56.4971 59.211 54.288H55.211ZM39.755 54.288H35.755C35.755 56.4971 37.5458 58.288 39.755 58.288V54.288ZM51.947 33.144V29.144C49.7378 29.144 47.947 30.9349 47.947 33.144H51.947ZM54.875 33.144H58.875C58.875 30.9349 57.0841 29.144 54.875 29.144V33.144ZM54.875 37.704H50.875C50.875 39.9131 52.6658 41.704 54.875 41.704V37.704ZM57.419 37.704H61.419C61.419 35.4949 59.6281 33.704 57.419 33.704V37.704ZM57.419 40.104V44.104C59.6281 44.104 61.419 42.3131 61.419 40.104H57.419ZM54.875 40.104V36.104C52.6658 36.104 50.875 37.8949 50.875 40.104H54.875ZM54.875 48.36V52.36C57.0841 52.36 58.875 50.5691 58.875 48.36H54.875ZM51.947 48.36H47.947C47.947 50.5691 49.7378 52.36 51.947 52.36V48.36ZM36.515 43.488L39.5512 46.0921L44.9032 39.8521L41.867 37.248L38.8308 34.6439L33.4788 40.8839L36.515 43.488ZM41.867 37.248H45.867V33.456H41.867H37.867V37.248H41.867ZM41.867 33.456V37.456H44.795V33.456V29.456H41.867V33.456ZM44.795 33.456H40.795V37.248H44.795H48.795V33.456H44.795ZM44.795 37.248L41.7588 39.8521L47.1108 46.0921L50.147 43.488L53.1832 40.8839L47.8312 34.6439L44.795 37.248ZM50.147 43.488L47.5616 40.4358L45.5216 42.1638L48.107 45.216L50.6923 48.2682L52.7323 46.5402L50.147 43.488ZM48.107 45.216L51.1649 42.6375L46.3889 36.9735L43.331 39.552L40.273 42.1305L45.049 47.7945L48.107 45.216ZM43.331 39.552L40.273 36.9735L35.497 42.6375L38.555 45.216L41.6129 47.7945L46.3889 42.1305L43.331 39.552ZM38.555 45.216L41.1403 42.1638L39.1003 40.4358L36.515 43.488L33.9296 46.5402L35.9696 48.2682L38.555 45.216ZM39.755 46.632V50.632H42.683V46.632V42.632H39.755V46.632ZM42.683 46.632H38.683V51.936H42.683H46.683V46.632H42.683ZM42.683 51.936V55.936H55.211V51.936V47.936H42.683V51.936ZM55.211 51.936H51.211V54.288H55.211H59.211V51.936H55.211ZM55.211 54.288V50.288H39.755V54.288V58.288H55.211V54.288ZM39.755 54.288H43.755V46.632H39.755H35.755V54.288H39.755ZM51.947 33.144V37.144H54.875V33.144V29.144H51.947V33.144ZM54.875 33.144H50.875V37.704H54.875H58.875V33.144H54.875ZM54.875 37.704V41.704H57.419V37.704V33.704H54.875V37.704ZM57.419 37.704H53.419V40.104H57.419H61.419V37.704H57.419ZM57.419 40.104V36.104H54.875V40.104V44.104H57.419V40.104ZM54.875 40.104H50.875V48.36H54.875H58.875V40.104H54.875ZM54.875 48.36V44.36H51.947V48.36V52.36H54.875V48.36ZM51.947 48.36H55.947V33.144H51.947H47.947V48.36H51.947ZM67.745 42.984V38.984C65.5358 38.984 63.745 40.7749 63.745 42.984H67.745ZM67.745 50.52V54.52C69.9541 54.52 71.745 52.7291 71.745 50.52H67.745ZM58.985 50.52H54.985C54.985 52.7291 56.7758 54.52 58.985 54.52V50.52ZM58.985 34.152V30.152C56.7758 30.152 54.985 31.9429 54.985 34.152H58.985ZM61.649 34.152H65.649C65.649 31.9429 63.8581 30.152 61.649 30.152V34.152ZM61.649 39.384H57.649C57.649 41.5931 59.4398 43.384 61.649 43.384V39.384ZM65.081 39.384V43.384C67.2901 43.384 69.081 41.5931 69.081 39.384H65.081ZM65.081 34.152V30.152C62.8718 30.152 61.081 31.9429 61.081 34.152H65.081ZM67.745 34.152H71.745C71.745 31.9429 69.9541 30.152 67.745 30.152V34.152ZM67.745 40.584H63.745C63.745 42.7931 65.5358 44.584 67.745 44.584V40.584ZM70.001 40.584V44.584C72.2101 44.584 74.001 42.7931 74.001 40.584H70.001ZM70.001 33.144V29.144C67.7918 29.144 66.001 30.9349 66.001 33.144H70.001ZM72.665 33.144H76.665C76.665 30.9349 74.8741 29.144 72.665 29.144V33.144ZM72.665 54.528V58.528C74.8741 58.528 76.665 56.7371 76.665 54.528H72.665ZM70.001 54.528H66.001C66.001 56.7371 67.7918 58.528 70.001 58.528V54.528ZM70.001 42.984H74.001C74.001 40.7749 72.2101 38.984 70.001 38.984V42.984ZM65.081 48.12V52.12C67.2901 52.12 69.081 50.3291 69.081 48.12H65.081ZM65.081 41.784H69.081C69.081 39.5749 67.2901 37.784 65.081 37.784V41.784ZM61.649 41.784V37.784C59.4398 37.784 57.649 39.5749 57.649 41.784H61.649ZM61.649 48.12H57.649C57.649 50.3291 59.4398 52.12 61.649 52.12V48.12ZM74.321 33.144V29.144C72.1118 29.144 70.321 30.9349 70.321 33.144H74.321ZM76.985 33.144H80.985C80.985 30.9349 79.1941 29.144 76.985 29.144V33.144ZM76.985 54.528V58.528C79.1941 58.528 80.985 56.7371 80.985 54.528H76.985ZM74.321 54.528H70.321C70.321 56.7371 72.1118 58.528 74.321 58.528V54.528ZM67.745 42.984H63.745V50.52H67.745H71.745V42.984H67.745ZM67.745 50.52V46.52H58.985V50.52V54.52H67.745V50.52ZM58.985 50.52H62.985V34.152H58.985H54.985V50.52H58.985ZM58.985 34.152V38.152H61.649V34.152V30.152H58.985V34.152ZM61.649 34.152H57.649V39.384H61.649H65.649V34.152H61.649ZM61.649 39.384V43.384H65.081V39.384V35.384H61.649V39.384ZM65.081 39.384H69.081V34.152H65.081H61.081V39.384H65.081ZM65.081 34.152V38.152H67.745V34.152V30.152H65.081V34.152ZM67.745 34.152H63.745V40.584H67.745H71.745V34.152H67.745ZM67.745 40.584V44.584H70.001V40.584V36.584H67.745V40.584ZM70.001 40.584H74.001V33.144H70.001H66.001V40.584H70.001ZM70.001 33.144V37.144H72.665V33.144V29.144H70.001V33.144ZM72.665 33.144H68.665V54.528H72.665H76.665V33.144H72.665ZM72.665 54.528V50.528H70.001V54.528V58.528H72.665V54.528ZM70.001 54.528H74.001V42.984H70.001H66.001V54.528H70.001ZM70.001 42.984V38.984H67.745V42.984V46.984H70.001V42.984ZM65.081 48.12H69.081V41.784H65.081H61.081V48.12H65.081ZM65.081 41.784V37.784H61.649V41.784V45.784H65.081V41.784ZM61.649 41.784H57.649V48.12H61.649H65.649V41.784H61.649ZM61.649 48.12V52.12H65.081V48.12V44.12H61.649V48.12ZM74.321 33.144V37.144H76.985V33.144V29.144H74.321V33.144ZM76.985 33.144H72.985V54.528H76.985H80.985V33.144H76.985ZM76.985 54.528V50.528H74.321V54.528V58.528H76.985V54.528ZM74.321 54.528H78.321V33.144H74.321H70.321V54.528H74.321ZM91.679 42.744V38.744C89.4978 38.744 87.7188 40.4914 87.6796 42.6722L91.679 42.744ZM90.143 48.816L93.3927 51.1482C93.397 51.1422 93.4013 51.1362 93.4056 51.1302L90.143 48.816ZM81.527 48.696L78.2158 50.9402L81.527 48.696ZM81.527 35.928L84.8381 38.1722V38.1722L81.527 35.928ZM89.831 35.424L86.8125 38.0487L86.8126 38.0487L89.831 35.424ZM91.583 40.344L87.6011 40.7246C87.7973 42.777 89.5213 44.344 91.583 44.344V40.344ZM94.727 40.344V44.344C96.9361 44.344 98.727 42.5531 98.727 40.344H94.727ZM94.727 33.144V29.144C92.5178 29.144 90.727 30.9349 90.727 33.144H94.727ZM97.655 33.144H101.655C101.655 30.9349 99.8641 29.144 97.655 29.144V33.144ZM97.655 54.528V58.528C99.8641 58.528 101.655 56.7371 101.655 54.528H97.655ZM94.727 54.528H90.727C90.727 56.7371 92.5178 58.528 94.727 58.528V54.528ZM94.727 42.744H98.727C98.727 40.5349 96.9361 38.744 94.727 38.744V42.744ZM88.031 46.896L91.6197 48.6627C91.6344 48.6327 91.6488 48.6026 91.6628 48.5722L88.031 46.896ZM88.031 37.704L91.6528 36.0063C91.6456 35.9909 91.6383 35.9756 91.6309 35.9603L88.031 37.704ZM83.735 37.704L87.3127 39.4929C87.3278 39.4627 87.3425 39.4323 87.3568 39.4017L83.735 37.704ZM83.735 46.896L87.3668 45.2198C87.3493 45.1819 87.3313 45.1444 87.3127 45.1071L83.735 46.896ZM91.679 42.744L87.6796 42.6722C87.6383 44.9721 87.1914 46.0634 86.8804 46.5018L90.143 48.816L93.4056 51.1302C95.0466 48.8166 95.6236 45.8599 95.6783 42.8158L91.679 42.744ZM90.143 48.816L86.8932 46.4838C86.7659 46.6612 86.6308 46.856 85.871 46.856V50.856V54.856C88.8551 54.856 91.568 53.6908 93.3927 51.1482L90.143 48.816ZM85.871 50.856V46.856C85.4141 46.856 85.2021 46.7722 85.1259 46.7343C85.0651 46.7041 84.9699 46.6462 84.8381 46.4518L81.527 48.696L78.2158 50.9402C80.0225 53.6057 82.786 54.856 85.871 54.856V50.856ZM81.527 48.696L84.8381 46.4518C84.5107 45.9688 84.063 44.7791 84.063 42.312H80.063H76.063C76.063 45.4769 76.5912 48.5432 78.2158 50.9402L81.527 48.696ZM80.063 42.312H84.063C84.063 39.8449 84.5107 38.6552 84.8381 38.1722L81.527 35.928L78.2158 33.6838C76.5912 36.0808 76.063 39.1471 76.063 42.312H80.063ZM81.527 35.928L84.8381 38.1722C84.9699 37.9778 85.0651 37.9199 85.1259 37.8897C85.2021 37.8518 85.4141 37.768 85.871 37.768V33.768V29.768C82.786 29.768 80.0225 31.0183 78.2158 33.6838L81.527 35.928ZM85.871 33.768V37.768C86.5838 37.768 86.729 37.9526 86.8125 38.0487L89.831 35.424L92.8494 32.7993C91.013 30.6874 88.5181 29.768 85.871 29.768V33.768ZM89.831 35.424L86.8126 38.0487C87.0154 38.282 87.4354 38.9905 87.6011 40.7246L91.583 40.344L95.5648 39.9634C95.3146 37.3455 94.5665 34.774 92.8494 32.7993L89.831 35.424ZM91.583 40.344V44.344H94.727V40.344V36.344H91.583V40.344ZM94.727 40.344H98.727V33.144H94.727H90.727V40.344H94.727ZM94.727 33.144V37.144H97.655V33.144V29.144H94.727V33.144ZM97.655 33.144H93.655V54.528H97.655H101.655V33.144H97.655ZM97.655 54.528V50.528H94.727V54.528V58.528H97.655V54.528ZM94.727 54.528H98.727V42.744H94.727H90.727V54.528H94.727ZM94.727 42.744V38.744H91.679V42.744V46.744H94.727V42.744ZM85.871 48.456V52.456C88.7311 52.456 90.6359 50.661 91.6197 48.6627L88.031 46.896L84.4423 45.1293C84.3898 45.2359 84.4581 45.045 84.765 44.8233C85.1186 44.5679 85.5343 44.456 85.871 44.456V48.456ZM88.031 46.896L91.6628 48.5722C92.5045 46.7486 92.751 44.5318 92.751 42.312H88.751H84.751C84.751 44.1242 84.5174 44.9634 84.3991 45.2198L88.031 46.896ZM88.751 42.312H92.751C92.751 40.0781 92.5092 37.8331 91.6528 36.0063L88.031 37.704L84.4091 39.4017C84.5128 39.6229 84.751 40.4499 84.751 42.312H88.751ZM88.031 37.704L91.6309 35.9603C91.172 35.0129 90.4804 34.0341 89.4371 33.2922C88.3525 32.521 87.1136 32.168 85.871 32.168V36.168V40.168C85.5723 40.168 85.1654 40.071 84.8009 39.8118C84.4775 39.5819 84.3939 39.3711 84.431 39.4477L88.031 37.704ZM85.871 36.168V32.168C84.6286 32.168 83.383 32.5211 82.2937 33.3045C81.2458 34.058 80.561 35.0508 80.1131 36.0063L83.735 37.704L87.3568 39.4017C87.389 39.3332 87.3001 39.558 86.9643 39.7995C86.5869 40.0709 86.1693 40.168 85.871 40.168V36.168ZM83.735 37.704L80.1573 35.9151C79.2346 37.7605 78.991 40.0636 78.991 42.312H82.991H86.991C86.991 41.4192 87.045 40.7381 87.1258 40.2376C87.1657 39.9909 87.2088 39.8082 87.2467 39.6793C87.2654 39.6159 87.2817 39.5694 87.2938 39.5379C87.306 39.5062 87.313 39.4922 87.3127 39.4929L83.735 37.704ZM82.991 42.312H78.991C78.991 44.5503 79.236 46.8423 80.1573 48.6849L83.735 46.896L87.3127 45.1071C87.3127 45.1072 87.3122 45.1062 87.3113 45.1043C87.3104 45.1023 87.3091 45.0994 87.3074 45.0955C87.3039 45.0877 87.299 45.0761 87.293 45.0603C87.2807 45.0285 87.2644 44.982 87.2458 44.9189C87.2079 44.7907 87.1649 44.6094 87.1253 44.3652C87.0449 43.8695 86.991 43.1954 86.991 42.312H82.991ZM83.735 46.896L80.1031 48.5722C80.5453 49.5303 81.224 50.5324 82.2698 51.2962C83.3603 52.0927 84.6144 52.456 85.871 52.456V48.456V44.456C86.1835 44.456 86.6096 44.5593 86.9881 44.8358C87.322 45.0796 87.4046 45.3017 87.3668 45.2198L83.735 46.896ZM101.069 43.896L98.5025 40.8279C97.6685 41.5255 97.1544 42.5327 97.0787 43.6174C97.003 44.7022 97.3721 45.771 98.1011 46.5778L101.069 43.896ZM108.701 37.512L111.267 40.5801C112.176 39.8201 112.701 38.6965 112.701 37.512H108.701ZM108.701 33.744V29.744C106.492 29.744 104.701 31.5349 104.701 33.744H108.701ZM111.629 33.744H115.629C115.629 31.5349 113.838 29.744 111.629 29.744V33.744ZM111.629 37.512H107.629C107.629 38.6965 108.154 39.8201 109.063 40.5801L111.629 37.512ZM119.261 43.896L122.229 46.5778C122.958 45.771 123.327 44.7022 123.251 43.6174C123.176 42.5327 122.661 41.5255 121.827 40.8279L119.261 43.896ZM117.461 45.888L114.884 48.9476C116.533 50.3356 118.984 50.1685 120.429 48.5698L117.461 45.888ZM110.165 39.744L112.742 36.6844C111.253 35.4305 109.077 35.4305 107.588 36.6844L110.165 39.744ZM102.869 45.888L99.9011 48.5698C101.346 50.1685 103.797 50.3356 105.446 48.9476L102.869 45.888ZM100.709 49.368V45.368C98.4998 45.368 96.709 47.1589 96.709 49.368H100.709ZM119.621 49.368H123.621C123.621 47.1589 121.83 45.368 119.621 45.368V49.368ZM119.621 51.768V55.768C121.83 55.768 123.621 53.9771 123.621 51.768H119.621ZM100.709 51.768H96.709C96.709 53.9771 98.4998 55.768 100.709 55.768V51.768ZM101.069 43.896L103.635 46.9641L111.267 40.5801L108.701 37.512L106.135 34.4439L98.5025 40.8279L101.069 43.896ZM108.701 37.512H112.701V33.744H108.701H104.701V37.512H108.701ZM108.701 33.744V37.744H111.629V33.744V29.744H108.701V33.744ZM111.629 33.744H107.629V37.512H111.629H115.629V33.744H111.629ZM111.629 37.512L109.063 40.5801L116.695 46.9641L119.261 43.896L121.827 40.8279L114.195 34.4439L111.629 37.512ZM119.261 43.896L116.293 41.2142L114.493 43.2062L117.461 45.888L120.429 48.5698L122.229 46.5778L119.261 43.896ZM117.461 45.888L120.038 42.8284L112.742 36.6844L110.165 39.744L107.588 42.8036L114.884 48.9476L117.461 45.888ZM110.165 39.744L107.588 36.6844L100.292 42.8284L102.869 45.888L105.446 48.9476L112.742 42.8036L110.165 39.744ZM102.869 45.888L105.837 43.2062L104.037 41.2142L101.069 43.896L98.1011 46.5778L99.9011 48.5698L102.869 45.888ZM100.709 49.368V53.368H119.621V49.368V45.368H100.709V49.368ZM119.621 49.368H115.621V51.768H119.621H123.621V49.368H119.621ZM119.621 51.768V47.768H100.709V51.768V55.768H119.621V51.768ZM100.709 51.768H104.709V49.368H100.709H96.709V51.768H100.709ZM129.937 40.296L128.1 43.8494C128.106 43.8522 128.111 43.855 128.117 43.8577L129.937 40.296ZM129.937 34.008L128.117 30.4463C128.111 30.449 128.106 30.4518 128.1 30.4546L129.937 34.008ZM142.297 34.008L140.46 37.5614C140.466 37.5642 140.471 37.567 140.477 37.5697L142.297 34.008ZM142.297 40.296L140.477 36.7343C140.471 36.737 140.466 36.7398 140.46 36.7426L142.297 40.296ZM129.985 53.592L131.743 49.9988C131.737 49.9961 131.732 49.9935 131.726 49.9909L129.985 53.592ZM129.985 47.688L131.726 51.2891C131.732 51.2865 131.737 51.2839 131.743 51.2812L129.985 47.688ZM142.249 47.688L140.476 51.2736C140.492 51.2813 140.507 51.289 140.523 51.2965L142.249 47.688ZM142.249 53.592L140.523 49.9835C140.507 49.991 140.492 49.9987 140.476 50.0064L142.249 53.592ZM140.113 51.912L141.378 55.7067C141.384 55.7046 141.391 55.7024 141.397 55.7003L140.113 51.912ZM140.113 49.368L141.397 45.5797C141.391 45.5776 141.384 45.5754 141.378 45.5733L140.113 49.368ZM132.169 49.368L133.377 53.1814C133.403 53.1731 133.428 53.1647 133.454 53.1559L132.169 49.368ZM132.169 51.912L133.454 48.1241C133.428 48.1153 133.403 48.1069 133.377 48.0986L132.169 51.912ZM145.585 42.792H149.585C149.585 40.5829 147.794 38.792 145.585 38.792V42.792ZM145.585 45.096V49.096C147.794 49.096 149.585 47.3051 149.585 45.096H145.585ZM126.673 45.096H122.673C122.673 47.3051 124.464 49.096 126.673 49.096V45.096ZM126.673 42.792V38.792C124.464 38.792 122.673 40.5829 122.673 42.792H126.673ZM140.137 38.568L138.775 34.8069C138.741 34.8192 138.708 34.8319 138.674 34.845L140.137 38.568ZM140.137 35.712L141.556 31.972C141.537 31.9648 141.518 31.9578 141.499 31.9509L140.137 35.712ZM132.145 35.712L130.804 31.9436C130.766 31.9569 130.729 31.9708 130.692 31.9852L132.145 35.712ZM132.145 38.568L133.608 34.845C133.567 34.8292 133.527 34.8141 133.486 34.7996L132.145 38.568ZM136.129 41.4V37.4C133.705 37.4 132.378 37.0515 131.757 36.7343L129.937 40.296L128.117 43.8577C130.376 45.0125 133.177 45.4 136.129 45.4V41.4ZM129.937 40.296L131.774 36.7426C131.5 36.601 131.539 36.5559 131.644 36.7101C131.696 36.7867 131.741 36.8804 131.77 36.9793C131.799 37.0758 131.801 37.1398 131.801 37.152H127.801H123.801C123.801 38.5718 124.186 39.9694 125.026 41.2059C125.843 42.4081 126.95 43.255 128.1 43.8494L129.937 40.296ZM127.801 37.152H131.801C131.801 37.1642 131.799 37.2282 131.77 37.3247C131.741 37.4236 131.696 37.5173 131.644 37.5939C131.539 37.7481 131.5 37.703 131.774 37.5614L129.937 34.008L128.1 30.4546C126.95 31.049 125.843 31.8959 125.026 33.0981C124.186 34.3346 123.801 35.7322 123.801 37.152H127.801ZM129.937 34.008L131.757 37.5697C132.378 37.2525 133.705 36.904 136.129 36.904V32.904V28.904C133.177 28.904 130.376 29.2915 128.117 30.4463L129.937 34.008ZM136.129 32.904V36.904C138.557 36.904 139.866 37.254 140.46 37.5614L142.297 34.008L144.134 30.4546C141.88 29.29 139.077 28.904 136.129 28.904V32.904ZM142.297 34.008L140.477 37.5697C140.762 37.7154 140.726 37.7645 140.62 37.611C140.567 37.5342 140.52 37.4388 140.49 37.3364C140.46 37.2363 140.457 37.1683 140.457 37.152H144.457H148.457C148.457 35.7225 148.064 34.3188 147.214 33.081C146.388 31.8795 145.272 31.0366 144.117 30.4463L142.297 34.008ZM144.457 37.152H140.457C140.457 37.1357 140.46 37.0677 140.49 36.9676C140.52 36.8652 140.567 36.7698 140.62 36.693C140.726 36.5395 140.762 36.5886 140.477 36.7343L142.297 40.296L144.117 43.8577C145.272 43.2674 146.388 42.4245 147.214 41.223C148.064 39.9852 148.457 38.5815 148.457 37.152H144.457ZM142.297 40.296L140.46 36.7426C139.866 37.05 138.557 37.4 136.129 37.4V41.4V45.4C139.077 45.4 141.88 45.014 144.134 43.8494L142.297 40.296ZM136.129 54.672V50.672C133.788 50.672 132.435 50.3375 131.743 49.9988L129.985 53.592L128.227 57.1852C130.479 58.2865 133.222 58.672 136.129 58.672V54.672ZM129.985 53.592L131.726 49.9909C131.401 49.8337 131.438 49.778 131.563 49.947C131.629 50.0361 131.696 50.1578 131.743 50.3031C131.79 50.4471 131.801 50.5668 131.801 50.64H127.801H123.801C123.801 53.8914 125.868 56.0443 128.244 57.1931L129.985 53.592ZM127.801 50.64H131.801C131.801 50.7132 131.79 50.8329 131.743 50.9769C131.696 51.1222 131.629 51.2439 131.563 51.333C131.438 51.502 131.401 51.4463 131.726 51.2891L129.985 47.688L128.244 44.0869C125.868 45.2357 123.801 47.3886 123.801 50.64H127.801ZM129.985 47.688L131.743 51.2812C132.435 50.9425 133.788 50.608 136.129 50.608V46.608V42.608C133.222 42.608 130.479 42.9935 128.227 44.0948L129.985 47.688ZM136.129 46.608V50.608C138.474 50.608 139.809 50.9438 140.476 51.2736L142.249 47.688L144.022 44.1024C141.777 42.9922 139.032 42.608 136.129 42.608V46.608ZM142.249 47.688L140.523 51.2965C140.86 51.4575 140.827 51.5171 140.702 51.3498C140.635 51.2609 140.566 51.1378 140.518 50.9891C140.469 50.8416 140.457 50.7177 140.457 50.64H144.457H148.457C148.457 47.3646 146.354 45.2174 143.975 44.0795L142.249 47.688ZM144.457 50.64H140.457C140.457 50.5623 140.469 50.4384 140.518 50.2909C140.566 50.1422 140.635 50.0191 140.702 49.9302C140.827 49.7629 140.86 49.8225 140.523 49.9835L142.249 53.592L143.975 57.2005C146.354 56.0626 148.457 53.9154 148.457 50.64H144.457ZM142.249 53.592L140.476 50.0064C139.809 50.3362 138.474 50.672 136.129 50.672V54.672V58.672C139.032 58.672 141.777 58.2878 144.022 57.1776L142.249 53.592ZM136.129 52.368V56.368C138.013 56.368 139.852 56.2152 141.378 55.7067L140.113 51.912L138.848 48.1173C138.55 48.2168 137.733 48.368 136.129 48.368V52.368ZM140.113 51.912L141.397 55.7003C142.121 55.4548 143.045 55.0512 143.848 54.3297C144.743 53.5256 145.529 52.2667 145.529 50.64H141.529H137.529C137.529 50.1516 137.644 49.6694 137.857 49.2397C138.062 48.8262 138.315 48.5464 138.502 48.3783C138.833 48.0808 139.049 48.0492 138.829 48.1237L140.113 51.912ZM141.529 50.64H145.529C145.529 49.0133 144.743 47.7544 143.848 46.9503C143.045 46.2288 142.121 45.8252 141.397 45.5797L140.113 49.368L138.829 53.1563C139.049 53.2308 138.833 53.1992 138.502 52.9017C138.315 52.7336 138.062 52.4538 137.857 52.0403C137.644 51.6106 137.529 51.1284 137.529 50.64H141.529ZM140.113 49.368L141.378 45.5733C139.852 45.0648 138.013 44.912 136.129 44.912V48.912V52.912C137.733 52.912 138.55 53.0632 138.848 53.1627L140.113 49.368ZM136.129 48.912V44.912C134.251 44.912 132.407 45.0633 130.884 45.5801L132.169 49.368L133.454 53.1559C133.723 53.0647 134.519 52.912 136.129 52.912V48.912ZM132.169 49.368L130.961 45.5546C130.221 45.7891 129.27 46.184 128.441 46.9161C127.509 47.7395 126.729 49.0152 126.729 50.64H130.729H134.729C134.729 51.116 134.619 51.5962 134.403 52.0315C134.194 52.4517 133.934 52.7376 133.737 52.9119C133.388 53.22 133.157 53.2509 133.377 53.1814L132.169 49.368ZM130.729 50.64H126.729C126.729 52.2648 127.509 53.5405 128.441 54.3639C129.27 55.096 130.221 55.4909 130.961 55.7254L132.169 51.912L133.377 48.0986C133.157 48.0291 133.388 48.06 133.737 48.3681C133.934 48.5424 134.194 48.8283 134.403 49.2485C134.619 49.6838 134.729 50.164 134.729 50.64H130.729ZM132.169 51.912L130.884 55.6999C132.407 56.2167 134.251 56.368 136.129 56.368V52.368V48.368C134.519 48.368 133.723 48.2153 133.454 48.1241L132.169 51.912ZM145.585 42.792H141.585V45.096H145.585H149.585V42.792H145.585ZM145.585 45.096V41.096H126.673V45.096V49.096H145.585V45.096ZM126.673 45.096H130.673V42.792H126.673H122.673V45.096H126.673ZM126.673 42.792V46.792H145.585V42.792V38.792H126.673V42.792ZM136.129 39.096V43.096C138.056 43.096 139.996 42.921 141.6 42.291L140.137 38.568L138.674 34.845C138.486 34.919 137.755 35.096 136.129 35.096V39.096ZM140.137 38.568L141.499 42.3291C142.884 41.8274 145.529 40.3887 145.529 37.152H141.529H137.529C137.529 36.7802 137.603 36.3847 137.767 36.0035C137.928 35.6288 138.14 35.3493 138.329 35.1578C138.67 34.8102 138.93 34.751 138.775 34.8069L140.137 38.568ZM141.529 37.152H145.529C145.529 33.9485 142.928 32.4926 141.556 31.972L140.137 35.712L138.718 39.452C138.877 39.5122 138.632 39.4543 138.305 39.1161C138.125 38.9298 137.919 38.6565 137.763 38.2891C137.603 37.915 137.529 37.5238 137.529 37.152H141.529ZM140.137 35.712L141.499 31.9509C139.921 31.3797 138.038 31.208 136.129 31.208V35.208V39.208C137.708 39.208 138.497 39.3723 138.775 39.4731L140.137 35.712ZM136.129 35.208V31.208C134.236 31.208 132.378 31.3831 130.804 31.9436L132.145 35.712L133.486 39.4804C133.8 39.3689 134.598 39.208 136.129 39.208V35.208ZM132.145 35.712L130.692 31.9852C129.413 32.4838 126.729 33.9196 126.729 37.152H130.729H134.729C134.729 37.5528 134.646 37.9613 134.478 38.3409C134.315 38.7111 134.107 38.9782 133.935 39.1526C133.627 39.4663 133.411 39.5118 133.598 39.4388L132.145 35.712ZM130.729 37.152H126.729C126.729 40.4277 129.439 41.8507 130.804 42.3364L132.145 38.568L133.486 34.7996C133.318 34.7397 133.571 34.7928 133.911 35.1336C134.1 35.3221 134.317 35.6015 134.483 35.9806C134.652 36.367 134.729 36.7706 134.729 37.152H130.729ZM132.145 38.568L130.682 42.291C132.283 42.9199 134.213 43.096 136.129 43.096V39.096V35.096C134.525 35.096 133.799 34.9201 133.608 34.845L132.145 38.568ZM160.111 39.192V35.192C158.533 35.192 157.102 36.1201 156.458 37.5614L160.111 39.192ZM157.975 41.328L159.764 44.9057C159.779 44.8983 159.793 44.8908 159.808 44.8832L157.975 41.328ZM151.015 41.496L149.432 45.1693C149.439 45.1726 149.447 45.1758 149.454 45.179L151.015 41.496ZM148.879 39.864L145.634 42.2032L148.879 39.864ZM148.879 35.208L145.634 32.8688V32.8688L148.879 35.208ZM151.015 33.576L149.454 29.893C149.447 29.8962 149.439 29.8994 149.432 29.9027L151.015 33.576ZM158.479 34.056L156.294 37.4064C156.313 37.4186 156.331 37.4307 156.35 37.4425L158.479 34.056ZM160.423 36.888L156.467 37.4761C156.758 39.4366 158.441 40.888 160.423 40.888V36.888ZM163.111 36.888V40.888C165.32 40.888 167.111 39.0971 167.111 36.888H163.111ZM163.111 33.144V29.144C160.902 29.144 159.111 30.9349 159.111 33.144H163.111ZM166.039 33.144H170.039C170.039 30.9349 168.248 29.144 166.039 29.144V33.144ZM166.039 49.056V53.056C168.248 53.056 170.039 51.2651 170.039 49.056H166.039ZM163.111 49.056H159.111C159.111 51.2651 160.902 53.056 163.111 53.056V49.056ZM163.111 39.192H167.111C167.111 36.9829 165.32 35.192 163.111 35.192V39.192ZM152.863 48.36V52.36C155.072 52.36 156.863 50.5691 156.863 48.36H152.863ZM152.863 45.456H156.863C156.863 43.2469 155.072 41.456 152.863 41.456V45.456ZM147.343 45.456H143.343C143.343 47.6651 145.134 49.456 147.343 49.456V45.456ZM147.343 43.2V39.2C145.134 39.2 143.343 40.9909 143.343 43.2H147.343ZM161.863 43.2H165.863C165.863 40.9909 164.072 39.2 161.863 39.2V43.2ZM161.863 45.456V49.456C164.072 49.456 165.863 47.6651 165.863 45.456H161.863ZM155.791 45.456V41.456C153.582 41.456 151.791 43.2469 151.791 45.456H155.791ZM155.791 48.864V52.864C158 52.864 159.791 51.0731 159.791 48.864H155.791ZM153.007 48.864V44.864C150.798 44.864 149.007 46.6549 149.007 48.864H153.007ZM153.007 51.936H149.007C149.007 54.1451 150.798 55.936 153.007 55.936V51.936ZM166.255 51.936H170.255C170.255 49.7269 168.464 47.936 166.255 47.936V51.936ZM166.255 54.288V58.288C168.464 58.288 170.255 56.4971 170.255 54.288H166.255ZM150.079 54.288H146.079C146.079 56.4971 147.87 58.288 150.079 58.288V54.288ZM150.079 48.36V44.36C147.87 44.36 146.079 46.1509 146.079 48.36H150.079ZM156.655 39.168L158.894 42.4824C158.915 42.4687 158.935 42.4548 158.955 42.4408L156.655 39.168ZM156.655 35.928L154.355 39.2008C154.375 39.2148 154.395 39.2287 154.416 39.2424L156.655 35.928ZM151.951 35.928L154.19 39.2424C154.211 39.2287 154.231 39.2148 154.251 39.2008L151.951 35.928ZM151.951 39.168L149.651 42.4408C149.671 42.4548 149.691 42.4687 149.712 42.4824L151.951 39.168ZM160.111 39.192L156.458 37.5614C156.458 37.5616 156.459 37.5605 156.46 37.5587C156.461 37.5569 156.462 37.5553 156.463 37.5544C156.465 37.5516 156.462 37.5566 156.449 37.5696C156.424 37.5947 156.339 37.6714 156.142 37.7728L157.975 41.328L159.808 44.8832C161.493 44.0146 162.931 42.6873 163.764 40.8226L160.111 39.192ZM157.975 41.328L156.186 37.7503C155.836 37.9252 155.254 38.096 154.303 38.096V42.096V46.096C156.2 46.096 158.066 45.7548 159.764 44.9057L157.975 41.328ZM154.303 42.096V38.096C153.478 38.096 152.931 37.9636 152.576 37.813L151.015 41.496L149.454 45.179C150.987 45.8284 152.632 46.096 154.303 46.096V42.096ZM151.015 41.496L152.598 37.8227C152.398 37.7362 152.278 37.6592 152.214 37.6096C152.152 37.5623 152.13 37.533 152.124 37.5248L148.879 39.864L145.634 42.2032C146.628 43.5815 147.967 44.5382 149.432 45.1693L151.015 41.496ZM148.879 39.864L152.124 37.5248C152.116 37.5144 152.116 37.5127 152.119 37.5193C152.121 37.5224 152.123 37.5266 152.125 37.5318C152.127 37.5371 152.129 37.5427 152.131 37.5483C152.133 37.554 152.134 37.5589 152.135 37.5629C152.136 37.5668 152.137 37.5691 152.137 37.5694C152.137 37.5704 152.135 37.5601 152.135 37.536H148.135H144.135C144.135 39.2229 144.638 40.8205 145.634 42.2032L148.879 39.864ZM148.135 37.536H152.135C152.135 37.5119 152.137 37.5016 152.137 37.5026C152.137 37.5029 152.136 37.5052 152.135 37.5091C152.134 37.5131 152.133 37.518 152.131 37.5237C152.129 37.5293 152.127 37.5349 152.125 37.5401C152.123 37.5454 152.121 37.5496 152.119 37.5527C152.116 37.5593 152.116 37.5576 152.124 37.5472L148.879 35.208L145.634 32.8688C144.638 34.2515 144.135 35.8491 144.135 37.536H148.135ZM148.879 35.208L152.124 37.5472C152.13 37.539 152.152 37.5097 152.214 37.4624C152.278 37.4128 152.398 37.3358 152.598 37.2493L151.015 33.576L149.432 29.9027C147.967 30.5338 146.628 31.4905 145.634 32.8688L148.879 35.208ZM151.015 33.576L152.576 37.259C152.931 37.1084 153.478 36.976 154.303 36.976V32.976V28.976C152.632 28.976 150.987 29.2436 149.454 29.893L151.015 33.576ZM154.303 32.976V36.976C155.419 36.976 155.997 37.2128 156.294 37.4064L158.479 34.056L160.664 30.7056C158.753 29.4592 156.547 28.976 154.303 28.976V32.976ZM158.479 34.056L156.35 37.4425C156.437 37.4967 156.483 37.5363 156.503 37.555C156.522 37.5727 156.52 37.5736 156.507 37.5557C156.495 37.5372 156.482 37.5133 156.472 37.4894C156.463 37.466 156.464 37.4587 156.467 37.4761L160.423 36.888L164.38 36.2999C164.013 33.831 162.599 31.9213 160.608 30.6695L158.479 34.056ZM160.423 36.888V40.888H163.111V36.888V32.888H160.423V36.888ZM163.111 36.888H167.111V33.144H163.111H159.111V36.888H163.111ZM163.111 33.144V37.144H166.039V33.144V29.144H163.111V33.144ZM166.039 33.144H162.039V49.056H166.039H170.039V33.144H166.039ZM166.039 49.056V45.056H163.111V49.056V53.056H166.039V49.056ZM163.111 49.056H167.111V39.192H163.111H159.111V49.056H163.111ZM163.111 39.192V35.192H160.111V39.192V43.192H163.111V39.192ZM152.863 48.36H156.863V45.456H152.863H148.863V48.36H152.863ZM152.863 45.456V41.456H147.343V45.456V49.456H152.863V45.456ZM147.343 45.456H151.343V43.2H147.343H143.343V45.456H147.343ZM147.343 43.2V47.2H161.863V43.2V39.2H147.343V43.2ZM161.863 43.2H157.863V45.456H161.863H165.863V43.2H161.863ZM161.863 45.456V41.456H155.791V45.456V49.456H161.863V45.456ZM155.791 45.456H151.791V48.864H155.791H159.791V45.456H155.791ZM155.791 48.864V44.864H153.007V48.864V52.864H155.791V48.864ZM153.007 48.864H149.007V51.936H153.007H157.007V48.864H153.007ZM153.007 51.936V55.936H166.255V51.936V47.936H153.007V51.936ZM166.255 51.936H162.255V54.288H166.255H170.255V51.936H166.255ZM166.255 54.288V50.288H150.079V54.288V58.288H166.255V54.288ZM150.079 54.288H154.079V48.36H150.079H146.079V54.288H150.079ZM150.079 48.36V52.36H152.863V48.36V44.36H150.079V48.36ZM154.303 39.768V43.768C155.793 43.768 157.439 43.4655 158.894 42.4824L156.655 39.168L154.416 35.8536C154.548 35.7642 154.639 35.741 154.634 35.7421C154.624 35.7448 154.524 35.768 154.303 35.768V39.768ZM156.655 39.168L158.955 42.4408C160.517 41.3433 161.543 39.6239 161.543 37.536H157.543H153.543C153.543 37.2624 153.61 36.9 153.807 36.5362C154 36.1831 154.232 35.9819 154.355 35.8952L156.655 39.168ZM157.543 37.536H161.543C161.543 35.4386 160.505 33.7016 158.894 32.6136L156.655 35.928L154.416 39.2424C154.275 39.1474 154.024 38.9347 153.819 38.5637C153.609 38.1832 153.543 37.8088 153.543 37.536H157.543ZM156.655 35.928L158.955 32.6552C157.491 31.6263 155.82 31.304 154.303 31.304V35.304V39.304C154.406 39.304 154.48 39.3095 154.53 39.3154C154.579 39.3212 154.6 39.3269 154.597 39.3262C154.594 39.3255 154.567 39.318 154.523 39.2979C154.478 39.2775 154.42 39.2462 154.355 39.2008L156.655 35.928ZM154.303 35.304V31.304C152.786 31.304 151.116 31.6263 149.651 32.6552L151.951 35.928L154.251 39.2008C154.186 39.2462 154.128 39.2775 154.083 39.2979C154.039 39.318 154.012 39.3255 154.009 39.3262C154.006 39.3269 154.027 39.3212 154.077 39.3154C154.126 39.3095 154.2 39.304 154.303 39.304V35.304ZM151.951 35.928L149.712 32.6136C148.101 33.7016 147.063 35.4386 147.063 37.536H151.063H155.063C155.063 37.8088 154.997 38.1832 154.787 38.5637C154.582 38.9347 154.331 39.1474 154.19 39.2424L151.951 35.928ZM151.063 37.536H147.063C147.063 39.6239 148.089 41.3433 149.651 42.4408L151.951 39.168L154.251 35.8952C154.374 35.9819 154.606 36.1831 154.799 36.5362C154.997 36.9 155.063 37.2624 155.063 37.536H151.063ZM151.951 39.168L149.712 42.4824C151.167 43.4655 152.813 43.768 154.303 43.768V39.768V35.768C154.082 35.768 153.982 35.7448 153.972 35.7421C153.967 35.741 154.058 35.7642 154.19 35.8536L151.951 39.168ZM180.805 33.624H184.805C184.805 31.4149 183.014 29.624 180.805 29.624V33.624ZM180.805 35.976V39.976C183.014 39.976 184.805 38.1851 184.805 35.976H180.805ZM172.693 35.976V31.976C170.484 31.976 168.693 33.7669 168.693 35.976H172.693ZM172.693 41.808H168.693C168.693 44.0171 170.484 45.808 172.693 45.808V41.808ZM181.285 41.808H185.285C185.285 39.5989 183.494 37.808 181.285 37.808V41.808ZM181.285 44.16V48.16C183.494 48.16 185.285 46.3691 185.285 44.16H181.285ZM169.765 44.16H165.765C165.765 46.3691 167.556 48.16 169.765 48.16V44.16ZM169.765 33.624V29.624C167.556 29.624 165.765 31.4149 165.765 33.624H169.765ZM171.469 46.632V42.632C169.26 42.632 167.469 44.4229 167.469 46.632H171.469ZM174.397 46.632H178.397C178.397 44.4229 176.606 42.632 174.397 42.632V46.632ZM174.397 51.936H170.397C170.397 54.1451 172.188 55.936 174.397 55.936V51.936ZM186.925 51.936H190.925C190.925 49.7269 189.134 47.936 186.925 47.936V51.936ZM186.925 54.288V58.288C189.134 58.288 190.925 56.4971 190.925 54.288H186.925ZM171.469 54.288H167.469C167.469 56.4971 169.26 58.288 171.469 58.288V54.288ZM183.661 33.144V29.144C181.452 29.144 179.661 30.9349 179.661 33.144H183.661ZM186.589 33.144H190.589C190.589 30.9349 188.798 29.144 186.589 29.144V33.144ZM186.589 37.704H182.589C182.589 39.9131 184.38 41.704 186.589 41.704V37.704ZM189.133 37.704H193.133C193.133 35.4949 191.342 33.704 189.133 33.704V37.704ZM189.133 40.104V44.104C191.342 44.104 193.133 42.3131 193.133 40.104H189.133ZM186.589 40.104V36.104C184.38 36.104 182.589 37.8949 182.589 40.104H186.589ZM186.589 48.36V52.36C188.798 52.36 190.589 50.5691 190.589 48.36H186.589ZM183.661 48.36H179.661C179.661 50.5691 181.452 52.36 183.661 52.36V48.36ZM180.805 33.624H176.805V35.976H180.805H184.805V33.624H180.805ZM180.805 35.976V31.976H172.693V35.976V39.976H180.805V35.976ZM172.693 35.976H168.693V41.808H172.693H176.693V35.976H172.693ZM172.693 41.808V45.808H181.285V41.808V37.808H172.693V41.808ZM181.285 41.808H177.285V44.16H181.285H185.285V41.808H181.285ZM181.285 44.16V40.16H169.765V44.16V48.16H181.285V44.16ZM169.765 44.16H173.765V33.624H169.765H165.765V44.16H169.765ZM169.765 33.624V37.624H180.805V33.624V29.624H169.765V33.624ZM171.469 46.632V50.632H174.397V46.632V42.632H171.469V46.632ZM174.397 46.632H170.397V51.936H174.397H178.397V46.632H174.397ZM174.397 51.936V55.936H186.925V51.936V47.936H174.397V51.936ZM186.925 51.936H182.925V54.288H186.925H190.925V51.936H186.925ZM186.925 54.288V50.288H171.469V54.288V58.288H186.925V54.288ZM171.469 54.288H175.469V46.632H171.469H167.469V54.288H171.469ZM183.661 33.144V37.144H186.589V33.144V29.144H183.661V33.144ZM186.589 33.144H182.589V37.704H186.589H190.589V33.144H186.589ZM186.589 37.704V41.704H189.133V37.704V33.704H186.589V37.704ZM189.133 37.704H185.133V40.104H189.133H193.133V37.704H189.133ZM189.133 40.104V36.104H186.589V40.104V44.104H189.133V40.104ZM186.589 40.104H182.589V48.36H186.589H190.589V40.104H186.589ZM186.589 48.36V44.36H183.661V48.36V52.36H186.589V48.36ZM183.661 48.36H187.661V33.144H183.661H179.661V48.36H183.661Z" fill="#2B2B2B" mask="url(#path-2-outside-1_1159_5706)"/>
<mask id="path-4-outside-2_1159_5706" maskUnits="userSpaceOnUse" x="194.5" y="3" width="108" height="52" fill="black">
<rect fill="white" x="194.5" y="3" width="108" height="52"/>
<path d="M221.856 7.288H229.872V21.304H231.84V7.288H239.856V50.2H231.84V29.032H229.872V50.2H221.856V7.288ZM199.008 36.088H206.592V35.656L201.84 34.312L200.928 16.312H199.008V8.584H220.368V16.312H218.352V36.088H220.368V43.816H199.008V36.088ZM209.184 36.088H211.392V16.312H208.032L209.184 36.088ZM265.797 7.288H273.813V21.304H275.781V7.288H283.797V50.2H275.781V29.032H273.813V50.2H265.797V7.288ZM244.245 8.104H252.261V18.376H255.765V8.104H263.781V43.816H254.421L252.741 38.872H252.261V43.816H244.245V8.104ZM255.765 36.088V25.912H252.261V36.088H255.765ZM293.514 45.784C292.17 45.784 291.034 45.32 290.106 44.392C289.178 43.496 288.714 42.392 288.714 41.08C288.714 39.768 289.178 38.664 290.106 37.768C291.034 36.872 292.17 36.424 293.514 36.424C294.826 36.424 295.93 36.872 296.826 37.768C297.722 38.664 298.17 39.768 298.17 41.08C298.17 42.392 297.722 43.496 296.826 44.392C295.93 45.32 294.826 45.784 293.514 45.784Z"/>
</mask>
<path d="M221.856 7.288H229.872V21.304H231.84V7.288H239.856V50.2H231.84V29.032H229.872V50.2H221.856V7.288ZM199.008 36.088H206.592V35.656L201.84 34.312L200.928 16.312H199.008V8.584H220.368V16.312H218.352V36.088H220.368V43.816H199.008V36.088ZM209.184 36.088H211.392V16.312H208.032L209.184 36.088ZM265.797 7.288H273.813V21.304H275.781V7.288H283.797V50.2H275.781V29.032H273.813V50.2H265.797V7.288ZM244.245 8.104H252.261V18.376H255.765V8.104H263.781V43.816H254.421L252.741 38.872H252.261V43.816H244.245V8.104ZM255.765 36.088V25.912H252.261V36.088H255.765ZM293.514 45.784C292.17 45.784 291.034 45.32 290.106 44.392C289.178 43.496 288.714 42.392 288.714 41.08C288.714 39.768 289.178 38.664 290.106 37.768C291.034 36.872 292.17 36.424 293.514 36.424C294.826 36.424 295.93 36.872 296.826 37.768C297.722 38.664 298.17 39.768 298.17 41.08C298.17 42.392 297.722 43.496 296.826 44.392C295.93 45.32 294.826 45.784 293.514 45.784Z" fill="white"/>
<path d="M221.856 7.288V3.288C219.647 3.288 217.856 5.07886 217.856 7.288H221.856ZM229.872 7.288H233.872C233.872 5.07886 232.081 3.288 229.872 3.288V7.288ZM229.872 21.304H225.872C225.872 23.5131 227.663 25.304 229.872 25.304V21.304ZM231.84 21.304V25.304C234.049 25.304 235.84 23.5131 235.84 21.304H231.84ZM231.84 7.288V3.288C229.631 3.288 227.84 5.07886 227.84 7.288H231.84ZM239.856 7.288H243.856C243.856 5.07886 242.065 3.288 239.856 3.288V7.288ZM239.856 50.2V54.2C242.065 54.2 243.856 52.4091 243.856 50.2H239.856ZM231.84 50.2H227.84C227.84 52.4091 229.631 54.2 231.84 54.2V50.2ZM231.84 29.032H235.84C235.84 26.8229 234.049 25.032 231.84 25.032V29.032ZM229.872 29.032V25.032C227.663 25.032 225.872 26.8229 225.872 29.032H229.872ZM229.872 50.2V54.2C232.081 54.2 233.872 52.4091 233.872 50.2H229.872ZM221.856 50.2H217.856C217.856 52.4091 219.647 54.2 221.856 54.2V50.2ZM199.008 36.088V32.088C196.799 32.088 195.008 33.8789 195.008 36.088H199.008ZM206.592 36.088V40.088C208.801 40.088 210.592 38.2971 210.592 36.088H206.592ZM206.592 35.656H210.592C210.592 33.8661 209.403 32.2941 207.681 31.807L206.592 35.656ZM201.84 34.312L197.845 34.5144C197.932 36.2273 199.101 37.6942 200.752 38.161L201.84 34.312ZM200.928 16.312L204.923 16.1096C204.815 13.9819 203.059 12.312 200.928 12.312V16.312ZM199.008 16.312H195.008C195.008 18.5211 196.799 20.312 199.008 20.312V16.312ZM199.008 8.584V4.584C196.799 4.584 195.008 6.37486 195.008 8.584H199.008ZM220.368 8.584H224.368C224.368 6.37486 222.577 4.584 220.368 4.584V8.584ZM220.368 16.312V20.312C222.577 20.312 224.368 18.5211 224.368 16.312H220.368ZM218.352 16.312V12.312C216.143 12.312 214.352 14.1029 214.352 16.312H218.352ZM218.352 36.088H214.352C214.352 38.2971 216.143 40.088 218.352 40.088V36.088ZM220.368 36.088H224.368C224.368 33.8789 222.577 32.088 220.368 32.088V36.088ZM220.368 43.816V47.816C222.577 47.816 224.368 46.0251 224.368 43.816H220.368ZM199.008 43.816H195.008C195.008 46.0251 196.799 47.816 199.008 47.816V43.816ZM209.184 36.088L205.191 36.3206C205.314 38.4358 207.066 40.088 209.184 40.088V36.088ZM211.392 36.088V40.088C213.601 40.088 215.392 38.2971 215.392 36.088H211.392ZM211.392 16.312H215.392C215.392 14.1029 213.601 12.312 211.392 12.312V16.312ZM208.032 16.312V12.312C206.931 12.312 205.879 12.766 205.123 13.567C204.367 14.3681 203.975 15.4452 204.039 16.5446L208.032 16.312ZM221.856 7.288V11.288H229.872V7.288V3.288H221.856V7.288ZM229.872 7.288H225.872V21.304H229.872H233.872V7.288H229.872ZM229.872 21.304V25.304H231.84V21.304V17.304H229.872V21.304ZM231.84 21.304H235.84V7.288H231.84H227.84V21.304H231.84ZM231.84 7.288V11.288H239.856V7.288V3.288H231.84V7.288ZM239.856 7.288H235.856V50.2H239.856H243.856V7.288H239.856ZM239.856 50.2V46.2H231.84V50.2V54.2H239.856V50.2ZM231.84 50.2H235.84V29.032H231.84H227.84V50.2H231.84ZM231.84 29.032V25.032H229.872V29.032V33.032H231.84V29.032ZM229.872 29.032H225.872V50.2H229.872H233.872V29.032H229.872ZM229.872 50.2V46.2H221.856V50.2V54.2H229.872V50.2ZM221.856 50.2H225.856V7.288H221.856H217.856V50.2H221.856ZM199.008 36.088V40.088H206.592V36.088V32.088H199.008V36.088ZM206.592 36.088H210.592V35.656H206.592H202.592V36.088H206.592ZM206.592 35.656L207.681 31.807L202.929 30.463L201.84 34.312L200.752 38.161L205.504 39.505L206.592 35.656ZM201.84 34.312L205.835 34.1096L204.923 16.1096L200.928 16.312L196.933 16.5144L197.845 34.5144L201.84 34.312ZM200.928 16.312V12.312H199.008V16.312V20.312H200.928V16.312ZM199.008 16.312H203.008V8.584H199.008H195.008V16.312H199.008ZM199.008 8.584V12.584H220.368V8.584V4.584H199.008V8.584ZM220.368 8.584H216.368V16.312H220.368H224.368V8.584H220.368ZM220.368 16.312V12.312H218.352V16.312V20.312H220.368V16.312ZM218.352 16.312H214.352V36.088H218.352H222.352V16.312H218.352ZM218.352 36.088V40.088H220.368V36.088V32.088H218.352V36.088ZM220.368 36.088H216.368V43.816H220.368H224.368V36.088H220.368ZM220.368 43.816V39.816H199.008V43.816V47.816H220.368V43.816ZM199.008 43.816H203.008V36.088H199.008H195.008V43.816H199.008ZM209.184 36.088V40.088H211.392V36.088V32.088H209.184V36.088ZM211.392 36.088H215.392V16.312H211.392H207.392V36.088H211.392ZM211.392 16.312V12.312H208.032V16.312V20.312H211.392V16.312ZM208.032 16.312L204.039 16.5446L205.191 36.3206L209.184 36.088L213.178 35.8554L212.026 16.0794L208.032 16.312ZM265.797 7.288V3.288C263.588 3.288 261.797 5.07886 261.797 7.288H265.797ZM273.813 7.288H277.813C277.813 5.07886 276.022 3.288 273.813 3.288V7.288ZM273.813 21.304H269.813C269.813 23.5131 271.604 25.304 273.813 25.304V21.304ZM275.781 21.304V25.304C277.99 25.304 279.781 23.5131 279.781 21.304H275.781ZM275.781 7.288V3.288C273.572 3.288 271.781 5.07886 271.781 7.288H275.781ZM283.797 7.288H287.797C287.797 5.07886 286.006 3.288 283.797 3.288V7.288ZM283.797 50.2V54.2C286.006 54.2 287.797 52.4091 287.797 50.2H283.797ZM275.781 50.2H271.781C271.781 52.4091 273.572 54.2 275.781 54.2V50.2ZM275.781 29.032H279.781C279.781 26.8229 277.99 25.032 275.781 25.032V29.032ZM273.813 29.032V25.032C271.604 25.032 269.813 26.8229 269.813 29.032H273.813ZM273.813 50.2V54.2C276.022 54.2 277.813 52.4091 277.813 50.2H273.813ZM265.797 50.2H261.797C261.797 52.4091 263.588 54.2 265.797 54.2V50.2ZM244.245 8.104V4.104C242.036 4.104 240.245 5.89486 240.245 8.104H244.245ZM252.261 8.104H256.261C256.261 5.89486 254.47 4.104 252.261 4.104V8.104ZM252.261 18.376H248.261C248.261 20.5851 250.052 22.376 252.261 22.376V18.376ZM255.765 18.376V22.376C257.974 22.376 259.765 20.5851 259.765 18.376H255.765ZM255.765 8.104V4.104C253.556 4.104 251.765 5.89486 251.765 8.104H255.765ZM263.781 8.104H267.781C267.781 5.89486 265.99 4.104 263.781 4.104V8.104ZM263.781 43.816V47.816C265.99 47.816 267.781 46.0251 267.781 43.816H263.781ZM254.421 43.816L250.634 45.103C251.185 46.725 252.708 47.816 254.421 47.816V43.816ZM252.741 38.872L256.528 37.585C255.977 35.963 254.454 34.872 252.741 34.872V38.872ZM252.261 38.872V34.872C250.052 34.872 248.261 36.6629 248.261 38.872H252.261ZM252.261 43.816V47.816C254.47 47.816 256.261 46.0251 256.261 43.816H252.261ZM244.245 43.816H240.245C240.245 46.0251 242.036 47.816 244.245 47.816V43.816ZM255.765 36.088V40.088C257.974 40.088 259.765 38.2971 259.765 36.088H255.765ZM255.765 25.912H259.765C259.765 23.7029 257.974 21.912 255.765 21.912V25.912ZM252.261 25.912V21.912C250.052 21.912 248.261 23.7029 248.261 25.912H252.261ZM252.261 36.088H248.261C248.261 38.2971 250.052 40.088 252.261 40.088V36.088ZM265.797 7.288V11.288H273.813V7.288V3.288H265.797V7.288ZM273.813 7.288H269.813V21.304H273.813H277.813V7.288H273.813ZM273.813 21.304V25.304H275.781V21.304V17.304H273.813V21.304ZM275.781 21.304H279.781V7.288H275.781H271.781V21.304H275.781ZM275.781 7.288V11.288H283.797V7.288V3.288H275.781V7.288ZM283.797 7.288H279.797V50.2H283.797H287.797V7.288H283.797ZM283.797 50.2V46.2H275.781V50.2V54.2H283.797V50.2ZM275.781 50.2H279.781V29.032H275.781H271.781V50.2H275.781ZM275.781 29.032V25.032H273.813V29.032V33.032H275.781V29.032ZM273.813 29.032H269.813V50.2H273.813H277.813V29.032H273.813ZM273.813 50.2V46.2H265.797V50.2V54.2H273.813V50.2ZM265.797 50.2H269.797V7.288H265.797H261.797V50.2H265.797ZM244.245 8.104V12.104H252.261V8.104V4.104H244.245V8.104ZM252.261 8.104H248.261V18.376H252.261H256.261V8.104H252.261ZM252.261 18.376V22.376H255.765V18.376V14.376H252.261V18.376ZM255.765 18.376H259.765V8.104H255.765H251.765V18.376H255.765ZM255.765 8.104V12.104H263.781V8.104V4.104H255.765V8.104ZM263.781 8.104H259.781V43.816H263.781H267.781V8.104H263.781ZM263.781 43.816V39.816H254.421V43.816V47.816H263.781V43.816ZM254.421 43.816L258.208 42.529L256.528 37.585L252.741 38.872L248.954 40.159L250.634 45.103L254.421 43.816ZM252.741 38.872V34.872H252.261V38.872V42.872H252.741V38.872ZM252.261 38.872H248.261V43.816H252.261H256.261V38.872H252.261ZM252.261 43.816V39.816H244.245V43.816V47.816H252.261V43.816ZM244.245 43.816H248.245V8.104H244.245H240.245V43.816H244.245ZM255.765 36.088H259.765V25.912H255.765H251.765V36.088H255.765ZM255.765 25.912V21.912H252.261V25.912V29.912H255.765V25.912ZM252.261 25.912H248.261V36.088H252.261H256.261V25.912H252.261ZM252.261 36.088V40.088H255.765V36.088V32.088H252.261V36.088ZM290.106 44.392L292.934 41.5636C292.917 41.547 292.901 41.5306 292.884 41.5144L290.106 44.392ZM296.826 44.392L293.997 41.5636C293.981 41.5801 293.964 41.5968 293.948 41.6136L296.826 44.392ZM293.514 45.784V41.784C293.202 41.784 293.092 41.7214 292.934 41.5636L290.106 44.392L287.277 47.2204C288.975 48.9186 291.137 49.784 293.514 49.784V45.784ZM290.106 44.392L292.884 41.5144C292.779 41.4134 292.755 41.357 292.749 41.3422C292.742 41.3259 292.714 41.2549 292.714 41.08H288.714H284.714C284.714 43.4563 285.604 45.6054 287.327 47.2696L290.106 44.392ZM288.714 41.08H292.714C292.714 40.9051 292.742 40.8341 292.749 40.8178C292.755 40.803 292.779 40.7466 292.884 40.6456L290.106 37.768L287.327 34.8904C285.604 36.5546 284.714 38.7037 284.714 41.08H288.714ZM290.106 37.768L292.884 40.6456C293.032 40.5024 293.158 40.424 293.514 40.424V36.424V32.424C291.181 32.424 289.035 33.2416 287.327 34.8904L290.106 37.768ZM293.514 36.424V40.424C293.706 40.424 293.793 40.4551 293.821 40.4664C293.847 40.4767 293.903 40.5023 293.997 40.5964L296.826 37.768L299.654 34.9396C297.979 33.2643 295.844 32.424 293.514 32.424V36.424ZM296.826 37.768L293.997 40.5964C294.091 40.6905 294.117 40.7468 294.127 40.7721C294.139 40.8001 294.17 40.8873 294.17 41.08H298.17H302.17C302.17 38.7491 301.329 36.6149 299.654 34.9396L296.826 37.768ZM298.17 41.08H294.17C294.17 41.2727 294.139 41.3599 294.127 41.3879C294.117 41.4132 294.091 41.4695 293.997 41.5636L296.826 44.392L299.654 47.2204C301.329 45.5451 302.17 43.4109 302.17 41.08H298.17ZM296.826 44.392L293.948 41.6136C293.847 41.7182 293.791 41.7422 293.776 41.7485C293.759 41.7553 293.688 41.784 293.514 41.784V45.784V49.784C295.89 49.784 298.039 48.894 299.703 47.1704L296.826 44.392Z" fill="#2B2B2B" mask="url(#path-4-outside-2_1159_5706)"/>
</g>
<defs>
<filter id="filter0_d_1159_5706" x="0.5" y="0" width="317" height="66.6719" filterUnits="userSpaceOnUse" color-interpolation-filters="sRGB">
<feFlood flood-opacity="0" result="BackgroundImageFix"/>
<feColorMatrix in="SourceAlpha" type="matrix" values="0 0 0 0 0 0 0 0 0 0 0 0 0 0 0 0 0 0 127 0" result="hardAlpha"/>
<feOffset dy="4"/>
<feGaussianBlur stdDeviation="2"/>
<feComposite in2="hardAlpha" operator="out"/>
<feColorMatrix type="matrix" values="0 0 0 0 0 0 0 0 0 0 0 0 0 0 0 0 0 0 0.25 0"/>
<feBlend mode="normal" in2="BackgroundImageFix" result="effect1_dropShadow_1159_5706"/>
<feBlend mode="normal" in="SourceGraphic" in2="effect1_dropShadow_1159_5706" result="shape"/>
</filter>
</defs>
</svg>
