<svg width="317" height="67" viewBox="0 0 317 67" fill="none" xmlns="http://www.w3.org/2000/svg">
<g filter="url(#filter0_d_1159_5594)">
<path d="M4 38H313V54C313 56.2091 311.209 58 309 58H8C5.79086 58 4 56.2091 4 54V38Z" fill="#2B2B2B"/>
<mask id="path-2-outside-1_1159_5594" maskUnits="userSpaceOnUse" x="11" y="28" width="182" height="31" fill="black">
<rect fill="white" x="11" y="28" width="182" height="31"/>
<path d="M15.609 48.288V45.888H34.521V48.288H26.529V54.528H23.601V48.288H15.609ZM16.929 33.744H32.865V36.144H19.857V40.632H33.105V43.032H16.929V33.744ZM36.015 43.488L41.367 37.248V33.456H44.295V37.248L49.647 43.488L47.607 45.216L42.831 39.552L38.055 45.216L36.015 43.488ZM39.255 46.632H42.183V51.936H54.711V54.288H39.255V46.632ZM51.447 33.144H54.375V37.704H56.919V40.104H54.375V48.36H51.447V33.144ZM67.245 42.984V50.52H58.485V34.152H61.149V39.384H64.581V34.152H67.245V40.584H69.501V33.144H72.165V54.528H69.501V42.984H67.245ZM64.581 48.12V41.784H61.149V48.12H64.581ZM73.821 33.144H76.485V54.528H73.821V33.144ZM91.179 42.744C91.131 45.416 90.619 47.44 89.643 48.816C88.667 50.176 87.243 50.856 85.371 50.856C83.451 50.856 82.003 50.136 81.027 48.696C80.051 47.256 79.563 45.128 79.563 42.312C79.563 39.496 80.051 37.368 81.027 35.928C82.003 34.488 83.451 33.768 85.371 33.768C87.051 33.768 88.371 34.32 89.331 35.424C90.291 36.528 90.875 38.168 91.083 40.344H94.227V33.144H97.155V54.528H94.227V42.744H91.179ZM85.371 48.456C86.299 48.456 87.019 47.936 87.531 46.896C88.011 45.856 88.251 44.328 88.251 42.312C88.251 40.264 88.011 38.728 87.531 37.704C87.035 36.68 86.315 36.168 85.371 36.168C84.427 36.168 83.715 36.68 83.235 37.704C82.739 38.696 82.491 40.232 82.491 42.312C82.491 44.376 82.739 45.904 83.235 46.896C83.715 47.936 84.427 48.456 85.371 48.456ZM100.569 43.896L108.201 37.512V33.744H111.129V37.512L118.761 43.896L116.961 45.888L109.665 39.744L102.369 45.888L100.569 43.896ZM100.209 49.368H119.121V51.768H100.209V49.368ZM135.629 41.4C132.941 41.4 130.877 41.032 129.437 40.296C128.013 39.56 127.301 38.512 127.301 37.152C127.301 35.792 128.013 34.744 129.437 34.008C130.877 33.272 132.941 32.904 135.629 32.904C138.317 32.904 140.373 33.272 141.797 34.008C143.237 34.744 143.957 35.792 143.957 37.152C143.957 38.512 143.237 39.56 141.797 40.296C140.373 41.032 138.317 41.4 135.629 41.4ZM135.629 54.672C133.005 54.672 130.957 54.312 129.485 53.592C128.029 52.888 127.301 51.904 127.301 50.64C127.301 49.376 128.029 48.392 129.485 47.688C130.957 46.968 133.005 46.608 135.629 46.608C138.253 46.608 140.293 46.968 141.749 47.688C143.221 48.392 143.957 49.376 143.957 50.64C143.957 51.904 143.221 52.888 141.749 53.592C140.293 54.312 138.253 54.672 135.629 54.672ZM135.629 52.368C137.373 52.368 138.701 52.216 139.613 51.912C140.557 51.592 141.029 51.168 141.029 50.64C141.029 50.112 140.557 49.688 139.613 49.368C138.701 49.064 137.373 48.912 135.629 48.912C133.885 48.912 132.565 49.064 131.669 49.368C130.709 49.672 130.229 50.096 130.229 50.64C130.229 51.184 130.709 51.608 131.669 51.912C132.565 52.216 133.885 52.368 135.629 52.368ZM145.085 42.792V45.096H126.173V42.792H145.085ZM135.629 39.096C137.405 39.096 138.741 38.92 139.637 38.568C140.565 38.232 141.029 37.76 141.029 37.152C141.029 36.544 140.565 36.064 139.637 35.712C138.709 35.376 137.373 35.208 135.629 35.208C133.917 35.208 132.589 35.376 131.645 35.712C130.701 36.08 130.229 36.56 130.229 37.152C130.229 37.76 130.701 38.232 131.645 38.568C132.541 38.92 133.869 39.096 135.629 39.096ZM159.611 39.192C159.211 40.088 158.499 40.8 157.475 41.328C156.451 41.84 155.227 42.096 153.803 42.096C152.555 42.096 151.459 41.896 150.515 41.496C149.587 41.096 148.875 40.552 148.379 39.864C147.883 39.176 147.635 38.4 147.635 37.536C147.635 36.672 147.883 35.896 148.379 35.208C148.875 34.52 149.587 33.976 150.515 33.576C151.459 33.176 152.555 32.976 153.803 32.976C155.483 32.976 156.875 33.336 157.979 34.056C159.099 34.76 159.747 35.704 159.923 36.888H162.611V33.144H165.539V49.056H162.611V39.192H159.611ZM152.363 48.36V45.456H146.843V43.2H161.363V45.456H155.291V48.864H152.507V51.936H165.755V54.288H149.579V48.36H152.363ZM153.803 39.768C154.779 39.768 155.563 39.568 156.155 39.168C156.747 38.752 157.043 38.208 157.043 37.536C157.043 36.864 156.747 36.328 156.155 35.928C155.563 35.512 154.779 35.304 153.803 35.304C152.827 35.304 152.043 35.512 151.451 35.928C150.859 36.328 150.563 36.864 150.563 37.536C150.563 38.208 150.859 38.752 151.451 39.168C152.043 39.568 152.827 39.768 153.803 39.768ZM180.305 33.624V35.976H172.193V41.808H180.785V44.16H169.265V33.624H180.305ZM170.969 46.632H173.897V51.936H186.425V54.288H170.969V46.632ZM183.161 33.144H186.089V37.704H188.633V40.104H186.089V48.36H183.161V33.144Z"/>
</mask>
<path d="M15.609 48.288V45.888H34.521V48.288H26.529V54.528H23.601V48.288H15.609ZM16.929 33.744H32.865V36.144H19.857V40.632H33.105V43.032H16.929V33.744ZM36.015 43.488L41.367 37.248V33.456H44.295V37.248L49.647 43.488L47.607 45.216L42.831 39.552L38.055 45.216L36.015 43.488ZM39.255 46.632H42.183V51.936H54.711V54.288H39.255V46.632ZM51.447 33.144H54.375V37.704H56.919V40.104H54.375V48.36H51.447V33.144ZM67.245 42.984V50.52H58.485V34.152H61.149V39.384H64.581V34.152H67.245V40.584H69.501V33.144H72.165V54.528H69.501V42.984H67.245ZM64.581 48.12V41.784H61.149V48.12H64.581ZM73.821 33.144H76.485V54.528H73.821V33.144ZM91.179 42.744C91.131 45.416 90.619 47.44 89.643 48.816C88.667 50.176 87.243 50.856 85.371 50.856C83.451 50.856 82.003 50.136 81.027 48.696C80.051 47.256 79.563 45.128 79.563 42.312C79.563 39.496 80.051 37.368 81.027 35.928C82.003 34.488 83.451 33.768 85.371 33.768C87.051 33.768 88.371 34.32 89.331 35.424C90.291 36.528 90.875 38.168 91.083 40.344H94.227V33.144H97.155V54.528H94.227V42.744H91.179ZM85.371 48.456C86.299 48.456 87.019 47.936 87.531 46.896C88.011 45.856 88.251 44.328 88.251 42.312C88.251 40.264 88.011 38.728 87.531 37.704C87.035 36.68 86.315 36.168 85.371 36.168C84.427 36.168 83.715 36.68 83.235 37.704C82.739 38.696 82.491 40.232 82.491 42.312C82.491 44.376 82.739 45.904 83.235 46.896C83.715 47.936 84.427 48.456 85.371 48.456ZM100.569 43.896L108.201 37.512V33.744H111.129V37.512L118.761 43.896L116.961 45.888L109.665 39.744L102.369 45.888L100.569 43.896ZM100.209 49.368H119.121V51.768H100.209V49.368ZM135.629 41.4C132.941 41.4 130.877 41.032 129.437 40.296C128.013 39.56 127.301 38.512 127.301 37.152C127.301 35.792 128.013 34.744 129.437 34.008C130.877 33.272 132.941 32.904 135.629 32.904C138.317 32.904 140.373 33.272 141.797 34.008C143.237 34.744 143.957 35.792 143.957 37.152C143.957 38.512 143.237 39.56 141.797 40.296C140.373 41.032 138.317 41.4 135.629 41.4ZM135.629 54.672C133.005 54.672 130.957 54.312 129.485 53.592C128.029 52.888 127.301 51.904 127.301 50.64C127.301 49.376 128.029 48.392 129.485 47.688C130.957 46.968 133.005 46.608 135.629 46.608C138.253 46.608 140.293 46.968 141.749 47.688C143.221 48.392 143.957 49.376 143.957 50.64C143.957 51.904 143.221 52.888 141.749 53.592C140.293 54.312 138.253 54.672 135.629 54.672ZM135.629 52.368C137.373 52.368 138.701 52.216 139.613 51.912C140.557 51.592 141.029 51.168 141.029 50.64C141.029 50.112 140.557 49.688 139.613 49.368C138.701 49.064 137.373 48.912 135.629 48.912C133.885 48.912 132.565 49.064 131.669 49.368C130.709 49.672 130.229 50.096 130.229 50.64C130.229 51.184 130.709 51.608 131.669 51.912C132.565 52.216 133.885 52.368 135.629 52.368ZM145.085 42.792V45.096H126.173V42.792H145.085ZM135.629 39.096C137.405 39.096 138.741 38.92 139.637 38.568C140.565 38.232 141.029 37.76 141.029 37.152C141.029 36.544 140.565 36.064 139.637 35.712C138.709 35.376 137.373 35.208 135.629 35.208C133.917 35.208 132.589 35.376 131.645 35.712C130.701 36.08 130.229 36.56 130.229 37.152C130.229 37.76 130.701 38.232 131.645 38.568C132.541 38.92 133.869 39.096 135.629 39.096ZM159.611 39.192C159.211 40.088 158.499 40.8 157.475 41.328C156.451 41.84 155.227 42.096 153.803 42.096C152.555 42.096 151.459 41.896 150.515 41.496C149.587 41.096 148.875 40.552 148.379 39.864C147.883 39.176 147.635 38.4 147.635 37.536C147.635 36.672 147.883 35.896 148.379 35.208C148.875 34.52 149.587 33.976 150.515 33.576C151.459 33.176 152.555 32.976 153.803 32.976C155.483 32.976 156.875 33.336 157.979 34.056C159.099 34.76 159.747 35.704 159.923 36.888H162.611V33.144H165.539V49.056H162.611V39.192H159.611ZM152.363 48.36V45.456H146.843V43.2H161.363V45.456H155.291V48.864H152.507V51.936H165.755V54.288H149.579V48.36H152.363ZM153.803 39.768C154.779 39.768 155.563 39.568 156.155 39.168C156.747 38.752 157.043 38.208 157.043 37.536C157.043 36.864 156.747 36.328 156.155 35.928C155.563 35.512 154.779 35.304 153.803 35.304C152.827 35.304 152.043 35.512 151.451 35.928C150.859 36.328 150.563 36.864 150.563 37.536C150.563 38.208 150.859 38.752 151.451 39.168C152.043 39.568 152.827 39.768 153.803 39.768ZM180.305 33.624V35.976H172.193V41.808H180.785V44.16H169.265V33.624H180.305ZM170.969 46.632H173.897V51.936H186.425V54.288H170.969V46.632ZM183.161 33.144H186.089V37.704H188.633V40.104H186.089V48.36H183.161V33.144Z" fill="white"/>
<path d="M15.609 48.288H11.609C11.609 50.4971 13.3998 52.288 15.609 52.288V48.288ZM15.609 45.888V41.888C13.3998 41.888 11.609 43.6789 11.609 45.888H15.609ZM34.521 45.888H38.521C38.521 43.6789 36.7301 41.888 34.521 41.888V45.888ZM34.521 48.288V52.288C36.7301 52.288 38.521 50.4971 38.521 48.288H34.521ZM26.529 48.288V44.288C24.3198 44.288 22.529 46.0789 22.529 48.288H26.529ZM26.529 54.528V58.528C28.7381 58.528 30.529 56.7371 30.529 54.528H26.529ZM23.601 54.528H19.601C19.601 56.7371 21.3918 58.528 23.601 58.528V54.528ZM23.601 48.288H27.601C27.601 46.0789 25.8101 44.288 23.601 44.288V48.288ZM16.929 33.744V29.744C14.7198 29.744 12.929 31.5349 12.929 33.744H16.929ZM32.865 33.744H36.865C36.865 31.5349 35.0741 29.744 32.865 29.744V33.744ZM32.865 36.144V40.144C35.0741 40.144 36.865 38.3531 36.865 36.144H32.865ZM19.857 36.144V32.144C17.6478 32.144 15.857 33.9349 15.857 36.144H19.857ZM19.857 40.632H15.857C15.857 42.8411 17.6478 44.632 19.857 44.632V40.632ZM33.105 40.632H37.105C37.105 38.4229 35.3141 36.632 33.105 36.632V40.632ZM33.105 43.032V47.032C35.3141 47.032 37.105 45.2411 37.105 43.032H33.105ZM16.929 43.032H12.929C12.929 45.2411 14.7198 47.032 16.929 47.032L16.929 43.032ZM15.609 48.288H19.609V45.888H15.609H11.609V48.288H15.609ZM15.609 45.888V49.888H34.521V45.888V41.888H15.609V45.888ZM34.521 45.888H30.521V48.288H34.521H38.521V45.888H34.521ZM34.521 48.288V44.288H26.529V48.288V52.288H34.521V48.288ZM26.529 48.288H22.529V54.528H26.529H30.529V48.288H26.529ZM26.529 54.528V50.528H23.601V54.528V58.528H26.529V54.528ZM23.601 54.528H27.601V48.288H23.601H19.601V54.528H23.601ZM23.601 48.288V44.288H15.609V48.288V52.288H23.601V48.288ZM16.929 33.744V37.744H32.865V33.744V29.744H16.929V33.744ZM32.865 33.744H28.865V36.144H32.865H36.865V33.744H32.865ZM32.865 36.144V32.144H19.857V36.144V40.144H32.865V36.144ZM19.857 36.144H15.857V40.632H19.857H23.857V36.144H19.857ZM19.857 40.632V44.632H33.105V40.632V36.632H19.857V40.632ZM33.105 40.632H29.105V43.032H33.105H37.105V40.632H33.105ZM33.105 43.032V39.032H16.929V43.032V47.032H33.105V43.032ZM16.929 43.032H20.929V33.744H16.929H12.929V43.032H16.929ZM36.015 43.488L32.9788 40.8839C32.2853 41.6924 31.943 42.744 32.0276 43.8058C32.1122 44.8676 32.6168 45.8517 33.4296 46.5402L36.015 43.488ZM41.367 37.248L44.4032 39.8521C45.0251 39.127 45.367 38.2033 45.367 37.248H41.367ZM41.367 33.456V29.456C39.1578 29.456 37.367 31.2469 37.367 33.456H41.367ZM44.295 33.456H48.295C48.295 31.2469 46.5041 29.456 44.295 29.456V33.456ZM44.295 37.248H40.295C40.295 38.2033 40.6369 39.127 41.2588 39.8521L44.295 37.248ZM49.647 43.488L52.2323 46.5402C53.0451 45.8517 53.5497 44.8676 53.6343 43.8058C53.719 42.744 53.3766 41.6924 52.6832 40.8839L49.647 43.488ZM47.607 45.216L44.549 47.7945C45.2339 48.6067 46.2137 49.1131 47.2724 49.202C48.3311 49.2908 49.3817 48.9549 50.1923 48.2682L47.607 45.216ZM42.831 39.552L45.8889 36.9735C45.1289 36.0721 44.01 35.552 42.831 35.552C41.652 35.552 40.533 36.0721 39.773 36.9735L42.831 39.552ZM38.055 45.216L35.4696 48.2682C36.2803 48.9549 37.3308 49.2908 38.3895 49.202C39.4482 49.1131 40.4281 48.6067 41.1129 47.7945L38.055 45.216ZM39.255 46.632V42.632C37.0458 42.632 35.255 44.4229 35.255 46.632H39.255ZM42.183 46.632H46.183C46.183 44.4229 44.3921 42.632 42.183 42.632V46.632ZM42.183 51.936H38.183C38.183 54.1451 39.9738 55.936 42.183 55.936V51.936ZM54.711 51.936H58.711C58.711 49.7269 56.9201 47.936 54.711 47.936V51.936ZM54.711 54.288V58.288C56.9201 58.288 58.711 56.4971 58.711 54.288H54.711ZM39.255 54.288H35.255C35.255 56.4971 37.0458 58.288 39.255 58.288V54.288ZM51.447 33.144V29.144C49.2378 29.144 47.447 30.9349 47.447 33.144H51.447ZM54.375 33.144H58.375C58.375 30.9349 56.5841 29.144 54.375 29.144V33.144ZM54.375 37.704H50.375C50.375 39.9131 52.1658 41.704 54.375 41.704V37.704ZM56.919 37.704H60.919C60.919 35.4949 59.1281 33.704 56.919 33.704V37.704ZM56.919 40.104V44.104C59.1281 44.104 60.919 42.3131 60.919 40.104H56.919ZM54.375 40.104V36.104C52.1658 36.104 50.375 37.8949 50.375 40.104H54.375ZM54.375 48.36V52.36C56.5841 52.36 58.375 50.5691 58.375 48.36H54.375ZM51.447 48.36H47.447C47.447 50.5691 49.2378 52.36 51.447 52.36V48.36ZM36.015 43.488L39.0512 46.0921L44.4032 39.8521L41.367 37.248L38.3308 34.6439L32.9788 40.8839L36.015 43.488ZM41.367 37.248H45.367V33.456H41.367H37.367V37.248H41.367ZM41.367 33.456V37.456H44.295V33.456V29.456H41.367V33.456ZM44.295 33.456H40.295V37.248H44.295H48.295V33.456H44.295ZM44.295 37.248L41.2588 39.8521L46.6108 46.0921L49.647 43.488L52.6832 40.8839L47.3312 34.6439L44.295 37.248ZM49.647 43.488L47.0616 40.4358L45.0216 42.1638L47.607 45.216L50.1923 48.2682L52.2323 46.5402L49.647 43.488ZM47.607 45.216L50.6649 42.6375L45.8889 36.9735L42.831 39.552L39.773 42.1305L44.549 47.7945L47.607 45.216ZM42.831 39.552L39.773 36.9735L34.997 42.6375L38.055 45.216L41.1129 47.7945L45.8889 42.1305L42.831 39.552ZM38.055 45.216L40.6403 42.1638L38.6003 40.4358L36.015 43.488L33.4296 46.5402L35.4696 48.2682L38.055 45.216ZM39.255 46.632V50.632H42.183V46.632V42.632H39.255V46.632ZM42.183 46.632H38.183V51.936H42.183H46.183V46.632H42.183ZM42.183 51.936V55.936H54.711V51.936V47.936H42.183V51.936ZM54.711 51.936H50.711V54.288H54.711H58.711V51.936H54.711ZM54.711 54.288V50.288H39.255V54.288V58.288H54.711V54.288ZM39.255 54.288H43.255V46.632H39.255H35.255V54.288H39.255ZM51.447 33.144V37.144H54.375V33.144V29.144H51.447V33.144ZM54.375 33.144H50.375V37.704H54.375H58.375V33.144H54.375ZM54.375 37.704V41.704H56.919V37.704V33.704H54.375V37.704ZM56.919 37.704H52.919V40.104H56.919H60.919V37.704H56.919ZM56.919 40.104V36.104H54.375V40.104V44.104H56.919V40.104ZM54.375 40.104H50.375V48.36H54.375H58.375V40.104H54.375ZM54.375 48.36V44.36H51.447V48.36V52.36H54.375V48.36ZM51.447 48.36H55.447V33.144H51.447H47.447V48.36H51.447ZM67.245 42.984V38.984C65.0358 38.984 63.245 40.7749 63.245 42.984H67.245ZM67.245 50.52V54.52C69.4541 54.52 71.245 52.7291 71.245 50.52H67.245ZM58.485 50.52H54.485C54.485 52.7291 56.2758 54.52 58.485 54.52V50.52ZM58.485 34.152V30.152C56.2758 30.152 54.485 31.9429 54.485 34.152H58.485ZM61.149 34.152H65.149C65.149 31.9429 63.3581 30.152 61.149 30.152V34.152ZM61.149 39.384H57.149C57.149 41.5931 58.9398 43.384 61.149 43.384V39.384ZM64.581 39.384V43.384C66.7901 43.384 68.581 41.5931 68.581 39.384H64.581ZM64.581 34.152V30.152C62.3718 30.152 60.581 31.9429 60.581 34.152H64.581ZM67.245 34.152H71.245C71.245 31.9429 69.4541 30.152 67.245 30.152V34.152ZM67.245 40.584H63.245C63.245 42.7931 65.0358 44.584 67.245 44.584V40.584ZM69.501 40.584V44.584C71.7101 44.584 73.501 42.7931 73.501 40.584H69.501ZM69.501 33.144V29.144C67.2918 29.144 65.501 30.9349 65.501 33.144H69.501ZM72.165 33.144H76.165C76.165 30.9349 74.3741 29.144 72.165 29.144V33.144ZM72.165 54.528V58.528C74.3741 58.528 76.165 56.7371 76.165 54.528H72.165ZM69.501 54.528H65.501C65.501 56.7371 67.2918 58.528 69.501 58.528V54.528ZM69.501 42.984H73.501C73.501 40.7749 71.7101 38.984 69.501 38.984V42.984ZM64.581 48.12V52.12C66.7901 52.12 68.581 50.3291 68.581 48.12H64.581ZM64.581 41.784H68.581C68.581 39.5749 66.7901 37.784 64.581 37.784V41.784ZM61.149 41.784V37.784C58.9398 37.784 57.149 39.5749 57.149 41.784H61.149ZM61.149 48.12H57.149C57.149 50.3291 58.9398 52.12 61.149 52.12V48.12ZM73.821 33.144V29.144C71.6118 29.144 69.821 30.9349 69.821 33.144H73.821ZM76.485 33.144H80.485C80.485 30.9349 78.6941 29.144 76.485 29.144V33.144ZM76.485 54.528V58.528C78.6941 58.528 80.485 56.7371 80.485 54.528H76.485ZM73.821 54.528H69.821C69.821 56.7371 71.6118 58.528 73.821 58.528V54.528ZM67.245 42.984H63.245V50.52H67.245H71.245V42.984H67.245ZM67.245 50.52V46.52H58.485V50.52V54.52H67.245V50.52ZM58.485 50.52H62.485V34.152H58.485H54.485V50.52H58.485ZM58.485 34.152V38.152H61.149V34.152V30.152H58.485V34.152ZM61.149 34.152H57.149V39.384H61.149H65.149V34.152H61.149ZM61.149 39.384V43.384H64.581V39.384V35.384H61.149V39.384ZM64.581 39.384H68.581V34.152H64.581H60.581V39.384H64.581ZM64.581 34.152V38.152H67.245V34.152V30.152H64.581V34.152ZM67.245 34.152H63.245V40.584H67.245H71.245V34.152H67.245ZM67.245 40.584V44.584H69.501V40.584V36.584H67.245V40.584ZM69.501 40.584H73.501V33.144H69.501H65.501V40.584H69.501ZM69.501 33.144V37.144H72.165V33.144V29.144H69.501V33.144ZM72.165 33.144H68.165V54.528H72.165H76.165V33.144H72.165ZM72.165 54.528V50.528H69.501V54.528V58.528H72.165V54.528ZM69.501 54.528H73.501V42.984H69.501H65.501V54.528H69.501ZM69.501 42.984V38.984H67.245V42.984V46.984H69.501V42.984ZM64.581 48.12H68.581V41.784H64.581H60.581V48.12H64.581ZM64.581 41.784V37.784H61.149V41.784V45.784H64.581V41.784ZM61.149 41.784H57.149V48.12H61.149H65.149V41.784H61.149ZM61.149 48.12V52.12H64.581V48.12V44.12H61.149V48.12ZM73.821 33.144V37.144H76.485V33.144V29.144H73.821V33.144ZM76.485 33.144H72.485V54.528H76.485H80.485V33.144H76.485ZM76.485 54.528V50.528H73.821V54.528V58.528H76.485V54.528ZM73.821 54.528H77.821V33.144H73.821H69.821V54.528H73.821ZM91.179 42.744V38.744C88.9978 38.744 87.2188 40.4914 87.1796 42.6722L91.179 42.744ZM89.643 48.816L92.8927 51.1482C92.897 51.1422 92.9013 51.1362 92.9056 51.1302L89.643 48.816ZM81.027 48.696L77.7158 50.9402L81.027 48.696ZM81.027 35.928L84.3381 38.1722V38.1722L81.027 35.928ZM89.331 35.424L86.3125 38.0487L86.3126 38.0487L89.331 35.424ZM91.083 40.344L87.1011 40.7246C87.2973 42.777 89.0213 44.344 91.083 44.344V40.344ZM94.227 40.344V44.344C96.4361 44.344 98.227 42.5531 98.227 40.344H94.227ZM94.227 33.144V29.144C92.0178 29.144 90.227 30.9349 90.227 33.144H94.227ZM97.155 33.144H101.155C101.155 30.9349 99.3641 29.144 97.155 29.144V33.144ZM97.155 54.528V58.528C99.3641 58.528 101.155 56.7371 101.155 54.528H97.155ZM94.227 54.528H90.227C90.227 56.7371 92.0178 58.528 94.227 58.528V54.528ZM94.227 42.744H98.227C98.227 40.5349 96.4361 38.744 94.227 38.744V42.744ZM87.531 46.896L91.1197 48.6627C91.1344 48.6327 91.1488 48.6026 91.1628 48.5722L87.531 46.896ZM87.531 37.704L91.1528 36.0063C91.1456 35.9909 91.1383 35.9756 91.1309 35.9603L87.531 37.704ZM83.235 37.704L86.8127 39.4929C86.8278 39.4627 86.8425 39.4323 86.8568 39.4017L83.235 37.704ZM83.235 46.896L86.8668 45.2198C86.8493 45.1819 86.8313 45.1444 86.8127 45.1071L83.235 46.896ZM91.179 42.744L87.1796 42.6722C87.1383 44.9721 86.6914 46.0634 86.3804 46.5018L89.643 48.816L92.9056 51.1302C94.5466 48.8166 95.1236 45.8599 95.1783 42.8158L91.179 42.744ZM89.643 48.816L86.3932 46.4838C86.2659 46.6612 86.1308 46.856 85.371 46.856V50.856V54.856C88.3551 54.856 91.068 53.6908 92.8927 51.1482L89.643 48.816ZM85.371 50.856V46.856C84.9141 46.856 84.7021 46.7722 84.6259 46.7343C84.5651 46.7041 84.4699 46.6462 84.3381 46.4518L81.027 48.696L77.7158 50.9402C79.5225 53.6057 82.286 54.856 85.371 54.856V50.856ZM81.027 48.696L84.3381 46.4518C84.0107 45.9688 83.563 44.7791 83.563 42.312H79.563H75.563C75.563 45.4769 76.0912 48.5432 77.7158 50.9402L81.027 48.696ZM79.563 42.312H83.563C83.563 39.8449 84.0107 38.6552 84.3381 38.1722L81.027 35.928L77.7158 33.6838C76.0912 36.0808 75.563 39.1471 75.563 42.312H79.563ZM81.027 35.928L84.3381 38.1722C84.4699 37.9778 84.5651 37.9199 84.6259 37.8897C84.7021 37.8518 84.9141 37.768 85.371 37.768V33.768V29.768C82.286 29.768 79.5225 31.0183 77.7158 33.6838L81.027 35.928ZM85.371 33.768V37.768C86.0838 37.768 86.229 37.9526 86.3125 38.0487L89.331 35.424L92.3494 32.7993C90.513 30.6874 88.0181 29.768 85.371 29.768V33.768ZM89.331 35.424L86.3126 38.0487C86.5154 38.282 86.9354 38.9905 87.1011 40.7246L91.083 40.344L95.0648 39.9634C94.8146 37.3455 94.0665 34.774 92.3494 32.7993L89.331 35.424ZM91.083 40.344V44.344H94.227V40.344V36.344H91.083V40.344ZM94.227 40.344H98.227V33.144H94.227H90.227V40.344H94.227ZM94.227 33.144V37.144H97.155V33.144V29.144H94.227V33.144ZM97.155 33.144H93.155V54.528H97.155H101.155V33.144H97.155ZM97.155 54.528V50.528H94.227V54.528V58.528H97.155V54.528ZM94.227 54.528H98.227V42.744H94.227H90.227V54.528H94.227ZM94.227 42.744V38.744H91.179V42.744V46.744H94.227V42.744ZM85.371 48.456V52.456C88.2311 52.456 90.1359 50.661 91.1197 48.6627L87.531 46.896L83.9423 45.1293C83.8898 45.2359 83.9581 45.045 84.265 44.8233C84.6186 44.5679 85.0343 44.456 85.371 44.456V48.456ZM87.531 46.896L91.1628 48.5722C92.0045 46.7486 92.251 44.5318 92.251 42.312H88.251H84.251C84.251 44.1242 84.0174 44.9634 83.8991 45.2198L87.531 46.896ZM88.251 42.312H92.251C92.251 40.0781 92.0092 37.8331 91.1528 36.0063L87.531 37.704L83.9091 39.4017C84.0128 39.6229 84.251 40.4499 84.251 42.312H88.251ZM87.531 37.704L91.1309 35.9603C90.672 35.0129 89.9804 34.0341 88.9371 33.2922C87.8525 32.521 86.6136 32.168 85.371 32.168V36.168V40.168C85.0723 40.168 84.6654 40.071 84.3009 39.8118C83.9775 39.5819 83.8939 39.3711 83.931 39.4477L87.531 37.704ZM85.371 36.168V32.168C84.1286 32.168 82.883 32.5211 81.7937 33.3045C80.7458 34.058 80.061 35.0508 79.6131 36.0063L83.235 37.704L86.8568 39.4017C86.889 39.3332 86.8001 39.558 86.4643 39.7995C86.0869 40.0709 85.6693 40.168 85.371 40.168V36.168ZM83.235 37.704L79.6573 35.9151C78.7346 37.7605 78.491 40.0636 78.491 42.312H82.491H86.491C86.491 41.4192 86.545 40.7381 86.6258 40.2376C86.6657 39.9909 86.7088 39.8082 86.7467 39.6793C86.7654 39.6159 86.7817 39.5694 86.7938 39.5379C86.806 39.5062 86.813 39.4922 86.8127 39.4929L83.235 37.704ZM82.491 42.312H78.491C78.491 44.5503 78.736 46.8423 79.6573 48.6849L83.235 46.896L86.8127 45.1071C86.8127 45.1072 86.8122 45.1062 86.8113 45.1043C86.8104 45.1023 86.8091 45.0994 86.8074 45.0955C86.8039 45.0877 86.799 45.0761 86.793 45.0603C86.7807 45.0285 86.7644 44.982 86.7458 44.9189C86.7079 44.7907 86.6649 44.6094 86.6253 44.3652C86.5449 43.8695 86.491 43.1954 86.491 42.312H82.491ZM83.235 46.896L79.6031 48.5722C80.0453 49.5303 80.724 50.5324 81.7698 51.2962C82.8603 52.0927 84.1144 52.456 85.371 52.456V48.456V44.456C85.6835 44.456 86.1096 44.5593 86.4881 44.8358C86.822 45.0796 86.9046 45.3017 86.8668 45.2198L83.235 46.896ZM100.569 43.896L98.0025 40.8279C97.1685 41.5255 96.6544 42.5327 96.5787 43.6174C96.503 44.7022 96.8721 45.771 97.6011 46.5778L100.569 43.896ZM108.201 37.512L110.767 40.5801C111.676 39.8201 112.201 38.6965 112.201 37.512H108.201ZM108.201 33.744V29.744C105.992 29.744 104.201 31.5349 104.201 33.744H108.201ZM111.129 33.744H115.129C115.129 31.5349 113.338 29.744 111.129 29.744V33.744ZM111.129 37.512H107.129C107.129 38.6965 107.654 39.8201 108.563 40.5801L111.129 37.512ZM118.761 43.896L121.729 46.5778C122.458 45.771 122.827 44.7022 122.751 43.6174C122.676 42.5327 122.161 41.5255 121.327 40.8279L118.761 43.896ZM116.961 45.888L114.384 48.9476C116.033 50.3356 118.484 50.1685 119.929 48.5698L116.961 45.888ZM109.665 39.744L112.242 36.6844C110.753 35.4305 108.577 35.4305 107.088 36.6844L109.665 39.744ZM102.369 45.888L99.4011 48.5698C100.846 50.1685 103.297 50.3356 104.946 48.9476L102.369 45.888ZM100.209 49.368V45.368C97.9998 45.368 96.209 47.1589 96.209 49.368H100.209ZM119.121 49.368H123.121C123.121 47.1589 121.33 45.368 119.121 45.368V49.368ZM119.121 51.768V55.768C121.33 55.768 123.121 53.9771 123.121 51.768H119.121ZM100.209 51.768H96.209C96.209 53.9771 97.9998 55.768 100.209 55.768V51.768ZM100.569 43.896L103.135 46.9641L110.767 40.5801L108.201 37.512L105.635 34.4439L98.0025 40.8279L100.569 43.896ZM108.201 37.512H112.201V33.744H108.201H104.201V37.512H108.201ZM108.201 33.744V37.744H111.129V33.744V29.744H108.201V33.744ZM111.129 33.744H107.129V37.512H111.129H115.129V33.744H111.129ZM111.129 37.512L108.563 40.5801L116.195 46.9641L118.761 43.896L121.327 40.8279L113.695 34.4439L111.129 37.512ZM118.761 43.896L115.793 41.2142L113.993 43.2062L116.961 45.888L119.929 48.5698L121.729 46.5778L118.761 43.896ZM116.961 45.888L119.538 42.8284L112.242 36.6844L109.665 39.744L107.088 42.8036L114.384 48.9476L116.961 45.888ZM109.665 39.744L107.088 36.6844L99.7924 42.8284L102.369 45.888L104.946 48.9476L112.242 42.8036L109.665 39.744ZM102.369 45.888L105.337 43.2062L103.537 41.2142L100.569 43.896L97.6011 46.5778L99.4011 48.5698L102.369 45.888ZM100.209 49.368V53.368H119.121V49.368V45.368H100.209V49.368ZM119.121 49.368H115.121V51.768H119.121H123.121V49.368H119.121ZM119.121 51.768V47.768H100.209V51.768V55.768H119.121V51.768ZM100.209 51.768H104.209V49.368H100.209H96.209V51.768H100.209ZM129.437 40.296L127.6 43.8494C127.606 43.8522 127.611 43.855 127.617 43.8577L129.437 40.296ZM129.437 34.008L127.617 30.4463C127.611 30.449 127.606 30.4518 127.6 30.4546L129.437 34.008ZM141.797 34.008L139.96 37.5614C139.966 37.5642 139.971 37.567 139.977 37.5697L141.797 34.008ZM141.797 40.296L139.977 36.7343C139.971 36.737 139.966 36.7398 139.96 36.7426L141.797 40.296ZM129.485 53.592L131.243 49.9988C131.237 49.9961 131.232 49.9935 131.226 49.9909L129.485 53.592ZM129.485 47.688L131.226 51.2891C131.232 51.2865 131.237 51.2839 131.243 51.2812L129.485 47.688ZM141.749 47.688L139.976 51.2736C139.992 51.2813 140.007 51.289 140.023 51.2965L141.749 47.688ZM141.749 53.592L140.023 49.9835C140.007 49.991 139.992 49.9987 139.976 50.0064L141.749 53.592ZM139.613 51.912L140.878 55.7067C140.884 55.7046 140.891 55.7024 140.897 55.7003L139.613 51.912ZM139.613 49.368L140.897 45.5797C140.891 45.5776 140.884 45.5754 140.878 45.5733L139.613 49.368ZM131.669 49.368L132.877 53.1814C132.903 53.1731 132.928 53.1647 132.954 53.1559L131.669 49.368ZM131.669 51.912L132.954 48.1241C132.928 48.1153 132.903 48.1069 132.877 48.0986L131.669 51.912ZM145.085 42.792H149.085C149.085 40.5829 147.294 38.792 145.085 38.792V42.792ZM145.085 45.096V49.096C147.294 49.096 149.085 47.3051 149.085 45.096H145.085ZM126.173 45.096H122.173C122.173 47.3051 123.964 49.096 126.173 49.096V45.096ZM126.173 42.792V38.792C123.964 38.792 122.173 40.5829 122.173 42.792H126.173ZM139.637 38.568L138.275 34.8069C138.241 34.8192 138.208 34.8319 138.174 34.845L139.637 38.568ZM139.637 35.712L141.056 31.972C141.037 31.9648 141.018 31.9578 140.999 31.9509L139.637 35.712ZM131.645 35.712L130.304 31.9436C130.266 31.9569 130.229 31.9708 130.192 31.9852L131.645 35.712ZM131.645 38.568L133.108 34.845C133.067 34.8292 133.027 34.8141 132.986 34.7996L131.645 38.568ZM135.629 41.4V37.4C133.205 37.4 131.878 37.0515 131.257 36.7343L129.437 40.296L127.617 43.8577C129.876 45.0125 132.677 45.4 135.629 45.4V41.4ZM129.437 40.296L131.274 36.7426C131 36.601 131.039 36.5559 131.144 36.7101C131.196 36.7867 131.241 36.8804 131.27 36.9793C131.299 37.0758 131.301 37.1398 131.301 37.152H127.301H123.301C123.301 38.5718 123.686 39.9694 124.526 41.2059C125.343 42.4081 126.45 43.255 127.6 43.8494L129.437 40.296ZM127.301 37.152H131.301C131.301 37.1642 131.299 37.2282 131.27 37.3247C131.241 37.4236 131.196 37.5173 131.144 37.5939C131.039 37.7481 131 37.703 131.274 37.5614L129.437 34.008L127.6 30.4546C126.45 31.049 125.343 31.8959 124.526 33.0981C123.686 34.3346 123.301 35.7322 123.301 37.152H127.301ZM129.437 34.008L131.257 37.5697C131.878 37.2525 133.205 36.904 135.629 36.904V32.904V28.904C132.677 28.904 129.876 29.2915 127.617 30.4463L129.437 34.008ZM135.629 32.904V36.904C138.057 36.904 139.366 37.254 139.96 37.5614L141.797 34.008L143.634 30.4546C141.38 29.29 138.577 28.904 135.629 28.904V32.904ZM141.797 34.008L139.977 37.5697C140.262 37.7154 140.226 37.7645 140.12 37.611C140.067 37.5342 140.02 37.4388 139.99 37.3364C139.96 37.2363 139.957 37.1683 139.957 37.152H143.957H147.957C147.957 35.7225 147.564 34.3188 146.714 33.081C145.888 31.8795 144.772 31.0366 143.617 30.4463L141.797 34.008ZM143.957 37.152H139.957C139.957 37.1357 139.96 37.0677 139.99 36.9676C140.02 36.8652 140.067 36.7698 140.12 36.693C140.226 36.5395 140.262 36.5886 139.977 36.7343L141.797 40.296L143.617 43.8577C144.772 43.2674 145.888 42.4245 146.714 41.223C147.564 39.9852 147.957 38.5815 147.957 37.152H143.957ZM141.797 40.296L139.96 36.7426C139.366 37.05 138.057 37.4 135.629 37.4V41.4V45.4C138.577 45.4 141.38 45.014 143.634 43.8494L141.797 40.296ZM135.629 54.672V50.672C133.288 50.672 131.935 50.3375 131.243 49.9988L129.485 53.592L127.727 57.1852C129.979 58.2865 132.722 58.672 135.629 58.672V54.672ZM129.485 53.592L131.226 49.9909C130.901 49.8337 130.938 49.778 131.063 49.947C131.129 50.0361 131.196 50.1578 131.243 50.3031C131.29 50.4471 131.301 50.5668 131.301 50.64H127.301H123.301C123.301 53.8914 125.368 56.0443 127.744 57.1931L129.485 53.592ZM127.301 50.64H131.301C131.301 50.7132 131.29 50.8329 131.243 50.9769C131.196 51.1222 131.129 51.2439 131.063 51.333C130.938 51.502 130.901 51.4463 131.226 51.2891L129.485 47.688L127.744 44.0869C125.368 45.2357 123.301 47.3886 123.301 50.64H127.301ZM129.485 47.688L131.243 51.2812C131.935 50.9425 133.288 50.608 135.629 50.608V46.608V42.608C132.722 42.608 129.979 42.9935 127.727 44.0948L129.485 47.688ZM135.629 46.608V50.608C137.974 50.608 139.309 50.9438 139.976 51.2736L141.749 47.688L143.522 44.1024C141.277 42.9922 138.532 42.608 135.629 42.608V46.608ZM141.749 47.688L140.023 51.2965C140.36 51.4575 140.327 51.5171 140.202 51.3498C140.135 51.2609 140.066 51.1378 140.018 50.9891C139.969 50.8416 139.957 50.7177 139.957 50.64H143.957H147.957C147.957 47.3646 145.854 45.2174 143.475 44.0795L141.749 47.688ZM143.957 50.64H139.957C139.957 50.5623 139.969 50.4384 140.018 50.2909C140.066 50.1422 140.135 50.0191 140.202 49.9302C140.327 49.7629 140.36 49.8225 140.023 49.9835L141.749 53.592L143.475 57.2005C145.854 56.0626 147.957 53.9154 147.957 50.64H143.957ZM141.749 53.592L139.976 50.0064C139.309 50.3362 137.974 50.672 135.629 50.672V54.672V58.672C138.532 58.672 141.277 58.2878 143.522 57.1776L141.749 53.592ZM135.629 52.368V56.368C137.513 56.368 139.352 56.2152 140.878 55.7067L139.613 51.912L138.348 48.1173C138.05 48.2168 137.233 48.368 135.629 48.368V52.368ZM139.613 51.912L140.897 55.7003C141.621 55.4548 142.545 55.0512 143.348 54.3297C144.243 53.5256 145.029 52.2667 145.029 50.64H141.029H137.029C137.029 50.1516 137.144 49.6694 137.357 49.2397C137.562 48.8262 137.815 48.5464 138.002 48.3783C138.333 48.0808 138.549 48.0492 138.329 48.1237L139.613 51.912ZM141.029 50.64H145.029C145.029 49.0133 144.243 47.7544 143.348 46.9503C142.545 46.2288 141.621 45.8252 140.897 45.5797L139.613 49.368L138.329 53.1563C138.549 53.2308 138.333 53.1992 138.002 52.9017C137.815 52.7336 137.562 52.4538 137.357 52.0403C137.144 51.6106 137.029 51.1284 137.029 50.64H141.029ZM139.613 49.368L140.878 45.5733C139.352 45.0648 137.513 44.912 135.629 44.912V48.912V52.912C137.233 52.912 138.05 53.0632 138.348 53.1627L139.613 49.368ZM135.629 48.912V44.912C133.751 44.912 131.907 45.0633 130.384 45.5801L131.669 49.368L132.954 53.1559C133.223 53.0647 134.019 52.912 135.629 52.912V48.912ZM131.669 49.368L130.461 45.5546C129.721 45.7891 128.77 46.184 127.941 46.9161C127.009 47.7395 126.229 49.0152 126.229 50.64H130.229H134.229C134.229 51.116 134.119 51.5962 133.903 52.0315C133.694 52.4517 133.434 52.7376 133.237 52.9119C132.888 53.22 132.657 53.2509 132.877 53.1814L131.669 49.368ZM130.229 50.64H126.229C126.229 52.2648 127.009 53.5405 127.941 54.3639C128.77 55.096 129.721 55.4909 130.461 55.7254L131.669 51.912L132.877 48.0986C132.657 48.0291 132.888 48.06 133.237 48.3681C133.434 48.5424 133.694 48.8283 133.903 49.2485C134.119 49.6838 134.229 50.164 134.229 50.64H130.229ZM131.669 51.912L130.384 55.6999C131.907 56.2167 133.751 56.368 135.629 56.368V52.368V48.368C134.019 48.368 133.223 48.2153 132.954 48.1241L131.669 51.912ZM145.085 42.792H141.085V45.096H145.085H149.085V42.792H145.085ZM145.085 45.096V41.096H126.173V45.096V49.096H145.085V45.096ZM126.173 45.096H130.173V42.792H126.173H122.173V45.096H126.173ZM126.173 42.792V46.792H145.085V42.792V38.792H126.173V42.792ZM135.629 39.096V43.096C137.556 43.096 139.496 42.921 141.1 42.291L139.637 38.568L138.174 34.845C137.986 34.919 137.255 35.096 135.629 35.096V39.096ZM139.637 38.568L140.999 42.3291C142.384 41.8274 145.029 40.3887 145.029 37.152H141.029H137.029C137.029 36.7802 137.103 36.3847 137.267 36.0035C137.428 35.6288 137.64 35.3493 137.829 35.1578C138.17 34.8102 138.43 34.751 138.275 34.8069L139.637 38.568ZM141.029 37.152H145.029C145.029 33.9485 142.428 32.4926 141.056 31.972L139.637 35.712L138.218 39.452C138.377 39.5122 138.132 39.4543 137.805 39.1161C137.625 38.9298 137.419 38.6565 137.263 38.2891C137.103 37.915 137.029 37.5238 137.029 37.152H141.029ZM139.637 35.712L140.999 31.9509C139.421 31.3797 137.538 31.208 135.629 31.208V35.208V39.208C137.208 39.208 137.997 39.3723 138.275 39.4731L139.637 35.712ZM135.629 35.208V31.208C133.736 31.208 131.878 31.3831 130.304 31.9436L131.645 35.712L132.986 39.4804C133.3 39.3689 134.098 39.208 135.629 39.208V35.208ZM131.645 35.712L130.192 31.9852C128.913 32.4838 126.229 33.9196 126.229 37.152H130.229H134.229C134.229 37.5528 134.146 37.9613 133.978 38.3409C133.815 38.7111 133.607 38.9782 133.435 39.1526C133.127 39.4663 132.911 39.5118 133.098 39.4388L131.645 35.712ZM130.229 37.152H126.229C126.229 40.4277 128.939 41.8507 130.304 42.3364L131.645 38.568L132.986 34.7996C132.818 34.7397 133.071 34.7928 133.411 35.1336C133.6 35.3221 133.817 35.6015 133.983 35.9806C134.152 36.367 134.229 36.7706 134.229 37.152H130.229ZM131.645 38.568L130.182 42.291C131.783 42.9199 133.713 43.096 135.629 43.096V39.096V35.096C134.025 35.096 133.299 34.9201 133.108 34.845L131.645 38.568ZM159.611 39.192V35.192C158.033 35.192 156.602 36.1201 155.958 37.5614L159.611 39.192ZM157.475 41.328L159.264 44.9057C159.279 44.8983 159.293 44.8908 159.308 44.8832L157.475 41.328ZM150.515 41.496L148.932 45.1693C148.939 45.1726 148.947 45.1758 148.954 45.179L150.515 41.496ZM148.379 39.864L145.134 42.2032L148.379 39.864ZM148.379 35.208L145.134 32.8688V32.8688L148.379 35.208ZM150.515 33.576L148.954 29.893C148.947 29.8962 148.939 29.8994 148.932 29.9027L150.515 33.576ZM157.979 34.056L155.794 37.4064C155.813 37.4186 155.831 37.4307 155.85 37.4425L157.979 34.056ZM159.923 36.888L155.967 37.4761C156.258 39.4366 157.941 40.888 159.923 40.888V36.888ZM162.611 36.888V40.888C164.82 40.888 166.611 39.0971 166.611 36.888H162.611ZM162.611 33.144V29.144C160.402 29.144 158.611 30.9349 158.611 33.144H162.611ZM165.539 33.144H169.539C169.539 30.9349 167.748 29.144 165.539 29.144V33.144ZM165.539 49.056V53.056C167.748 53.056 169.539 51.2651 169.539 49.056H165.539ZM162.611 49.056H158.611C158.611 51.2651 160.402 53.056 162.611 53.056V49.056ZM162.611 39.192H166.611C166.611 36.9829 164.82 35.192 162.611 35.192V39.192ZM152.363 48.36V52.36C154.572 52.36 156.363 50.5691 156.363 48.36H152.363ZM152.363 45.456H156.363C156.363 43.2469 154.572 41.456 152.363 41.456V45.456ZM146.843 45.456H142.843C142.843 47.6651 144.634 49.456 146.843 49.456V45.456ZM146.843 43.2V39.2C144.634 39.2 142.843 40.9909 142.843 43.2H146.843ZM161.363 43.2H165.363C165.363 40.9909 163.572 39.2 161.363 39.2V43.2ZM161.363 45.456V49.456C163.572 49.456 165.363 47.6651 165.363 45.456H161.363ZM155.291 45.456V41.456C153.082 41.456 151.291 43.2469 151.291 45.456H155.291ZM155.291 48.864V52.864C157.5 52.864 159.291 51.0731 159.291 48.864H155.291ZM152.507 48.864V44.864C150.298 44.864 148.507 46.6549 148.507 48.864H152.507ZM152.507 51.936H148.507C148.507 54.1451 150.298 55.936 152.507 55.936V51.936ZM165.755 51.936H169.755C169.755 49.7269 167.964 47.936 165.755 47.936V51.936ZM165.755 54.288V58.288C167.964 58.288 169.755 56.4971 169.755 54.288H165.755ZM149.579 54.288H145.579C145.579 56.4971 147.37 58.288 149.579 58.288V54.288ZM149.579 48.36V44.36C147.37 44.36 145.579 46.1509 145.579 48.36H149.579ZM156.155 39.168L158.394 42.4824C158.415 42.4687 158.435 42.4548 158.455 42.4408L156.155 39.168ZM156.155 35.928L153.855 39.2008C153.875 39.2148 153.895 39.2287 153.916 39.2424L156.155 35.928ZM151.451 35.928L153.69 39.2424C153.711 39.2287 153.731 39.2148 153.751 39.2008L151.451 35.928ZM151.451 39.168L149.151 42.4408C149.171 42.4548 149.191 42.4687 149.212 42.4824L151.451 39.168ZM159.611 39.192L155.958 37.5614C155.958 37.5616 155.959 37.5605 155.96 37.5587C155.961 37.5569 155.962 37.5553 155.963 37.5544C155.965 37.5516 155.962 37.5566 155.949 37.5696C155.924 37.5947 155.839 37.6714 155.642 37.7728L157.475 41.328L159.308 44.8832C160.993 44.0146 162.431 42.6873 163.264 40.8226L159.611 39.192ZM157.475 41.328L155.686 37.7503C155.336 37.9252 154.754 38.096 153.803 38.096V42.096V46.096C155.7 46.096 157.566 45.7548 159.264 44.9057L157.475 41.328ZM153.803 42.096V38.096C152.978 38.096 152.431 37.9636 152.076 37.813L150.515 41.496L148.954 45.179C150.487 45.8284 152.132 46.096 153.803 46.096V42.096ZM150.515 41.496L152.098 37.8227C151.898 37.7362 151.778 37.6592 151.714 37.6096C151.652 37.5623 151.63 37.533 151.624 37.5248L148.379 39.864L145.134 42.2032C146.128 43.5815 147.467 44.5382 148.932 45.1693L150.515 41.496ZM148.379 39.864L151.624 37.5248C151.616 37.5144 151.616 37.5127 151.619 37.5193C151.621 37.5224 151.623 37.5266 151.625 37.5318C151.627 37.5371 151.629 37.5427 151.631 37.5483C151.633 37.554 151.634 37.5589 151.635 37.5629C151.636 37.5668 151.637 37.5691 151.637 37.5694C151.637 37.5704 151.635 37.5601 151.635 37.536H147.635H143.635C143.635 39.2229 144.138 40.8205 145.134 42.2032L148.379 39.864ZM147.635 37.536H151.635C151.635 37.5119 151.637 37.5016 151.637 37.5026C151.637 37.5029 151.636 37.5052 151.635 37.5091C151.634 37.5131 151.633 37.518 151.631 37.5237C151.629 37.5293 151.627 37.5349 151.625 37.5401C151.623 37.5454 151.621 37.5496 151.619 37.5527C151.616 37.5593 151.616 37.5576 151.624 37.5472L148.379 35.208L145.134 32.8688C144.138 34.2515 143.635 35.8491 143.635 37.536H147.635ZM148.379 35.208L151.624 37.5472C151.63 37.539 151.652 37.5097 151.714 37.4624C151.778 37.4128 151.898 37.3358 152.098 37.2493L150.515 33.576L148.932 29.9027C147.467 30.5338 146.128 31.4905 145.134 32.8688L148.379 35.208ZM150.515 33.576L152.076 37.259C152.431 37.1084 152.978 36.976 153.803 36.976V32.976V28.976C152.132 28.976 150.487 29.2436 148.954 29.893L150.515 33.576ZM153.803 32.976V36.976C154.919 36.976 155.497 37.2128 155.794 37.4064L157.979 34.056L160.164 30.7056C158.253 29.4592 156.047 28.976 153.803 28.976V32.976ZM157.979 34.056L155.85 37.4425C155.937 37.4967 155.983 37.5363 156.003 37.555C156.022 37.5727 156.02 37.5736 156.007 37.5557C155.995 37.5372 155.982 37.5133 155.972 37.4894C155.963 37.466 155.964 37.4587 155.967 37.4761L159.923 36.888L163.88 36.2999C163.513 33.831 162.099 31.9213 160.108 30.6695L157.979 34.056ZM159.923 36.888V40.888H162.611V36.888V32.888H159.923V36.888ZM162.611 36.888H166.611V33.144H162.611H158.611V36.888H162.611ZM162.611 33.144V37.144H165.539V33.144V29.144H162.611V33.144ZM165.539 33.144H161.539V49.056H165.539H169.539V33.144H165.539ZM165.539 49.056V45.056H162.611V49.056V53.056H165.539V49.056ZM162.611 49.056H166.611V39.192H162.611H158.611V49.056H162.611ZM162.611 39.192V35.192H159.611V39.192V43.192H162.611V39.192ZM152.363 48.36H156.363V45.456H152.363H148.363V48.36H152.363ZM152.363 45.456V41.456H146.843V45.456V49.456H152.363V45.456ZM146.843 45.456H150.843V43.2H146.843H142.843V45.456H146.843ZM146.843 43.2V47.2H161.363V43.2V39.2H146.843V43.2ZM161.363 43.2H157.363V45.456H161.363H165.363V43.2H161.363ZM161.363 45.456V41.456H155.291V45.456V49.456H161.363V45.456ZM155.291 45.456H151.291V48.864H155.291H159.291V45.456H155.291ZM155.291 48.864V44.864H152.507V48.864V52.864H155.291V48.864ZM152.507 48.864H148.507V51.936H152.507H156.507V48.864H152.507ZM152.507 51.936V55.936H165.755V51.936V47.936H152.507V51.936ZM165.755 51.936H161.755V54.288H165.755H169.755V51.936H165.755ZM165.755 54.288V50.288H149.579V54.288V58.288H165.755V54.288ZM149.579 54.288H153.579V48.36H149.579H145.579V54.288H149.579ZM149.579 48.36V52.36H152.363V48.36V44.36H149.579V48.36ZM153.803 39.768V43.768C155.293 43.768 156.939 43.4655 158.394 42.4824L156.155 39.168L153.916 35.8536C154.048 35.7642 154.139 35.741 154.134 35.7421C154.124 35.7448 154.024 35.768 153.803 35.768V39.768ZM156.155 39.168L158.455 42.4408C160.017 41.3433 161.043 39.6239 161.043 37.536H157.043H153.043C153.043 37.2624 153.11 36.9 153.307 36.5362C153.5 36.1831 153.732 35.9819 153.855 35.8952L156.155 39.168ZM157.043 37.536H161.043C161.043 35.4386 160.005 33.7016 158.394 32.6136L156.155 35.928L153.916 39.2424C153.775 39.1474 153.524 38.9347 153.319 38.5637C153.109 38.1832 153.043 37.8088 153.043 37.536H157.043ZM156.155 35.928L158.455 32.6552C156.991 31.6263 155.32 31.304 153.803 31.304V35.304V39.304C153.906 39.304 153.98 39.3095 154.03 39.3154C154.079 39.3212 154.1 39.3269 154.097 39.3262C154.094 39.3255 154.067 39.318 154.023 39.2979C153.978 39.2775 153.92 39.2462 153.855 39.2008L156.155 35.928ZM153.803 35.304V31.304C152.286 31.304 150.616 31.6263 149.151 32.6552L151.451 35.928L153.751 39.2008C153.686 39.2462 153.628 39.2775 153.583 39.2979C153.539 39.318 153.512 39.3255 153.509 39.3262C153.506 39.3269 153.527 39.3212 153.577 39.3154C153.626 39.3095 153.7 39.304 153.803 39.304V35.304ZM151.451 35.928L149.212 32.6136C147.601 33.7016 146.563 35.4386 146.563 37.536H150.563H154.563C154.563 37.8088 154.497 38.1832 154.287 38.5637C154.082 38.9347 153.831 39.1474 153.69 39.2424L151.451 35.928ZM150.563 37.536H146.563C146.563 39.6239 147.589 41.3433 149.151 42.4408L151.451 39.168L153.751 35.8952C153.874 35.9819 154.106 36.1831 154.299 36.5362C154.497 36.9 154.563 37.2624 154.563 37.536H150.563ZM151.451 39.168L149.212 42.4824C150.667 43.4655 152.313 43.768 153.803 43.768V39.768V35.768C153.582 35.768 153.482 35.7448 153.472 35.7421C153.467 35.741 153.558 35.7642 153.69 35.8536L151.451 39.168ZM180.305 33.624H184.305C184.305 31.4149 182.514 29.624 180.305 29.624V33.624ZM180.305 35.976V39.976C182.514 39.976 184.305 38.1851 184.305 35.976H180.305ZM172.193 35.976V31.976C169.984 31.976 168.193 33.7669 168.193 35.976H172.193ZM172.193 41.808H168.193C168.193 44.0171 169.984 45.808 172.193 45.808V41.808ZM180.785 41.808H184.785C184.785 39.5989 182.994 37.808 180.785 37.808V41.808ZM180.785 44.16V48.16C182.994 48.16 184.785 46.3691 184.785 44.16H180.785ZM169.265 44.16H165.265C165.265 46.3691 167.056 48.16 169.265 48.16V44.16ZM169.265 33.624V29.624C167.056 29.624 165.265 31.4149 165.265 33.624H169.265ZM170.969 46.632V42.632C168.76 42.632 166.969 44.4229 166.969 46.632H170.969ZM173.897 46.632H177.897C177.897 44.4229 176.106 42.632 173.897 42.632V46.632ZM173.897 51.936H169.897C169.897 54.1451 171.688 55.936 173.897 55.936V51.936ZM186.425 51.936H190.425C190.425 49.7269 188.634 47.936 186.425 47.936V51.936ZM186.425 54.288V58.288C188.634 58.288 190.425 56.4971 190.425 54.288H186.425ZM170.969 54.288H166.969C166.969 56.4971 168.76 58.288 170.969 58.288V54.288ZM183.161 33.144V29.144C180.952 29.144 179.161 30.9349 179.161 33.144H183.161ZM186.089 33.144H190.089C190.089 30.9349 188.298 29.144 186.089 29.144V33.144ZM186.089 37.704H182.089C182.089 39.9131 183.88 41.704 186.089 41.704V37.704ZM188.633 37.704H192.633C192.633 35.4949 190.842 33.704 188.633 33.704V37.704ZM188.633 40.104V44.104C190.842 44.104 192.633 42.3131 192.633 40.104H188.633ZM186.089 40.104V36.104C183.88 36.104 182.089 37.8949 182.089 40.104H186.089ZM186.089 48.36V52.36C188.298 52.36 190.089 50.5691 190.089 48.36H186.089ZM183.161 48.36H179.161C179.161 50.5691 180.952 52.36 183.161 52.36V48.36ZM180.305 33.624H176.305V35.976H180.305H184.305V33.624H180.305ZM180.305 35.976V31.976H172.193V35.976V39.976H180.305V35.976ZM172.193 35.976H168.193V41.808H172.193H176.193V35.976H172.193ZM172.193 41.808V45.808H180.785V41.808V37.808H172.193V41.808ZM180.785 41.808H176.785V44.16H180.785H184.785V41.808H180.785ZM180.785 44.16V40.16H169.265V44.16V48.16H180.785V44.16ZM169.265 44.16H173.265V33.624H169.265H165.265V44.16H169.265ZM169.265 33.624V37.624H180.305V33.624V29.624H169.265V33.624ZM170.969 46.632V50.632H173.897V46.632V42.632H170.969V46.632ZM173.897 46.632H169.897V51.936H173.897H177.897V46.632H173.897ZM173.897 51.936V55.936H186.425V51.936V47.936H173.897V51.936ZM186.425 51.936H182.425V54.288H186.425H190.425V51.936H186.425ZM186.425 54.288V50.288H170.969V54.288V58.288H186.425V54.288ZM170.969 54.288H174.969V46.632H170.969H166.969V54.288H170.969ZM183.161 33.144V37.144H186.089V33.144V29.144H183.161V33.144ZM186.089 33.144H182.089V37.704H186.089H190.089V33.144H186.089ZM186.089 37.704V41.704H188.633V37.704V33.704H186.089V37.704ZM188.633 37.704H184.633V40.104H188.633H192.633V37.704H188.633ZM188.633 40.104V36.104H186.089V40.104V44.104H188.633V40.104ZM186.089 40.104H182.089V48.36H186.089H190.089V40.104H186.089ZM186.089 48.36V44.36H183.161V48.36V52.36H186.089V48.36ZM183.161 48.36H187.161V33.144H183.161H179.161V48.36H183.161Z" fill="#2B2B2B" mask="url(#path-2-outside-1_1159_5594)"/>
<mask id="path-4-outside-2_1159_5594" maskUnits="userSpaceOnUse" x="195" y="2" width="108" height="53" fill="black">
<rect fill="white" x="195" y="2" width="108" height="53"/>
<path d="M199.879 16.648L215.095 11.464V6.904H224.503V11.464L239.719 16.648L237.127 23.464L219.799 17.752L202.471 23.464L199.879 16.648ZM219.799 50.68C213.687 50.68 208.999 49.976 205.735 48.568C202.567 47.192 200.983 45.128 200.983 42.376C200.983 39.624 202.567 37.56 205.735 36.184C208.807 34.808 213.495 34.12 219.799 34.12C226.103 34.12 230.791 34.808 233.863 36.184C237.031 37.56 238.615 39.624 238.615 42.376C238.615 45.128 237.031 47.192 233.863 48.568C230.599 49.976 225.911 50.68 219.799 50.68ZM219.799 43.96C226.071 43.96 229.207 43.432 229.207 42.376C229.207 41.128 226.071 40.504 219.799 40.504C213.527 40.504 210.391 41.128 210.391 42.376C210.391 43.432 213.527 43.96 219.799 43.96ZM199.255 25.048H240.343V31.864H199.255V25.048ZM244.204 22.552H258.94V16.024H243.964V8.392H268.348V30.088H255.916L254.044 25.096H253.612V36.52H271.132V44.248H244.204V22.552ZM274.108 7.288H283.516V50.536H274.108V7.288ZM288.432 8.968H298.464L297.984 34.168H288.912L288.432 8.968ZM293.52 47.464C292.176 47.464 291.04 47 290.112 46.072C289.184 45.176 288.72 44.072 288.72 42.76C288.72 41.448 289.184 40.344 290.112 39.448C291.04 38.552 292.176 38.104 293.52 38.104C294.832 38.104 295.936 38.552 296.832 39.448C297.728 40.344 298.176 41.448 298.176 42.76C298.176 44.072 297.728 45.176 296.832 46.072C295.936 47 294.832 47.464 293.52 47.464Z"/>
</mask>
<path d="M199.879 16.648L215.095 11.464V6.904H224.503V11.464L239.719 16.648L237.127 23.464L219.799 17.752L202.471 23.464L199.879 16.648ZM219.799 50.68C213.687 50.68 208.999 49.976 205.735 48.568C202.567 47.192 200.983 45.128 200.983 42.376C200.983 39.624 202.567 37.56 205.735 36.184C208.807 34.808 213.495 34.12 219.799 34.12C226.103 34.12 230.791 34.808 233.863 36.184C237.031 37.56 238.615 39.624 238.615 42.376C238.615 45.128 237.031 47.192 233.863 48.568C230.599 49.976 225.911 50.68 219.799 50.68ZM219.799 43.96C226.071 43.96 229.207 43.432 229.207 42.376C229.207 41.128 226.071 40.504 219.799 40.504C213.527 40.504 210.391 41.128 210.391 42.376C210.391 43.432 213.527 43.96 219.799 43.96ZM199.255 25.048H240.343V31.864H199.255V25.048ZM244.204 22.552H258.94V16.024H243.964V8.392H268.348V30.088H255.916L254.044 25.096H253.612V36.52H271.132V44.248H244.204V22.552ZM274.108 7.288H283.516V50.536H274.108V7.288ZM288.432 8.968H298.464L297.984 34.168H288.912L288.432 8.968ZM293.52 47.464C292.176 47.464 291.04 47 290.112 46.072C289.184 45.176 288.72 44.072 288.72 42.76C288.72 41.448 289.184 40.344 290.112 39.448C291.04 38.552 292.176 38.104 293.52 38.104C294.832 38.104 295.936 38.552 296.832 39.448C297.728 40.344 298.176 41.448 298.176 42.76C298.176 44.072 297.728 45.176 296.832 46.072C295.936 47 294.832 47.464 293.52 47.464Z" fill="white"/>
<path d="M199.879 16.648L198.589 12.8617C197.562 13.2117 196.721 13.9639 196.259 14.946C195.797 15.928 195.755 17.0555 196.14 18.0698L199.879 16.648ZM215.095 11.464L216.385 15.2503C218.006 14.6982 219.095 13.176 219.095 11.464H215.095ZM215.095 6.904V2.904C212.886 2.904 211.095 4.69486 211.095 6.904H215.095ZM224.503 6.904H228.503C228.503 4.69486 226.712 2.904 224.503 2.904V6.904ZM224.503 11.464H220.503C220.503 13.176 221.593 14.6982 223.213 15.2503L224.503 11.464ZM239.719 16.648L243.458 18.0698C243.844 17.0555 243.801 15.928 243.339 14.946C242.877 13.9639 242.036 13.2117 241.009 12.8617L239.719 16.648ZM237.127 23.464L235.875 27.2629C237.906 27.9326 240.105 26.8853 240.866 24.8858L237.127 23.464ZM219.799 17.752L221.051 13.9531C220.238 13.685 219.36 13.685 218.547 13.9531L219.799 17.752ZM202.471 23.464L198.732 24.8858C199.493 26.8853 201.692 27.9326 203.723 27.2629L202.471 23.464ZM205.735 48.568L204.142 52.2369L204.151 52.2408L205.735 48.568ZM205.735 36.184L207.329 39.8529C207.343 39.8468 207.356 39.8407 207.37 39.8345L205.735 36.184ZM233.863 36.184L232.228 39.8345C232.242 39.8407 232.256 39.8468 232.27 39.8529L233.863 36.184ZM233.863 48.568L235.447 52.2409L235.457 52.2369L233.863 48.568ZM199.255 25.048V21.048C197.046 21.048 195.255 22.8389 195.255 25.048H199.255ZM240.343 25.048H244.343C244.343 22.8389 242.552 21.048 240.343 21.048V25.048ZM240.343 31.864V35.864C242.552 35.864 244.343 34.0731 244.343 31.864H240.343ZM199.255 31.864H195.255C195.255 34.0731 197.046 35.864 199.255 35.864V31.864ZM199.879 16.648L201.169 20.4343L216.385 15.2503L215.095 11.464L213.805 7.67771L198.589 12.8617L199.879 16.648ZM215.095 11.464H219.095V6.904H215.095H211.095V11.464H215.095ZM215.095 6.904V10.904H224.503V6.904V2.904H215.095V6.904ZM224.503 6.904H220.503V11.464H224.503H228.503V6.904H224.503ZM224.503 11.464L223.213 15.2503L238.429 20.4343L239.719 16.648L241.009 12.8617L225.793 7.67771L224.503 11.464ZM239.719 16.648L235.98 15.2262L233.388 22.0422L237.127 23.464L240.866 24.8858L243.458 18.0698L239.719 16.648ZM237.127 23.464L238.379 19.6651L221.051 13.9531L219.799 17.752L218.547 21.5509L235.875 27.2629L237.127 23.464ZM219.799 17.752L218.547 13.9531L201.219 19.6651L202.471 23.464L203.723 27.2629L221.051 21.5509L219.799 17.752ZM202.471 23.464L206.21 22.0422L203.618 15.2262L199.879 16.648L196.14 18.0698L198.732 24.8858L202.471 23.464ZM219.799 50.68V46.68C213.896 46.68 209.846 45.9852 207.319 44.8952L205.735 48.568L204.151 52.2408C208.152 53.9668 213.478 54.68 219.799 54.68V50.68ZM205.735 48.568L207.329 44.8991C206.171 44.3961 205.609 43.8983 205.344 43.5527C205.121 43.2613 204.983 42.9258 204.983 42.376H200.983H196.983C196.983 44.5782 197.637 46.6507 198.998 48.4233C200.317 50.1417 202.132 51.3639 204.142 52.2369L205.735 48.568ZM200.983 42.376H204.983C204.983 41.8262 205.121 41.4907 205.344 41.1993C205.609 40.8537 206.171 40.3559 207.329 39.8529L205.735 36.184L204.142 32.5151C202.132 33.3881 200.317 34.6103 198.998 36.3287C197.637 38.1013 196.983 40.1738 196.983 42.376H200.983ZM205.735 36.184L207.37 39.8345C209.654 38.8114 213.652 38.12 219.799 38.12V34.12V30.12C213.339 30.12 207.96 30.8046 204.1 32.5335L205.735 36.184ZM219.799 34.12V38.12C225.947 38.12 229.944 38.8114 232.228 39.8345L233.863 36.184L235.498 32.5335C231.638 30.8046 226.26 30.12 219.799 30.12V34.12ZM233.863 36.184L232.27 39.8529C233.428 40.3559 233.989 40.8537 234.254 41.1993C234.477 41.4907 234.615 41.8262 234.615 42.376H238.615H242.615C242.615 40.1738 241.961 38.1013 240.6 36.3287C239.281 34.6103 237.467 33.3881 235.457 32.5151L233.863 36.184ZM238.615 42.376H234.615C234.615 42.9258 234.477 43.2613 234.254 43.5527C233.989 43.8983 233.428 44.3961 232.27 44.8991L233.863 48.568L235.457 52.2369C237.467 51.3639 239.281 50.1417 240.6 48.4233C241.961 46.6507 242.615 44.5782 242.615 42.376H238.615ZM233.863 48.568L232.279 44.8952C229.752 45.9852 225.702 46.68 219.799 46.68V50.68V54.68C226.12 54.68 231.446 53.9668 235.447 52.2408L233.863 48.568ZM219.799 43.96V47.96C222.987 47.96 225.611 47.8297 227.519 47.5085C228.434 47.3545 229.492 47.1095 230.422 46.6394C231.21 46.2416 233.207 44.9804 233.207 42.376H229.207H225.207C225.207 40.2996 226.812 39.5004 226.816 39.4986C226.962 39.4245 226.844 39.5095 226.191 39.6195C224.963 39.8263 222.883 39.96 219.799 39.96V43.96ZM229.207 42.376H233.207C233.207 40.0658 231.659 38.7132 230.669 38.1224C229.696 37.5415 228.584 37.2376 227.636 37.0489C225.67 36.6577 222.998 36.504 219.799 36.504V40.504V44.504C222.872 44.504 224.904 44.6623 226.074 44.8951C226.694 45.0184 226.758 45.1045 226.569 44.9916C226.363 44.8688 225.207 44.0622 225.207 42.376H229.207ZM219.799 40.504V36.504C216.6 36.504 213.928 36.6577 211.962 37.0489C211.014 37.2376 209.902 37.5415 208.929 38.1224C207.939 38.7132 206.391 40.0658 206.391 42.376H210.391H214.391C214.391 44.0622 213.235 44.8688 213.029 44.9916C212.84 45.1045 212.904 45.0184 213.524 44.8951C214.694 44.6623 216.726 44.504 219.799 44.504V40.504ZM210.391 42.376H206.391C206.391 44.9804 208.388 46.2416 209.176 46.6394C210.106 47.1095 211.164 47.3545 212.079 47.5085C213.987 47.8297 216.611 47.96 219.799 47.96V43.96V39.96C216.715 39.96 214.635 39.8263 213.407 39.6195C212.754 39.5095 212.636 39.4245 212.782 39.4986C212.786 39.5004 214.391 40.2996 214.391 42.376H210.391ZM199.255 25.048V29.048H240.343V25.048V21.048H199.255V25.048ZM240.343 25.048H236.343V31.864H240.343H244.343V25.048H240.343ZM240.343 31.864V27.864H199.255V31.864V35.864H240.343V31.864ZM199.255 31.864H203.255V25.048H199.255H195.255V31.864H199.255ZM244.204 22.552V18.552C241.995 18.552 240.204 20.3429 240.204 22.552H244.204ZM258.94 22.552V26.552C261.149 26.552 262.94 24.7611 262.94 22.552H258.94ZM258.94 16.024H262.94C262.94 13.8149 261.149 12.024 258.94 12.024V16.024ZM243.964 16.024H239.964C239.964 18.2331 241.755 20.024 243.964 20.024V16.024ZM243.964 8.392V4.392C241.755 4.392 239.964 6.18286 239.964 8.392H243.964ZM268.348 8.392H272.348C272.348 6.18286 270.557 4.392 268.348 4.392V8.392ZM268.348 30.088V34.088C270.557 34.088 272.348 32.2971 272.348 30.088H268.348ZM255.916 30.088L252.17 31.4925C252.756 33.0537 254.248 34.088 255.916 34.088V30.088ZM254.044 25.096L257.789 23.6915C257.204 22.1303 255.711 21.096 254.044 21.096V25.096ZM253.612 25.096V21.096C251.403 21.096 249.612 22.8869 249.612 25.096H253.612ZM253.612 36.52H249.612C249.612 38.7291 251.403 40.52 253.612 40.52V36.52ZM271.132 36.52H275.132C275.132 34.3109 273.341 32.52 271.132 32.52V36.52ZM271.132 44.248V48.248C273.341 48.248 275.132 46.4571 275.132 44.248H271.132ZM244.204 44.248H240.204C240.204 46.4571 241.995 48.248 244.204 48.248V44.248ZM274.108 7.288V3.288C271.899 3.288 270.108 5.07886 270.108 7.288H274.108ZM283.516 7.288H287.516C287.516 5.07886 285.725 3.288 283.516 3.288V7.288ZM283.516 50.536V54.536C285.725 54.536 287.516 52.7451 287.516 50.536H283.516ZM274.108 50.536H270.108C270.108 52.7451 271.899 54.536 274.108 54.536V50.536ZM244.204 22.552V26.552H258.94V22.552V18.552H244.204V22.552ZM258.94 22.552H262.94V16.024H258.94H254.94V22.552H258.94ZM258.94 16.024V12.024H243.964V16.024V20.024H258.94V16.024ZM243.964 16.024H247.964V8.392H243.964H239.964V16.024H243.964ZM243.964 8.392V12.392H268.348V8.392V4.392H243.964V8.392ZM268.348 8.392H264.348V30.088H268.348H272.348V8.392H268.348ZM268.348 30.088V26.088H255.916V30.088V34.088H268.348V30.088ZM255.916 30.088L259.661 28.6835L257.789 23.6915L254.044 25.096L250.298 26.5005L252.17 31.4925L255.916 30.088ZM254.044 25.096V21.096H253.612V25.096V29.096H254.044V25.096ZM253.612 25.096H249.612V36.52H253.612H257.612V25.096H253.612ZM253.612 36.52V40.52H271.132V36.52V32.52H253.612V36.52ZM271.132 36.52H267.132V44.248H271.132H275.132V36.52H271.132ZM271.132 44.248V40.248H244.204V44.248V48.248H271.132V44.248ZM244.204 44.248H248.204V22.552H244.204H240.204V44.248H244.204ZM274.108 7.288V11.288H283.516V7.288V3.288H274.108V7.288ZM283.516 7.288H279.516V50.536H283.516H287.516V7.288H283.516ZM283.516 50.536V46.536H274.108V50.536V54.536H283.516V50.536ZM274.108 50.536H278.108V7.288H274.108H270.108V50.536H274.108ZM288.432 8.968V4.968C287.358 4.968 286.329 5.39995 285.577 6.16663C284.825 6.93331 284.413 7.9703 284.433 9.04417L288.432 8.968ZM298.464 8.968L302.464 9.04417C302.484 7.9703 302.072 6.93331 301.32 6.16663C300.567 5.39995 299.538 4.968 298.464 4.968V8.968ZM297.984 34.168V38.168C300.164 38.168 301.942 36.4232 301.984 34.2442L297.984 34.168ZM288.912 34.168L284.913 34.2442C284.955 36.4232 286.733 38.168 288.912 38.168V34.168ZM290.112 46.072L292.941 43.2436C292.924 43.227 292.908 43.2106 292.891 43.1944L290.112 46.072ZM290.112 39.448L292.891 42.3256L290.112 39.448ZM296.832 39.448L299.661 36.6196L296.832 39.448ZM296.832 46.072L294.004 43.2436C293.987 43.2601 293.971 43.2768 293.955 43.2936L296.832 46.072ZM288.432 8.968V12.968H298.464V8.968V4.968H288.432V8.968ZM298.464 8.968L294.465 8.89182L293.985 34.0918L297.984 34.168L301.984 34.2442L302.464 9.04417L298.464 8.968ZM297.984 34.168V30.168H288.912V34.168V38.168H297.984V34.168ZM288.912 34.168L292.912 34.0918L292.432 8.89182L288.432 8.968L284.433 9.04417L284.913 34.2442L288.912 34.168ZM293.52 47.464V43.464C293.209 43.464 293.099 43.4014 292.941 43.2436L290.112 46.072L287.284 48.9004C288.982 50.5986 291.144 51.464 293.52 51.464V47.464ZM290.112 46.072L292.891 43.1944C292.786 43.0934 292.762 43.037 292.756 43.0222C292.749 43.0059 292.72 42.9349 292.72 42.76H288.72H284.72C284.72 45.1363 285.61 47.2854 287.334 48.9496L290.112 46.072ZM288.72 42.76H292.72C292.72 42.5851 292.749 42.5141 292.756 42.4978C292.762 42.483 292.786 42.4266 292.891 42.3256L290.112 39.448L287.334 36.5704C285.61 38.2346 284.72 40.3837 284.72 42.76H288.72ZM290.112 39.448L292.891 42.3256C293.039 42.1824 293.165 42.104 293.52 42.104V38.104V34.104C291.188 34.104 289.042 34.9216 287.334 36.5704L290.112 39.448ZM293.52 38.104V42.104C293.713 42.104 293.8 42.1351 293.828 42.1465C293.854 42.1567 293.91 42.1823 294.004 42.2764L296.832 39.448L299.661 36.6196C297.985 34.9443 295.851 34.104 293.52 34.104V38.104ZM296.832 39.448L294.004 42.2764C294.098 42.3705 294.124 42.4268 294.134 42.4521C294.145 42.4801 294.176 42.5673 294.176 42.76H298.176H302.176C302.176 40.4291 301.336 38.2949 299.661 36.6196L296.832 39.448ZM298.176 42.76H294.176C294.176 42.9527 294.145 43.0399 294.134 43.0679C294.124 43.0932 294.098 43.1495 294.004 43.2436L296.832 46.072L299.661 48.9004C301.336 47.2251 302.176 45.0909 302.176 42.76H298.176ZM296.832 46.072L293.955 43.2936C293.854 43.3982 293.797 43.4222 293.782 43.4285C293.766 43.4353 293.695 43.464 293.52 43.464V47.464V51.464C295.897 51.464 298.046 50.574 299.71 48.8504L296.832 46.072Z" fill="#2B2B2B" mask="url(#path-4-outside-2_1159_5594)"/>
</g>
<defs>
<filter id="filter0_d_1159_5594" x="0" y="0" width="317" height="66.6719" filterUnits="userSpaceOnUse" color-interpolation-filters="sRGB">
<feFlood flood-opacity="0" result="BackgroundImageFix"/>
<feColorMatrix in="SourceAlpha" type="matrix" values="0 0 0 0 0 0 0 0 0 0 0 0 0 0 0 0 0 0 127 0" result="hardAlpha"/>
<feOffset dy="4"/>
<feGaussianBlur stdDeviation="2"/>
<feComposite in2="hardAlpha" operator="out"/>
<feColorMatrix type="matrix" values="0 0 0 0 0 0 0 0 0 0 0 0 0 0 0 0 0 0 0.25 0"/>
<feBlend mode="normal" in2="BackgroundImageFix" result="effect1_dropShadow_1159_5594"/>
<feBlend mode="normal" in="SourceGraphic" in2="effect1_dropShadow_1159_5594" result="shape"/>
</filter>
</defs>
</svg>
