<svg width="318" height="67" viewBox="0 0 318 67" fill="none" xmlns="http://www.w3.org/2000/svg">
<g filter="url(#filter0_d_1675_4885)">
<path d="M4.5 38H313.5V54C313.5 56.2091 311.709 58 309.5 58H8.5C6.29086 58 4.5 56.2091 4.5 54V38Z" fill="#2B2B2B"/>
<mask id="path-2-outside-1_1675_4885" maskUnits="userSpaceOnUse" x="7.5" y="28" width="190" height="31" fill="black">
<rect fill="white" x="7.5" y="28" width="190" height="31"/>
<path d="M19.23 53.184C17.742 53.184 16.422 52.952 15.27 52.488C14.118 52.024 13.222 51.376 12.582 50.544C11.942 49.712 11.638 48.76 11.67 47.688H14.694L14.67 47.952C14.67 48.448 14.878 48.912 15.294 49.344C15.71 49.776 16.278 50.128 16.998 50.4C17.734 50.656 18.558 50.784 19.47 50.784C20.638 50.784 21.558 50.528 22.23 50.016C22.918 49.504 23.262 48.8 23.262 47.904C23.262 47.072 22.926 46.4 22.254 45.888C21.582 45.36 20.438 44.832 18.822 44.304C17.318 43.84 16.054 43.368 15.03 42.888C14.07 42.456 13.35 41.92 12.87 41.28C12.39 40.624 12.15 39.84 12.15 38.928C12.15 37.92 12.406 37.024 12.918 36.24C13.446 35.456 14.206 34.848 15.198 34.416C16.206 33.968 17.39 33.744 18.75 33.744C20.142 33.744 21.334 33.944 22.326 34.344C23.302 34.728 24.078 35.272 24.654 35.976C25.23 36.664 25.558 37.44 25.638 38.304H22.662C22.502 37.664 22.054 37.144 21.318 36.744C20.598 36.344 19.694 36.144 18.606 36.144C17.566 36.144 16.718 36.392 16.062 36.888C15.406 37.368 15.078 37.968 15.078 38.688C15.078 39.184 15.23 39.584 15.534 39.888C15.838 40.224 16.254 40.504 16.782 40.728C17.342 40.984 18.198 41.288 19.35 41.64C21.094 42.2 22.43 42.728 23.358 43.224C24.35 43.752 25.07 44.392 25.518 45.144C25.982 45.88 26.214 46.8 26.214 47.904C26.214 49.568 25.598 50.864 24.366 51.792C23.134 52.72 21.422 53.184 19.23 53.184ZM34.6144 53.184C33.1264 53.184 31.8064 52.952 30.6544 52.488C29.5024 52.024 28.6064 51.376 27.9664 50.544C27.3264 49.712 27.0224 48.76 27.0544 47.688H30.0784L30.0544 47.952C30.0544 48.448 30.2624 48.912 30.6784 49.344C31.0944 49.776 31.6624 50.128 32.3824 50.4C33.1184 50.656 33.9424 50.784 34.8544 50.784C36.0224 50.784 36.9424 50.528 37.6144 50.016C38.3024 49.504 38.6464 48.8 38.6464 47.904C38.6464 47.072 38.3104 46.4 37.6384 45.888C36.9664 45.36 35.8224 44.832 34.2064 44.304C32.7024 43.84 31.4384 43.368 30.4144 42.888C29.4544 42.456 28.7344 41.92 28.2544 41.28C27.7744 40.624 27.5344 39.84 27.5344 38.928C27.5344 37.92 27.7904 37.024 28.3024 36.24C28.8304 35.456 29.5904 34.848 30.5824 34.416C31.5904 33.968 32.7744 33.744 34.1344 33.744C35.5264 33.744 36.7184 33.944 37.7104 34.344C38.6864 34.728 39.4624 35.272 40.0384 35.976C40.6144 36.664 40.9424 37.44 41.0224 38.304H38.0464C37.8864 37.664 37.4384 37.144 36.7024 36.744C35.9824 36.344 35.0784 36.144 33.9904 36.144C32.9504 36.144 32.1024 36.392 31.4464 36.888C30.7904 37.368 30.4624 37.968 30.4624 38.688C30.4624 39.184 30.6144 39.584 30.9184 39.888C31.2224 40.224 31.6384 40.504 32.1664 40.728C32.7264 40.984 33.5824 41.288 34.7344 41.64C36.4784 42.2 37.8144 42.728 38.7424 43.224C39.7344 43.752 40.4544 44.392 40.9024 45.144C41.3664 45.88 41.5984 46.8 41.5984 47.904C41.5984 49.568 40.9824 50.864 39.7504 51.792C38.5184 52.72 36.8064 53.184 34.6144 53.184ZM51.7987 53.184C49.9427 53.184 48.3507 52.8 47.0227 52.032C45.6947 51.28 44.6787 50.192 43.9747 48.768C43.2707 47.344 42.9187 45.64 42.9187 43.656C42.9187 41.624 43.2867 39.872 44.0227 38.4C44.7587 36.912 45.7987 35.768 47.1427 34.968C48.5027 34.152 50.0947 33.744 51.9187 33.744C53.2467 33.744 54.4547 33.984 55.5427 34.464C56.6307 34.944 57.5267 35.624 58.2307 36.504C58.9347 37.368 59.3827 38.368 59.5747 39.504H56.5987C56.2787 38.448 55.7107 37.64 54.8947 37.08C54.0947 36.52 53.0947 36.24 51.8947 36.24C50.6787 36.24 49.6147 36.536 48.7027 37.128C47.8067 37.704 47.1107 38.536 46.6147 39.624C46.1187 40.712 45.8707 41.992 45.8707 43.464C45.8707 45.72 46.3907 47.488 47.4307 48.768C48.4707 50.048 49.9267 50.688 51.7987 50.688C53.5587 50.688 54.9107 50.192 55.8547 49.2C56.7987 48.208 57.2147 46.848 57.1027 45.12H50.5987V42.72H60.1267V44.904C60.1267 46.632 59.7907 48.12 59.1187 49.368C58.4627 50.6 57.5107 51.544 56.2627 52.2C55.0147 52.856 53.5267 53.184 51.7987 53.184ZM75.8559 33.144V37.464H78.0639V33.144H80.7279V48.216H78.0639V39.864H75.8559V48.216H73.1919V33.144H75.8559ZM62.4639 33.744H71.0079V40.68H65.3679V42.864H71.7279V45.24H62.7039V38.304H68.3439V36.12H62.4639V33.744ZM65.1279 47.112H68.0559V51.936H80.8239V54.288H65.1279V47.112ZM95.0139 34.104V36.504H87.3819V48.24H96.0939V50.64H84.4539V34.104H95.0139ZM93.1419 40.584H98.4699V33.144H101.398V54.528H98.4699V42.984H93.1419V40.584ZM104.812 43.896L112.444 37.512V33.744H115.372V37.512L123.004 43.896L121.204 45.888L113.908 39.744L106.612 45.888L104.812 43.896ZM104.452 49.368H123.364V51.768H104.452V49.368ZM139.872 41.4C137.184 41.4 135.12 41.032 133.68 40.296C132.256 39.56 131.544 38.512 131.544 37.152C131.544 35.792 132.256 34.744 133.68 34.008C135.12 33.272 137.184 32.904 139.872 32.904C142.56 32.904 144.616 33.272 146.04 34.008C147.48 34.744 148.2 35.792 148.2 37.152C148.2 38.512 147.48 39.56 146.04 40.296C144.616 41.032 142.56 41.4 139.872 41.4ZM139.872 54.672C137.248 54.672 135.2 54.312 133.728 53.592C132.272 52.888 131.544 51.904 131.544 50.64C131.544 49.376 132.272 48.392 133.728 47.688C135.2 46.968 137.248 46.608 139.872 46.608C142.496 46.608 144.536 46.968 145.992 47.688C147.464 48.392 148.2 49.376 148.2 50.64C148.2 51.904 147.464 52.888 145.992 53.592C144.536 54.312 142.496 54.672 139.872 54.672ZM139.872 52.368C141.616 52.368 142.944 52.216 143.856 51.912C144.8 51.592 145.272 51.168 145.272 50.64C145.272 50.112 144.8 49.688 143.856 49.368C142.944 49.064 141.616 48.912 139.872 48.912C138.128 48.912 136.808 49.064 135.912 49.368C134.952 49.672 134.472 50.096 134.472 50.64C134.472 51.184 134.952 51.608 135.912 51.912C136.808 52.216 138.128 52.368 139.872 52.368ZM149.328 42.792V45.096H130.416V42.792H149.328ZM139.872 39.096C141.648 39.096 142.984 38.92 143.88 38.568C144.808 38.232 145.272 37.76 145.272 37.152C145.272 36.544 144.808 36.064 143.88 35.712C142.952 35.376 141.616 35.208 139.872 35.208C138.16 35.208 136.832 35.376 135.888 35.712C134.944 36.08 134.472 36.56 134.472 37.152C134.472 37.76 134.944 38.232 135.888 38.568C136.784 38.92 138.112 39.096 139.872 39.096ZM163.854 39.192C163.454 40.088 162.742 40.8 161.718 41.328C160.694 41.84 159.47 42.096 158.046 42.096C156.798 42.096 155.702 41.896 154.758 41.496C153.83 41.096 153.118 40.552 152.622 39.864C152.126 39.176 151.878 38.4 151.878 37.536C151.878 36.672 152.126 35.896 152.622 35.208C153.118 34.52 153.83 33.976 154.758 33.576C155.702 33.176 156.798 32.976 158.046 32.976C159.726 32.976 161.118 33.336 162.222 34.056C163.342 34.76 163.99 35.704 164.166 36.888H166.854V33.144H169.782V49.056H166.854V39.192H163.854ZM156.606 48.36V45.456H151.086V43.2H165.606V45.456H159.534V48.864H156.75V51.936H169.998V54.288H153.822V48.36H156.606ZM158.046 39.768C159.022 39.768 159.806 39.568 160.398 39.168C160.99 38.752 161.286 38.208 161.286 37.536C161.286 36.864 160.99 36.328 160.398 35.928C159.806 35.512 159.022 35.304 158.046 35.304C157.07 35.304 156.286 35.512 155.694 35.928C155.102 36.328 154.806 36.864 154.806 37.536C154.806 38.208 155.102 38.752 155.694 39.168C156.286 39.568 157.07 39.768 158.046 39.768ZM184.548 33.624V35.976H176.436V41.808H185.028V44.16H173.508V33.624H184.548ZM175.212 46.632H178.14V51.936H190.668V54.288H175.212V46.632ZM187.404 33.144H190.332V37.704H192.876V40.104H190.332V48.36H187.404V33.144Z"/>
</mask>
<path d="M19.23 53.184C17.742 53.184 16.422 52.952 15.27 52.488C14.118 52.024 13.222 51.376 12.582 50.544C11.942 49.712 11.638 48.76 11.67 47.688H14.694L14.67 47.952C14.67 48.448 14.878 48.912 15.294 49.344C15.71 49.776 16.278 50.128 16.998 50.4C17.734 50.656 18.558 50.784 19.47 50.784C20.638 50.784 21.558 50.528 22.23 50.016C22.918 49.504 23.262 48.8 23.262 47.904C23.262 47.072 22.926 46.4 22.254 45.888C21.582 45.36 20.438 44.832 18.822 44.304C17.318 43.84 16.054 43.368 15.03 42.888C14.07 42.456 13.35 41.92 12.87 41.28C12.39 40.624 12.15 39.84 12.15 38.928C12.15 37.92 12.406 37.024 12.918 36.24C13.446 35.456 14.206 34.848 15.198 34.416C16.206 33.968 17.39 33.744 18.75 33.744C20.142 33.744 21.334 33.944 22.326 34.344C23.302 34.728 24.078 35.272 24.654 35.976C25.23 36.664 25.558 37.44 25.638 38.304H22.662C22.502 37.664 22.054 37.144 21.318 36.744C20.598 36.344 19.694 36.144 18.606 36.144C17.566 36.144 16.718 36.392 16.062 36.888C15.406 37.368 15.078 37.968 15.078 38.688C15.078 39.184 15.23 39.584 15.534 39.888C15.838 40.224 16.254 40.504 16.782 40.728C17.342 40.984 18.198 41.288 19.35 41.64C21.094 42.2 22.43 42.728 23.358 43.224C24.35 43.752 25.07 44.392 25.518 45.144C25.982 45.88 26.214 46.8 26.214 47.904C26.214 49.568 25.598 50.864 24.366 51.792C23.134 52.72 21.422 53.184 19.23 53.184ZM34.6144 53.184C33.1264 53.184 31.8064 52.952 30.6544 52.488C29.5024 52.024 28.6064 51.376 27.9664 50.544C27.3264 49.712 27.0224 48.76 27.0544 47.688H30.0784L30.0544 47.952C30.0544 48.448 30.2624 48.912 30.6784 49.344C31.0944 49.776 31.6624 50.128 32.3824 50.4C33.1184 50.656 33.9424 50.784 34.8544 50.784C36.0224 50.784 36.9424 50.528 37.6144 50.016C38.3024 49.504 38.6464 48.8 38.6464 47.904C38.6464 47.072 38.3104 46.4 37.6384 45.888C36.9664 45.36 35.8224 44.832 34.2064 44.304C32.7024 43.84 31.4384 43.368 30.4144 42.888C29.4544 42.456 28.7344 41.92 28.2544 41.28C27.7744 40.624 27.5344 39.84 27.5344 38.928C27.5344 37.92 27.7904 37.024 28.3024 36.24C28.8304 35.456 29.5904 34.848 30.5824 34.416C31.5904 33.968 32.7744 33.744 34.1344 33.744C35.5264 33.744 36.7184 33.944 37.7104 34.344C38.6864 34.728 39.4624 35.272 40.0384 35.976C40.6144 36.664 40.9424 37.44 41.0224 38.304H38.0464C37.8864 37.664 37.4384 37.144 36.7024 36.744C35.9824 36.344 35.0784 36.144 33.9904 36.144C32.9504 36.144 32.1024 36.392 31.4464 36.888C30.7904 37.368 30.4624 37.968 30.4624 38.688C30.4624 39.184 30.6144 39.584 30.9184 39.888C31.2224 40.224 31.6384 40.504 32.1664 40.728C32.7264 40.984 33.5824 41.288 34.7344 41.64C36.4784 42.2 37.8144 42.728 38.7424 43.224C39.7344 43.752 40.4544 44.392 40.9024 45.144C41.3664 45.88 41.5984 46.8 41.5984 47.904C41.5984 49.568 40.9824 50.864 39.7504 51.792C38.5184 52.72 36.8064 53.184 34.6144 53.184ZM51.7987 53.184C49.9427 53.184 48.3507 52.8 47.0227 52.032C45.6947 51.28 44.6787 50.192 43.9747 48.768C43.2707 47.344 42.9187 45.64 42.9187 43.656C42.9187 41.624 43.2867 39.872 44.0227 38.4C44.7587 36.912 45.7987 35.768 47.1427 34.968C48.5027 34.152 50.0947 33.744 51.9187 33.744C53.2467 33.744 54.4547 33.984 55.5427 34.464C56.6307 34.944 57.5267 35.624 58.2307 36.504C58.9347 37.368 59.3827 38.368 59.5747 39.504H56.5987C56.2787 38.448 55.7107 37.64 54.8947 37.08C54.0947 36.52 53.0947 36.24 51.8947 36.24C50.6787 36.24 49.6147 36.536 48.7027 37.128C47.8067 37.704 47.1107 38.536 46.6147 39.624C46.1187 40.712 45.8707 41.992 45.8707 43.464C45.8707 45.72 46.3907 47.488 47.4307 48.768C48.4707 50.048 49.9267 50.688 51.7987 50.688C53.5587 50.688 54.9107 50.192 55.8547 49.2C56.7987 48.208 57.2147 46.848 57.1027 45.12H50.5987V42.72H60.1267V44.904C60.1267 46.632 59.7907 48.12 59.1187 49.368C58.4627 50.6 57.5107 51.544 56.2627 52.2C55.0147 52.856 53.5267 53.184 51.7987 53.184ZM75.8559 33.144V37.464H78.0639V33.144H80.7279V48.216H78.0639V39.864H75.8559V48.216H73.1919V33.144H75.8559ZM62.4639 33.744H71.0079V40.68H65.3679V42.864H71.7279V45.24H62.7039V38.304H68.3439V36.12H62.4639V33.744ZM65.1279 47.112H68.0559V51.936H80.8239V54.288H65.1279V47.112ZM95.0139 34.104V36.504H87.3819V48.24H96.0939V50.64H84.4539V34.104H95.0139ZM93.1419 40.584H98.4699V33.144H101.398V54.528H98.4699V42.984H93.1419V40.584ZM104.812 43.896L112.444 37.512V33.744H115.372V37.512L123.004 43.896L121.204 45.888L113.908 39.744L106.612 45.888L104.812 43.896ZM104.452 49.368H123.364V51.768H104.452V49.368ZM139.872 41.4C137.184 41.4 135.12 41.032 133.68 40.296C132.256 39.56 131.544 38.512 131.544 37.152C131.544 35.792 132.256 34.744 133.68 34.008C135.12 33.272 137.184 32.904 139.872 32.904C142.56 32.904 144.616 33.272 146.04 34.008C147.48 34.744 148.2 35.792 148.2 37.152C148.2 38.512 147.48 39.56 146.04 40.296C144.616 41.032 142.56 41.4 139.872 41.4ZM139.872 54.672C137.248 54.672 135.2 54.312 133.728 53.592C132.272 52.888 131.544 51.904 131.544 50.64C131.544 49.376 132.272 48.392 133.728 47.688C135.2 46.968 137.248 46.608 139.872 46.608C142.496 46.608 144.536 46.968 145.992 47.688C147.464 48.392 148.2 49.376 148.2 50.64C148.2 51.904 147.464 52.888 145.992 53.592C144.536 54.312 142.496 54.672 139.872 54.672ZM139.872 52.368C141.616 52.368 142.944 52.216 143.856 51.912C144.8 51.592 145.272 51.168 145.272 50.64C145.272 50.112 144.8 49.688 143.856 49.368C142.944 49.064 141.616 48.912 139.872 48.912C138.128 48.912 136.808 49.064 135.912 49.368C134.952 49.672 134.472 50.096 134.472 50.64C134.472 51.184 134.952 51.608 135.912 51.912C136.808 52.216 138.128 52.368 139.872 52.368ZM149.328 42.792V45.096H130.416V42.792H149.328ZM139.872 39.096C141.648 39.096 142.984 38.92 143.88 38.568C144.808 38.232 145.272 37.76 145.272 37.152C145.272 36.544 144.808 36.064 143.88 35.712C142.952 35.376 141.616 35.208 139.872 35.208C138.16 35.208 136.832 35.376 135.888 35.712C134.944 36.08 134.472 36.56 134.472 37.152C134.472 37.76 134.944 38.232 135.888 38.568C136.784 38.92 138.112 39.096 139.872 39.096ZM163.854 39.192C163.454 40.088 162.742 40.8 161.718 41.328C160.694 41.84 159.47 42.096 158.046 42.096C156.798 42.096 155.702 41.896 154.758 41.496C153.83 41.096 153.118 40.552 152.622 39.864C152.126 39.176 151.878 38.4 151.878 37.536C151.878 36.672 152.126 35.896 152.622 35.208C153.118 34.52 153.83 33.976 154.758 33.576C155.702 33.176 156.798 32.976 158.046 32.976C159.726 32.976 161.118 33.336 162.222 34.056C163.342 34.76 163.99 35.704 164.166 36.888H166.854V33.144H169.782V49.056H166.854V39.192H163.854ZM156.606 48.36V45.456H151.086V43.2H165.606V45.456H159.534V48.864H156.75V51.936H169.998V54.288H153.822V48.36H156.606ZM158.046 39.768C159.022 39.768 159.806 39.568 160.398 39.168C160.99 38.752 161.286 38.208 161.286 37.536C161.286 36.864 160.99 36.328 160.398 35.928C159.806 35.512 159.022 35.304 158.046 35.304C157.07 35.304 156.286 35.512 155.694 35.928C155.102 36.328 154.806 36.864 154.806 37.536C154.806 38.208 155.102 38.752 155.694 39.168C156.286 39.568 157.07 39.768 158.046 39.768ZM184.548 33.624V35.976H176.436V41.808H185.028V44.16H173.508V33.624H184.548ZM175.212 46.632H178.14V51.936H190.668V54.288H175.212V46.632ZM187.404 33.144H190.332V37.704H192.876V40.104H190.332V48.36H187.404V33.144Z" fill="white"/>
<path d="M15.27 52.488L16.7644 48.7777L15.27 52.488ZM12.582 50.544L15.7525 48.1052V48.1052L12.582 50.544ZM11.67 47.688V43.688C9.50733 43.688 7.73631 45.4069 7.67178 47.5686L11.67 47.688ZM14.694 47.688L18.6776 48.0501C18.7793 46.9309 18.4055 45.8205 17.6477 44.9906C16.8898 44.1608 15.8178 43.688 14.694 43.688V47.688ZM14.67 47.952L10.6864 47.5899C10.6755 47.7103 10.67 47.8311 10.67 47.952H14.67ZM15.294 49.344L18.1753 46.5694H18.1753L15.294 49.344ZM16.998 50.4L15.5844 54.1419C15.6174 54.1544 15.6506 54.1664 15.6839 54.178L16.998 50.4ZM22.23 50.016L19.842 46.8071C19.8299 46.8161 19.8178 46.8251 19.8058 46.8343L22.23 50.016ZM22.254 45.888L19.7827 49.0333C19.7983 49.0455 19.814 49.0577 19.8298 49.0697L22.254 45.888ZM18.822 44.304L20.0643 40.5018C20.0433 40.495 20.0223 40.4883 20.0012 40.4818L18.822 44.304ZM15.03 42.888L16.7277 39.2662C16.709 39.2574 16.6903 39.2488 16.6715 39.2403L15.03 42.888ZM12.87 41.28L9.64188 43.642C9.65118 43.6547 9.66055 43.6674 9.67 43.68L12.87 41.28ZM12.918 36.24L9.60025 34.0056C9.58969 34.0213 9.57925 34.037 9.56892 34.0528L12.918 36.24ZM15.198 34.416L16.7951 38.0833C16.8042 38.0793 16.8134 38.0753 16.8226 38.0712L15.198 34.416ZM22.326 34.344L20.8301 38.0538C20.8406 38.058 20.851 38.0621 20.8615 38.0663L22.326 34.344ZM24.654 35.976L21.5582 38.509C21.5677 38.5206 21.5773 38.5322 21.587 38.5437L24.654 35.976ZM25.638 38.304V42.304C26.763 42.304 27.836 41.8302 28.5939 40.9989C29.3519 40.1675 29.7247 39.0554 29.621 37.9352L25.638 38.304ZM22.662 38.304L18.7814 39.2741C19.2266 41.0548 20.8265 42.304 22.662 42.304V38.304ZM21.318 36.744L19.3754 40.2406C19.3862 40.2466 19.3971 40.2526 19.4079 40.2585L21.318 36.744ZM16.062 36.888L18.424 40.1161C18.4409 40.1038 18.4577 40.0913 18.4744 40.0786L16.062 36.888ZM15.534 39.888L18.5001 37.2043C18.4554 37.1549 18.4095 37.1067 18.3624 37.0596L15.534 39.888ZM16.782 40.728L18.445 37.0901C18.4116 37.0748 18.378 37.06 18.3442 37.0457L16.782 40.728ZM19.35 41.64L20.5729 37.8315C20.5549 37.8258 20.5369 37.8201 20.5189 37.8146L19.35 41.64ZM23.358 43.224L21.4725 46.7517L21.4786 46.755L23.358 43.224ZM25.518 45.144L22.0816 47.1912C22.0988 47.2201 22.1164 47.2488 22.1343 47.2772L25.518 45.144ZM24.366 51.792L21.9594 48.597L21.9594 48.597L24.366 51.792ZM19.23 53.184V49.184C18.1549 49.184 17.3574 49.0165 16.7644 48.7777L15.27 52.488L13.7756 56.1983C15.4866 56.8875 17.3291 57.184 19.23 57.184V53.184ZM15.27 52.488L16.7644 48.7777C16.1524 48.5312 15.8835 48.2754 15.7525 48.1052L12.582 50.544L9.4115 52.9828C10.5605 54.4766 12.0836 55.5168 13.7756 56.1983L15.27 52.488ZM12.582 50.544L15.7525 48.1052C15.7006 48.0377 15.6885 48.002 15.6844 47.9892C15.68 47.9753 15.6647 47.9238 15.6682 47.8074L11.67 47.688L7.67178 47.5686C7.61289 49.5415 8.19551 51.4021 9.4115 52.9828L12.582 50.544ZM11.67 47.688V51.688H14.694V47.688V43.688H11.67V47.688ZM14.694 47.688L10.7104 47.3259L10.6864 47.5899L14.67 47.952L18.6536 48.3141L18.6776 48.0501L14.694 47.688ZM14.67 47.952H10.67C10.67 49.6917 11.4383 51.1067 12.4127 52.1186L15.294 49.344L18.1753 46.5694C18.2312 46.6275 18.3609 46.7789 18.476 47.0358C18.5968 47.3051 18.67 47.6216 18.67 47.952H14.67ZM15.294 49.344L12.4127 52.1186C13.3395 53.081 14.4612 53.7176 15.5844 54.1419L16.998 50.4L18.4116 46.6581C18.0948 46.5384 18.0805 46.471 18.1753 46.5694L15.294 49.344ZM16.998 50.4L15.6839 54.178C16.9075 54.6036 18.1852 54.784 19.47 54.784V50.784V46.784C18.9308 46.784 18.5605 46.7084 18.3121 46.622L16.998 50.4ZM19.47 50.784V54.784C21.1848 54.784 23.0626 54.4103 24.6542 53.1977L22.23 50.016L19.8058 46.8343C19.923 46.745 19.9979 46.7289 19.9637 46.7384C19.9203 46.7505 19.769 46.784 19.47 46.784V50.784ZM22.23 50.016L24.618 53.2249C26.3724 51.9194 27.262 49.9979 27.262 47.904H23.262H19.262C19.262 47.8309 19.2789 47.6163 19.4101 47.3479C19.5442 47.0735 19.7232 46.8955 19.842 46.8071L22.23 50.016ZM23.262 47.904H27.262C27.262 45.8012 26.3252 43.9611 24.6782 42.7063L22.254 45.888L19.8298 49.0697C19.741 49.002 19.5697 48.8397 19.4323 48.5649C19.2939 48.288 19.262 48.0414 19.262 47.904H23.262ZM22.254 45.888L24.7253 42.7427C23.4775 41.7623 21.7746 41.0606 20.0643 40.5018L18.822 44.304L17.5797 48.1062C18.2872 48.3374 18.8239 48.547 19.2158 48.7278C19.4093 48.8172 19.5513 48.8921 19.6508 48.9499C19.752 49.0087 19.7894 49.0385 19.7827 49.0333L22.254 45.888ZM18.822 44.304L20.0012 40.4818C18.6114 40.053 17.533 39.6437 16.7277 39.2662L15.03 42.888L13.3323 46.5098C14.575 47.0923 16.0246 47.627 17.6428 48.1262L18.822 44.304ZM15.03 42.888L16.6715 39.2403C16.1396 39.001 16.0361 38.8348 16.07 38.88L12.87 41.28L9.67 43.68C10.6639 45.0052 12.0004 45.911 13.3885 46.5357L15.03 42.888ZM12.87 41.28L16.0981 38.918C16.1092 38.9331 16.1215 38.9527 16.1327 38.9751C16.1439 38.9976 16.151 39.0166 16.1548 39.0291C16.1585 39.0414 16.1576 39.042 16.1555 39.0275C16.1534 39.0127 16.15 38.9805 16.15 38.928H12.15H8.15C8.15 40.5809 8.5999 42.218 9.64188 43.642L12.87 41.28ZM12.15 38.928H16.15C16.15 38.6347 16.2126 38.5106 16.2671 38.4272L12.918 36.24L9.56892 34.0528C8.59944 35.5374 8.15 37.2053 8.15 38.928H12.15ZM12.918 36.24L16.2357 38.4744C16.2793 38.4097 16.3978 38.2563 16.7951 38.0833L15.198 34.416L13.6009 30.7487C12.0142 31.4397 10.6127 32.5023 9.60025 34.0056L12.918 36.24ZM15.198 34.416L16.8226 38.0712C17.2146 37.897 17.8227 37.744 18.75 37.744V33.744V29.744C16.9573 29.744 15.1974 30.039 13.5734 30.7608L15.198 34.416ZM18.75 33.744V37.744C19.7764 37.744 20.4332 37.8937 20.8301 38.0538L22.326 34.344L23.8219 30.6342C22.2348 29.9943 20.5076 29.744 18.75 29.744V33.744ZM22.326 34.344L20.8615 38.0663C21.2994 38.2386 21.4777 38.4106 21.5582 38.509L24.654 35.976L27.7498 33.443C26.6783 32.1334 25.3046 31.2174 23.7905 30.6217L22.326 34.344ZM24.654 35.976L21.587 38.5437C21.6131 38.5749 21.6281 38.5972 21.6361 38.6101C21.6439 38.6228 21.6469 38.6296 21.6476 38.6313C21.6483 38.633 21.6489 38.6346 21.6498 38.6382C21.6507 38.6419 21.6532 38.6526 21.655 38.6728L25.638 38.304L29.621 37.9352C29.4634 36.2334 28.7997 34.6966 27.721 33.4083L24.654 35.976ZM25.638 38.304V34.304H22.662V38.304V42.304H25.638V38.304ZM22.662 38.304L26.5426 37.3339C26.0416 35.33 24.6653 34.0106 23.2281 33.2295L21.318 36.744L19.4079 40.2585C19.4417 40.2768 19.3284 40.2222 19.1756 40.0448C19.009 39.8515 18.8591 39.5847 18.7814 39.2741L22.662 38.304ZM21.318 36.744L23.2606 33.2474C21.7858 32.428 20.1628 32.144 18.606 32.144V36.144V40.144C19.2252 40.144 19.4102 40.2599 19.3754 40.2406L21.318 36.744ZM18.606 36.144V32.144C16.9284 32.144 15.1657 32.551 13.6496 33.6974L16.062 36.888L18.4744 40.0786C18.4343 40.109 18.3959 40.1318 18.3636 40.1478C18.348 40.1555 18.3353 40.1609 18.3263 40.1644C18.3173 40.1679 18.3126 40.1693 18.3128 40.1692C18.3143 40.1688 18.4007 40.144 18.606 40.144V36.144ZM16.062 36.888L13.7 33.6599C12.1672 34.7814 11.078 36.5142 11.078 38.688H15.078H19.078C19.078 38.9618 19.0086 39.2969 18.8338 39.6167C18.6678 39.9204 18.4817 40.0739 18.424 40.1161L16.062 36.888ZM15.078 38.688H11.078C11.078 40.0682 11.5351 41.546 12.7056 42.7164L15.534 39.888L18.3624 37.0596C18.6081 37.3052 18.8054 37.6083 18.9311 37.9391C19.0527 38.259 19.078 38.5265 19.078 38.688H15.078ZM15.534 39.888L12.5679 42.5717C13.3509 43.4372 14.2945 44.0178 15.2198 44.4103L16.782 40.728L18.3442 37.0457C18.2135 36.9902 18.3251 37.0108 18.5001 37.2043L15.534 39.888ZM16.782 40.728L15.119 44.3659C15.9266 44.7351 16.9876 45.1007 18.1811 45.4654L19.35 41.64L20.5189 37.8146C19.4084 37.4753 18.7574 37.2329 18.445 37.0901L16.782 40.728ZM19.35 41.64L18.1271 45.4485C19.7835 45.9803 20.8562 46.4223 21.4725 46.7517L23.358 43.224L25.2435 39.6963C24.0038 39.0337 22.4045 38.4197 20.5729 37.8315L19.35 41.64ZM23.358 43.224L21.4786 46.755C22.0058 47.0356 22.0995 47.2213 22.0816 47.1912L25.518 45.144L28.9544 43.0968C28.0405 41.5627 26.6942 40.4684 25.2374 39.693L23.358 43.224ZM25.518 45.144L22.1343 47.2772C22.1004 47.2234 22.214 47.3538 22.214 47.904H26.214H30.214C30.214 46.2462 29.8636 44.5366 28.9017 43.0108L25.518 45.144ZM26.214 47.904H22.214C22.214 48.2365 22.1546 48.3747 22.1393 48.4069C22.1288 48.429 22.0996 48.4913 21.9594 48.597L24.366 51.792L26.7726 54.987C29.0963 53.2367 30.214 50.7093 30.214 47.904H26.214ZM24.366 51.792L21.9594 48.597C21.6592 48.8231 20.9087 49.184 19.23 49.184V53.184V57.184C21.9353 57.184 24.6088 56.6169 26.7726 54.987L24.366 51.792ZM30.6544 52.488L32.1488 48.7777L30.6544 52.488ZM27.9664 50.544L31.1369 48.1052V48.1052L27.9664 50.544ZM27.0544 47.688V43.688C24.8917 43.688 23.1207 45.4069 23.0562 47.5686L27.0544 47.688ZM30.0784 47.688L34.0619 48.0501C34.1637 46.9309 33.7899 45.8205 33.0321 44.9906C32.2742 44.1608 31.2022 43.688 30.0784 43.688V47.688ZM30.0544 47.952L26.0708 47.5899C26.0599 47.7103 26.0544 47.8311 26.0544 47.952H30.0544ZM30.6784 49.344L33.5597 46.5694L30.6784 49.344ZM32.3824 50.4L30.9688 54.1419C31.0018 54.1544 31.035 54.1664 31.0683 54.178L32.3824 50.4ZM37.6144 50.016L35.2263 46.8071C35.2142 46.8161 35.2022 46.8251 35.1902 46.8343L37.6144 50.016ZM37.6384 45.888L35.1671 49.0333C35.1827 49.0455 35.1984 49.0577 35.2142 49.0697L37.6384 45.888ZM34.2064 44.304L35.4487 40.5018C35.4277 40.495 35.4067 40.4883 35.3856 40.4818L34.2064 44.304ZM30.4144 42.888L32.1121 39.2662C32.0934 39.2574 32.0747 39.2488 32.0558 39.2403L30.4144 42.888ZM28.2544 41.28L25.0263 43.642C25.0356 43.6547 25.0449 43.6674 25.0544 43.68L28.2544 41.28ZM28.3024 36.24L24.9846 34.0056C24.9741 34.0213 24.9636 34.037 24.9533 34.0528L28.3024 36.24ZM30.5824 34.416L32.1794 38.0833C32.1886 38.0793 32.1978 38.0753 32.2069 38.0712L30.5824 34.416ZM37.7104 34.344L36.2145 38.0538C36.2249 38.058 36.2354 38.0621 36.2459 38.0663L37.7104 34.344ZM40.0384 35.976L36.9425 38.509C36.9521 38.5206 36.9617 38.5322 36.9713 38.5437L40.0384 35.976ZM41.0224 38.304V42.304C42.1474 42.304 43.2204 41.8302 43.9783 40.9989C44.7363 40.1675 45.1091 39.0554 45.0053 37.9352L41.0224 38.304ZM38.0464 38.304L34.1658 39.2741C34.611 41.0548 36.2109 42.304 38.0464 42.304V38.304ZM36.7024 36.744L34.7598 40.2406C34.7706 40.2466 34.7815 40.2526 34.7923 40.2585L36.7024 36.744ZM31.4464 36.888L33.8084 40.1161C33.8253 40.1038 33.8421 40.0913 33.8588 40.0786L31.4464 36.888ZM30.9184 39.888L33.8845 37.2043C33.8398 37.1549 33.7939 37.1067 33.7468 37.0596L30.9184 39.888ZM32.1664 40.728L33.8294 37.0901C33.796 37.0748 33.7624 37.06 33.7286 37.0457L32.1664 40.728ZM34.7344 41.64L35.9573 37.8315C35.9393 37.8258 35.9213 37.8201 35.9032 37.8146L34.7344 41.64ZM38.7424 43.224L36.8569 46.7517L36.863 46.755L38.7424 43.224ZM40.9024 45.144L37.466 47.1912C37.4832 47.2201 37.5007 47.2488 37.5187 47.2772L40.9024 45.144ZM39.7504 51.792L37.3437 48.597V48.597L39.7504 51.792ZM34.6144 53.184V49.184C33.5393 49.184 32.7417 49.0165 32.1488 48.7777L30.6544 52.488L29.1599 56.1983C30.871 56.8875 32.7134 57.184 34.6144 57.184V53.184ZM30.6544 52.488L32.1488 48.7777C31.5368 48.5312 31.2678 48.2754 31.1369 48.1052L27.9664 50.544L24.7959 52.9828C25.9449 54.4766 27.4679 55.5168 29.1599 56.1983L30.6544 52.488ZM27.9664 50.544L31.1369 48.1052C31.085 48.0377 31.0729 48.002 31.0688 47.9892C31.0644 47.9753 31.0491 47.9238 31.0526 47.8074L27.0544 47.688L23.0562 47.5686C22.9973 49.5415 23.5799 51.4021 24.7959 52.9828L27.9664 50.544ZM27.0544 47.688V51.688H30.0784V47.688V43.688H27.0544V47.688ZM30.0784 47.688L26.0948 47.3259L26.0708 47.5899L30.0544 47.952L34.0379 48.3141L34.0619 48.0501L30.0784 47.688ZM30.0544 47.952H26.0544C26.0544 49.6917 26.8227 51.1067 27.7971 52.1186L30.6784 49.344L33.5597 46.5694C33.6155 46.6275 33.7452 46.7789 33.8604 47.0358C33.9811 47.3051 34.0544 47.6216 34.0544 47.952H30.0544ZM30.6784 49.344L27.7971 52.1186C28.7239 53.081 29.8456 53.7176 30.9688 54.1419L32.3824 50.4L33.796 46.6581C33.4791 46.5384 33.4648 46.471 33.5597 46.5694L30.6784 49.344ZM32.3824 50.4L31.0683 54.178C32.2919 54.6036 33.5695 54.784 34.8544 54.784V50.784V46.784C34.3152 46.784 33.9448 46.7084 33.6965 46.622L32.3824 50.4ZM34.8544 50.784V54.784C36.5692 54.784 38.447 54.4103 40.0385 53.1977L37.6144 50.016L35.1902 46.8343C35.3073 46.745 35.3823 46.7289 35.3481 46.7384C35.3047 46.7505 35.1534 46.784 34.8544 46.784V50.784ZM37.6144 50.016L40.0024 53.2249C41.7567 51.9194 42.6464 49.9979 42.6464 47.904H38.6464H34.6464C34.6464 47.8309 34.6633 47.6163 34.7945 47.3479C34.9285 47.0735 35.1075 46.8955 35.2263 46.8071L37.6144 50.016ZM38.6464 47.904H42.6464C42.6464 45.8012 41.7095 43.9611 40.0625 42.7063L37.6384 45.888L35.2142 49.0697C35.1253 49.002 34.9541 48.8397 34.8167 48.5649C34.6782 48.288 34.6464 48.0414 34.6464 47.904H38.6464ZM37.6384 45.888L40.1097 42.7427C38.8618 41.7623 37.159 41.0606 35.4487 40.5018L34.2064 44.304L32.9641 48.1062C33.6716 48.3374 34.2083 48.547 34.6001 48.7278C34.7937 48.8172 34.9357 48.8921 35.0351 48.9499C35.1364 49.0087 35.1737 49.0385 35.1671 49.0333L37.6384 45.888ZM34.2064 44.304L35.3856 40.4818C33.9958 40.053 32.9174 39.6437 32.1121 39.2662L30.4144 42.888L28.7166 46.5098C29.9593 47.0923 31.4089 47.627 33.0272 48.1262L34.2064 44.304ZM30.4144 42.888L32.0558 39.2403C31.524 39.001 31.4205 38.8348 31.4544 38.88L28.2544 41.28L25.0544 43.68C26.0483 45.0052 27.3848 45.911 28.7729 46.5357L30.4144 42.888ZM28.2544 41.28L31.4825 38.918C31.4936 38.9331 31.5058 38.9527 31.5171 38.9751C31.5283 38.9976 31.5353 39.0166 31.5392 39.0291C31.5429 39.0414 31.542 39.042 31.5399 39.0275C31.5378 39.0127 31.5344 38.9805 31.5344 38.928H27.5344H23.5344C23.5344 40.5809 23.9843 42.218 25.0263 43.642L28.2544 41.28ZM27.5344 38.928H31.5344C31.5344 38.6347 31.5969 38.5106 31.6515 38.4272L28.3024 36.24L24.9533 34.0528C23.9838 35.5374 23.5344 37.2053 23.5344 38.928H27.5344ZM28.3024 36.24L31.6201 38.4744C31.6637 38.4097 31.7822 38.2563 32.1794 38.0833L30.5824 34.416L28.9853 30.7487C27.3986 31.4397 25.997 32.5023 24.9846 34.0056L28.3024 36.24ZM30.5824 34.416L32.2069 38.0712C32.599 37.897 33.2071 37.744 34.1344 37.744V33.744V29.744C32.3417 29.744 30.5818 30.039 28.9578 30.7608L30.5824 34.416ZM34.1344 33.744V37.744C35.1608 37.744 35.8175 37.8937 36.2145 38.0538L37.7104 34.344L39.2062 30.6342C37.6192 29.9943 35.8919 29.744 34.1344 29.744V33.744ZM37.7104 34.344L36.2459 38.0663C36.6838 38.2386 36.8621 38.4106 36.9425 38.509L40.0384 35.976L43.1342 33.443C42.0627 32.1334 40.6889 31.2174 39.1749 30.6217L37.7104 34.344ZM40.0384 35.976L36.9713 38.5437C36.9974 38.5749 37.0125 38.5972 37.0204 38.6101C37.0283 38.6228 37.0312 38.6296 37.032 38.6313C37.0327 38.633 37.0333 38.6346 37.0342 38.6382C37.0351 38.6419 37.0375 38.6526 37.0394 38.6728L41.0224 38.304L45.0053 37.9352C44.8478 36.2334 44.184 34.6966 43.1054 33.4083L40.0384 35.976ZM41.0224 38.304V34.304H38.0464V38.304V42.304H41.0224V38.304ZM38.0464 38.304L41.9269 37.3339C41.426 35.33 40.0497 34.0106 38.6124 33.2295L36.7024 36.744L34.7923 40.2585C34.8261 40.2768 34.7127 40.2222 34.5599 40.0448C34.3934 39.8515 34.2434 39.5847 34.1658 39.2741L38.0464 38.304ZM36.7024 36.744L38.6449 33.2474C37.1702 32.428 35.5472 32.144 33.9904 32.144V36.144V40.144C34.6095 40.144 34.7946 40.2599 34.7598 40.2406L36.7024 36.744ZM33.9904 36.144V32.144C32.3128 32.144 30.55 32.551 29.0339 33.6974L31.4464 36.888L33.8588 40.0786C33.8187 40.109 33.7803 40.1318 33.748 40.1478C33.7323 40.1555 33.7197 40.1609 33.7107 40.1644C33.7017 40.1679 33.6969 40.1693 33.6972 40.1692C33.6986 40.1688 33.785 40.144 33.9904 40.144V36.144ZM31.4464 36.888L29.0843 33.6599C27.5516 34.7814 26.4624 36.5142 26.4624 38.688H30.4624H34.4624C34.4624 38.9618 34.393 39.2969 34.2182 39.6167C34.0522 39.9204 33.8661 40.0739 33.8084 40.1161L31.4464 36.888ZM30.4624 38.688H26.4624C26.4624 40.0682 26.9195 41.546 28.0899 42.7164L30.9184 39.888L33.7468 37.0596C33.9924 37.3052 34.1898 37.6083 34.3155 37.9391C34.4371 38.259 34.4624 38.5265 34.4624 38.688H30.4624ZM30.9184 39.888L27.9522 42.5717C28.7353 43.4372 29.6789 44.0178 30.6042 44.4103L32.1664 40.728L33.7286 37.0457C33.5979 36.9902 33.7094 37.0108 33.8845 37.2043L30.9184 39.888ZM32.1664 40.728L30.5033 44.3659C31.311 44.7351 32.372 45.1007 33.5655 45.4654L34.7344 41.64L35.9032 37.8146C34.7928 37.4753 34.1417 37.2329 33.8294 37.0901L32.1664 40.728ZM34.7344 41.64L33.5115 45.4485C35.1679 45.9803 36.2405 46.4223 36.8569 46.7517L38.7424 43.224L40.6279 39.6963C39.3882 39.0337 37.7889 38.4197 35.9573 37.8315L34.7344 41.64ZM38.7424 43.224L36.863 46.755C37.3902 47.0356 37.4839 47.2213 37.466 47.1912L40.9024 45.144L44.3388 43.0968C43.4248 41.5627 42.0785 40.4684 40.6218 39.693L38.7424 43.224ZM40.9024 45.144L37.5187 47.2772C37.4847 47.2234 37.5984 47.3538 37.5984 47.904H41.5984H45.5984C45.5984 46.2462 45.248 44.5366 44.2861 43.0108L40.9024 45.144ZM41.5984 47.904H37.5984C37.5984 48.2365 37.539 48.3747 37.5237 48.4069C37.5132 48.429 37.484 48.4913 37.3437 48.597L39.7504 51.792L42.157 54.987C44.4806 53.2367 45.5984 50.7093 45.5984 47.904H41.5984ZM39.7504 51.792L37.3437 48.597C37.0436 48.8231 36.2931 49.184 34.6144 49.184V53.184V57.184C37.3196 57.184 39.9932 56.6169 42.157 54.987L39.7504 51.792ZM47.0227 52.032L49.0252 48.5693C49.0148 48.5633 49.0043 48.5573 48.9937 48.5513L47.0227 52.032ZM43.9747 48.768L40.389 50.5407L43.9747 48.768ZM44.0227 38.4L47.6005 40.1889C47.603 40.1837 47.6056 40.1786 47.6081 40.1734L44.0227 38.4ZM47.1427 34.968L49.1887 38.4052L49.2007 38.398L47.1427 34.968ZM55.5427 34.464L53.9282 38.1237L53.9282 38.1237L55.5427 34.464ZM58.2307 36.504L55.1073 39.0028C55.1147 39.0121 55.1223 39.0214 55.1298 39.0307L58.2307 36.504ZM59.5747 39.504V43.504C60.7522 43.504 61.8698 42.9853 62.6298 42.086C63.3898 41.1868 63.715 39.9983 63.5188 38.8374L59.5747 39.504ZM56.5987 39.504L52.7706 40.664C53.2817 42.3506 54.8364 43.504 56.5987 43.504V39.504ZM54.8947 37.08L52.6009 40.3569C52.611 40.364 52.6212 40.3711 52.6314 40.3781L54.8947 37.08ZM48.7027 37.128L50.8658 40.4927C50.8707 40.4895 50.8757 40.4863 50.8806 40.4831L48.7027 37.128ZM47.4307 48.768L44.3263 51.2904L47.4307 48.768ZM55.8547 49.2L58.7524 51.9575L55.8547 49.2ZM57.1027 45.12L61.0944 44.8613C60.958 42.757 59.2114 41.12 57.1027 41.12V45.12ZM50.5987 45.12H46.5987C46.5987 47.3291 48.3896 49.12 50.5987 49.12V45.12ZM50.5987 42.72V38.72C48.3896 38.72 46.5987 40.5109 46.5987 42.72H50.5987ZM60.1267 42.72H64.1267C64.1267 40.5109 62.3359 38.72 60.1267 38.72V42.72ZM59.1187 49.368L55.5969 47.4716C55.5939 47.4771 55.591 47.4825 55.5881 47.488L59.1187 49.368ZM56.2627 52.2L54.4016 48.6593L56.2627 52.2ZM51.7987 53.184V49.184C50.4985 49.184 49.6286 48.9183 49.0252 48.5693L47.0227 52.032L45.0202 55.4947C47.0729 56.6817 49.387 57.184 51.7987 57.184V53.184ZM47.0227 52.032L48.9937 48.5513C48.3925 48.2108 47.9248 47.7322 47.5605 46.9953L43.9747 48.768L40.389 50.5407C41.4327 52.6518 42.997 54.3492 45.0518 55.5127L47.0227 52.032ZM43.9747 48.768L47.5605 46.9953C47.1883 46.2424 46.9187 45.1746 46.9187 43.656H42.9187H38.9187C38.9187 46.1054 39.3532 48.4456 40.389 50.5407L43.9747 48.768ZM42.9187 43.656H46.9187C46.9187 42.102 47.1997 40.9903 47.6005 40.1889L44.0227 38.4L40.445 36.6111C39.3738 38.7537 38.9187 41.146 38.9187 43.656H42.9187ZM44.0227 38.4L47.6081 40.1734C48.0242 39.3323 48.5489 38.786 49.1887 38.4052L47.1427 34.968L45.0968 31.5308C43.0486 32.75 41.4933 34.4917 40.4374 36.6266L44.0227 38.4ZM47.1427 34.968L49.2007 38.398C49.8506 38.0081 50.709 37.744 51.9187 37.744V33.744V29.744C49.4805 29.744 47.1549 30.2959 45.0848 31.538L47.1427 34.968ZM51.9187 33.744V37.744C52.7559 37.744 53.4052 37.893 53.9282 38.1237L55.5427 34.464L57.1573 30.8043C55.5043 30.075 53.7376 29.744 51.9187 29.744V33.744ZM55.5427 34.464L53.9282 38.1237C54.4606 38.3586 54.8278 38.6534 55.1073 39.0028L58.2307 36.504L61.3542 34.0052C60.2257 32.5946 58.8009 31.5294 57.1573 30.8043L55.5427 34.464ZM58.2307 36.504L55.1298 39.0307C55.3814 39.3395 55.55 39.6931 55.6307 40.1706L59.5747 39.504L63.5188 38.8374C63.2155 37.0429 62.4881 35.3965 61.3317 33.9773L58.2307 36.504ZM59.5747 39.504V35.504H56.5987V39.504V43.504H59.5747V39.504ZM56.5987 39.504L60.4268 38.344C59.8754 36.5242 58.8099 34.9155 57.1581 33.7819L54.8947 37.08L52.6314 40.3781C52.6471 40.3888 52.6511 40.3932 52.6604 40.4064C52.6728 40.424 52.7197 40.4961 52.7706 40.664L56.5987 39.504ZM54.8947 37.08L57.1886 33.8031C55.5757 32.674 53.7253 32.24 51.8947 32.24V36.24V40.24C52.1855 40.24 52.3668 40.274 52.4662 40.3019C52.5593 40.3279 52.5935 40.3518 52.6009 40.3569L54.8947 37.08ZM51.8947 36.24V32.24C50.0003 32.24 48.1603 32.7113 46.5249 33.7729L48.7027 37.128L50.8806 40.4831C51.0692 40.3607 51.3572 40.24 51.8947 40.24V36.24ZM48.7027 37.128L46.5397 33.7633C44.921 34.8039 43.7492 36.2667 42.9751 37.9648L46.6147 39.624L50.2544 41.2832C50.4723 40.8053 50.6925 40.6041 50.8658 40.4927L48.7027 37.128ZM46.6147 39.624L42.9751 37.9648C42.1934 39.6796 41.8707 41.5486 41.8707 43.464H45.8707H49.8707C49.8707 42.4354 50.0441 41.7444 50.2544 41.2832L46.6147 39.624ZM45.8707 43.464H41.8707C41.8707 46.3028 42.5257 49.0742 44.3263 51.2904L47.4307 48.768L50.5352 46.2456C50.2558 45.9018 49.8707 45.1372 49.8707 43.464H45.8707ZM47.4307 48.768L44.3263 51.2904C46.2344 53.6388 48.9056 54.688 51.7987 54.688V50.688V46.688C50.9479 46.688 50.7071 46.4572 50.5352 46.2456L47.4307 48.768ZM51.7987 50.688V54.688C54.3245 54.688 56.8529 53.9536 58.7524 51.9575L55.8547 49.2L52.9571 46.4425C52.9303 46.4707 52.8851 46.513 52.7551 46.5607C52.6061 46.6154 52.3097 46.688 51.7987 46.688V50.688ZM55.8547 49.2L58.7524 51.9575C60.659 49.9539 61.2582 47.3892 61.0944 44.8613L57.1027 45.12L53.1111 45.3787C53.1425 45.8621 53.0893 46.1366 53.0497 46.266C53.0161 46.3756 52.9842 46.4141 52.9571 46.4425L55.8547 49.2ZM57.1027 45.12V41.12H50.5987V45.12V49.12H57.1027V45.12ZM50.5987 45.12H54.5987V42.72H50.5987H46.5987V45.12H50.5987ZM50.5987 42.72V46.72H60.1267V42.72V38.72H50.5987V42.72ZM60.1267 42.72H56.1267V44.904H60.1267H64.1267V42.72H60.1267ZM60.1267 44.904H56.1267C56.1267 46.1137 55.8933 46.921 55.5969 47.4716L59.1187 49.368L62.6406 51.2644C63.6882 49.319 64.1267 47.1503 64.1267 44.904H60.1267ZM59.1187 49.368L55.5881 47.488C55.3134 48.0039 54.9468 48.3728 54.4016 48.6593L56.2627 52.2L58.1239 55.7407C60.0747 54.7152 61.6121 53.1961 62.6494 51.248L59.1187 49.368ZM56.2627 52.2L54.4016 48.6593C53.8431 48.953 53.0227 49.184 51.7987 49.184V53.184V57.184C54.0308 57.184 56.1864 56.759 58.1239 55.7407L56.2627 52.2ZM75.8559 33.144H79.8559C79.8559 30.9349 78.0651 29.144 75.8559 29.144V33.144ZM75.8559 37.464H71.8559C71.8559 39.6731 73.6468 41.464 75.8559 41.464V37.464ZM78.0639 37.464V41.464C80.2731 41.464 82.0639 39.6731 82.0639 37.464H78.0639ZM78.0639 33.144V29.144C75.8548 29.144 74.0639 30.9349 74.0639 33.144H78.0639ZM80.7279 33.144H84.7279C84.7279 30.9349 82.9371 29.144 80.7279 29.144V33.144ZM80.7279 48.216V52.216C82.9371 52.216 84.7279 50.4251 84.7279 48.216H80.7279ZM78.0639 48.216H74.0639C74.0639 50.4251 75.8548 52.216 78.0639 52.216V48.216ZM78.0639 39.864H82.0639C82.0639 37.6549 80.2731 35.864 78.0639 35.864V39.864ZM75.8559 39.864V35.864C73.6468 35.864 71.8559 37.6549 71.8559 39.864H75.8559ZM75.8559 48.216V52.216C78.0651 52.216 79.8559 50.4251 79.8559 48.216H75.8559ZM73.1919 48.216H69.1919C69.1919 50.4251 70.9828 52.216 73.1919 52.216V48.216ZM73.1919 33.144V29.144C70.9828 29.144 69.1919 30.9349 69.1919 33.144H73.1919ZM62.4639 33.744V29.744C60.2548 29.744 58.4639 31.5349 58.4639 33.744H62.4639ZM71.0079 33.744H75.0079C75.0079 31.5349 73.2171 29.744 71.0079 29.744V33.744ZM71.0079 40.68V44.68C73.2171 44.68 75.0079 42.8891 75.0079 40.68H71.0079ZM65.3679 40.68V36.68C63.1588 36.68 61.3679 38.4709 61.3679 40.68H65.3679ZM65.3679 42.864H61.3679C61.3679 45.0731 63.1588 46.864 65.3679 46.864V42.864ZM71.7279 42.864H75.7279C75.7279 40.6549 73.9371 38.864 71.7279 38.864V42.864ZM71.7279 45.24V49.24C73.9371 49.24 75.7279 47.4491 75.7279 45.24H71.7279ZM62.7039 45.24H58.7039C58.7039 47.4491 60.4948 49.24 62.7039 49.24V45.24ZM62.7039 38.304V34.304C60.4948 34.304 58.7039 36.0949 58.7039 38.304H62.7039ZM68.3439 38.304V42.304C70.5531 42.304 72.3439 40.5131 72.3439 38.304H68.3439ZM68.3439 36.12H72.3439C72.3439 33.9109 70.5531 32.12 68.3439 32.12V36.12ZM62.4639 36.12H58.4639C58.4639 38.3291 60.2548 40.12 62.4639 40.12V36.12ZM65.1279 47.112V43.112C62.9188 43.112 61.1279 44.9029 61.1279 47.112H65.1279ZM68.0559 47.112H72.0559C72.0559 44.9029 70.2651 43.112 68.0559 43.112V47.112ZM68.0559 51.936H64.0559C64.0559 54.1451 65.8468 55.936 68.0559 55.936V51.936ZM80.8239 51.936H84.8239C84.8239 49.7269 83.0331 47.936 80.8239 47.936V51.936ZM80.8239 54.288V58.288C83.0331 58.288 84.8239 56.4971 84.8239 54.288H80.8239ZM65.1279 54.288H61.1279C61.1279 56.4971 62.9188 58.288 65.1279 58.288V54.288ZM75.8559 33.144H71.8559V37.464H75.8559H79.8559V33.144H75.8559ZM75.8559 37.464V41.464H78.0639V37.464V33.464H75.8559V37.464ZM78.0639 37.464H82.0639V33.144H78.0639H74.0639V37.464H78.0639ZM78.0639 33.144V37.144H80.7279V33.144V29.144H78.0639V33.144ZM80.7279 33.144H76.7279V48.216H80.7279H84.7279V33.144H80.7279ZM80.7279 48.216V44.216H78.0639V48.216V52.216H80.7279V48.216ZM78.0639 48.216H82.0639V39.864H78.0639H74.0639V48.216H78.0639ZM78.0639 39.864V35.864H75.8559V39.864V43.864H78.0639V39.864ZM75.8559 39.864H71.8559V48.216H75.8559H79.8559V39.864H75.8559ZM75.8559 48.216V44.216H73.1919V48.216V52.216H75.8559V48.216ZM73.1919 48.216H77.1919V33.144H73.1919H69.1919V48.216H73.1919ZM73.1919 33.144V37.144H75.8559V33.144V29.144H73.1919V33.144ZM62.4639 33.744V37.744H71.0079V33.744V29.744H62.4639V33.744ZM71.0079 33.744H67.0079V40.68H71.0079H75.0079V33.744H71.0079ZM71.0079 40.68V36.68H65.3679V40.68V44.68H71.0079V40.68ZM65.3679 40.68H61.3679V42.864H65.3679H69.3679V40.68H65.3679ZM65.3679 42.864V46.864H71.7279V42.864V38.864H65.3679V42.864ZM71.7279 42.864H67.7279V45.24H71.7279H75.7279V42.864H71.7279ZM71.7279 45.24V41.24H62.7039V45.24V49.24H71.7279V45.24ZM62.7039 45.24H66.7039V38.304H62.7039H58.7039V45.24H62.7039ZM62.7039 38.304V42.304H68.3439V38.304V34.304H62.7039V38.304ZM68.3439 38.304H72.3439V36.12H68.3439H64.3439V38.304H68.3439ZM68.3439 36.12V32.12H62.4639V36.12V40.12H68.3439V36.12ZM62.4639 36.12H66.4639V33.744H62.4639H58.4639V36.12H62.4639ZM65.1279 47.112V51.112H68.0559V47.112V43.112H65.1279V47.112ZM68.0559 47.112H64.0559V51.936H68.0559H72.0559V47.112H68.0559ZM68.0559 51.936V55.936H80.8239V51.936V47.936H68.0559V51.936ZM80.8239 51.936H76.8239V54.288H80.8239H84.8239V51.936H80.8239ZM80.8239 54.288V50.288H65.1279V54.288V58.288H80.8239V54.288ZM65.1279 54.288H69.1279V47.112H65.1279H61.1279V54.288H65.1279ZM95.0139 34.104H99.0139C99.0139 31.8949 97.2231 30.104 95.0139 30.104V34.104ZM95.0139 36.504V40.504C97.2231 40.504 99.0139 38.7131 99.0139 36.504H95.0139ZM87.3819 36.504V32.504C85.1728 32.504 83.3819 34.2949 83.3819 36.504H87.3819ZM87.3819 48.24H83.3819C83.3819 50.4491 85.1728 52.24 87.3819 52.24V48.24ZM96.0939 48.24H100.094C100.094 46.0309 98.3031 44.24 96.0939 44.24V48.24ZM96.0939 50.64V54.64C98.3031 54.64 100.094 52.8491 100.094 50.64H96.0939ZM84.4539 50.64H80.4539C80.4539 52.8491 82.2448 54.64 84.4539 54.64V50.64ZM84.4539 34.104V30.104C82.2448 30.104 80.4539 31.8949 80.4539 34.104H84.4539ZM93.1419 40.584V36.584C90.9328 36.584 89.1419 38.3749 89.1419 40.584H93.1419ZM98.4699 40.584V44.584C100.679 44.584 102.47 42.7931 102.47 40.584H98.4699ZM98.4699 33.144V29.144C96.2608 29.144 94.4699 30.9349 94.4699 33.144H98.4699ZM101.398 33.144H105.398C105.398 30.9349 103.607 29.144 101.398 29.144V33.144ZM101.398 54.528V58.528C103.607 58.528 105.398 56.7371 105.398 54.528H101.398ZM98.4699 54.528H94.4699C94.4699 56.7371 96.2608 58.528 98.4699 58.528V54.528ZM98.4699 42.984H102.47C102.47 40.7749 100.679 38.984 98.4699 38.984V42.984ZM93.1419 42.984H89.1419C89.1419 45.1931 90.9328 46.984 93.1419 46.984V42.984ZM95.0139 34.104H91.0139V36.504H95.0139H99.0139V34.104H95.0139ZM95.0139 36.504V32.504H87.3819V36.504V40.504H95.0139V36.504ZM87.3819 36.504H83.3819V48.24H87.3819H91.3819V36.504H87.3819ZM87.3819 48.24V52.24H96.0939V48.24V44.24H87.3819V48.24ZM96.0939 48.24H92.0939V50.64H96.0939H100.094V48.24H96.0939ZM96.0939 50.64V46.64H84.4539V50.64V54.64H96.0939V50.64ZM84.4539 50.64H88.4539V34.104H84.4539H80.4539V50.64H84.4539ZM84.4539 34.104V38.104H95.0139V34.104V30.104H84.4539V34.104ZM93.1419 40.584V44.584H98.4699V40.584V36.584H93.1419V40.584ZM98.4699 40.584H102.47V33.144H98.4699H94.4699V40.584H98.4699ZM98.4699 33.144V37.144H101.398V33.144V29.144H98.4699V33.144ZM101.398 33.144H97.3979V54.528H101.398H105.398V33.144H101.398ZM101.398 54.528V50.528H98.4699V54.528V58.528H101.398V54.528ZM98.4699 54.528H102.47V42.984H98.4699H94.4699V54.528H98.4699ZM98.4699 42.984V38.984H93.1419V42.984V46.984H98.4699V42.984ZM93.1419 42.984H97.1419V40.584H93.1419H89.1419V42.984H93.1419ZM104.812 43.896L102.246 40.8279C101.411 41.5255 100.897 42.5327 100.822 43.6174C100.746 44.7022 101.115 45.771 101.844 46.5778L104.812 43.896ZM112.444 37.512L115.01 40.5801C115.919 39.8201 116.444 38.6965 116.444 37.512H112.444ZM112.444 33.744V29.744C110.235 29.744 108.444 31.5349 108.444 33.744H112.444ZM115.372 33.744H119.372C119.372 31.5349 117.581 29.744 115.372 29.744V33.744ZM115.372 37.512H111.372C111.372 38.6965 111.897 39.8201 112.806 40.5801L115.372 37.512ZM123.004 43.896L125.972 46.5778C126.701 45.771 127.07 44.7022 126.994 43.6174C126.918 42.5327 126.404 41.5255 125.57 40.8279L123.004 43.896ZM121.204 45.888L118.627 48.9476C120.276 50.3356 122.727 50.1685 124.172 48.5698L121.204 45.888ZM113.908 39.744L116.484 36.6844C114.996 35.4305 112.82 35.4305 111.331 36.6844L113.908 39.744ZM106.612 45.888L103.644 48.5698C105.089 50.1685 107.54 50.3356 109.188 48.9476L106.612 45.888ZM104.452 49.368V45.368C102.243 45.368 100.452 47.1589 100.452 49.368H104.452ZM123.364 49.368H127.364C127.364 47.1589 125.573 45.368 123.364 45.368V49.368ZM123.364 51.768V55.768C125.573 55.768 127.364 53.9771 127.364 51.768H123.364ZM104.452 51.768H100.452C100.452 53.9771 102.243 55.768 104.452 55.768V51.768ZM104.812 43.896L107.378 46.9641L115.01 40.5801L112.444 37.512L109.878 34.4439L102.246 40.8279L104.812 43.896ZM112.444 37.512H116.444V33.744H112.444H108.444V37.512H112.444ZM112.444 33.744V37.744H115.372V33.744V29.744H112.444V33.744ZM115.372 33.744H111.372V37.512H115.372H119.372V33.744H115.372ZM115.372 37.512L112.806 40.5801L120.438 46.9641L123.004 43.896L125.57 40.8279L117.938 34.4439L115.372 37.512ZM123.004 43.896L120.036 41.2142L118.236 43.2062L121.204 45.888L124.172 48.5698L125.972 46.5778L123.004 43.896ZM121.204 45.888L123.78 42.8284L116.484 36.6844L113.908 39.744L111.331 42.8036L118.627 48.9476L121.204 45.888ZM113.908 39.744L111.331 36.6844L104.035 42.8284L106.612 45.888L109.188 48.9476L116.484 42.8036L113.908 39.744ZM106.612 45.888L109.58 43.2062L107.78 41.2142L104.812 43.896L101.844 46.5778L103.644 48.5698L106.612 45.888ZM104.452 49.368V53.368H123.364V49.368V45.368H104.452V49.368ZM123.364 49.368H119.364V51.768H123.364H127.364V49.368H123.364ZM123.364 51.768V47.768H104.452V51.768V55.768H123.364V51.768ZM104.452 51.768H108.452V49.368H104.452H100.452V51.768H104.452ZM133.68 40.296L131.843 43.8494C131.849 43.8522 131.854 43.855 131.86 43.8577L133.68 40.296ZM133.68 34.008L131.86 30.4463C131.854 30.449 131.849 30.4518 131.843 30.4546L133.68 34.008ZM146.04 34.008L144.203 37.5614C144.209 37.5642 144.214 37.567 144.22 37.5697L146.04 34.008ZM146.04 40.296L144.22 36.7343C144.214 36.737 144.209 36.7398 144.203 36.7426L146.04 40.296ZM133.728 53.592L135.486 49.9988C135.48 49.9961 135.475 49.9935 135.469 49.9909L133.728 53.592ZM133.728 47.688L135.469 51.2891C135.475 51.2865 135.48 51.2839 135.486 51.2812L133.728 47.688ZM145.992 47.688L144.219 51.2736C144.235 51.2813 144.25 51.289 144.266 51.2965L145.992 47.688ZM145.992 53.592L144.266 49.9835C144.25 49.991 144.235 49.9987 144.219 50.0064L145.992 53.592ZM143.856 51.912L145.121 55.7067C145.127 55.7046 145.134 55.7024 145.14 55.7003L143.856 51.912ZM143.856 49.368L145.14 45.5797C145.134 45.5776 145.127 45.5754 145.121 45.5733L143.856 49.368ZM135.912 49.368L137.12 53.1814C137.146 53.1731 137.171 53.1647 137.197 53.1559L135.912 49.368ZM135.912 51.912L137.197 48.1241C137.171 48.1153 137.146 48.1069 137.12 48.0986L135.912 51.912ZM149.328 42.792H153.328C153.328 40.5829 151.537 38.792 149.328 38.792V42.792ZM149.328 45.096V49.096C151.537 49.096 153.328 47.3051 153.328 45.096H149.328ZM130.416 45.096H126.416C126.416 47.3051 128.207 49.096 130.416 49.096V45.096ZM130.416 42.792V38.792C128.207 38.792 126.416 40.5829 126.416 42.792H130.416ZM143.88 38.568L142.518 34.8069C142.484 34.8192 142.451 34.8319 142.417 34.845L143.88 38.568ZM143.88 35.712L145.299 31.972C145.28 31.9648 145.261 31.9578 145.242 31.9509L143.88 35.712ZM135.888 35.712L134.547 31.9436C134.509 31.9569 134.472 31.9708 134.435 31.9852L135.888 35.712ZM135.888 38.568L137.351 34.845C137.31 34.8292 137.27 34.8141 137.229 34.7996L135.888 38.568ZM139.872 41.4V37.4C137.448 37.4 136.121 37.0515 135.5 36.7343L133.68 40.296L131.86 43.8577C134.119 45.0125 136.92 45.4 139.872 45.4V41.4ZM133.68 40.296L135.517 36.7426C135.243 36.601 135.282 36.5559 135.387 36.7101C135.439 36.7867 135.484 36.8804 135.513 36.9793C135.542 37.0758 135.544 37.1398 135.544 37.152H131.544H127.544C127.544 38.5718 127.929 39.9694 128.769 41.2059C129.586 42.4081 130.693 43.255 131.843 43.8494L133.68 40.296ZM131.544 37.152H135.544C135.544 37.1642 135.542 37.2282 135.513 37.3247C135.484 37.4236 135.439 37.5173 135.387 37.5939C135.282 37.7481 135.243 37.703 135.517 37.5614L133.68 34.008L131.843 30.4546C130.693 31.049 129.586 31.8959 128.769 33.0981C127.929 34.3346 127.544 35.7322 127.544 37.152H131.544ZM133.68 34.008L135.5 37.5697C136.121 37.2525 137.448 36.904 139.872 36.904V32.904V28.904C136.92 28.904 134.119 29.2915 131.86 30.4463L133.68 34.008ZM139.872 32.904V36.904C142.3 36.904 143.609 37.254 144.203 37.5614L146.04 34.008L147.877 30.4546C145.623 29.29 142.82 28.904 139.872 28.904V32.904ZM146.04 34.008L144.22 37.5697C144.505 37.7154 144.469 37.7645 144.363 37.611C144.31 37.5342 144.263 37.4388 144.233 37.3364C144.203 37.2363 144.2 37.1683 144.2 37.152H148.2H152.2C152.2 35.7225 151.807 34.3188 150.957 33.081C150.131 31.8795 149.015 31.0366 147.86 30.4463L146.04 34.008ZM148.2 37.152H144.2C144.2 37.1357 144.203 37.0677 144.233 36.9676C144.263 36.8652 144.31 36.7698 144.363 36.693C144.469 36.5395 144.505 36.5886 144.22 36.7343L146.04 40.296L147.86 43.8577C149.015 43.2674 150.131 42.4245 150.957 41.223C151.807 39.9852 152.2 38.5815 152.2 37.152H148.2ZM146.04 40.296L144.203 36.7426C143.609 37.05 142.3 37.4 139.872 37.4V41.4V45.4C142.82 45.4 145.623 45.014 147.877 43.8494L146.04 40.296ZM139.872 54.672V50.672C137.531 50.672 136.178 50.3375 135.486 49.9988L133.728 53.592L131.97 57.1852C134.222 58.2865 136.965 58.672 139.872 58.672V54.672ZM133.728 53.592L135.469 49.9909C135.144 49.8337 135.181 49.778 135.306 49.947C135.372 50.0361 135.439 50.1578 135.486 50.3031C135.533 50.4471 135.544 50.5668 135.544 50.64H131.544H127.544C127.544 53.8914 129.611 56.0443 131.987 57.1931L133.728 53.592ZM131.544 50.64H135.544C135.544 50.7132 135.533 50.8329 135.486 50.9769C135.439 51.1222 135.372 51.2439 135.306 51.333C135.181 51.502 135.144 51.4463 135.469 51.2891L133.728 47.688L131.987 44.0869C129.611 45.2357 127.544 47.3886 127.544 50.64H131.544ZM133.728 47.688L135.486 51.2812C136.178 50.9425 137.531 50.608 139.872 50.608V46.608V42.608C136.965 42.608 134.222 42.9935 131.97 44.0948L133.728 47.688ZM139.872 46.608V50.608C142.217 50.608 143.552 50.9438 144.219 51.2736L145.992 47.688L147.765 44.1024C145.52 42.9922 142.775 42.608 139.872 42.608V46.608ZM145.992 47.688L144.266 51.2965C144.603 51.4575 144.57 51.5171 144.445 51.3498C144.378 51.2609 144.309 51.1378 144.261 50.9891C144.212 50.8416 144.2 50.7177 144.2 50.64H148.2H152.2C152.2 47.3646 150.097 45.2174 147.718 44.0795L145.992 47.688ZM148.2 50.64H144.2C144.2 50.5623 144.212 50.4384 144.261 50.2909C144.309 50.1422 144.378 50.0191 144.445 49.9302C144.57 49.7629 144.603 49.8225 144.266 49.9835L145.992 53.592L147.718 57.2005C150.097 56.0626 152.2 53.9154 152.2 50.64H148.2ZM145.992 53.592L144.219 50.0064C143.552 50.3362 142.217 50.672 139.872 50.672V54.672V58.672C142.775 58.672 145.52 58.2878 147.765 57.1776L145.992 53.592ZM139.872 52.368V56.368C141.756 56.368 143.595 56.2152 145.121 55.7067L143.856 51.912L142.591 48.1173C142.293 48.2168 141.476 48.368 139.872 48.368V52.368ZM143.856 51.912L145.14 55.7003C145.864 55.4548 146.788 55.0512 147.591 54.3297C148.486 53.5256 149.272 52.2667 149.272 50.64H145.272H141.272C141.272 50.1516 141.387 49.6694 141.6 49.2397C141.805 48.8262 142.058 48.5464 142.245 48.3783C142.576 48.0808 142.792 48.0492 142.572 48.1237L143.856 51.912ZM145.272 50.64H149.272C149.272 49.0133 148.486 47.7544 147.591 46.9503C146.788 46.2288 145.864 45.8252 145.14 45.5797L143.856 49.368L142.572 53.1563C142.792 53.2308 142.576 53.1992 142.245 52.9017C142.058 52.7336 141.805 52.4538 141.6 52.0403C141.387 51.6106 141.272 51.1284 141.272 50.64H145.272ZM143.856 49.368L145.121 45.5733C143.595 45.0648 141.756 44.912 139.872 44.912V48.912V52.912C141.476 52.912 142.293 53.0632 142.591 53.1627L143.856 49.368ZM139.872 48.912V44.912C137.994 44.912 136.15 45.0633 134.627 45.5801L135.912 49.368L137.197 53.1559C137.466 53.0647 138.262 52.912 139.872 52.912V48.912ZM135.912 49.368L134.704 45.5546C133.964 45.7891 133.013 46.184 132.184 46.9161C131.252 47.7395 130.472 49.0152 130.472 50.64H134.472H138.472C138.472 51.116 138.361 51.5962 138.146 52.0315C137.937 52.4517 137.677 52.7376 137.48 52.9119C137.131 53.22 136.9 53.2509 137.12 53.1814L135.912 49.368ZM134.472 50.64H130.472C130.472 52.2648 131.252 53.5405 132.184 54.3639C133.013 55.096 133.964 55.4909 134.704 55.7254L135.912 51.912L137.12 48.0986C136.9 48.0291 137.131 48.06 137.48 48.3681C137.677 48.5424 137.937 48.8283 138.146 49.2485C138.361 49.6838 138.472 50.164 138.472 50.64H134.472ZM135.912 51.912L134.627 55.6999C136.15 56.2167 137.994 56.368 139.872 56.368V52.368V48.368C138.262 48.368 137.466 48.2153 137.197 48.1241L135.912 51.912ZM149.328 42.792H145.328V45.096H149.328H153.328V42.792H149.328ZM149.328 45.096V41.096H130.416V45.096V49.096H149.328V45.096ZM130.416 45.096H134.416V42.792H130.416H126.416V45.096H130.416ZM130.416 42.792V46.792H149.328V42.792V38.792H130.416V42.792ZM139.872 39.096V43.096C141.799 43.096 143.739 42.921 145.343 42.291L143.88 38.568L142.417 34.845C142.229 34.919 141.497 35.096 139.872 35.096V39.096ZM143.88 38.568L145.242 42.3291C146.627 41.8274 149.272 40.3887 149.272 37.152H145.272H141.272C141.272 36.7802 141.346 36.3847 141.51 36.0035C141.671 35.6288 141.883 35.3493 142.072 35.1578C142.413 34.8102 142.673 34.751 142.518 34.8069L143.88 38.568ZM145.272 37.152H149.272C149.272 33.9485 146.671 32.4926 145.299 31.972L143.88 35.712L142.461 39.452C142.62 39.5122 142.375 39.4543 142.048 39.1161C141.868 38.9298 141.662 38.6565 141.506 38.2891C141.346 37.915 141.272 37.5238 141.272 37.152H145.272ZM143.88 35.712L145.242 31.9509C143.664 31.3797 141.781 31.208 139.872 31.208V35.208V39.208C141.451 39.208 142.24 39.3723 142.518 39.4731L143.88 35.712ZM139.872 35.208V31.208C137.979 31.208 136.121 31.3831 134.547 31.9436L135.888 35.712L137.229 39.4804C137.543 39.3689 138.341 39.208 139.872 39.208V35.208ZM135.888 35.712L134.435 31.9852C133.156 32.4838 130.472 33.9196 130.472 37.152H134.472H138.472C138.472 37.5528 138.388 37.9613 138.221 38.3409C138.058 38.7111 137.85 38.9782 137.678 39.1526C137.37 39.4663 137.154 39.5118 137.341 39.4388L135.888 35.712ZM134.472 37.152H130.472C130.472 40.4277 133.182 41.8507 134.547 42.3364L135.888 38.568L137.229 34.7996C137.061 34.7397 137.314 34.7928 137.654 35.1336C137.843 35.3221 138.06 35.6015 138.226 35.9806C138.395 36.367 138.472 36.7706 138.472 37.152H134.472ZM135.888 38.568L134.425 42.291C136.026 42.9199 137.956 43.096 139.872 43.096V39.096V35.096C138.268 35.096 137.542 34.9201 137.351 34.845L135.888 38.568ZM163.854 39.192V35.192C162.276 35.192 160.845 36.1201 160.201 37.5614L163.854 39.192ZM161.718 41.328L163.507 44.9057C163.522 44.8983 163.536 44.8908 163.551 44.8832L161.718 41.328ZM154.758 41.496L153.175 45.1693C153.182 45.1726 153.19 45.1758 153.197 45.179L154.758 41.496ZM152.622 39.864L149.377 42.2032L152.622 39.864ZM152.622 35.208L149.377 32.8688V32.8688L152.622 35.208ZM154.758 33.576L153.197 29.893C153.19 29.8962 153.182 29.8994 153.175 29.9027L154.758 33.576ZM162.222 34.056L160.037 37.4064C160.056 37.4186 160.074 37.4307 160.093 37.4425L162.222 34.056ZM164.166 36.888L160.209 37.4761C160.501 39.4366 162.184 40.888 164.166 40.888V36.888ZM166.854 36.888V40.888C169.063 40.888 170.854 39.0971 170.854 36.888H166.854ZM166.854 33.144V29.144C164.645 29.144 162.854 30.9349 162.854 33.144H166.854ZM169.782 33.144H173.782C173.782 30.9349 171.991 29.144 169.782 29.144V33.144ZM169.782 49.056V53.056C171.991 53.056 173.782 51.2651 173.782 49.056H169.782ZM166.854 49.056H162.854C162.854 51.2651 164.645 53.056 166.854 53.056V49.056ZM166.854 39.192H170.854C170.854 36.9829 169.063 35.192 166.854 35.192V39.192ZM156.606 48.36V52.36C158.815 52.36 160.606 50.5691 160.606 48.36H156.606ZM156.606 45.456H160.606C160.606 43.2469 158.815 41.456 156.606 41.456V45.456ZM151.086 45.456H147.086C147.086 47.6651 148.877 49.456 151.086 49.456V45.456ZM151.086 43.2V39.2C148.877 39.2 147.086 40.9909 147.086 43.2H151.086ZM165.606 43.2H169.606C169.606 40.9909 167.815 39.2 165.606 39.2V43.2ZM165.606 45.456V49.456C167.815 49.456 169.606 47.6651 169.606 45.456H165.606ZM159.534 45.456V41.456C157.325 41.456 155.534 43.2469 155.534 45.456H159.534ZM159.534 48.864V52.864C161.743 52.864 163.534 51.0731 163.534 48.864H159.534ZM156.75 48.864V44.864C154.541 44.864 152.75 46.6549 152.75 48.864H156.75ZM156.75 51.936H152.75C152.75 54.1451 154.541 55.936 156.75 55.936V51.936ZM169.998 51.936H173.998C173.998 49.7269 172.207 47.936 169.998 47.936V51.936ZM169.998 54.288V58.288C172.207 58.288 173.998 56.4971 173.998 54.288H169.998ZM153.822 54.288H149.822C149.822 56.4971 151.613 58.288 153.822 58.288V54.288ZM153.822 48.36V44.36C151.613 44.36 149.822 46.1509 149.822 48.36H153.822ZM160.398 39.168L162.637 42.4824C162.658 42.4687 162.678 42.4548 162.698 42.4408L160.398 39.168ZM160.398 35.928L158.098 39.2008C158.118 39.2148 158.138 39.2287 158.159 39.2424L160.398 35.928ZM155.694 35.928L157.933 39.2424C157.954 39.2287 157.974 39.2148 157.994 39.2008L155.694 35.928ZM155.694 39.168L153.394 42.4408C153.414 42.4548 153.434 42.4687 153.455 42.4824L155.694 39.168ZM163.854 39.192L160.201 37.5614C160.201 37.5616 160.202 37.5605 160.203 37.5587C160.204 37.5569 160.205 37.5553 160.206 37.5544C160.207 37.5516 160.205 37.5566 160.192 37.5696C160.166 37.5947 160.082 37.6714 159.885 37.7728L161.718 41.328L163.551 44.8832C165.236 44.0146 166.674 42.6873 167.507 40.8226L163.854 39.192ZM161.718 41.328L159.929 37.7503C159.579 37.9252 158.997 38.096 158.046 38.096V42.096V46.096C159.943 46.096 161.809 45.7548 163.507 44.9057L161.718 41.328ZM158.046 42.096V38.096C157.221 38.096 156.674 37.9636 156.319 37.813L154.758 41.496L153.197 45.179C154.73 45.8284 156.375 46.096 158.046 46.096V42.096ZM154.758 41.496L156.341 37.8227C156.141 37.7362 156.021 37.6592 155.956 37.6096C155.895 37.5623 155.873 37.533 155.867 37.5248L152.622 39.864L149.377 42.2032C150.371 43.5815 151.71 44.5382 153.175 45.1693L154.758 41.496ZM152.622 39.864L155.867 37.5248C155.859 37.5144 155.859 37.5127 155.862 37.5193C155.864 37.5224 155.866 37.5266 155.868 37.5318C155.87 37.5371 155.872 37.5427 155.874 37.5483C155.876 37.554 155.877 37.5589 155.878 37.5629C155.879 37.5668 155.879 37.5691 155.88 37.5694C155.88 37.5704 155.878 37.5601 155.878 37.536H151.878H147.878C147.878 39.2229 148.38 40.8205 149.377 42.2032L152.622 39.864ZM151.878 37.536H155.878C155.878 37.5119 155.88 37.5016 155.88 37.5026C155.879 37.5029 155.879 37.5052 155.878 37.5091C155.877 37.5131 155.876 37.518 155.874 37.5237C155.872 37.5293 155.87 37.5349 155.868 37.5401C155.866 37.5454 155.864 37.5496 155.862 37.5527C155.859 37.5593 155.859 37.5576 155.867 37.5472L152.622 35.208L149.377 32.8688C148.38 34.2515 147.878 35.8491 147.878 37.536H151.878ZM152.622 35.208L155.867 37.5472C155.873 37.539 155.895 37.5097 155.956 37.4624C156.021 37.4128 156.141 37.3358 156.341 37.2493L154.758 33.576L153.175 29.9027C151.71 30.5338 150.371 31.4905 149.377 32.8688L152.622 35.208ZM154.758 33.576L156.319 37.259C156.674 37.1084 157.221 36.976 158.046 36.976V32.976V28.976C156.375 28.976 154.73 29.2436 153.197 29.893L154.758 33.576ZM158.046 32.976V36.976C159.162 36.976 159.74 37.2128 160.037 37.4064L162.222 34.056L164.407 30.7056C162.496 29.4592 160.29 28.976 158.046 28.976V32.976ZM162.222 34.056L160.093 37.4425C160.18 37.4967 160.226 37.5363 160.246 37.555C160.265 37.5727 160.262 37.5736 160.25 37.5557C160.237 37.5372 160.225 37.5133 160.215 37.4894C160.206 37.466 160.207 37.4587 160.209 37.4761L164.166 36.888L168.123 36.2999C167.756 33.831 166.342 31.9213 164.351 30.6695L162.222 34.056ZM164.166 36.888V40.888H166.854V36.888V32.888H164.166V36.888ZM166.854 36.888H170.854V33.144H166.854H162.854V36.888H166.854ZM166.854 33.144V37.144H169.782V33.144V29.144H166.854V33.144ZM169.782 33.144H165.782V49.056H169.782H173.782V33.144H169.782ZM169.782 49.056V45.056H166.854V49.056V53.056H169.782V49.056ZM166.854 49.056H170.854V39.192H166.854H162.854V49.056H166.854ZM166.854 39.192V35.192H163.854V39.192V43.192H166.854V39.192ZM156.606 48.36H160.606V45.456H156.606H152.606V48.36H156.606ZM156.606 45.456V41.456H151.086V45.456V49.456H156.606V45.456ZM151.086 45.456H155.086V43.2H151.086H147.086V45.456H151.086ZM151.086 43.2V47.2H165.606V43.2V39.2H151.086V43.2ZM165.606 43.2H161.606V45.456H165.606H169.606V43.2H165.606ZM165.606 45.456V41.456H159.534V45.456V49.456H165.606V45.456ZM159.534 45.456H155.534V48.864H159.534H163.534V45.456H159.534ZM159.534 48.864V44.864H156.75V48.864V52.864H159.534V48.864ZM156.75 48.864H152.75V51.936H156.75H160.75V48.864H156.75ZM156.75 51.936V55.936H169.998V51.936V47.936H156.75V51.936ZM169.998 51.936H165.998V54.288H169.998H173.998V51.936H169.998ZM169.998 54.288V50.288H153.822V54.288V58.288H169.998V54.288ZM153.822 54.288H157.822V48.36H153.822H149.822V54.288H153.822ZM153.822 48.36V52.36H156.606V48.36V44.36H153.822V48.36ZM158.046 39.768V43.768C159.536 43.768 161.182 43.4655 162.637 42.4824L160.398 39.168L158.159 35.8536C158.291 35.7642 158.382 35.741 158.377 35.7421C158.367 35.7448 158.267 35.768 158.046 35.768V39.768ZM160.398 39.168L162.698 42.4408C164.26 41.3433 165.286 39.6239 165.286 37.536H161.286H157.286C157.286 37.2624 157.352 36.9 157.55 36.5362C157.743 36.1831 157.975 35.9819 158.098 35.8952L160.398 39.168ZM161.286 37.536H165.286C165.286 35.4386 164.248 33.7016 162.637 32.6136L160.398 35.928L158.159 39.2424C158.018 39.1474 157.767 38.9347 157.562 38.5637C157.352 38.1832 157.286 37.8088 157.286 37.536H161.286ZM160.398 35.928L162.698 32.6552C161.233 31.6263 159.563 31.304 158.046 31.304V35.304V39.304C158.149 39.304 158.223 39.3095 158.273 39.3154C158.322 39.3212 158.343 39.3269 158.34 39.3262C158.337 39.3255 158.31 39.318 158.266 39.2979C158.221 39.2775 158.163 39.2462 158.098 39.2008L160.398 35.928ZM158.046 35.304V31.304C156.529 31.304 154.859 31.6263 153.394 32.6552L155.694 35.928L157.994 39.2008C157.929 39.2462 157.871 39.2775 157.826 39.2979C157.782 39.318 157.755 39.3255 157.752 39.3262C157.749 39.3269 157.77 39.3212 157.819 39.3154C157.869 39.3095 157.943 39.304 158.046 39.304V35.304ZM155.694 35.928L153.455 32.6136C151.844 33.7016 150.806 35.4386 150.806 37.536H154.806H158.806C158.806 37.8088 158.74 38.1832 158.53 38.5637C158.325 38.9347 158.074 39.1474 157.933 39.2424L155.694 35.928ZM154.806 37.536H150.806C150.806 39.6239 151.832 41.3433 153.394 42.4408L155.694 39.168L157.994 35.8952C158.117 35.9819 158.349 36.1831 158.542 36.5362C158.74 36.9 158.806 37.2624 158.806 37.536H154.806ZM155.694 39.168L153.455 42.4824C154.91 43.4655 156.556 43.768 158.046 43.768V39.768V35.768C157.825 35.768 157.725 35.7448 157.715 35.7421C157.71 35.741 157.801 35.7642 157.933 35.8536L155.694 39.168ZM184.548 33.624H188.548C188.548 31.4149 186.757 29.624 184.548 29.624V33.624ZM184.548 35.976V39.976C186.757 39.976 188.548 38.1851 188.548 35.976H184.548ZM176.436 35.976V31.976C174.227 31.976 172.436 33.7669 172.436 35.976H176.436ZM176.436 41.808H172.436C172.436 44.0171 174.227 45.808 176.436 45.808V41.808ZM185.028 41.808H189.028C189.028 39.5989 187.237 37.808 185.028 37.808V41.808ZM185.028 44.16V48.16C187.237 48.16 189.028 46.3691 189.028 44.16H185.028ZM173.508 44.16H169.508C169.508 46.3691 171.299 48.16 173.508 48.16V44.16ZM173.508 33.624V29.624C171.299 29.624 169.508 31.4149 169.508 33.624H173.508ZM175.212 46.632V42.632C173.003 42.632 171.212 44.4229 171.212 46.632H175.212ZM178.14 46.632H182.14C182.14 44.4229 180.349 42.632 178.14 42.632V46.632ZM178.14 51.936H174.14C174.14 54.1451 175.931 55.936 178.14 55.936V51.936ZM190.668 51.936H194.668C194.668 49.7269 192.877 47.936 190.668 47.936V51.936ZM190.668 54.288V58.288C192.877 58.288 194.668 56.4971 194.668 54.288H190.668ZM175.212 54.288H171.212C171.212 56.4971 173.003 58.288 175.212 58.288V54.288ZM187.404 33.144V29.144C185.195 29.144 183.404 30.9349 183.404 33.144H187.404ZM190.332 33.144H194.332C194.332 30.9349 192.541 29.144 190.332 29.144V33.144ZM190.332 37.704H186.332C186.332 39.9131 188.123 41.704 190.332 41.704V37.704ZM192.876 37.704H196.876C196.876 35.4949 195.085 33.704 192.876 33.704V37.704ZM192.876 40.104V44.104C195.085 44.104 196.876 42.3131 196.876 40.104H192.876ZM190.332 40.104V36.104C188.123 36.104 186.332 37.8949 186.332 40.104H190.332ZM190.332 48.36V52.36C192.541 52.36 194.332 50.5691 194.332 48.36H190.332ZM187.404 48.36H183.404C183.404 50.5691 185.195 52.36 187.404 52.36V48.36ZM184.548 33.624H180.548V35.976H184.548H188.548V33.624H184.548ZM184.548 35.976V31.976H176.436V35.976V39.976H184.548V35.976ZM176.436 35.976H172.436V41.808H176.436H180.436V35.976H176.436ZM176.436 41.808V45.808H185.028V41.808V37.808H176.436V41.808ZM185.028 41.808H181.028V44.16H185.028H189.028V41.808H185.028ZM185.028 44.16V40.16H173.508V44.16V48.16H185.028V44.16ZM173.508 44.16H177.508V33.624H173.508H169.508V44.16H173.508ZM173.508 33.624V37.624H184.548V33.624V29.624H173.508V33.624ZM175.212 46.632V50.632H178.14V46.632V42.632H175.212V46.632ZM178.14 46.632H174.14V51.936H178.14H182.14V46.632H178.14ZM178.14 51.936V55.936H190.668V51.936V47.936H178.14V51.936ZM190.668 51.936H186.668V54.288H190.668H194.668V51.936H190.668ZM190.668 54.288V50.288H175.212V54.288V58.288H190.668V54.288ZM175.212 54.288H179.212V46.632H175.212H171.212V54.288H175.212ZM187.404 33.144V37.144H190.332V33.144V29.144H187.404V33.144ZM190.332 33.144H186.332V37.704H190.332H194.332V33.144H190.332ZM190.332 37.704V41.704H192.876V37.704V33.704H190.332V37.704ZM192.876 37.704H188.876V40.104H192.876H196.876V37.704H192.876ZM192.876 40.104V36.104H190.332V40.104V44.104H192.876V40.104ZM190.332 40.104H186.332V48.36H190.332H194.332V40.104H190.332ZM190.332 48.36V44.36H187.404V48.36V52.36H190.332V48.36ZM187.404 48.36H191.404V33.144H187.404H183.404V48.36H187.404Z" fill="#2B2B2B" mask="url(#path-2-outside-1_1675_4885)"/>
<mask id="path-4-outside-2_1675_4885" maskUnits="userSpaceOnUse" x="198.5" y="3" width="108" height="52" fill="black">
<rect fill="white" x="198.5" y="3" width="108" height="52"/>
<path d="M225.856 7.288H233.872V21.304H235.84V7.288H243.856V50.2H235.84V29.032H233.872V50.2H225.856V7.288ZM203.008 36.088H210.592V35.656L205.84 34.312L204.928 16.312H203.008V8.584H224.368V16.312H222.352V36.088H224.368V43.816H203.008V36.088ZM213.184 36.088H215.392V16.312H212.032L213.184 36.088ZM269.797 7.288H277.813V21.304H279.781V7.288H287.797V50.2H279.781V29.032H277.813V50.2H269.797V7.288ZM248.245 8.104H256.261V18.376H259.765V8.104H267.781V43.816H258.421L256.741 38.872H256.261V43.816H248.245V8.104ZM259.765 36.088V25.912H256.261V36.088H259.765ZM297.514 45.784C296.17 45.784 295.034 45.32 294.106 44.392C293.178 43.496 292.714 42.392 292.714 41.08C292.714 39.768 293.178 38.664 294.106 37.768C295.034 36.872 296.17 36.424 297.514 36.424C298.826 36.424 299.93 36.872 300.826 37.768C301.722 38.664 302.17 39.768 302.17 41.08C302.17 42.392 301.722 43.496 300.826 44.392C299.93 45.32 298.826 45.784 297.514 45.784Z"/>
</mask>
<path d="M225.856 7.288H233.872V21.304H235.84V7.288H243.856V50.2H235.84V29.032H233.872V50.2H225.856V7.288ZM203.008 36.088H210.592V35.656L205.84 34.312L204.928 16.312H203.008V8.584H224.368V16.312H222.352V36.088H224.368V43.816H203.008V36.088ZM213.184 36.088H215.392V16.312H212.032L213.184 36.088ZM269.797 7.288H277.813V21.304H279.781V7.288H287.797V50.2H279.781V29.032H277.813V50.2H269.797V7.288ZM248.245 8.104H256.261V18.376H259.765V8.104H267.781V43.816H258.421L256.741 38.872H256.261V43.816H248.245V8.104ZM259.765 36.088V25.912H256.261V36.088H259.765ZM297.514 45.784C296.17 45.784 295.034 45.32 294.106 44.392C293.178 43.496 292.714 42.392 292.714 41.08C292.714 39.768 293.178 38.664 294.106 37.768C295.034 36.872 296.17 36.424 297.514 36.424C298.826 36.424 299.93 36.872 300.826 37.768C301.722 38.664 302.17 39.768 302.17 41.08C302.17 42.392 301.722 43.496 300.826 44.392C299.93 45.32 298.826 45.784 297.514 45.784Z" fill="white"/>
<path d="M225.856 7.288V3.288C223.647 3.288 221.856 5.07886 221.856 7.288H225.856ZM233.872 7.288H237.872C237.872 5.07886 236.081 3.288 233.872 3.288V7.288ZM233.872 21.304H229.872C229.872 23.5131 231.663 25.304 233.872 25.304V21.304ZM235.84 21.304V25.304C238.049 25.304 239.84 23.5131 239.84 21.304H235.84ZM235.84 7.288V3.288C233.631 3.288 231.84 5.07886 231.84 7.288H235.84ZM243.856 7.288H247.856C247.856 5.07886 246.065 3.288 243.856 3.288V7.288ZM243.856 50.2V54.2C246.065 54.2 247.856 52.4091 247.856 50.2H243.856ZM235.84 50.2H231.84C231.84 52.4091 233.631 54.2 235.84 54.2V50.2ZM235.84 29.032H239.84C239.84 26.8229 238.049 25.032 235.84 25.032V29.032ZM233.872 29.032V25.032C231.663 25.032 229.872 26.8229 229.872 29.032H233.872ZM233.872 50.2V54.2C236.081 54.2 237.872 52.4091 237.872 50.2H233.872ZM225.856 50.2H221.856C221.856 52.4091 223.647 54.2 225.856 54.2V50.2ZM203.008 36.088V32.088C200.799 32.088 199.008 33.8789 199.008 36.088H203.008ZM210.592 36.088V40.088C212.801 40.088 214.592 38.2971 214.592 36.088H210.592ZM210.592 35.656H214.592C214.592 33.8661 213.403 32.2941 211.681 31.807L210.592 35.656ZM205.84 34.312L201.845 34.5144C201.932 36.2273 203.101 37.6942 204.752 38.161L205.84 34.312ZM204.928 16.312L208.923 16.1096C208.815 13.9819 207.059 12.312 204.928 12.312V16.312ZM203.008 16.312H199.008C199.008 18.5211 200.799 20.312 203.008 20.312V16.312ZM203.008 8.584V4.584C200.799 4.584 199.008 6.37486 199.008 8.584H203.008ZM224.368 8.584H228.368C228.368 6.37486 226.577 4.584 224.368 4.584V8.584ZM224.368 16.312V20.312C226.577 20.312 228.368 18.5211 228.368 16.312H224.368ZM222.352 16.312V12.312C220.143 12.312 218.352 14.1029 218.352 16.312H222.352ZM222.352 36.088H218.352C218.352 38.2971 220.143 40.088 222.352 40.088V36.088ZM224.368 36.088H228.368C228.368 33.8789 226.577 32.088 224.368 32.088V36.088ZM224.368 43.816V47.816C226.577 47.816 228.368 46.0251 228.368 43.816H224.368ZM203.008 43.816H199.008C199.008 46.0251 200.799 47.816 203.008 47.816V43.816ZM213.184 36.088L209.191 36.3206C209.314 38.4358 211.066 40.088 213.184 40.088V36.088ZM215.392 36.088V40.088C217.601 40.088 219.392 38.2971 219.392 36.088H215.392ZM215.392 16.312H219.392C219.392 14.1029 217.601 12.312 215.392 12.312V16.312ZM212.032 16.312V12.312C210.931 12.312 209.879 12.766 209.123 13.567C208.367 14.3681 207.975 15.4452 208.039 16.5446L212.032 16.312ZM225.856 7.288V11.288H233.872V7.288V3.288H225.856V7.288ZM233.872 7.288H229.872V21.304H233.872H237.872V7.288H233.872ZM233.872 21.304V25.304H235.84V21.304V17.304H233.872V21.304ZM235.84 21.304H239.84V7.288H235.84H231.84V21.304H235.84ZM235.84 7.288V11.288H243.856V7.288V3.288H235.84V7.288ZM243.856 7.288H239.856V50.2H243.856H247.856V7.288H243.856ZM243.856 50.2V46.2H235.84V50.2V54.2H243.856V50.2ZM235.84 50.2H239.84V29.032H235.84H231.84V50.2H235.84ZM235.84 29.032V25.032H233.872V29.032V33.032H235.84V29.032ZM233.872 29.032H229.872V50.2H233.872H237.872V29.032H233.872ZM233.872 50.2V46.2H225.856V50.2V54.2H233.872V50.2ZM225.856 50.2H229.856V7.288H225.856H221.856V50.2H225.856ZM203.008 36.088V40.088H210.592V36.088V32.088H203.008V36.088ZM210.592 36.088H214.592V35.656H210.592H206.592V36.088H210.592ZM210.592 35.656L211.681 31.807L206.929 30.463L205.84 34.312L204.752 38.161L209.504 39.505L210.592 35.656ZM205.84 34.312L209.835 34.1096L208.923 16.1096L204.928 16.312L200.933 16.5144L201.845 34.5144L205.84 34.312ZM204.928 16.312V12.312H203.008V16.312V20.312H204.928V16.312ZM203.008 16.312H207.008V8.584H203.008H199.008V16.312H203.008ZM203.008 8.584V12.584H224.368V8.584V4.584H203.008V8.584ZM224.368 8.584H220.368V16.312H224.368H228.368V8.584H224.368ZM224.368 16.312V12.312H222.352V16.312V20.312H224.368V16.312ZM222.352 16.312H218.352V36.088H222.352H226.352V16.312H222.352ZM222.352 36.088V40.088H224.368V36.088V32.088H222.352V36.088ZM224.368 36.088H220.368V43.816H224.368H228.368V36.088H224.368ZM224.368 43.816V39.816H203.008V43.816V47.816H224.368V43.816ZM203.008 43.816H207.008V36.088H203.008H199.008V43.816H203.008ZM213.184 36.088V40.088H215.392V36.088V32.088H213.184V36.088ZM215.392 36.088H219.392V16.312H215.392H211.392V36.088H215.392ZM215.392 16.312V12.312H212.032V16.312V20.312H215.392V16.312ZM212.032 16.312L208.039 16.5446L209.191 36.3206L213.184 36.088L217.178 35.8554L216.026 16.0794L212.032 16.312ZM269.797 7.288V3.288C267.588 3.288 265.797 5.07886 265.797 7.288H269.797ZM277.813 7.288H281.813C281.813 5.07886 280.022 3.288 277.813 3.288V7.288ZM277.813 21.304H273.813C273.813 23.5131 275.604 25.304 277.813 25.304V21.304ZM279.781 21.304V25.304C281.99 25.304 283.781 23.5131 283.781 21.304H279.781ZM279.781 7.288V3.288C277.572 3.288 275.781 5.07886 275.781 7.288H279.781ZM287.797 7.288H291.797C291.797 5.07886 290.006 3.288 287.797 3.288V7.288ZM287.797 50.2V54.2C290.006 54.2 291.797 52.4091 291.797 50.2H287.797ZM279.781 50.2H275.781C275.781 52.4091 277.572 54.2 279.781 54.2V50.2ZM279.781 29.032H283.781C283.781 26.8229 281.99 25.032 279.781 25.032V29.032ZM277.813 29.032V25.032C275.604 25.032 273.813 26.8229 273.813 29.032H277.813ZM277.813 50.2V54.2C280.022 54.2 281.813 52.4091 281.813 50.2H277.813ZM269.797 50.2H265.797C265.797 52.4091 267.588 54.2 269.797 54.2V50.2ZM248.245 8.104V4.104C246.036 4.104 244.245 5.89486 244.245 8.104H248.245ZM256.261 8.104H260.261C260.261 5.89486 258.47 4.104 256.261 4.104V8.104ZM256.261 18.376H252.261C252.261 20.5851 254.052 22.376 256.261 22.376V18.376ZM259.765 18.376V22.376C261.974 22.376 263.765 20.5851 263.765 18.376H259.765ZM259.765 8.104V4.104C257.556 4.104 255.765 5.89486 255.765 8.104H259.765ZM267.781 8.104H271.781C271.781 5.89486 269.99 4.104 267.781 4.104V8.104ZM267.781 43.816V47.816C269.99 47.816 271.781 46.0251 271.781 43.816H267.781ZM258.421 43.816L254.634 45.103C255.185 46.725 256.708 47.816 258.421 47.816V43.816ZM256.741 38.872L260.528 37.585C259.977 35.963 258.454 34.872 256.741 34.872V38.872ZM256.261 38.872V34.872C254.052 34.872 252.261 36.6629 252.261 38.872H256.261ZM256.261 43.816V47.816C258.47 47.816 260.261 46.0251 260.261 43.816H256.261ZM248.245 43.816H244.245C244.245 46.0251 246.036 47.816 248.245 47.816V43.816ZM259.765 36.088V40.088C261.974 40.088 263.765 38.2971 263.765 36.088H259.765ZM259.765 25.912H263.765C263.765 23.7029 261.974 21.912 259.765 21.912V25.912ZM256.261 25.912V21.912C254.052 21.912 252.261 23.7029 252.261 25.912H256.261ZM256.261 36.088H252.261C252.261 38.2971 254.052 40.088 256.261 40.088V36.088ZM269.797 7.288V11.288H277.813V7.288V3.288H269.797V7.288ZM277.813 7.288H273.813V21.304H277.813H281.813V7.288H277.813ZM277.813 21.304V25.304H279.781V21.304V17.304H277.813V21.304ZM279.781 21.304H283.781V7.288H279.781H275.781V21.304H279.781ZM279.781 7.288V11.288H287.797V7.288V3.288H279.781V7.288ZM287.797 7.288H283.797V50.2H287.797H291.797V7.288H287.797ZM287.797 50.2V46.2H279.781V50.2V54.2H287.797V50.2ZM279.781 50.2H283.781V29.032H279.781H275.781V50.2H279.781ZM279.781 29.032V25.032H277.813V29.032V33.032H279.781V29.032ZM277.813 29.032H273.813V50.2H277.813H281.813V29.032H277.813ZM277.813 50.2V46.2H269.797V50.2V54.2H277.813V50.2ZM269.797 50.2H273.797V7.288H269.797H265.797V50.2H269.797ZM248.245 8.104V12.104H256.261V8.104V4.104H248.245V8.104ZM256.261 8.104H252.261V18.376H256.261H260.261V8.104H256.261ZM256.261 18.376V22.376H259.765V18.376V14.376H256.261V18.376ZM259.765 18.376H263.765V8.104H259.765H255.765V18.376H259.765ZM259.765 8.104V12.104H267.781V8.104V4.104H259.765V8.104ZM267.781 8.104H263.781V43.816H267.781H271.781V8.104H267.781ZM267.781 43.816V39.816H258.421V43.816V47.816H267.781V43.816ZM258.421 43.816L262.208 42.529L260.528 37.585L256.741 38.872L252.954 40.159L254.634 45.103L258.421 43.816ZM256.741 38.872V34.872H256.261V38.872V42.872H256.741V38.872ZM256.261 38.872H252.261V43.816H256.261H260.261V38.872H256.261ZM256.261 43.816V39.816H248.245V43.816V47.816H256.261V43.816ZM248.245 43.816H252.245V8.104H248.245H244.245V43.816H248.245ZM259.765 36.088H263.765V25.912H259.765H255.765V36.088H259.765ZM259.765 25.912V21.912H256.261V25.912V29.912H259.765V25.912ZM256.261 25.912H252.261V36.088H256.261H260.261V25.912H256.261ZM256.261 36.088V40.088H259.765V36.088V32.088H256.261V36.088ZM294.106 44.392L296.934 41.5636C296.917 41.547 296.901 41.5306 296.884 41.5144L294.106 44.392ZM300.826 44.392L297.997 41.5636C297.981 41.5801 297.964 41.5968 297.948 41.6136L300.826 44.392ZM297.514 45.784V41.784C297.202 41.784 297.092 41.7214 296.934 41.5636L294.106 44.392L291.277 47.2204C292.975 48.9186 295.137 49.784 297.514 49.784V45.784ZM294.106 44.392L296.884 41.5144C296.779 41.4134 296.755 41.357 296.749 41.3422C296.742 41.3259 296.714 41.2549 296.714 41.08H292.714H288.714C288.714 43.4563 289.604 45.6054 291.327 47.2696L294.106 44.392ZM292.714 41.08H296.714C296.714 40.9051 296.742 40.8341 296.749 40.8178C296.755 40.803 296.779 40.7466 296.884 40.6456L294.106 37.768L291.327 34.8904C289.604 36.5546 288.714 38.7037 288.714 41.08H292.714ZM294.106 37.768L296.884 40.6456C297.032 40.5024 297.158 40.424 297.514 40.424V36.424V32.424C295.181 32.424 293.035 33.2416 291.327 34.8904L294.106 37.768ZM297.514 36.424V40.424C297.706 40.424 297.793 40.4551 297.821 40.4664C297.847 40.4767 297.903 40.5023 297.997 40.5964L300.826 37.768L303.654 34.9396C301.979 33.2643 299.844 32.424 297.514 32.424V36.424ZM300.826 37.768L297.997 40.5964C298.091 40.6905 298.117 40.7468 298.127 40.7721C298.139 40.8001 298.17 40.8873 298.17 41.08H302.17H306.17C306.17 38.7491 305.329 36.6149 303.654 34.9396L300.826 37.768ZM302.17 41.08H298.17C298.17 41.2727 298.139 41.3599 298.127 41.3879C298.117 41.4132 298.091 41.4695 297.997 41.5636L300.826 44.392L303.654 47.2204C305.329 45.5451 306.17 43.4109 306.17 41.08H302.17ZM300.826 44.392L297.948 41.6136C297.847 41.7182 297.791 41.7422 297.776 41.7485C297.759 41.7553 297.688 41.784 297.514 41.784V45.784V49.784C299.89 49.784 302.039 48.894 303.703 47.1704L300.826 44.392Z" fill="#2B2B2B" mask="url(#path-4-outside-2_1675_4885)"/>
</g>
<defs>
<filter id="filter0_d_1675_4885" x="0.5" y="0" width="317" height="66.6719" filterUnits="userSpaceOnUse" color-interpolation-filters="sRGB">
<feFlood flood-opacity="0" result="BackgroundImageFix"/>
<feColorMatrix in="SourceAlpha" type="matrix" values="0 0 0 0 0 0 0 0 0 0 0 0 0 0 0 0 0 0 127 0" result="hardAlpha"/>
<feOffset dy="4"/>
<feGaussianBlur stdDeviation="2"/>
<feComposite in2="hardAlpha" operator="out"/>
<feColorMatrix type="matrix" values="0 0 0 0 0 0 0 0 0 0 0 0 0 0 0 0 0 0 0.25 0"/>
<feBlend mode="normal" in2="BackgroundImageFix" result="effect1_dropShadow_1675_4885"/>
<feBlend mode="normal" in="SourceGraphic" in2="effect1_dropShadow_1675_4885" result="shape"/>
</filter>
</defs>
</svg>
