<svg width="317" height="67" viewBox="0 0 317 67" fill="none" xmlns="http://www.w3.org/2000/svg">
<g filter="url(#filter0_d_1675_4806)">
<path d="M4 38H313V54C313 56.2091 311.209 58 309 58H8C5.79086 58 4 56.2091 4 54V38Z" fill="#2B2B2B"/>
<mask id="path-2-outside-1_1675_4806" maskUnits="userSpaceOnUse" x="7" y="28" width="190" height="31" fill="black">
<rect fill="white" x="7" y="28" width="190" height="31"/>
<path d="M18.73 53.184C17.242 53.184 15.922 52.952 14.77 52.488C13.618 52.024 12.722 51.376 12.082 50.544C11.442 49.712 11.138 48.76 11.17 47.688H14.194L14.17 47.952C14.17 48.448 14.378 48.912 14.794 49.344C15.21 49.776 15.778 50.128 16.498 50.4C17.234 50.656 18.058 50.784 18.97 50.784C20.138 50.784 21.058 50.528 21.73 50.016C22.418 49.504 22.762 48.8 22.762 47.904C22.762 47.072 22.426 46.4 21.754 45.888C21.082 45.36 19.938 44.832 18.322 44.304C16.818 43.84 15.554 43.368 14.53 42.888C13.57 42.456 12.85 41.92 12.37 41.28C11.89 40.624 11.65 39.84 11.65 38.928C11.65 37.92 11.906 37.024 12.418 36.24C12.946 35.456 13.706 34.848 14.698 34.416C15.706 33.968 16.89 33.744 18.25 33.744C19.642 33.744 20.834 33.944 21.826 34.344C22.802 34.728 23.578 35.272 24.154 35.976C24.73 36.664 25.058 37.44 25.138 38.304H22.162C22.002 37.664 21.554 37.144 20.818 36.744C20.098 36.344 19.194 36.144 18.106 36.144C17.066 36.144 16.218 36.392 15.562 36.888C14.906 37.368 14.578 37.968 14.578 38.688C14.578 39.184 14.73 39.584 15.034 39.888C15.338 40.224 15.754 40.504 16.282 40.728C16.842 40.984 17.698 41.288 18.85 41.64C20.594 42.2 21.93 42.728 22.858 43.224C23.85 43.752 24.57 44.392 25.018 45.144C25.482 45.88 25.714 46.8 25.714 47.904C25.714 49.568 25.098 50.864 23.866 51.792C22.634 52.72 20.922 53.184 18.73 53.184ZM34.1144 53.184C32.6264 53.184 31.3064 52.952 30.1544 52.488C29.0024 52.024 28.1064 51.376 27.4664 50.544C26.8264 49.712 26.5224 48.76 26.5544 47.688H29.5784L29.5544 47.952C29.5544 48.448 29.7624 48.912 30.1784 49.344C30.5944 49.776 31.1624 50.128 31.8824 50.4C32.6184 50.656 33.4424 50.784 34.3544 50.784C35.5224 50.784 36.4424 50.528 37.1144 50.016C37.8024 49.504 38.1464 48.8 38.1464 47.904C38.1464 47.072 37.8104 46.4 37.1384 45.888C36.4664 45.36 35.3224 44.832 33.7064 44.304C32.2024 43.84 30.9384 43.368 29.9144 42.888C28.9544 42.456 28.2344 41.92 27.7544 41.28C27.2744 40.624 27.0344 39.84 27.0344 38.928C27.0344 37.92 27.2904 37.024 27.8024 36.24C28.3304 35.456 29.0904 34.848 30.0824 34.416C31.0904 33.968 32.2744 33.744 33.6344 33.744C35.0264 33.744 36.2184 33.944 37.2104 34.344C38.1864 34.728 38.9624 35.272 39.5384 35.976C40.1144 36.664 40.4424 37.44 40.5224 38.304H37.5464C37.3864 37.664 36.9384 37.144 36.2024 36.744C35.4824 36.344 34.5784 36.144 33.4904 36.144C32.4504 36.144 31.6024 36.392 30.9464 36.888C30.2904 37.368 29.9624 37.968 29.9624 38.688C29.9624 39.184 30.1144 39.584 30.4184 39.888C30.7224 40.224 31.1384 40.504 31.6664 40.728C32.2264 40.984 33.0824 41.288 34.2344 41.64C35.9784 42.2 37.3144 42.728 38.2424 43.224C39.2344 43.752 39.9544 44.392 40.4024 45.144C40.8664 45.88 41.0984 46.8 41.0984 47.904C41.0984 49.568 40.4824 50.864 39.2504 51.792C38.0184 52.72 36.3064 53.184 34.1144 53.184ZM51.2987 53.184C49.4427 53.184 47.8507 52.8 46.5227 52.032C45.1947 51.28 44.1787 50.192 43.4747 48.768C42.7707 47.344 42.4187 45.64 42.4187 43.656C42.4187 41.624 42.7867 39.872 43.5227 38.4C44.2587 36.912 45.2987 35.768 46.6427 34.968C48.0027 34.152 49.5947 33.744 51.4187 33.744C52.7467 33.744 53.9547 33.984 55.0427 34.464C56.1307 34.944 57.0267 35.624 57.7307 36.504C58.4347 37.368 58.8827 38.368 59.0747 39.504H56.0987C55.7787 38.448 55.2107 37.64 54.3947 37.08C53.5947 36.52 52.5947 36.24 51.3947 36.24C50.1787 36.24 49.1147 36.536 48.2027 37.128C47.3067 37.704 46.6107 38.536 46.1147 39.624C45.6187 40.712 45.3707 41.992 45.3707 43.464C45.3707 45.72 45.8907 47.488 46.9307 48.768C47.9707 50.048 49.4267 50.688 51.2987 50.688C53.0587 50.688 54.4107 50.192 55.3547 49.2C56.2987 48.208 56.7147 46.848 56.6027 45.12H50.0987V42.72H59.6267V44.904C59.6267 46.632 59.2907 48.12 58.6187 49.368C57.9627 50.6 57.0107 51.544 55.7627 52.2C54.5147 52.856 53.0267 53.184 51.2987 53.184ZM75.3559 33.144V37.464H77.5639V33.144H80.2279V48.216H77.5639V39.864H75.3559V48.216H72.6919V33.144H75.3559ZM61.9639 33.744H70.5079V40.68H64.8679V42.864H71.2279V45.24H62.2039V38.304H67.8439V36.12H61.9639V33.744ZM64.6279 47.112H67.5559V51.936H80.3239V54.288H64.6279V47.112ZM94.5139 34.104V36.504H86.8819V48.24H95.5939V50.64H83.9539V34.104H94.5139ZM92.6419 40.584H97.9699V33.144H100.898V54.528H97.9699V42.984H92.6419V40.584ZM104.312 43.896L111.944 37.512V33.744H114.872V37.512L122.504 43.896L120.704 45.888L113.408 39.744L106.112 45.888L104.312 43.896ZM103.952 49.368H122.864V51.768H103.952V49.368ZM139.372 41.4C136.684 41.4 134.62 41.032 133.18 40.296C131.756 39.56 131.044 38.512 131.044 37.152C131.044 35.792 131.756 34.744 133.18 34.008C134.62 33.272 136.684 32.904 139.372 32.904C142.06 32.904 144.116 33.272 145.54 34.008C146.98 34.744 147.7 35.792 147.7 37.152C147.7 38.512 146.98 39.56 145.54 40.296C144.116 41.032 142.06 41.4 139.372 41.4ZM139.372 54.672C136.748 54.672 134.7 54.312 133.228 53.592C131.772 52.888 131.044 51.904 131.044 50.64C131.044 49.376 131.772 48.392 133.228 47.688C134.7 46.968 136.748 46.608 139.372 46.608C141.996 46.608 144.036 46.968 145.492 47.688C146.964 48.392 147.7 49.376 147.7 50.64C147.7 51.904 146.964 52.888 145.492 53.592C144.036 54.312 141.996 54.672 139.372 54.672ZM139.372 52.368C141.116 52.368 142.444 52.216 143.356 51.912C144.3 51.592 144.772 51.168 144.772 50.64C144.772 50.112 144.3 49.688 143.356 49.368C142.444 49.064 141.116 48.912 139.372 48.912C137.628 48.912 136.308 49.064 135.412 49.368C134.452 49.672 133.972 50.096 133.972 50.64C133.972 51.184 134.452 51.608 135.412 51.912C136.308 52.216 137.628 52.368 139.372 52.368ZM148.828 42.792V45.096H129.916V42.792H148.828ZM139.372 39.096C141.148 39.096 142.484 38.92 143.38 38.568C144.308 38.232 144.772 37.76 144.772 37.152C144.772 36.544 144.308 36.064 143.38 35.712C142.452 35.376 141.116 35.208 139.372 35.208C137.66 35.208 136.332 35.376 135.388 35.712C134.444 36.08 133.972 36.56 133.972 37.152C133.972 37.76 134.444 38.232 135.388 38.568C136.284 38.92 137.612 39.096 139.372 39.096ZM163.354 39.192C162.954 40.088 162.242 40.8 161.218 41.328C160.194 41.84 158.97 42.096 157.546 42.096C156.298 42.096 155.202 41.896 154.258 41.496C153.33 41.096 152.618 40.552 152.122 39.864C151.626 39.176 151.378 38.4 151.378 37.536C151.378 36.672 151.626 35.896 152.122 35.208C152.618 34.52 153.33 33.976 154.258 33.576C155.202 33.176 156.298 32.976 157.546 32.976C159.226 32.976 160.618 33.336 161.722 34.056C162.842 34.76 163.49 35.704 163.666 36.888H166.354V33.144H169.282V49.056H166.354V39.192H163.354ZM156.106 48.36V45.456H150.586V43.2H165.106V45.456H159.034V48.864H156.25V51.936H169.498V54.288H153.322V48.36H156.106ZM157.546 39.768C158.522 39.768 159.306 39.568 159.898 39.168C160.49 38.752 160.786 38.208 160.786 37.536C160.786 36.864 160.49 36.328 159.898 35.928C159.306 35.512 158.522 35.304 157.546 35.304C156.57 35.304 155.786 35.512 155.194 35.928C154.602 36.328 154.306 36.864 154.306 37.536C154.306 38.208 154.602 38.752 155.194 39.168C155.786 39.568 156.57 39.768 157.546 39.768ZM184.048 33.624V35.976H175.936V41.808H184.528V44.16H173.008V33.624H184.048ZM174.712 46.632H177.64V51.936H190.168V54.288H174.712V46.632ZM186.904 33.144H189.832V37.704H192.376V40.104H189.832V48.36H186.904V33.144Z"/>
</mask>
<path d="M18.73 53.184C17.242 53.184 15.922 52.952 14.77 52.488C13.618 52.024 12.722 51.376 12.082 50.544C11.442 49.712 11.138 48.76 11.17 47.688H14.194L14.17 47.952C14.17 48.448 14.378 48.912 14.794 49.344C15.21 49.776 15.778 50.128 16.498 50.4C17.234 50.656 18.058 50.784 18.97 50.784C20.138 50.784 21.058 50.528 21.73 50.016C22.418 49.504 22.762 48.8 22.762 47.904C22.762 47.072 22.426 46.4 21.754 45.888C21.082 45.36 19.938 44.832 18.322 44.304C16.818 43.84 15.554 43.368 14.53 42.888C13.57 42.456 12.85 41.92 12.37 41.28C11.89 40.624 11.65 39.84 11.65 38.928C11.65 37.92 11.906 37.024 12.418 36.24C12.946 35.456 13.706 34.848 14.698 34.416C15.706 33.968 16.89 33.744 18.25 33.744C19.642 33.744 20.834 33.944 21.826 34.344C22.802 34.728 23.578 35.272 24.154 35.976C24.73 36.664 25.058 37.44 25.138 38.304H22.162C22.002 37.664 21.554 37.144 20.818 36.744C20.098 36.344 19.194 36.144 18.106 36.144C17.066 36.144 16.218 36.392 15.562 36.888C14.906 37.368 14.578 37.968 14.578 38.688C14.578 39.184 14.73 39.584 15.034 39.888C15.338 40.224 15.754 40.504 16.282 40.728C16.842 40.984 17.698 41.288 18.85 41.64C20.594 42.2 21.93 42.728 22.858 43.224C23.85 43.752 24.57 44.392 25.018 45.144C25.482 45.88 25.714 46.8 25.714 47.904C25.714 49.568 25.098 50.864 23.866 51.792C22.634 52.72 20.922 53.184 18.73 53.184ZM34.1144 53.184C32.6264 53.184 31.3064 52.952 30.1544 52.488C29.0024 52.024 28.1064 51.376 27.4664 50.544C26.8264 49.712 26.5224 48.76 26.5544 47.688H29.5784L29.5544 47.952C29.5544 48.448 29.7624 48.912 30.1784 49.344C30.5944 49.776 31.1624 50.128 31.8824 50.4C32.6184 50.656 33.4424 50.784 34.3544 50.784C35.5224 50.784 36.4424 50.528 37.1144 50.016C37.8024 49.504 38.1464 48.8 38.1464 47.904C38.1464 47.072 37.8104 46.4 37.1384 45.888C36.4664 45.36 35.3224 44.832 33.7064 44.304C32.2024 43.84 30.9384 43.368 29.9144 42.888C28.9544 42.456 28.2344 41.92 27.7544 41.28C27.2744 40.624 27.0344 39.84 27.0344 38.928C27.0344 37.92 27.2904 37.024 27.8024 36.24C28.3304 35.456 29.0904 34.848 30.0824 34.416C31.0904 33.968 32.2744 33.744 33.6344 33.744C35.0264 33.744 36.2184 33.944 37.2104 34.344C38.1864 34.728 38.9624 35.272 39.5384 35.976C40.1144 36.664 40.4424 37.44 40.5224 38.304H37.5464C37.3864 37.664 36.9384 37.144 36.2024 36.744C35.4824 36.344 34.5784 36.144 33.4904 36.144C32.4504 36.144 31.6024 36.392 30.9464 36.888C30.2904 37.368 29.9624 37.968 29.9624 38.688C29.9624 39.184 30.1144 39.584 30.4184 39.888C30.7224 40.224 31.1384 40.504 31.6664 40.728C32.2264 40.984 33.0824 41.288 34.2344 41.64C35.9784 42.2 37.3144 42.728 38.2424 43.224C39.2344 43.752 39.9544 44.392 40.4024 45.144C40.8664 45.88 41.0984 46.8 41.0984 47.904C41.0984 49.568 40.4824 50.864 39.2504 51.792C38.0184 52.72 36.3064 53.184 34.1144 53.184ZM51.2987 53.184C49.4427 53.184 47.8507 52.8 46.5227 52.032C45.1947 51.28 44.1787 50.192 43.4747 48.768C42.7707 47.344 42.4187 45.64 42.4187 43.656C42.4187 41.624 42.7867 39.872 43.5227 38.4C44.2587 36.912 45.2987 35.768 46.6427 34.968C48.0027 34.152 49.5947 33.744 51.4187 33.744C52.7467 33.744 53.9547 33.984 55.0427 34.464C56.1307 34.944 57.0267 35.624 57.7307 36.504C58.4347 37.368 58.8827 38.368 59.0747 39.504H56.0987C55.7787 38.448 55.2107 37.64 54.3947 37.08C53.5947 36.52 52.5947 36.24 51.3947 36.24C50.1787 36.24 49.1147 36.536 48.2027 37.128C47.3067 37.704 46.6107 38.536 46.1147 39.624C45.6187 40.712 45.3707 41.992 45.3707 43.464C45.3707 45.72 45.8907 47.488 46.9307 48.768C47.9707 50.048 49.4267 50.688 51.2987 50.688C53.0587 50.688 54.4107 50.192 55.3547 49.2C56.2987 48.208 56.7147 46.848 56.6027 45.12H50.0987V42.72H59.6267V44.904C59.6267 46.632 59.2907 48.12 58.6187 49.368C57.9627 50.6 57.0107 51.544 55.7627 52.2C54.5147 52.856 53.0267 53.184 51.2987 53.184ZM75.3559 33.144V37.464H77.5639V33.144H80.2279V48.216H77.5639V39.864H75.3559V48.216H72.6919V33.144H75.3559ZM61.9639 33.744H70.5079V40.68H64.8679V42.864H71.2279V45.24H62.2039V38.304H67.8439V36.12H61.9639V33.744ZM64.6279 47.112H67.5559V51.936H80.3239V54.288H64.6279V47.112ZM94.5139 34.104V36.504H86.8819V48.24H95.5939V50.64H83.9539V34.104H94.5139ZM92.6419 40.584H97.9699V33.144H100.898V54.528H97.9699V42.984H92.6419V40.584ZM104.312 43.896L111.944 37.512V33.744H114.872V37.512L122.504 43.896L120.704 45.888L113.408 39.744L106.112 45.888L104.312 43.896ZM103.952 49.368H122.864V51.768H103.952V49.368ZM139.372 41.4C136.684 41.4 134.62 41.032 133.18 40.296C131.756 39.56 131.044 38.512 131.044 37.152C131.044 35.792 131.756 34.744 133.18 34.008C134.62 33.272 136.684 32.904 139.372 32.904C142.06 32.904 144.116 33.272 145.54 34.008C146.98 34.744 147.7 35.792 147.7 37.152C147.7 38.512 146.98 39.56 145.54 40.296C144.116 41.032 142.06 41.4 139.372 41.4ZM139.372 54.672C136.748 54.672 134.7 54.312 133.228 53.592C131.772 52.888 131.044 51.904 131.044 50.64C131.044 49.376 131.772 48.392 133.228 47.688C134.7 46.968 136.748 46.608 139.372 46.608C141.996 46.608 144.036 46.968 145.492 47.688C146.964 48.392 147.7 49.376 147.7 50.64C147.7 51.904 146.964 52.888 145.492 53.592C144.036 54.312 141.996 54.672 139.372 54.672ZM139.372 52.368C141.116 52.368 142.444 52.216 143.356 51.912C144.3 51.592 144.772 51.168 144.772 50.64C144.772 50.112 144.3 49.688 143.356 49.368C142.444 49.064 141.116 48.912 139.372 48.912C137.628 48.912 136.308 49.064 135.412 49.368C134.452 49.672 133.972 50.096 133.972 50.64C133.972 51.184 134.452 51.608 135.412 51.912C136.308 52.216 137.628 52.368 139.372 52.368ZM148.828 42.792V45.096H129.916V42.792H148.828ZM139.372 39.096C141.148 39.096 142.484 38.92 143.38 38.568C144.308 38.232 144.772 37.76 144.772 37.152C144.772 36.544 144.308 36.064 143.38 35.712C142.452 35.376 141.116 35.208 139.372 35.208C137.66 35.208 136.332 35.376 135.388 35.712C134.444 36.08 133.972 36.56 133.972 37.152C133.972 37.76 134.444 38.232 135.388 38.568C136.284 38.92 137.612 39.096 139.372 39.096ZM163.354 39.192C162.954 40.088 162.242 40.8 161.218 41.328C160.194 41.84 158.97 42.096 157.546 42.096C156.298 42.096 155.202 41.896 154.258 41.496C153.33 41.096 152.618 40.552 152.122 39.864C151.626 39.176 151.378 38.4 151.378 37.536C151.378 36.672 151.626 35.896 152.122 35.208C152.618 34.52 153.33 33.976 154.258 33.576C155.202 33.176 156.298 32.976 157.546 32.976C159.226 32.976 160.618 33.336 161.722 34.056C162.842 34.76 163.49 35.704 163.666 36.888H166.354V33.144H169.282V49.056H166.354V39.192H163.354ZM156.106 48.36V45.456H150.586V43.2H165.106V45.456H159.034V48.864H156.25V51.936H169.498V54.288H153.322V48.36H156.106ZM157.546 39.768C158.522 39.768 159.306 39.568 159.898 39.168C160.49 38.752 160.786 38.208 160.786 37.536C160.786 36.864 160.49 36.328 159.898 35.928C159.306 35.512 158.522 35.304 157.546 35.304C156.57 35.304 155.786 35.512 155.194 35.928C154.602 36.328 154.306 36.864 154.306 37.536C154.306 38.208 154.602 38.752 155.194 39.168C155.786 39.568 156.57 39.768 157.546 39.768ZM184.048 33.624V35.976H175.936V41.808H184.528V44.16H173.008V33.624H184.048ZM174.712 46.632H177.64V51.936H190.168V54.288H174.712V46.632ZM186.904 33.144H189.832V37.704H192.376V40.104H189.832V48.36H186.904V33.144Z" fill="white"/>
<path d="M14.77 52.488L16.2644 48.7777L14.77 52.488ZM12.082 50.544L15.2525 48.1052V48.1052L12.082 50.544ZM11.17 47.688V43.688C9.00733 43.688 7.23631 45.4069 7.17178 47.5686L11.17 47.688ZM14.194 47.688L18.1776 48.0501C18.2793 46.9309 17.9055 45.8205 17.1477 44.9906C16.3898 44.1608 15.3178 43.688 14.194 43.688V47.688ZM14.17 47.952L10.1864 47.5899C10.1755 47.7103 10.17 47.8311 10.17 47.952H14.17ZM14.794 49.344L17.6753 46.5694H17.6753L14.794 49.344ZM16.498 50.4L15.0844 54.1419C15.1174 54.1544 15.1506 54.1664 15.1839 54.178L16.498 50.4ZM21.73 50.016L19.342 46.8071C19.3299 46.8161 19.3178 46.8251 19.3058 46.8343L21.73 50.016ZM21.754 45.888L19.2827 49.0333C19.2983 49.0455 19.314 49.0577 19.3298 49.0697L21.754 45.888ZM18.322 44.304L19.5643 40.5018C19.5433 40.495 19.5223 40.4883 19.5012 40.4818L18.322 44.304ZM14.53 42.888L16.2277 39.2662C16.209 39.2574 16.1903 39.2488 16.1715 39.2403L14.53 42.888ZM12.37 41.28L9.14188 43.642C9.15118 43.6547 9.16055 43.6674 9.17 43.68L12.37 41.28ZM12.418 36.24L9.10025 34.0056C9.08969 34.0213 9.07925 34.037 9.06892 34.0528L12.418 36.24ZM14.698 34.416L16.2951 38.0833C16.3042 38.0793 16.3134 38.0753 16.3226 38.0712L14.698 34.416ZM21.826 34.344L20.3301 38.0538C20.3406 38.058 20.351 38.0621 20.3615 38.0663L21.826 34.344ZM24.154 35.976L21.0582 38.509C21.0677 38.5206 21.0773 38.5322 21.087 38.5437L24.154 35.976ZM25.138 38.304V42.304C26.263 42.304 27.336 41.8302 28.0939 40.9989C28.8519 40.1675 29.2247 39.0554 29.121 37.9352L25.138 38.304ZM22.162 38.304L18.2814 39.2741C18.7266 41.0548 20.3265 42.304 22.162 42.304V38.304ZM20.818 36.744L18.8754 40.2406C18.8862 40.2466 18.8971 40.2526 18.9079 40.2585L20.818 36.744ZM15.562 36.888L17.924 40.1161C17.9409 40.1038 17.9577 40.0913 17.9744 40.0786L15.562 36.888ZM15.034 39.888L18.0001 37.2043C17.9554 37.1549 17.9095 37.1067 17.8624 37.0596L15.034 39.888ZM16.282 40.728L17.945 37.0901C17.9116 37.0748 17.878 37.06 17.8442 37.0457L16.282 40.728ZM18.85 41.64L20.0729 37.8315C20.0549 37.8258 20.0369 37.8201 20.0189 37.8146L18.85 41.64ZM22.858 43.224L20.9725 46.7517L20.9786 46.755L22.858 43.224ZM25.018 45.144L21.5816 47.1912C21.5988 47.2201 21.6164 47.2488 21.6343 47.2772L25.018 45.144ZM23.866 51.792L21.4594 48.597L21.4594 48.597L23.866 51.792ZM18.73 53.184V49.184C17.6549 49.184 16.8574 49.0165 16.2644 48.7777L14.77 52.488L13.2756 56.1983C14.9866 56.8875 16.8291 57.184 18.73 57.184V53.184ZM14.77 52.488L16.2644 48.7777C15.6524 48.5312 15.3835 48.2754 15.2525 48.1052L12.082 50.544L8.9115 52.9828C10.0605 54.4766 11.5836 55.5168 13.2756 56.1983L14.77 52.488ZM12.082 50.544L15.2525 48.1052C15.2006 48.0377 15.1885 48.002 15.1844 47.9892C15.18 47.9753 15.1647 47.9238 15.1682 47.8074L11.17 47.688L7.17178 47.5686C7.11289 49.5415 7.69551 51.4021 8.9115 52.9828L12.082 50.544ZM11.17 47.688V51.688H14.194V47.688V43.688H11.17V47.688ZM14.194 47.688L10.2104 47.3259L10.1864 47.5899L14.17 47.952L18.1536 48.3141L18.1776 48.0501L14.194 47.688ZM14.17 47.952H10.17C10.17 49.6917 10.9383 51.1067 11.9127 52.1186L14.794 49.344L17.6753 46.5694C17.7312 46.6275 17.8609 46.7789 17.976 47.0358C18.0968 47.3051 18.17 47.6216 18.17 47.952H14.17ZM14.794 49.344L11.9127 52.1186C12.8395 53.081 13.9612 53.7176 15.0844 54.1419L16.498 50.4L17.9116 46.6581C17.5948 46.5384 17.5805 46.471 17.6753 46.5694L14.794 49.344ZM16.498 50.4L15.1839 54.178C16.4075 54.6036 17.6852 54.784 18.97 54.784V50.784V46.784C18.4308 46.784 18.0605 46.7084 17.8121 46.622L16.498 50.4ZM18.97 50.784V54.784C20.6848 54.784 22.5626 54.4103 24.1542 53.1977L21.73 50.016L19.3058 46.8343C19.423 46.745 19.4979 46.7289 19.4637 46.7384C19.4203 46.7505 19.269 46.784 18.97 46.784V50.784ZM21.73 50.016L24.118 53.2249C25.8724 51.9194 26.762 49.9979 26.762 47.904H22.762H18.762C18.762 47.8309 18.7789 47.6163 18.9101 47.3479C19.0442 47.0735 19.2232 46.8955 19.342 46.8071L21.73 50.016ZM22.762 47.904H26.762C26.762 45.8012 25.8252 43.9611 24.1782 42.7063L21.754 45.888L19.3298 49.0697C19.241 49.002 19.0697 48.8397 18.9323 48.5649C18.7939 48.288 18.762 48.0414 18.762 47.904H22.762ZM21.754 45.888L24.2253 42.7427C22.9775 41.7623 21.2746 41.0606 19.5643 40.5018L18.322 44.304L17.0797 48.1062C17.7872 48.3374 18.3239 48.547 18.7158 48.7278C18.9093 48.8172 19.0513 48.8921 19.1508 48.9499C19.252 49.0087 19.2894 49.0385 19.2827 49.0333L21.754 45.888ZM18.322 44.304L19.5012 40.4818C18.1114 40.053 17.033 39.6437 16.2277 39.2662L14.53 42.888L12.8323 46.5098C14.075 47.0923 15.5246 47.627 17.1428 48.1262L18.322 44.304ZM14.53 42.888L16.1715 39.2403C15.6396 39.001 15.5361 38.8348 15.57 38.88L12.37 41.28L9.17 43.68C10.1639 45.0052 11.5004 45.911 12.8885 46.5357L14.53 42.888ZM12.37 41.28L15.5981 38.918C15.6092 38.9331 15.6215 38.9527 15.6327 38.9751C15.6439 38.9976 15.651 39.0166 15.6548 39.0291C15.6585 39.0414 15.6576 39.042 15.6555 39.0275C15.6534 39.0127 15.65 38.9805 15.65 38.928H11.65H7.65C7.65 40.5809 8.0999 42.218 9.14188 43.642L12.37 41.28ZM11.65 38.928H15.65C15.65 38.6347 15.7126 38.5106 15.7671 38.4272L12.418 36.24L9.06892 34.0528C8.09944 35.5374 7.65 37.2053 7.65 38.928H11.65ZM12.418 36.24L15.7357 38.4744C15.7793 38.4097 15.8978 38.2563 16.2951 38.0833L14.698 34.416L13.1009 30.7487C11.5142 31.4397 10.1127 32.5023 9.10025 34.0056L12.418 36.24ZM14.698 34.416L16.3226 38.0712C16.7146 37.897 17.3227 37.744 18.25 37.744V33.744V29.744C16.4573 29.744 14.6974 30.039 13.0734 30.7608L14.698 34.416ZM18.25 33.744V37.744C19.2764 37.744 19.9332 37.8937 20.3301 38.0538L21.826 34.344L23.3219 30.6342C21.7348 29.9943 20.0076 29.744 18.25 29.744V33.744ZM21.826 34.344L20.3615 38.0663C20.7994 38.2386 20.9777 38.4106 21.0582 38.509L24.154 35.976L27.2498 33.443C26.1783 32.1334 24.8046 31.2174 23.2905 30.6217L21.826 34.344ZM24.154 35.976L21.087 38.5437C21.1131 38.5749 21.1281 38.5972 21.1361 38.6101C21.1439 38.6228 21.1469 38.6296 21.1476 38.6313C21.1483 38.633 21.1489 38.6346 21.1498 38.6382C21.1507 38.6419 21.1532 38.6526 21.155 38.6728L25.138 38.304L29.121 37.9352C28.9634 36.2334 28.2997 34.6966 27.221 33.4083L24.154 35.976ZM25.138 38.304V34.304H22.162V38.304V42.304H25.138V38.304ZM22.162 38.304L26.0426 37.3339C25.5416 35.33 24.1653 34.0106 22.7281 33.2295L20.818 36.744L18.9079 40.2585C18.9417 40.2768 18.8284 40.2222 18.6756 40.0448C18.509 39.8515 18.3591 39.5847 18.2814 39.2741L22.162 38.304ZM20.818 36.744L22.7606 33.2474C21.2858 32.428 19.6628 32.144 18.106 32.144V36.144V40.144C18.7252 40.144 18.9102 40.2599 18.8754 40.2406L20.818 36.744ZM18.106 36.144V32.144C16.4284 32.144 14.6657 32.551 13.1496 33.6974L15.562 36.888L17.9744 40.0786C17.9343 40.109 17.8959 40.1318 17.8636 40.1478C17.848 40.1555 17.8353 40.1609 17.8263 40.1644C17.8173 40.1679 17.8126 40.1693 17.8128 40.1692C17.8143 40.1688 17.9007 40.144 18.106 40.144V36.144ZM15.562 36.888L13.2 33.6599C11.6672 34.7814 10.578 36.5142 10.578 38.688H14.578H18.578C18.578 38.9618 18.5086 39.2969 18.3338 39.6167C18.1678 39.9204 17.9817 40.0739 17.924 40.1161L15.562 36.888ZM14.578 38.688H10.578C10.578 40.0682 11.0351 41.546 12.2056 42.7164L15.034 39.888L17.8624 37.0596C18.1081 37.3052 18.3054 37.6083 18.4311 37.9391C18.5527 38.259 18.578 38.5265 18.578 38.688H14.578ZM15.034 39.888L12.0679 42.5717C12.8509 43.4372 13.7945 44.0178 14.7198 44.4103L16.282 40.728L17.8442 37.0457C17.7135 36.9902 17.8251 37.0108 18.0001 37.2043L15.034 39.888ZM16.282 40.728L14.619 44.3659C15.4266 44.7351 16.4876 45.1007 17.6811 45.4654L18.85 41.64L20.0189 37.8146C18.9084 37.4753 18.2574 37.2329 17.945 37.0901L16.282 40.728ZM18.85 41.64L17.6271 45.4485C19.2835 45.9803 20.3562 46.4223 20.9725 46.7517L22.858 43.224L24.7435 39.6963C23.5038 39.0337 21.9045 38.4197 20.0729 37.8315L18.85 41.64ZM22.858 43.224L20.9786 46.755C21.5058 47.0356 21.5995 47.2213 21.5816 47.1912L25.018 45.144L28.4544 43.0968C27.5405 41.5627 26.1942 40.4684 24.7374 39.693L22.858 43.224ZM25.018 45.144L21.6343 47.2772C21.6004 47.2234 21.714 47.3538 21.714 47.904H25.714H29.714C29.714 46.2462 29.3636 44.5366 28.4017 43.0108L25.018 45.144ZM25.714 47.904H21.714C21.714 48.2365 21.6546 48.3747 21.6393 48.4069C21.6288 48.429 21.5996 48.4913 21.4594 48.597L23.866 51.792L26.2726 54.987C28.5963 53.2367 29.714 50.7093 29.714 47.904H25.714ZM23.866 51.792L21.4594 48.597C21.1592 48.8231 20.4087 49.184 18.73 49.184V53.184V57.184C21.4353 57.184 24.1088 56.6169 26.2726 54.987L23.866 51.792ZM30.1544 52.488L31.6488 48.7777L30.1544 52.488ZM27.4664 50.544L30.6369 48.1052V48.1052L27.4664 50.544ZM26.5544 47.688V43.688C24.3917 43.688 22.6207 45.4069 22.5562 47.5686L26.5544 47.688ZM29.5784 47.688L33.5619 48.0501C33.6637 46.9309 33.2899 45.8205 32.5321 44.9906C31.7742 44.1608 30.7022 43.688 29.5784 43.688V47.688ZM29.5544 47.952L25.5708 47.5899C25.5599 47.7103 25.5544 47.8311 25.5544 47.952H29.5544ZM30.1784 49.344L33.0597 46.5694L30.1784 49.344ZM31.8824 50.4L30.4688 54.1419C30.5018 54.1544 30.535 54.1664 30.5683 54.178L31.8824 50.4ZM37.1144 50.016L34.7263 46.8071C34.7142 46.8161 34.7022 46.8251 34.6902 46.8343L37.1144 50.016ZM37.1384 45.888L34.6671 49.0333C34.6827 49.0455 34.6984 49.0577 34.7142 49.0697L37.1384 45.888ZM33.7064 44.304L34.9487 40.5018C34.9277 40.495 34.9067 40.4883 34.8856 40.4818L33.7064 44.304ZM29.9144 42.888L31.6121 39.2662C31.5934 39.2574 31.5747 39.2488 31.5558 39.2403L29.9144 42.888ZM27.7544 41.28L24.5263 43.642C24.5356 43.6547 24.5449 43.6674 24.5544 43.68L27.7544 41.28ZM27.8024 36.24L24.4846 34.0056C24.4741 34.0213 24.4636 34.037 24.4533 34.0528L27.8024 36.24ZM30.0824 34.416L31.6794 38.0833C31.6886 38.0793 31.6978 38.0753 31.7069 38.0712L30.0824 34.416ZM37.2104 34.344L35.7145 38.0538C35.7249 38.058 35.7354 38.0621 35.7459 38.0663L37.2104 34.344ZM39.5384 35.976L36.4425 38.509C36.4521 38.5206 36.4617 38.5322 36.4713 38.5437L39.5384 35.976ZM40.5224 38.304V42.304C41.6474 42.304 42.7204 41.8302 43.4783 40.9989C44.2363 40.1675 44.6091 39.0554 44.5053 37.9352L40.5224 38.304ZM37.5464 38.304L33.6658 39.2741C34.111 41.0548 35.7109 42.304 37.5464 42.304V38.304ZM36.2024 36.744L34.2598 40.2406C34.2706 40.2466 34.2815 40.2526 34.2923 40.2585L36.2024 36.744ZM30.9464 36.888L33.3084 40.1161C33.3253 40.1038 33.3421 40.0913 33.3588 40.0786L30.9464 36.888ZM30.4184 39.888L33.3845 37.2043C33.3398 37.1549 33.2939 37.1067 33.2468 37.0596L30.4184 39.888ZM31.6664 40.728L33.3294 37.0901C33.296 37.0748 33.2624 37.06 33.2286 37.0457L31.6664 40.728ZM34.2344 41.64L35.4573 37.8315C35.4393 37.8258 35.4213 37.8201 35.4032 37.8146L34.2344 41.64ZM38.2424 43.224L36.3569 46.7517L36.363 46.755L38.2424 43.224ZM40.4024 45.144L36.966 47.1912C36.9832 47.2201 37.0007 47.2488 37.0187 47.2772L40.4024 45.144ZM39.2504 51.792L36.8437 48.597V48.597L39.2504 51.792ZM34.1144 53.184V49.184C33.0393 49.184 32.2417 49.0165 31.6488 48.7777L30.1544 52.488L28.6599 56.1983C30.371 56.8875 32.2134 57.184 34.1144 57.184V53.184ZM30.1544 52.488L31.6488 48.7777C31.0368 48.5312 30.7678 48.2754 30.6369 48.1052L27.4664 50.544L24.2959 52.9828C25.4449 54.4766 26.9679 55.5168 28.6599 56.1983L30.1544 52.488ZM27.4664 50.544L30.6369 48.1052C30.585 48.0377 30.5729 48.002 30.5688 47.9892C30.5644 47.9753 30.5491 47.9238 30.5526 47.8074L26.5544 47.688L22.5562 47.5686C22.4973 49.5415 23.0799 51.4021 24.2959 52.9828L27.4664 50.544ZM26.5544 47.688V51.688H29.5784V47.688V43.688H26.5544V47.688ZM29.5784 47.688L25.5948 47.3259L25.5708 47.5899L29.5544 47.952L33.5379 48.3141L33.5619 48.0501L29.5784 47.688ZM29.5544 47.952H25.5544C25.5544 49.6917 26.3227 51.1067 27.2971 52.1186L30.1784 49.344L33.0597 46.5694C33.1155 46.6275 33.2452 46.7789 33.3604 47.0358C33.4811 47.3051 33.5544 47.6216 33.5544 47.952H29.5544ZM30.1784 49.344L27.2971 52.1186C28.2239 53.081 29.3456 53.7176 30.4688 54.1419L31.8824 50.4L33.296 46.6581C32.9791 46.5384 32.9648 46.471 33.0597 46.5694L30.1784 49.344ZM31.8824 50.4L30.5683 54.178C31.7919 54.6036 33.0695 54.784 34.3544 54.784V50.784V46.784C33.8152 46.784 33.4448 46.7084 33.1965 46.622L31.8824 50.4ZM34.3544 50.784V54.784C36.0692 54.784 37.947 54.4103 39.5385 53.1977L37.1144 50.016L34.6902 46.8343C34.8073 46.745 34.8823 46.7289 34.8481 46.7384C34.8047 46.7505 34.6534 46.784 34.3544 46.784V50.784ZM37.1144 50.016L39.5024 53.2249C41.2567 51.9194 42.1464 49.9979 42.1464 47.904H38.1464H34.1464C34.1464 47.8309 34.1633 47.6163 34.2945 47.3479C34.4285 47.0735 34.6075 46.8955 34.7263 46.8071L37.1144 50.016ZM38.1464 47.904H42.1464C42.1464 45.8012 41.2095 43.9611 39.5625 42.7063L37.1384 45.888L34.7142 49.0697C34.6253 49.002 34.4541 48.8397 34.3167 48.5649C34.1782 48.288 34.1464 48.0414 34.1464 47.904H38.1464ZM37.1384 45.888L39.6097 42.7427C38.3618 41.7623 36.659 41.0606 34.9487 40.5018L33.7064 44.304L32.4641 48.1062C33.1716 48.3374 33.7083 48.547 34.1001 48.7278C34.2937 48.8172 34.4357 48.8921 34.5351 48.9499C34.6364 49.0087 34.6737 49.0385 34.6671 49.0333L37.1384 45.888ZM33.7064 44.304L34.8856 40.4818C33.4958 40.053 32.4174 39.6437 31.6121 39.2662L29.9144 42.888L28.2166 46.5098C29.4593 47.0923 30.9089 47.627 32.5272 48.1262L33.7064 44.304ZM29.9144 42.888L31.5558 39.2403C31.024 39.001 30.9205 38.8348 30.9544 38.88L27.7544 41.28L24.5544 43.68C25.5483 45.0052 26.8848 45.911 28.2729 46.5357L29.9144 42.888ZM27.7544 41.28L30.9825 38.918C30.9936 38.9331 31.0058 38.9527 31.0171 38.9751C31.0283 38.9976 31.0353 39.0166 31.0392 39.0291C31.0429 39.0414 31.042 39.042 31.0399 39.0275C31.0378 39.0127 31.0344 38.9805 31.0344 38.928H27.0344H23.0344C23.0344 40.5809 23.4843 42.218 24.5263 43.642L27.7544 41.28ZM27.0344 38.928H31.0344C31.0344 38.6347 31.0969 38.5106 31.1515 38.4272L27.8024 36.24L24.4533 34.0528C23.4838 35.5374 23.0344 37.2053 23.0344 38.928H27.0344ZM27.8024 36.24L31.1201 38.4744C31.1637 38.4097 31.2822 38.2563 31.6794 38.0833L30.0824 34.416L28.4853 30.7487C26.8986 31.4397 25.497 32.5023 24.4846 34.0056L27.8024 36.24ZM30.0824 34.416L31.7069 38.0712C32.099 37.897 32.7071 37.744 33.6344 37.744V33.744V29.744C31.8417 29.744 30.0818 30.039 28.4578 30.7608L30.0824 34.416ZM33.6344 33.744V37.744C34.6608 37.744 35.3175 37.8937 35.7145 38.0538L37.2104 34.344L38.7062 30.6342C37.1192 29.9943 35.3919 29.744 33.6344 29.744V33.744ZM37.2104 34.344L35.7459 38.0663C36.1838 38.2386 36.3621 38.4106 36.4425 38.509L39.5384 35.976L42.6342 33.443C41.5627 32.1334 40.1889 31.2174 38.6749 30.6217L37.2104 34.344ZM39.5384 35.976L36.4713 38.5437C36.4974 38.5749 36.5125 38.5972 36.5204 38.6101C36.5283 38.6228 36.5312 38.6296 36.532 38.6313C36.5327 38.633 36.5333 38.6346 36.5342 38.6382C36.5351 38.6419 36.5375 38.6526 36.5394 38.6728L40.5224 38.304L44.5053 37.9352C44.3478 36.2334 43.684 34.6966 42.6054 33.4083L39.5384 35.976ZM40.5224 38.304V34.304H37.5464V38.304V42.304H40.5224V38.304ZM37.5464 38.304L41.4269 37.3339C40.926 35.33 39.5497 34.0106 38.1124 33.2295L36.2024 36.744L34.2923 40.2585C34.3261 40.2768 34.2127 40.2222 34.0599 40.0448C33.8934 39.8515 33.7434 39.5847 33.6658 39.2741L37.5464 38.304ZM36.2024 36.744L38.1449 33.2474C36.6702 32.428 35.0472 32.144 33.4904 32.144V36.144V40.144C34.1095 40.144 34.2946 40.2599 34.2598 40.2406L36.2024 36.744ZM33.4904 36.144V32.144C31.8128 32.144 30.05 32.551 28.5339 33.6974L30.9464 36.888L33.3588 40.0786C33.3187 40.109 33.2803 40.1318 33.248 40.1478C33.2323 40.1555 33.2197 40.1609 33.2107 40.1644C33.2017 40.1679 33.1969 40.1693 33.1972 40.1692C33.1986 40.1688 33.285 40.144 33.4904 40.144V36.144ZM30.9464 36.888L28.5843 33.6599C27.0516 34.7814 25.9624 36.5142 25.9624 38.688H29.9624H33.9624C33.9624 38.9618 33.893 39.2969 33.7182 39.6167C33.5522 39.9204 33.3661 40.0739 33.3084 40.1161L30.9464 36.888ZM29.9624 38.688H25.9624C25.9624 40.0682 26.4195 41.546 27.5899 42.7164L30.4184 39.888L33.2468 37.0596C33.4924 37.3052 33.6898 37.6083 33.8155 37.9391C33.9371 38.259 33.9624 38.5265 33.9624 38.688H29.9624ZM30.4184 39.888L27.4522 42.5717C28.2353 43.4372 29.1789 44.0178 30.1042 44.4103L31.6664 40.728L33.2286 37.0457C33.0979 36.9902 33.2094 37.0108 33.3845 37.2043L30.4184 39.888ZM31.6664 40.728L30.0033 44.3659C30.811 44.7351 31.872 45.1007 33.0655 45.4654L34.2344 41.64L35.4032 37.8146C34.2928 37.4753 33.6417 37.2329 33.3294 37.0901L31.6664 40.728ZM34.2344 41.64L33.0115 45.4485C34.6679 45.9803 35.7405 46.4223 36.3569 46.7517L38.2424 43.224L40.1279 39.6963C38.8882 39.0337 37.2889 38.4197 35.4573 37.8315L34.2344 41.64ZM38.2424 43.224L36.363 46.755C36.8902 47.0356 36.9839 47.2213 36.966 47.1912L40.4024 45.144L43.8388 43.0968C42.9248 41.5627 41.5785 40.4684 40.1218 39.693L38.2424 43.224ZM40.4024 45.144L37.0187 47.2772C36.9847 47.2234 37.0984 47.3538 37.0984 47.904H41.0984H45.0984C45.0984 46.2462 44.748 44.5366 43.7861 43.0108L40.4024 45.144ZM41.0984 47.904H37.0984C37.0984 48.2365 37.039 48.3747 37.0237 48.4069C37.0132 48.429 36.984 48.4913 36.8437 48.597L39.2504 51.792L41.657 54.987C43.9806 53.2367 45.0984 50.7093 45.0984 47.904H41.0984ZM39.2504 51.792L36.8437 48.597C36.5436 48.8231 35.7931 49.184 34.1144 49.184V53.184V57.184C36.8196 57.184 39.4932 56.6169 41.657 54.987L39.2504 51.792ZM46.5227 52.032L48.5252 48.5693C48.5148 48.5633 48.5043 48.5573 48.4937 48.5513L46.5227 52.032ZM43.4747 48.768L39.889 50.5407L43.4747 48.768ZM43.5227 38.4L47.1005 40.1889C47.103 40.1837 47.1056 40.1786 47.1081 40.1734L43.5227 38.4ZM46.6427 34.968L48.6887 38.4052L48.7007 38.398L46.6427 34.968ZM55.0427 34.464L53.4282 38.1237L53.4282 38.1237L55.0427 34.464ZM57.7307 36.504L54.6073 39.0028C54.6147 39.0121 54.6223 39.0214 54.6298 39.0307L57.7307 36.504ZM59.0747 39.504V43.504C60.2522 43.504 61.3698 42.9853 62.1298 42.086C62.8898 41.1868 63.215 39.9983 63.0188 38.8374L59.0747 39.504ZM56.0987 39.504L52.2706 40.664C52.7817 42.3506 54.3364 43.504 56.0987 43.504V39.504ZM54.3947 37.08L52.1009 40.3569C52.111 40.364 52.1212 40.3711 52.1314 40.3781L54.3947 37.08ZM48.2027 37.128L50.3658 40.4927C50.3707 40.4895 50.3757 40.4863 50.3806 40.4831L48.2027 37.128ZM46.9307 48.768L43.8263 51.2904L46.9307 48.768ZM55.3547 49.2L58.2524 51.9575L55.3547 49.2ZM56.6027 45.12L60.5944 44.8613C60.458 42.757 58.7114 41.12 56.6027 41.12V45.12ZM50.0987 45.12H46.0987C46.0987 47.3291 47.8896 49.12 50.0987 49.12V45.12ZM50.0987 42.72V38.72C47.8896 38.72 46.0987 40.5109 46.0987 42.72H50.0987ZM59.6267 42.72H63.6267C63.6267 40.5109 61.8359 38.72 59.6267 38.72V42.72ZM58.6187 49.368L55.0969 47.4716C55.0939 47.4771 55.091 47.4825 55.0881 47.488L58.6187 49.368ZM55.7627 52.2L53.9016 48.6593L55.7627 52.2ZM51.2987 53.184V49.184C49.9985 49.184 49.1286 48.9183 48.5252 48.5693L46.5227 52.032L44.5202 55.4947C46.5729 56.6817 48.887 57.184 51.2987 57.184V53.184ZM46.5227 52.032L48.4937 48.5513C47.8925 48.2108 47.4248 47.7322 47.0605 46.9953L43.4747 48.768L39.889 50.5407C40.9327 52.6518 42.497 54.3492 44.5518 55.5127L46.5227 52.032ZM43.4747 48.768L47.0605 46.9953C46.6883 46.2424 46.4187 45.1746 46.4187 43.656H42.4187H38.4187C38.4187 46.1054 38.8532 48.4456 39.889 50.5407L43.4747 48.768ZM42.4187 43.656H46.4187C46.4187 42.102 46.6997 40.9903 47.1005 40.1889L43.5227 38.4L39.945 36.6111C38.8738 38.7537 38.4187 41.146 38.4187 43.656H42.4187ZM43.5227 38.4L47.1081 40.1734C47.5242 39.3323 48.0489 38.786 48.6887 38.4052L46.6427 34.968L44.5968 31.5308C42.5486 32.75 40.9933 34.4917 39.9374 36.6266L43.5227 38.4ZM46.6427 34.968L48.7007 38.398C49.3506 38.0081 50.209 37.744 51.4187 37.744V33.744V29.744C48.9805 29.744 46.6549 30.2959 44.5848 31.538L46.6427 34.968ZM51.4187 33.744V37.744C52.2559 37.744 52.9052 37.893 53.4282 38.1237L55.0427 34.464L56.6573 30.8043C55.0043 30.075 53.2376 29.744 51.4187 29.744V33.744ZM55.0427 34.464L53.4282 38.1237C53.9606 38.3586 54.3278 38.6534 54.6073 39.0028L57.7307 36.504L60.8542 34.0052C59.7257 32.5946 58.3009 31.5294 56.6573 30.8043L55.0427 34.464ZM57.7307 36.504L54.6298 39.0307C54.8814 39.3395 55.05 39.6931 55.1307 40.1706L59.0747 39.504L63.0188 38.8374C62.7155 37.0429 61.9881 35.3965 60.8317 33.9773L57.7307 36.504ZM59.0747 39.504V35.504H56.0987V39.504V43.504H59.0747V39.504ZM56.0987 39.504L59.9268 38.344C59.3754 36.5242 58.3099 34.9155 56.6581 33.7819L54.3947 37.08L52.1314 40.3781C52.1471 40.3888 52.1511 40.3932 52.1604 40.4064C52.1728 40.424 52.2197 40.4961 52.2706 40.664L56.0987 39.504ZM54.3947 37.08L56.6886 33.8031C55.0757 32.674 53.2253 32.24 51.3947 32.24V36.24V40.24C51.6855 40.24 51.8668 40.274 51.9662 40.3019C52.0593 40.3279 52.0935 40.3518 52.1009 40.3569L54.3947 37.08ZM51.3947 36.24V32.24C49.5003 32.24 47.6603 32.7113 46.0249 33.7729L48.2027 37.128L50.3806 40.4831C50.5692 40.3607 50.8572 40.24 51.3947 40.24V36.24ZM48.2027 37.128L46.0397 33.7633C44.421 34.8039 43.2492 36.2667 42.4751 37.9648L46.1147 39.624L49.7544 41.2832C49.9723 40.8053 50.1925 40.6041 50.3658 40.4927L48.2027 37.128ZM46.1147 39.624L42.4751 37.9648C41.6934 39.6796 41.3707 41.5486 41.3707 43.464H45.3707H49.3707C49.3707 42.4354 49.5441 41.7444 49.7544 41.2832L46.1147 39.624ZM45.3707 43.464H41.3707C41.3707 46.3028 42.0257 49.0742 43.8263 51.2904L46.9307 48.768L50.0352 46.2456C49.7558 45.9018 49.3707 45.1372 49.3707 43.464H45.3707ZM46.9307 48.768L43.8263 51.2904C45.7344 53.6388 48.4056 54.688 51.2987 54.688V50.688V46.688C50.4479 46.688 50.2071 46.4572 50.0352 46.2456L46.9307 48.768ZM51.2987 50.688V54.688C53.8245 54.688 56.3529 53.9536 58.2524 51.9575L55.3547 49.2L52.4571 46.4425C52.4303 46.4707 52.3851 46.513 52.2551 46.5607C52.1061 46.6154 51.8097 46.688 51.2987 46.688V50.688ZM55.3547 49.2L58.2524 51.9575C60.159 49.9539 60.7582 47.3892 60.5944 44.8613L56.6027 45.12L52.6111 45.3787C52.6425 45.8621 52.5893 46.1366 52.5497 46.266C52.5161 46.3756 52.4842 46.4141 52.4571 46.4425L55.3547 49.2ZM56.6027 45.12V41.12H50.0987V45.12V49.12H56.6027V45.12ZM50.0987 45.12H54.0987V42.72H50.0987H46.0987V45.12H50.0987ZM50.0987 42.72V46.72H59.6267V42.72V38.72H50.0987V42.72ZM59.6267 42.72H55.6267V44.904H59.6267H63.6267V42.72H59.6267ZM59.6267 44.904H55.6267C55.6267 46.1137 55.3933 46.921 55.0969 47.4716L58.6187 49.368L62.1406 51.2644C63.1882 49.319 63.6267 47.1503 63.6267 44.904H59.6267ZM58.6187 49.368L55.0881 47.488C54.8134 48.0039 54.4468 48.3728 53.9016 48.6593L55.7627 52.2L57.6239 55.7407C59.5747 54.7152 61.1121 53.1961 62.1494 51.248L58.6187 49.368ZM55.7627 52.2L53.9016 48.6593C53.3431 48.953 52.5227 49.184 51.2987 49.184V53.184V57.184C53.5308 57.184 55.6864 56.759 57.6239 55.7407L55.7627 52.2ZM75.3559 33.144H79.3559C79.3559 30.9349 77.5651 29.144 75.3559 29.144V33.144ZM75.3559 37.464H71.3559C71.3559 39.6731 73.1468 41.464 75.3559 41.464V37.464ZM77.5639 37.464V41.464C79.7731 41.464 81.5639 39.6731 81.5639 37.464H77.5639ZM77.5639 33.144V29.144C75.3548 29.144 73.5639 30.9349 73.5639 33.144H77.5639ZM80.2279 33.144H84.2279C84.2279 30.9349 82.4371 29.144 80.2279 29.144V33.144ZM80.2279 48.216V52.216C82.4371 52.216 84.2279 50.4251 84.2279 48.216H80.2279ZM77.5639 48.216H73.5639C73.5639 50.4251 75.3548 52.216 77.5639 52.216V48.216ZM77.5639 39.864H81.5639C81.5639 37.6549 79.7731 35.864 77.5639 35.864V39.864ZM75.3559 39.864V35.864C73.1468 35.864 71.3559 37.6549 71.3559 39.864H75.3559ZM75.3559 48.216V52.216C77.5651 52.216 79.3559 50.4251 79.3559 48.216H75.3559ZM72.6919 48.216H68.6919C68.6919 50.4251 70.4828 52.216 72.6919 52.216V48.216ZM72.6919 33.144V29.144C70.4828 29.144 68.6919 30.9349 68.6919 33.144H72.6919ZM61.9639 33.744V29.744C59.7548 29.744 57.9639 31.5349 57.9639 33.744H61.9639ZM70.5079 33.744H74.5079C74.5079 31.5349 72.7171 29.744 70.5079 29.744V33.744ZM70.5079 40.68V44.68C72.7171 44.68 74.5079 42.8891 74.5079 40.68H70.5079ZM64.8679 40.68V36.68C62.6588 36.68 60.8679 38.4709 60.8679 40.68H64.8679ZM64.8679 42.864H60.8679C60.8679 45.0731 62.6588 46.864 64.8679 46.864V42.864ZM71.2279 42.864H75.2279C75.2279 40.6549 73.4371 38.864 71.2279 38.864V42.864ZM71.2279 45.24V49.24C73.4371 49.24 75.2279 47.4491 75.2279 45.24H71.2279ZM62.2039 45.24H58.2039C58.2039 47.4491 59.9948 49.24 62.2039 49.24V45.24ZM62.2039 38.304V34.304C59.9948 34.304 58.2039 36.0949 58.2039 38.304H62.2039ZM67.8439 38.304V42.304C70.0531 42.304 71.8439 40.5131 71.8439 38.304H67.8439ZM67.8439 36.12H71.8439C71.8439 33.9109 70.0531 32.12 67.8439 32.12V36.12ZM61.9639 36.12H57.9639C57.9639 38.3291 59.7548 40.12 61.9639 40.12V36.12ZM64.6279 47.112V43.112C62.4188 43.112 60.6279 44.9029 60.6279 47.112H64.6279ZM67.5559 47.112H71.5559C71.5559 44.9029 69.7651 43.112 67.5559 43.112V47.112ZM67.5559 51.936H63.5559C63.5559 54.1451 65.3468 55.936 67.5559 55.936V51.936ZM80.3239 51.936H84.3239C84.3239 49.7269 82.5331 47.936 80.3239 47.936V51.936ZM80.3239 54.288V58.288C82.5331 58.288 84.3239 56.4971 84.3239 54.288H80.3239ZM64.6279 54.288H60.6279C60.6279 56.4971 62.4188 58.288 64.6279 58.288V54.288ZM75.3559 33.144H71.3559V37.464H75.3559H79.3559V33.144H75.3559ZM75.3559 37.464V41.464H77.5639V37.464V33.464H75.3559V37.464ZM77.5639 37.464H81.5639V33.144H77.5639H73.5639V37.464H77.5639ZM77.5639 33.144V37.144H80.2279V33.144V29.144H77.5639V33.144ZM80.2279 33.144H76.2279V48.216H80.2279H84.2279V33.144H80.2279ZM80.2279 48.216V44.216H77.5639V48.216V52.216H80.2279V48.216ZM77.5639 48.216H81.5639V39.864H77.5639H73.5639V48.216H77.5639ZM77.5639 39.864V35.864H75.3559V39.864V43.864H77.5639V39.864ZM75.3559 39.864H71.3559V48.216H75.3559H79.3559V39.864H75.3559ZM75.3559 48.216V44.216H72.6919V48.216V52.216H75.3559V48.216ZM72.6919 48.216H76.6919V33.144H72.6919H68.6919V48.216H72.6919ZM72.6919 33.144V37.144H75.3559V33.144V29.144H72.6919V33.144ZM61.9639 33.744V37.744H70.5079V33.744V29.744H61.9639V33.744ZM70.5079 33.744H66.5079V40.68H70.5079H74.5079V33.744H70.5079ZM70.5079 40.68V36.68H64.8679V40.68V44.68H70.5079V40.68ZM64.8679 40.68H60.8679V42.864H64.8679H68.8679V40.68H64.8679ZM64.8679 42.864V46.864H71.2279V42.864V38.864H64.8679V42.864ZM71.2279 42.864H67.2279V45.24H71.2279H75.2279V42.864H71.2279ZM71.2279 45.24V41.24H62.2039V45.24V49.24H71.2279V45.24ZM62.2039 45.24H66.2039V38.304H62.2039H58.2039V45.24H62.2039ZM62.2039 38.304V42.304H67.8439V38.304V34.304H62.2039V38.304ZM67.8439 38.304H71.8439V36.12H67.8439H63.8439V38.304H67.8439ZM67.8439 36.12V32.12H61.9639V36.12V40.12H67.8439V36.12ZM61.9639 36.12H65.9639V33.744H61.9639H57.9639V36.12H61.9639ZM64.6279 47.112V51.112H67.5559V47.112V43.112H64.6279V47.112ZM67.5559 47.112H63.5559V51.936H67.5559H71.5559V47.112H67.5559ZM67.5559 51.936V55.936H80.3239V51.936V47.936H67.5559V51.936ZM80.3239 51.936H76.3239V54.288H80.3239H84.3239V51.936H80.3239ZM80.3239 54.288V50.288H64.6279V54.288V58.288H80.3239V54.288ZM64.6279 54.288H68.6279V47.112H64.6279H60.6279V54.288H64.6279ZM94.5139 34.104H98.5139C98.5139 31.8949 96.7231 30.104 94.5139 30.104V34.104ZM94.5139 36.504V40.504C96.7231 40.504 98.5139 38.7131 98.5139 36.504H94.5139ZM86.8819 36.504V32.504C84.6728 32.504 82.8819 34.2949 82.8819 36.504H86.8819ZM86.8819 48.24H82.8819C82.8819 50.4491 84.6728 52.24 86.8819 52.24V48.24ZM95.5939 48.24H99.5939C99.5939 46.0309 97.8031 44.24 95.5939 44.24V48.24ZM95.5939 50.64V54.64C97.8031 54.64 99.5939 52.8491 99.5939 50.64H95.5939ZM83.9539 50.64H79.9539C79.9539 52.8491 81.7448 54.64 83.9539 54.64V50.64ZM83.9539 34.104V30.104C81.7448 30.104 79.9539 31.8949 79.9539 34.104H83.9539ZM92.6419 40.584V36.584C90.4328 36.584 88.6419 38.3749 88.6419 40.584H92.6419ZM97.9699 40.584V44.584C100.179 44.584 101.97 42.7931 101.97 40.584H97.9699ZM97.9699 33.144V29.144C95.7608 29.144 93.9699 30.9349 93.9699 33.144H97.9699ZM100.898 33.144H104.898C104.898 30.9349 103.107 29.144 100.898 29.144V33.144ZM100.898 54.528V58.528C103.107 58.528 104.898 56.7371 104.898 54.528H100.898ZM97.9699 54.528H93.9699C93.9699 56.7371 95.7608 58.528 97.9699 58.528V54.528ZM97.9699 42.984H101.97C101.97 40.7749 100.179 38.984 97.9699 38.984V42.984ZM92.6419 42.984H88.6419C88.6419 45.1931 90.4328 46.984 92.6419 46.984V42.984ZM94.5139 34.104H90.5139V36.504H94.5139H98.5139V34.104H94.5139ZM94.5139 36.504V32.504H86.8819V36.504V40.504H94.5139V36.504ZM86.8819 36.504H82.8819V48.24H86.8819H90.8819V36.504H86.8819ZM86.8819 48.24V52.24H95.5939V48.24V44.24H86.8819V48.24ZM95.5939 48.24H91.5939V50.64H95.5939H99.5939V48.24H95.5939ZM95.5939 50.64V46.64H83.9539V50.64V54.64H95.5939V50.64ZM83.9539 50.64H87.9539V34.104H83.9539H79.9539V50.64H83.9539ZM83.9539 34.104V38.104H94.5139V34.104V30.104H83.9539V34.104ZM92.6419 40.584V44.584H97.9699V40.584V36.584H92.6419V40.584ZM97.9699 40.584H101.97V33.144H97.9699H93.9699V40.584H97.9699ZM97.9699 33.144V37.144H100.898V33.144V29.144H97.9699V33.144ZM100.898 33.144H96.8979V54.528H100.898H104.898V33.144H100.898ZM100.898 54.528V50.528H97.9699V54.528V58.528H100.898V54.528ZM97.9699 54.528H101.97V42.984H97.9699H93.9699V54.528H97.9699ZM97.9699 42.984V38.984H92.6419V42.984V46.984H97.9699V42.984ZM92.6419 42.984H96.6419V40.584H92.6419H88.6419V42.984H92.6419ZM104.312 43.896L101.746 40.8279C100.911 41.5255 100.397 42.5327 100.322 43.6174C100.246 44.7022 100.615 45.771 101.344 46.5778L104.312 43.896ZM111.944 37.512L114.51 40.5801C115.419 39.8201 115.944 38.6965 115.944 37.512H111.944ZM111.944 33.744V29.744C109.735 29.744 107.944 31.5349 107.944 33.744H111.944ZM114.872 33.744H118.872C118.872 31.5349 117.081 29.744 114.872 29.744V33.744ZM114.872 37.512H110.872C110.872 38.6965 111.397 39.8201 112.306 40.5801L114.872 37.512ZM122.504 43.896L125.472 46.5778C126.201 45.771 126.57 44.7022 126.494 43.6174C126.418 42.5327 125.904 41.5255 125.07 40.8279L122.504 43.896ZM120.704 45.888L118.127 48.9476C119.776 50.3356 122.227 50.1685 123.672 48.5698L120.704 45.888ZM113.408 39.744L115.984 36.6844C114.496 35.4305 112.32 35.4305 110.831 36.6844L113.408 39.744ZM106.112 45.888L103.144 48.5698C104.589 50.1685 107.04 50.3356 108.688 48.9476L106.112 45.888ZM103.952 49.368V45.368C101.743 45.368 99.9519 47.1589 99.9519 49.368H103.952ZM122.864 49.368H126.864C126.864 47.1589 125.073 45.368 122.864 45.368V49.368ZM122.864 51.768V55.768C125.073 55.768 126.864 53.9771 126.864 51.768H122.864ZM103.952 51.768H99.9519C99.9519 53.9771 101.743 55.768 103.952 55.768V51.768ZM104.312 43.896L106.878 46.9641L114.51 40.5801L111.944 37.512L109.378 34.4439L101.746 40.8279L104.312 43.896ZM111.944 37.512H115.944V33.744H111.944H107.944V37.512H111.944ZM111.944 33.744V37.744H114.872V33.744V29.744H111.944V33.744ZM114.872 33.744H110.872V37.512H114.872H118.872V33.744H114.872ZM114.872 37.512L112.306 40.5801L119.938 46.9641L122.504 43.896L125.07 40.8279L117.438 34.4439L114.872 37.512ZM122.504 43.896L119.536 41.2142L117.736 43.2062L120.704 45.888L123.672 48.5698L125.472 46.5778L122.504 43.896ZM120.704 45.888L123.28 42.8284L115.984 36.6844L113.408 39.744L110.831 42.8036L118.127 48.9476L120.704 45.888ZM113.408 39.744L110.831 36.6844L103.535 42.8284L106.112 45.888L108.688 48.9476L115.984 42.8036L113.408 39.744ZM106.112 45.888L109.08 43.2062L107.28 41.2142L104.312 43.896L101.344 46.5778L103.144 48.5698L106.112 45.888ZM103.952 49.368V53.368H122.864V49.368V45.368H103.952V49.368ZM122.864 49.368H118.864V51.768H122.864H126.864V49.368H122.864ZM122.864 51.768V47.768H103.952V51.768V55.768H122.864V51.768ZM103.952 51.768H107.952V49.368H103.952H99.9519V51.768H103.952ZM133.18 40.296L131.343 43.8494C131.349 43.8522 131.354 43.855 131.36 43.8577L133.18 40.296ZM133.18 34.008L131.36 30.4463C131.354 30.449 131.349 30.4518 131.343 30.4546L133.18 34.008ZM145.54 34.008L143.703 37.5614C143.709 37.5642 143.714 37.567 143.72 37.5697L145.54 34.008ZM145.54 40.296L143.72 36.7343C143.714 36.737 143.709 36.7398 143.703 36.7426L145.54 40.296ZM133.228 53.592L134.986 49.9988C134.98 49.9961 134.975 49.9935 134.969 49.9909L133.228 53.592ZM133.228 47.688L134.969 51.2891C134.975 51.2865 134.98 51.2839 134.986 51.2812L133.228 47.688ZM145.492 47.688L143.719 51.2736C143.735 51.2813 143.75 51.289 143.766 51.2965L145.492 47.688ZM145.492 53.592L143.766 49.9835C143.75 49.991 143.735 49.9987 143.719 50.0064L145.492 53.592ZM143.356 51.912L144.621 55.7067C144.627 55.7046 144.634 55.7024 144.64 55.7003L143.356 51.912ZM143.356 49.368L144.64 45.5797C144.634 45.5776 144.627 45.5754 144.621 45.5733L143.356 49.368ZM135.412 49.368L136.62 53.1814C136.646 53.1731 136.671 53.1647 136.697 53.1559L135.412 49.368ZM135.412 51.912L136.697 48.1241C136.671 48.1153 136.646 48.1069 136.62 48.0986L135.412 51.912ZM148.828 42.792H152.828C152.828 40.5829 151.037 38.792 148.828 38.792V42.792ZM148.828 45.096V49.096C151.037 49.096 152.828 47.3051 152.828 45.096H148.828ZM129.916 45.096H125.916C125.916 47.3051 127.707 49.096 129.916 49.096V45.096ZM129.916 42.792V38.792C127.707 38.792 125.916 40.5829 125.916 42.792H129.916ZM143.38 38.568L142.018 34.8069C141.984 34.8192 141.951 34.8319 141.917 34.845L143.38 38.568ZM143.38 35.712L144.799 31.972C144.78 31.9648 144.761 31.9578 144.742 31.9509L143.38 35.712ZM135.388 35.712L134.047 31.9436C134.009 31.9569 133.972 31.9708 133.935 31.9852L135.388 35.712ZM135.388 38.568L136.851 34.845C136.81 34.8292 136.77 34.8141 136.729 34.7996L135.388 38.568ZM139.372 41.4V37.4C136.948 37.4 135.621 37.0515 135 36.7343L133.18 40.296L131.36 43.8577C133.619 45.0125 136.42 45.4 139.372 45.4V41.4ZM133.18 40.296L135.017 36.7426C134.743 36.601 134.782 36.5559 134.887 36.7101C134.939 36.7867 134.984 36.8804 135.013 36.9793C135.042 37.0758 135.044 37.1398 135.044 37.152H131.044H127.044C127.044 38.5718 127.429 39.9694 128.269 41.2059C129.086 42.4081 130.193 43.255 131.343 43.8494L133.18 40.296ZM131.044 37.152H135.044C135.044 37.1642 135.042 37.2282 135.013 37.3247C134.984 37.4236 134.939 37.5173 134.887 37.5939C134.782 37.7481 134.743 37.703 135.017 37.5614L133.18 34.008L131.343 30.4546C130.193 31.049 129.086 31.8959 128.269 33.0981C127.429 34.3346 127.044 35.7322 127.044 37.152H131.044ZM133.18 34.008L135 37.5697C135.621 37.2525 136.948 36.904 139.372 36.904V32.904V28.904C136.42 28.904 133.619 29.2915 131.36 30.4463L133.18 34.008ZM139.372 32.904V36.904C141.8 36.904 143.109 37.254 143.703 37.5614L145.54 34.008L147.377 30.4546C145.123 29.29 142.32 28.904 139.372 28.904V32.904ZM145.54 34.008L143.72 37.5697C144.005 37.7154 143.969 37.7645 143.863 37.611C143.81 37.5342 143.763 37.4388 143.733 37.3364C143.703 37.2363 143.7 37.1683 143.7 37.152H147.7H151.7C151.7 35.7225 151.307 34.3188 150.457 33.081C149.631 31.8795 148.515 31.0366 147.36 30.4463L145.54 34.008ZM147.7 37.152H143.7C143.7 37.1357 143.703 37.0677 143.733 36.9676C143.763 36.8652 143.81 36.7698 143.863 36.693C143.969 36.5395 144.005 36.5886 143.72 36.7343L145.54 40.296L147.36 43.8577C148.515 43.2674 149.631 42.4245 150.457 41.223C151.307 39.9852 151.7 38.5815 151.7 37.152H147.7ZM145.54 40.296L143.703 36.7426C143.109 37.05 141.8 37.4 139.372 37.4V41.4V45.4C142.32 45.4 145.123 45.014 147.377 43.8494L145.54 40.296ZM139.372 54.672V50.672C137.031 50.672 135.678 50.3375 134.986 49.9988L133.228 53.592L131.47 57.1852C133.722 58.2865 136.465 58.672 139.372 58.672V54.672ZM133.228 53.592L134.969 49.9909C134.644 49.8337 134.681 49.778 134.806 49.947C134.872 50.0361 134.939 50.1578 134.986 50.3031C135.033 50.4471 135.044 50.5668 135.044 50.64H131.044H127.044C127.044 53.8914 129.111 56.0443 131.487 57.1931L133.228 53.592ZM131.044 50.64H135.044C135.044 50.7132 135.033 50.8329 134.986 50.9769C134.939 51.1222 134.872 51.2439 134.806 51.333C134.681 51.502 134.644 51.4463 134.969 51.2891L133.228 47.688L131.487 44.0869C129.111 45.2357 127.044 47.3886 127.044 50.64H131.044ZM133.228 47.688L134.986 51.2812C135.678 50.9425 137.031 50.608 139.372 50.608V46.608V42.608C136.465 42.608 133.722 42.9935 131.47 44.0948L133.228 47.688ZM139.372 46.608V50.608C141.717 50.608 143.052 50.9438 143.719 51.2736L145.492 47.688L147.265 44.1024C145.02 42.9922 142.275 42.608 139.372 42.608V46.608ZM145.492 47.688L143.766 51.2965C144.103 51.4575 144.07 51.5171 143.945 51.3498C143.878 51.2609 143.809 51.1378 143.761 50.9891C143.712 50.8416 143.7 50.7177 143.7 50.64H147.7H151.7C151.7 47.3646 149.597 45.2174 147.218 44.0795L145.492 47.688ZM147.7 50.64H143.7C143.7 50.5623 143.712 50.4384 143.761 50.2909C143.809 50.1422 143.878 50.0191 143.945 49.9302C144.07 49.7629 144.103 49.8225 143.766 49.9835L145.492 53.592L147.218 57.2005C149.597 56.0626 151.7 53.9154 151.7 50.64H147.7ZM145.492 53.592L143.719 50.0064C143.052 50.3362 141.717 50.672 139.372 50.672V54.672V58.672C142.275 58.672 145.02 58.2878 147.265 57.1776L145.492 53.592ZM139.372 52.368V56.368C141.256 56.368 143.095 56.2152 144.621 55.7067L143.356 51.912L142.091 48.1173C141.793 48.2168 140.976 48.368 139.372 48.368V52.368ZM143.356 51.912L144.64 55.7003C145.364 55.4548 146.288 55.0512 147.091 54.3297C147.986 53.5256 148.772 52.2667 148.772 50.64H144.772H140.772C140.772 50.1516 140.887 49.6694 141.1 49.2397C141.305 48.8262 141.558 48.5464 141.745 48.3783C142.076 48.0808 142.292 48.0492 142.072 48.1237L143.356 51.912ZM144.772 50.64H148.772C148.772 49.0133 147.986 47.7544 147.091 46.9503C146.288 46.2288 145.364 45.8252 144.64 45.5797L143.356 49.368L142.072 53.1563C142.292 53.2308 142.076 53.1992 141.745 52.9017C141.558 52.7336 141.305 52.4538 141.1 52.0403C140.887 51.6106 140.772 51.1284 140.772 50.64H144.772ZM143.356 49.368L144.621 45.5733C143.095 45.0648 141.256 44.912 139.372 44.912V48.912V52.912C140.976 52.912 141.793 53.0632 142.091 53.1627L143.356 49.368ZM139.372 48.912V44.912C137.494 44.912 135.65 45.0633 134.127 45.5801L135.412 49.368L136.697 53.1559C136.966 53.0647 137.762 52.912 139.372 52.912V48.912ZM135.412 49.368L134.204 45.5546C133.464 45.7891 132.513 46.184 131.684 46.9161C130.752 47.7395 129.972 49.0152 129.972 50.64H133.972H137.972C137.972 51.116 137.861 51.5962 137.646 52.0315C137.437 52.4517 137.177 52.7376 136.98 52.9119C136.631 53.22 136.4 53.2509 136.62 53.1814L135.412 49.368ZM133.972 50.64H129.972C129.972 52.2648 130.752 53.5405 131.684 54.3639C132.513 55.096 133.464 55.4909 134.204 55.7254L135.412 51.912L136.62 48.0986C136.4 48.0291 136.631 48.06 136.98 48.3681C137.177 48.5424 137.437 48.8283 137.646 49.2485C137.861 49.6838 137.972 50.164 137.972 50.64H133.972ZM135.412 51.912L134.127 55.6999C135.65 56.2167 137.494 56.368 139.372 56.368V52.368V48.368C137.762 48.368 136.966 48.2153 136.697 48.1241L135.412 51.912ZM148.828 42.792H144.828V45.096H148.828H152.828V42.792H148.828ZM148.828 45.096V41.096H129.916V45.096V49.096H148.828V45.096ZM129.916 45.096H133.916V42.792H129.916H125.916V45.096H129.916ZM129.916 42.792V46.792H148.828V42.792V38.792H129.916V42.792ZM139.372 39.096V43.096C141.299 43.096 143.239 42.921 144.843 42.291L143.38 38.568L141.917 34.845C141.729 34.919 140.997 35.096 139.372 35.096V39.096ZM143.38 38.568L144.742 42.3291C146.127 41.8274 148.772 40.3887 148.772 37.152H144.772H140.772C140.772 36.7802 140.846 36.3847 141.01 36.0035C141.171 35.6288 141.383 35.3493 141.572 35.1578C141.913 34.8102 142.173 34.751 142.018 34.8069L143.38 38.568ZM144.772 37.152H148.772C148.772 33.9485 146.171 32.4926 144.799 31.972L143.38 35.712L141.961 39.452C142.12 39.5122 141.875 39.4543 141.548 39.1161C141.368 38.9298 141.162 38.6565 141.006 38.2891C140.846 37.915 140.772 37.5238 140.772 37.152H144.772ZM143.38 35.712L144.742 31.9509C143.164 31.3797 141.281 31.208 139.372 31.208V35.208V39.208C140.951 39.208 141.74 39.3723 142.018 39.4731L143.38 35.712ZM139.372 35.208V31.208C137.479 31.208 135.621 31.3831 134.047 31.9436L135.388 35.712L136.729 39.4804C137.043 39.3689 137.841 39.208 139.372 39.208V35.208ZM135.388 35.712L133.935 31.9852C132.656 32.4838 129.972 33.9196 129.972 37.152H133.972H137.972C137.972 37.5528 137.888 37.9613 137.721 38.3409C137.558 38.7111 137.35 38.9782 137.178 39.1526C136.87 39.4663 136.654 39.5118 136.841 39.4388L135.388 35.712ZM133.972 37.152H129.972C129.972 40.4277 132.682 41.8507 134.047 42.3364L135.388 38.568L136.729 34.7996C136.561 34.7397 136.814 34.7928 137.154 35.1336C137.343 35.3221 137.56 35.6015 137.726 35.9806C137.895 36.367 137.972 36.7706 137.972 37.152H133.972ZM135.388 38.568L133.925 42.291C135.526 42.9199 137.456 43.096 139.372 43.096V39.096V35.096C137.768 35.096 137.042 34.9201 136.851 34.845L135.388 38.568ZM163.354 39.192V35.192C161.776 35.192 160.345 36.1201 159.701 37.5614L163.354 39.192ZM161.218 41.328L163.007 44.9057C163.022 44.8983 163.036 44.8908 163.051 44.8832L161.218 41.328ZM154.258 41.496L152.675 45.1693C152.682 45.1726 152.69 45.1758 152.697 45.179L154.258 41.496ZM152.122 39.864L148.877 42.2032L152.122 39.864ZM152.122 35.208L148.877 32.8688V32.8688L152.122 35.208ZM154.258 33.576L152.697 29.893C152.69 29.8962 152.682 29.8994 152.675 29.9027L154.258 33.576ZM161.722 34.056L159.537 37.4064C159.556 37.4186 159.574 37.4307 159.593 37.4425L161.722 34.056ZM163.666 36.888L159.709 37.4761C160.001 39.4366 161.684 40.888 163.666 40.888V36.888ZM166.354 36.888V40.888C168.563 40.888 170.354 39.0971 170.354 36.888H166.354ZM166.354 33.144V29.144C164.145 29.144 162.354 30.9349 162.354 33.144H166.354ZM169.282 33.144H173.282C173.282 30.9349 171.491 29.144 169.282 29.144V33.144ZM169.282 49.056V53.056C171.491 53.056 173.282 51.2651 173.282 49.056H169.282ZM166.354 49.056H162.354C162.354 51.2651 164.145 53.056 166.354 53.056V49.056ZM166.354 39.192H170.354C170.354 36.9829 168.563 35.192 166.354 35.192V39.192ZM156.106 48.36V52.36C158.315 52.36 160.106 50.5691 160.106 48.36H156.106ZM156.106 45.456H160.106C160.106 43.2469 158.315 41.456 156.106 41.456V45.456ZM150.586 45.456H146.586C146.586 47.6651 148.377 49.456 150.586 49.456V45.456ZM150.586 43.2V39.2C148.377 39.2 146.586 40.9909 146.586 43.2H150.586ZM165.106 43.2H169.106C169.106 40.9909 167.315 39.2 165.106 39.2V43.2ZM165.106 45.456V49.456C167.315 49.456 169.106 47.6651 169.106 45.456H165.106ZM159.034 45.456V41.456C156.825 41.456 155.034 43.2469 155.034 45.456H159.034ZM159.034 48.864V52.864C161.243 52.864 163.034 51.0731 163.034 48.864H159.034ZM156.25 48.864V44.864C154.041 44.864 152.25 46.6549 152.25 48.864H156.25ZM156.25 51.936H152.25C152.25 54.1451 154.041 55.936 156.25 55.936V51.936ZM169.498 51.936H173.498C173.498 49.7269 171.707 47.936 169.498 47.936V51.936ZM169.498 54.288V58.288C171.707 58.288 173.498 56.4971 173.498 54.288H169.498ZM153.322 54.288H149.322C149.322 56.4971 151.113 58.288 153.322 58.288V54.288ZM153.322 48.36V44.36C151.113 44.36 149.322 46.1509 149.322 48.36H153.322ZM159.898 39.168L162.137 42.4824C162.158 42.4687 162.178 42.4548 162.198 42.4408L159.898 39.168ZM159.898 35.928L157.598 39.2008C157.618 39.2148 157.638 39.2287 157.659 39.2424L159.898 35.928ZM155.194 35.928L157.433 39.2424C157.454 39.2287 157.474 39.2148 157.494 39.2008L155.194 35.928ZM155.194 39.168L152.894 42.4408C152.914 42.4548 152.934 42.4687 152.955 42.4824L155.194 39.168ZM163.354 39.192L159.701 37.5614C159.701 37.5616 159.702 37.5605 159.703 37.5587C159.704 37.5569 159.705 37.5553 159.706 37.5544C159.707 37.5516 159.705 37.5566 159.692 37.5696C159.666 37.5947 159.582 37.6714 159.385 37.7728L161.218 41.328L163.051 44.8832C164.736 44.0146 166.174 42.6873 167.007 40.8226L163.354 39.192ZM161.218 41.328L159.429 37.7503C159.079 37.9252 158.497 38.096 157.546 38.096V42.096V46.096C159.443 46.096 161.309 45.7548 163.007 44.9057L161.218 41.328ZM157.546 42.096V38.096C156.721 38.096 156.174 37.9636 155.819 37.813L154.258 41.496L152.697 45.179C154.23 45.8284 155.875 46.096 157.546 46.096V42.096ZM154.258 41.496L155.841 37.8227C155.641 37.7362 155.521 37.6592 155.456 37.6096C155.395 37.5623 155.373 37.533 155.367 37.5248L152.122 39.864L148.877 42.2032C149.871 43.5815 151.21 44.5382 152.675 45.1693L154.258 41.496ZM152.122 39.864L155.367 37.5248C155.359 37.5144 155.359 37.5127 155.362 37.5193C155.364 37.5224 155.366 37.5266 155.368 37.5318C155.37 37.5371 155.372 37.5427 155.374 37.5483C155.376 37.554 155.377 37.5589 155.378 37.5629C155.379 37.5668 155.379 37.5691 155.38 37.5694C155.38 37.5704 155.378 37.5601 155.378 37.536H151.378H147.378C147.378 39.2229 147.88 40.8205 148.877 42.2032L152.122 39.864ZM151.378 37.536H155.378C155.378 37.5119 155.38 37.5016 155.38 37.5026C155.379 37.5029 155.379 37.5052 155.378 37.5091C155.377 37.5131 155.376 37.518 155.374 37.5237C155.372 37.5293 155.37 37.5349 155.368 37.5401C155.366 37.5454 155.364 37.5496 155.362 37.5527C155.359 37.5593 155.359 37.5576 155.367 37.5472L152.122 35.208L148.877 32.8688C147.88 34.2515 147.378 35.8491 147.378 37.536H151.378ZM152.122 35.208L155.367 37.5472C155.373 37.539 155.395 37.5097 155.456 37.4624C155.521 37.4128 155.641 37.3358 155.841 37.2493L154.258 33.576L152.675 29.9027C151.21 30.5338 149.871 31.4905 148.877 32.8688L152.122 35.208ZM154.258 33.576L155.819 37.259C156.174 37.1084 156.721 36.976 157.546 36.976V32.976V28.976C155.875 28.976 154.23 29.2436 152.697 29.893L154.258 33.576ZM157.546 32.976V36.976C158.662 36.976 159.24 37.2128 159.537 37.4064L161.722 34.056L163.907 30.7056C161.996 29.4592 159.79 28.976 157.546 28.976V32.976ZM161.722 34.056L159.593 37.4425C159.68 37.4967 159.726 37.5363 159.746 37.555C159.765 37.5727 159.762 37.5736 159.75 37.5557C159.737 37.5372 159.725 37.5133 159.715 37.4894C159.706 37.466 159.707 37.4587 159.709 37.4761L163.666 36.888L167.623 36.2999C167.256 33.831 165.842 31.9213 163.851 30.6695L161.722 34.056ZM163.666 36.888V40.888H166.354V36.888V32.888H163.666V36.888ZM166.354 36.888H170.354V33.144H166.354H162.354V36.888H166.354ZM166.354 33.144V37.144H169.282V33.144V29.144H166.354V33.144ZM169.282 33.144H165.282V49.056H169.282H173.282V33.144H169.282ZM169.282 49.056V45.056H166.354V49.056V53.056H169.282V49.056ZM166.354 49.056H170.354V39.192H166.354H162.354V49.056H166.354ZM166.354 39.192V35.192H163.354V39.192V43.192H166.354V39.192ZM156.106 48.36H160.106V45.456H156.106H152.106V48.36H156.106ZM156.106 45.456V41.456H150.586V45.456V49.456H156.106V45.456ZM150.586 45.456H154.586V43.2H150.586H146.586V45.456H150.586ZM150.586 43.2V47.2H165.106V43.2V39.2H150.586V43.2ZM165.106 43.2H161.106V45.456H165.106H169.106V43.2H165.106ZM165.106 45.456V41.456H159.034V45.456V49.456H165.106V45.456ZM159.034 45.456H155.034V48.864H159.034H163.034V45.456H159.034ZM159.034 48.864V44.864H156.25V48.864V52.864H159.034V48.864ZM156.25 48.864H152.25V51.936H156.25H160.25V48.864H156.25ZM156.25 51.936V55.936H169.498V51.936V47.936H156.25V51.936ZM169.498 51.936H165.498V54.288H169.498H173.498V51.936H169.498ZM169.498 54.288V50.288H153.322V54.288V58.288H169.498V54.288ZM153.322 54.288H157.322V48.36H153.322H149.322V54.288H153.322ZM153.322 48.36V52.36H156.106V48.36V44.36H153.322V48.36ZM157.546 39.768V43.768C159.036 43.768 160.682 43.4655 162.137 42.4824L159.898 39.168L157.659 35.8536C157.791 35.7642 157.882 35.741 157.877 35.7421C157.867 35.7448 157.767 35.768 157.546 35.768V39.768ZM159.898 39.168L162.198 42.4408C163.76 41.3433 164.786 39.6239 164.786 37.536H160.786H156.786C156.786 37.2624 156.852 36.9 157.05 36.5362C157.243 36.1831 157.475 35.9819 157.598 35.8952L159.898 39.168ZM160.786 37.536H164.786C164.786 35.4386 163.748 33.7016 162.137 32.6136L159.898 35.928L157.659 39.2424C157.518 39.1474 157.267 38.9347 157.062 38.5637C156.852 38.1832 156.786 37.8088 156.786 37.536H160.786ZM159.898 35.928L162.198 32.6552C160.733 31.6263 159.063 31.304 157.546 31.304V35.304V39.304C157.649 39.304 157.723 39.3095 157.773 39.3154C157.822 39.3212 157.843 39.3269 157.84 39.3262C157.837 39.3255 157.81 39.318 157.766 39.2979C157.721 39.2775 157.663 39.2462 157.598 39.2008L159.898 35.928ZM157.546 35.304V31.304C156.029 31.304 154.359 31.6263 152.894 32.6552L155.194 35.928L157.494 39.2008C157.429 39.2462 157.371 39.2775 157.326 39.2979C157.282 39.318 157.255 39.3255 157.252 39.3262C157.249 39.3269 157.27 39.3212 157.319 39.3154C157.369 39.3095 157.443 39.304 157.546 39.304V35.304ZM155.194 35.928L152.955 32.6136C151.344 33.7016 150.306 35.4386 150.306 37.536H154.306H158.306C158.306 37.8088 158.24 38.1832 158.03 38.5637C157.825 38.9347 157.574 39.1474 157.433 39.2424L155.194 35.928ZM154.306 37.536H150.306C150.306 39.6239 151.332 41.3433 152.894 42.4408L155.194 39.168L157.494 35.8952C157.617 35.9819 157.849 36.1831 158.042 36.5362C158.24 36.9 158.306 37.2624 158.306 37.536H154.306ZM155.194 39.168L152.955 42.4824C154.41 43.4655 156.056 43.768 157.546 43.768V39.768V35.768C157.325 35.768 157.225 35.7448 157.215 35.7421C157.21 35.741 157.301 35.7642 157.433 35.8536L155.194 39.168ZM184.048 33.624H188.048C188.048 31.4149 186.257 29.624 184.048 29.624V33.624ZM184.048 35.976V39.976C186.257 39.976 188.048 38.1851 188.048 35.976H184.048ZM175.936 35.976V31.976C173.727 31.976 171.936 33.7669 171.936 35.976H175.936ZM175.936 41.808H171.936C171.936 44.0171 173.727 45.808 175.936 45.808V41.808ZM184.528 41.808H188.528C188.528 39.5989 186.737 37.808 184.528 37.808V41.808ZM184.528 44.16V48.16C186.737 48.16 188.528 46.3691 188.528 44.16H184.528ZM173.008 44.16H169.008C169.008 46.3691 170.799 48.16 173.008 48.16V44.16ZM173.008 33.624V29.624C170.799 29.624 169.008 31.4149 169.008 33.624H173.008ZM174.712 46.632V42.632C172.503 42.632 170.712 44.4229 170.712 46.632H174.712ZM177.64 46.632H181.64C181.64 44.4229 179.849 42.632 177.64 42.632V46.632ZM177.64 51.936H173.64C173.64 54.1451 175.431 55.936 177.64 55.936V51.936ZM190.168 51.936H194.168C194.168 49.7269 192.377 47.936 190.168 47.936V51.936ZM190.168 54.288V58.288C192.377 58.288 194.168 56.4971 194.168 54.288H190.168ZM174.712 54.288H170.712C170.712 56.4971 172.503 58.288 174.712 58.288V54.288ZM186.904 33.144V29.144C184.695 29.144 182.904 30.9349 182.904 33.144H186.904ZM189.832 33.144H193.832C193.832 30.9349 192.041 29.144 189.832 29.144V33.144ZM189.832 37.704H185.832C185.832 39.9131 187.623 41.704 189.832 41.704V37.704ZM192.376 37.704H196.376C196.376 35.4949 194.585 33.704 192.376 33.704V37.704ZM192.376 40.104V44.104C194.585 44.104 196.376 42.3131 196.376 40.104H192.376ZM189.832 40.104V36.104C187.623 36.104 185.832 37.8949 185.832 40.104H189.832ZM189.832 48.36V52.36C192.041 52.36 193.832 50.5691 193.832 48.36H189.832ZM186.904 48.36H182.904C182.904 50.5691 184.695 52.36 186.904 52.36V48.36ZM184.048 33.624H180.048V35.976H184.048H188.048V33.624H184.048ZM184.048 35.976V31.976H175.936V35.976V39.976H184.048V35.976ZM175.936 35.976H171.936V41.808H175.936H179.936V35.976H175.936ZM175.936 41.808V45.808H184.528V41.808V37.808H175.936V41.808ZM184.528 41.808H180.528V44.16H184.528H188.528V41.808H184.528ZM184.528 44.16V40.16H173.008V44.16V48.16H184.528V44.16ZM173.008 44.16H177.008V33.624H173.008H169.008V44.16H173.008ZM173.008 33.624V37.624H184.048V33.624V29.624H173.008V33.624ZM174.712 46.632V50.632H177.64V46.632V42.632H174.712V46.632ZM177.64 46.632H173.64V51.936H177.64H181.64V46.632H177.64ZM177.64 51.936V55.936H190.168V51.936V47.936H177.64V51.936ZM190.168 51.936H186.168V54.288H190.168H194.168V51.936H190.168ZM190.168 54.288V50.288H174.712V54.288V58.288H190.168V54.288ZM174.712 54.288H178.712V46.632H174.712H170.712V54.288H174.712ZM186.904 33.144V37.144H189.832V33.144V29.144H186.904V33.144ZM189.832 33.144H185.832V37.704H189.832H193.832V33.144H189.832ZM189.832 37.704V41.704H192.376V37.704V33.704H189.832V37.704ZM192.376 37.704H188.376V40.104H192.376H196.376V37.704H192.376ZM192.376 40.104V36.104H189.832V40.104V44.104H192.376V40.104ZM189.832 40.104H185.832V48.36H189.832H193.832V40.104H189.832ZM189.832 48.36V44.36H186.904V48.36V52.36H189.832V48.36ZM186.904 48.36H190.904V33.144H186.904H182.904V48.36H186.904Z" fill="#2B2B2B" mask="url(#path-2-outside-1_1675_4806)"/>
<mask id="path-4-outside-2_1675_4806" maskUnits="userSpaceOnUse" x="199" y="2" width="108" height="53" fill="black">
<rect fill="white" x="199" y="2" width="108" height="53"/>
<path d="M203.879 16.648L219.095 11.464V6.904H228.503V11.464L243.719 16.648L241.127 23.464L223.799 17.752L206.471 23.464L203.879 16.648ZM223.799 50.68C217.687 50.68 212.999 49.976 209.735 48.568C206.567 47.192 204.983 45.128 204.983 42.376C204.983 39.624 206.567 37.56 209.735 36.184C212.807 34.808 217.495 34.12 223.799 34.12C230.103 34.12 234.791 34.808 237.863 36.184C241.031 37.56 242.615 39.624 242.615 42.376C242.615 45.128 241.031 47.192 237.863 48.568C234.599 49.976 229.911 50.68 223.799 50.68ZM223.799 43.96C230.071 43.96 233.207 43.432 233.207 42.376C233.207 41.128 230.071 40.504 223.799 40.504C217.527 40.504 214.391 41.128 214.391 42.376C214.391 43.432 217.527 43.96 223.799 43.96ZM203.255 25.048H244.343V31.864H203.255V25.048ZM248.204 22.552H262.94V16.024H247.964V8.392H272.348V30.088H259.916L258.044 25.096H257.612V36.52H275.132V44.248H248.204V22.552ZM278.108 7.288H287.516V50.536H278.108V7.288ZM292.432 8.968H302.464L301.984 34.168H292.912L292.432 8.968ZM297.52 47.464C296.176 47.464 295.04 47 294.112 46.072C293.184 45.176 292.72 44.072 292.72 42.76C292.72 41.448 293.184 40.344 294.112 39.448C295.04 38.552 296.176 38.104 297.52 38.104C298.832 38.104 299.936 38.552 300.832 39.448C301.728 40.344 302.176 41.448 302.176 42.76C302.176 44.072 301.728 45.176 300.832 46.072C299.936 47 298.832 47.464 297.52 47.464Z"/>
</mask>
<path d="M203.879 16.648L219.095 11.464V6.904H228.503V11.464L243.719 16.648L241.127 23.464L223.799 17.752L206.471 23.464L203.879 16.648ZM223.799 50.68C217.687 50.68 212.999 49.976 209.735 48.568C206.567 47.192 204.983 45.128 204.983 42.376C204.983 39.624 206.567 37.56 209.735 36.184C212.807 34.808 217.495 34.12 223.799 34.12C230.103 34.12 234.791 34.808 237.863 36.184C241.031 37.56 242.615 39.624 242.615 42.376C242.615 45.128 241.031 47.192 237.863 48.568C234.599 49.976 229.911 50.68 223.799 50.68ZM223.799 43.96C230.071 43.96 233.207 43.432 233.207 42.376C233.207 41.128 230.071 40.504 223.799 40.504C217.527 40.504 214.391 41.128 214.391 42.376C214.391 43.432 217.527 43.96 223.799 43.96ZM203.255 25.048H244.343V31.864H203.255V25.048ZM248.204 22.552H262.94V16.024H247.964V8.392H272.348V30.088H259.916L258.044 25.096H257.612V36.52H275.132V44.248H248.204V22.552ZM278.108 7.288H287.516V50.536H278.108V7.288ZM292.432 8.968H302.464L301.984 34.168H292.912L292.432 8.968ZM297.52 47.464C296.176 47.464 295.04 47 294.112 46.072C293.184 45.176 292.72 44.072 292.72 42.76C292.72 41.448 293.184 40.344 294.112 39.448C295.04 38.552 296.176 38.104 297.52 38.104C298.832 38.104 299.936 38.552 300.832 39.448C301.728 40.344 302.176 41.448 302.176 42.76C302.176 44.072 301.728 45.176 300.832 46.072C299.936 47 298.832 47.464 297.52 47.464Z" fill="white"/>
<path d="M203.879 16.648L202.589 12.8617C201.562 13.2117 200.721 13.9639 200.259 14.946C199.797 15.928 199.755 17.0555 200.14 18.0698L203.879 16.648ZM219.095 11.464L220.385 15.2503C222.006 14.6982 223.095 13.176 223.095 11.464H219.095ZM219.095 6.904V2.904C216.886 2.904 215.095 4.69486 215.095 6.904H219.095ZM228.503 6.904H232.503C232.503 4.69486 230.712 2.904 228.503 2.904V6.904ZM228.503 11.464H224.503C224.503 13.176 225.593 14.6982 227.213 15.2503L228.503 11.464ZM243.719 16.648L247.458 18.0698C247.844 17.0555 247.801 15.928 247.339 14.946C246.877 13.9639 246.036 13.2117 245.009 12.8617L243.719 16.648ZM241.127 23.464L239.875 27.2629C241.906 27.9326 244.105 26.8853 244.866 24.8858L241.127 23.464ZM223.799 17.752L225.051 13.9531C224.238 13.685 223.36 13.685 222.547 13.9531L223.799 17.752ZM206.471 23.464L202.732 24.8858C203.493 26.8853 205.692 27.9326 207.723 27.2629L206.471 23.464ZM209.735 48.568L208.142 52.2369L208.151 52.2408L209.735 48.568ZM209.735 36.184L211.329 39.8529C211.343 39.8468 211.356 39.8407 211.37 39.8345L209.735 36.184ZM237.863 36.184L236.228 39.8345C236.242 39.8407 236.256 39.8468 236.27 39.8529L237.863 36.184ZM237.863 48.568L239.447 52.2409L239.457 52.2369L237.863 48.568ZM203.255 25.048V21.048C201.046 21.048 199.255 22.8389 199.255 25.048H203.255ZM244.343 25.048H248.343C248.343 22.8389 246.552 21.048 244.343 21.048V25.048ZM244.343 31.864V35.864C246.552 35.864 248.343 34.0731 248.343 31.864H244.343ZM203.255 31.864H199.255C199.255 34.0731 201.046 35.864 203.255 35.864V31.864ZM203.879 16.648L205.169 20.4343L220.385 15.2503L219.095 11.464L217.805 7.67771L202.589 12.8617L203.879 16.648ZM219.095 11.464H223.095V6.904H219.095H215.095V11.464H219.095ZM219.095 6.904V10.904H228.503V6.904V2.904H219.095V6.904ZM228.503 6.904H224.503V11.464H228.503H232.503V6.904H228.503ZM228.503 11.464L227.213 15.2503L242.429 20.4343L243.719 16.648L245.009 12.8617L229.793 7.67771L228.503 11.464ZM243.719 16.648L239.98 15.2262L237.388 22.0422L241.127 23.464L244.866 24.8858L247.458 18.0698L243.719 16.648ZM241.127 23.464L242.379 19.6651L225.051 13.9531L223.799 17.752L222.547 21.5509L239.875 27.2629L241.127 23.464ZM223.799 17.752L222.547 13.9531L205.219 19.6651L206.471 23.464L207.723 27.2629L225.051 21.5509L223.799 17.752ZM206.471 23.464L210.21 22.0422L207.618 15.2262L203.879 16.648L200.14 18.0698L202.732 24.8858L206.471 23.464ZM223.799 50.68V46.68C217.896 46.68 213.846 45.9852 211.319 44.8952L209.735 48.568L208.151 52.2408C212.152 53.9668 217.478 54.68 223.799 54.68V50.68ZM209.735 48.568L211.329 44.8991C210.171 44.3961 209.609 43.8983 209.344 43.5527C209.121 43.2613 208.983 42.9258 208.983 42.376H204.983H200.983C200.983 44.5782 201.637 46.6507 202.998 48.4233C204.317 50.1417 206.132 51.3639 208.142 52.2369L209.735 48.568ZM204.983 42.376H208.983C208.983 41.8262 209.121 41.4907 209.344 41.1993C209.609 40.8537 210.171 40.3559 211.329 39.8529L209.735 36.184L208.142 32.5151C206.132 33.3881 204.317 34.6103 202.998 36.3287C201.637 38.1013 200.983 40.1738 200.983 42.376H204.983ZM209.735 36.184L211.37 39.8345C213.654 38.8114 217.652 38.12 223.799 38.12V34.12V30.12C217.339 30.12 211.96 30.8046 208.1 32.5335L209.735 36.184ZM223.799 34.12V38.12C229.947 38.12 233.944 38.8114 236.228 39.8345L237.863 36.184L239.498 32.5335C235.638 30.8046 230.26 30.12 223.799 30.12V34.12ZM237.863 36.184L236.27 39.8529C237.428 40.3559 237.989 40.8537 238.254 41.1993C238.477 41.4907 238.615 41.8262 238.615 42.376H242.615H246.615C246.615 40.1738 245.961 38.1013 244.6 36.3287C243.281 34.6103 241.467 33.3881 239.457 32.5151L237.863 36.184ZM242.615 42.376H238.615C238.615 42.9258 238.477 43.2613 238.254 43.5527C237.989 43.8983 237.428 44.3961 236.27 44.8991L237.863 48.568L239.457 52.2369C241.467 51.3639 243.281 50.1417 244.6 48.4233C245.961 46.6507 246.615 44.5782 246.615 42.376H242.615ZM237.863 48.568L236.279 44.8952C233.752 45.9852 229.702 46.68 223.799 46.68V50.68V54.68C230.12 54.68 235.446 53.9668 239.447 52.2408L237.863 48.568ZM223.799 43.96V47.96C226.987 47.96 229.611 47.8297 231.519 47.5085C232.434 47.3545 233.492 47.1095 234.422 46.6394C235.21 46.2416 237.207 44.9804 237.207 42.376H233.207H229.207C229.207 40.2996 230.812 39.5004 230.816 39.4986C230.962 39.4245 230.844 39.5095 230.191 39.6195C228.963 39.8263 226.883 39.96 223.799 39.96V43.96ZM233.207 42.376H237.207C237.207 40.0658 235.659 38.7132 234.669 38.1224C233.696 37.5415 232.584 37.2376 231.636 37.0489C229.67 36.6577 226.998 36.504 223.799 36.504V40.504V44.504C226.872 44.504 228.904 44.6623 230.074 44.8951C230.694 45.0184 230.758 45.1045 230.569 44.9916C230.363 44.8688 229.207 44.0622 229.207 42.376H233.207ZM223.799 40.504V36.504C220.6 36.504 217.928 36.6577 215.962 37.0489C215.014 37.2376 213.902 37.5415 212.929 38.1224C211.939 38.7132 210.391 40.0658 210.391 42.376H214.391H218.391C218.391 44.0622 217.235 44.8688 217.029 44.9916C216.84 45.1045 216.904 45.0184 217.524 44.8951C218.694 44.6623 220.726 44.504 223.799 44.504V40.504ZM214.391 42.376H210.391C210.391 44.9804 212.388 46.2416 213.176 46.6394C214.106 47.1095 215.164 47.3545 216.079 47.5085C217.987 47.8297 220.611 47.96 223.799 47.96V43.96V39.96C220.715 39.96 218.635 39.8263 217.407 39.6195C216.754 39.5095 216.636 39.4245 216.782 39.4986C216.786 39.5004 218.391 40.2996 218.391 42.376H214.391ZM203.255 25.048V29.048H244.343V25.048V21.048H203.255V25.048ZM244.343 25.048H240.343V31.864H244.343H248.343V25.048H244.343ZM244.343 31.864V27.864H203.255V31.864V35.864H244.343V31.864ZM203.255 31.864H207.255V25.048H203.255H199.255V31.864H203.255ZM248.204 22.552V18.552C245.995 18.552 244.204 20.3429 244.204 22.552H248.204ZM262.94 22.552V26.552C265.149 26.552 266.94 24.7611 266.94 22.552H262.94ZM262.94 16.024H266.94C266.94 13.8149 265.149 12.024 262.94 12.024V16.024ZM247.964 16.024H243.964C243.964 18.2331 245.755 20.024 247.964 20.024V16.024ZM247.964 8.392V4.392C245.755 4.392 243.964 6.18286 243.964 8.392H247.964ZM272.348 8.392H276.348C276.348 6.18286 274.557 4.392 272.348 4.392V8.392ZM272.348 30.088V34.088C274.557 34.088 276.348 32.2971 276.348 30.088H272.348ZM259.916 30.088L256.17 31.4925C256.756 33.0537 258.248 34.088 259.916 34.088V30.088ZM258.044 25.096L261.789 23.6915C261.204 22.1303 259.711 21.096 258.044 21.096V25.096ZM257.612 25.096V21.096C255.403 21.096 253.612 22.8869 253.612 25.096H257.612ZM257.612 36.52H253.612C253.612 38.7291 255.403 40.52 257.612 40.52V36.52ZM275.132 36.52H279.132C279.132 34.3109 277.341 32.52 275.132 32.52V36.52ZM275.132 44.248V48.248C277.341 48.248 279.132 46.4571 279.132 44.248H275.132ZM248.204 44.248H244.204C244.204 46.4571 245.995 48.248 248.204 48.248V44.248ZM278.108 7.288V3.288C275.899 3.288 274.108 5.07886 274.108 7.288H278.108ZM287.516 7.288H291.516C291.516 5.07886 289.725 3.288 287.516 3.288V7.288ZM287.516 50.536V54.536C289.725 54.536 291.516 52.7451 291.516 50.536H287.516ZM278.108 50.536H274.108C274.108 52.7451 275.899 54.536 278.108 54.536V50.536ZM248.204 22.552V26.552H262.94V22.552V18.552H248.204V22.552ZM262.94 22.552H266.94V16.024H262.94H258.94V22.552H262.94ZM262.94 16.024V12.024H247.964V16.024V20.024H262.94V16.024ZM247.964 16.024H251.964V8.392H247.964H243.964V16.024H247.964ZM247.964 8.392V12.392H272.348V8.392V4.392H247.964V8.392ZM272.348 8.392H268.348V30.088H272.348H276.348V8.392H272.348ZM272.348 30.088V26.088H259.916V30.088V34.088H272.348V30.088ZM259.916 30.088L263.661 28.6835L261.789 23.6915L258.044 25.096L254.298 26.5005L256.17 31.4925L259.916 30.088ZM258.044 25.096V21.096H257.612V25.096V29.096H258.044V25.096ZM257.612 25.096H253.612V36.52H257.612H261.612V25.096H257.612ZM257.612 36.52V40.52H275.132V36.52V32.52H257.612V36.52ZM275.132 36.52H271.132V44.248H275.132H279.132V36.52H275.132ZM275.132 44.248V40.248H248.204V44.248V48.248H275.132V44.248ZM248.204 44.248H252.204V22.552H248.204H244.204V44.248H248.204ZM278.108 7.288V11.288H287.516V7.288V3.288H278.108V7.288ZM287.516 7.288H283.516V50.536H287.516H291.516V7.288H287.516ZM287.516 50.536V46.536H278.108V50.536V54.536H287.516V50.536ZM278.108 50.536H282.108V7.288H278.108H274.108V50.536H278.108ZM292.432 8.968V4.968C291.358 4.968 290.329 5.39995 289.577 6.16663C288.825 6.93331 288.413 7.9703 288.433 9.04417L292.432 8.968ZM302.464 8.968L306.464 9.04417C306.484 7.9703 306.072 6.93331 305.32 6.16663C304.567 5.39995 303.538 4.968 302.464 4.968V8.968ZM301.984 34.168V38.168C304.164 38.168 305.942 36.4232 305.984 34.2442L301.984 34.168ZM292.912 34.168L288.913 34.2442C288.955 36.4232 290.733 38.168 292.912 38.168V34.168ZM294.112 46.072L296.941 43.2436C296.924 43.227 296.908 43.2106 296.891 43.1944L294.112 46.072ZM294.112 39.448L296.891 42.3256L294.112 39.448ZM300.832 39.448L303.661 36.6196L300.832 39.448ZM300.832 46.072L298.004 43.2436C297.987 43.2601 297.971 43.2768 297.955 43.2936L300.832 46.072ZM292.432 8.968V12.968H302.464V8.968V4.968H292.432V8.968ZM302.464 8.968L298.465 8.89182L297.985 34.0918L301.984 34.168L305.984 34.2442L306.464 9.04417L302.464 8.968ZM301.984 34.168V30.168H292.912V34.168V38.168H301.984V34.168ZM292.912 34.168L296.912 34.0918L296.432 8.89182L292.432 8.968L288.433 9.04417L288.913 34.2442L292.912 34.168ZM297.52 47.464V43.464C297.209 43.464 297.099 43.4014 296.941 43.2436L294.112 46.072L291.284 48.9004C292.982 50.5986 295.144 51.464 297.52 51.464V47.464ZM294.112 46.072L296.891 43.1944C296.786 43.0934 296.762 43.037 296.756 43.0222C296.749 43.0059 296.72 42.9349 296.72 42.76H292.72H288.72C288.72 45.1363 289.61 47.2854 291.334 48.9496L294.112 46.072ZM292.72 42.76H296.72C296.72 42.5851 296.749 42.5141 296.756 42.4978C296.762 42.483 296.786 42.4266 296.891 42.3256L294.112 39.448L291.334 36.5704C289.61 38.2346 288.72 40.3837 288.72 42.76H292.72ZM294.112 39.448L296.891 42.3256C297.039 42.1824 297.165 42.104 297.52 42.104V38.104V34.104C295.188 34.104 293.042 34.9216 291.334 36.5704L294.112 39.448ZM297.52 38.104V42.104C297.713 42.104 297.8 42.1351 297.828 42.1465C297.854 42.1567 297.91 42.1823 298.004 42.2764L300.832 39.448L303.661 36.6196C301.985 34.9443 299.851 34.104 297.52 34.104V38.104ZM300.832 39.448L298.004 42.2764C298.098 42.3705 298.124 42.4268 298.134 42.4521C298.145 42.4801 298.176 42.5673 298.176 42.76H302.176H306.176C306.176 40.4291 305.336 38.2949 303.661 36.6196L300.832 39.448ZM302.176 42.76H298.176C298.176 42.9527 298.145 43.0399 298.134 43.0679C298.124 43.0932 298.098 43.1495 298.004 43.2436L300.832 46.072L303.661 48.9004C305.336 47.2251 306.176 45.0909 306.176 42.76H302.176ZM300.832 46.072L297.955 43.2936C297.854 43.3982 297.797 43.4222 297.782 43.4285C297.766 43.4353 297.695 43.464 297.52 43.464V47.464V51.464C299.897 51.464 302.046 50.574 303.71 48.8504L300.832 46.072Z" fill="#2B2B2B" mask="url(#path-4-outside-2_1675_4806)"/>
</g>
<defs>
<filter id="filter0_d_1675_4806" x="0" y="0" width="317" height="66.6719" filterUnits="userSpaceOnUse" color-interpolation-filters="sRGB">
<feFlood flood-opacity="0" result="BackgroundImageFix"/>
<feColorMatrix in="SourceAlpha" type="matrix" values="0 0 0 0 0 0 0 0 0 0 0 0 0 0 0 0 0 0 127 0" result="hardAlpha"/>
<feOffset dy="4"/>
<feGaussianBlur stdDeviation="2"/>
<feComposite in2="hardAlpha" operator="out"/>
<feColorMatrix type="matrix" values="0 0 0 0 0 0 0 0 0 0 0 0 0 0 0 0 0 0 0.25 0"/>
<feBlend mode="normal" in2="BackgroundImageFix" result="effect1_dropShadow_1675_4806"/>
<feBlend mode="normal" in="SourceGraphic" in2="effect1_dropShadow_1675_4806" result="shape"/>
</filter>
</defs>
</svg>
